<?xml version="1.0" encoding="iso-8859-1"?>
<!-- Generator: Adobe Illustrator 19.0.0, SVG Export Plug-In . SVG Version: 6.00 Build 0)  -->
<svg xmlns="http://www.w3.org/2000/svg" xmlns:xlink="http://www.w3.org/1999/xlink" version="1.1" id="Layer_1" x="0px" y="0px" viewBox="0 0 512 512" style="enable-background:new 0 0 512 512;" xml:space="preserve" width="512px" height="512px">
<g>
	<g>
		<path d="M369.526,120.449l13.381-19.111l55.042,38.54c2.048,1.435,4.394,2.122,6.718,2.122c3.697,0,7.337-1.744,9.618-5.003    c27.541-39.332,17.948-93.738-21.385-121.28c-39.333-27.539-93.738-17.946-121.28,21.386c-1.784,2.548-2.483,5.701-1.944,8.764    c0.541,3.064,2.276,5.787,4.823,7.572l49.189,34.442l-14.616,20.877c-24.74-12.353-52.253-19.945-81.336-21.563V54.057    c0-1.025-0.145-2.013-0.392-2.961c5.535-3.676,9.189-9.962,9.189-17.105c0-11.337-9.19-20.527-20.527-20.527    s-20.527,9.19-20.527,20.527c0,7.143,3.654,13.429,9.189,17.105c-0.246,0.948-0.392,1.937-0.392,2.961v33.139    c-29.089,1.617-56.604,9.211-81.347,21.568l-14.621-20.88l49.19-34.443c2.548-1.784,4.284-4.508,4.823-7.572    c0.541-3.064-0.158-6.217-1.944-8.764C172.838-2.228,118.432-11.821,79.1,15.719c-39.332,27.541-48.926,81.948-21.385,121.28    c1.784,2.548,4.508,4.284,7.572,4.823c0.677,0.12,1.358,0.178,2.036,0.178c2.391,0,4.742-0.731,6.728-2.121l55.042-38.54    l13.386,19.117c-57.444,37.297-95.522,102.01-95.522,175.455c0,72.436,37.038,136.377,93.165,173.902l-16.615,23.728    c-3.716,5.307-2.426,12.621,2.88,16.336c2.048,1.435,4.394,2.123,6.718,2.123c3.697,0,7.337-1.744,9.618-5.003l17.661-25.222    c28.672,14.811,61.187,23.186,95.623,23.186c34.432,0,66.943-8.373,95.613-23.182l17.657,25.218    c2.281,3.259,5.921,5.003,9.618,5.003c2.323,0,4.67-0.689,6.718-2.123c5.307-3.715,6.597-11.029,2.881-16.336l-16.61-23.722    c56.132-37.523,93.174-101.468,93.174-173.908C465.056,222.462,426.975,157.746,369.526,120.449z M338.454,41.574    c21.44-20.996,55.534-24.46,80.99-6.638c13.921,9.747,23.212,24.332,26.163,41.068c2.26,12.818,0.595,25.721-4.69,37.316    L338.454,41.574z M71.092,113.312c-12.397-27.328-3.99-60.552,21.464-78.376c11.083-7.76,23.8-11.485,36.401-11.485    c16.341,0,32.484,6.266,44.589,18.121L71.092,113.312z M256.007,481.502c-102.335,0-185.59-83.255-185.59-185.59    s83.255-185.59,185.59-185.59s185.59,83.255,185.59,185.59S358.342,481.502,256.007,481.502z" fill="#8F1622"/>
	</g>
</g>
<g>
	<g>
		<path d="M360.468,191.448c-4.58-4.582-12.008-4.582-16.587-0.001l-73.156,73.156c-4.469-2.109-9.457-3.295-14.717-3.295    c-5.263,0-10.253,1.186-14.723,3.297l-73.083-73.082c-0.025-0.025-0.045-0.053-0.07-0.077l-16.554-16.554    c-4.581-4.58-12.008-4.58-16.589,0c-4.58,4.58-4.58,12.008,0,16.589l16.49,16.49c0.021,0.021,0.039,0.045,0.06,0.066    l73.161,73.161c-2.109,4.468-3.294,9.455-3.294,14.715c0,19.08,15.523,34.603,34.603,34.603c19.08,0,34.603-15.523,34.603-34.603    c0-5.262-1.186-10.251-3.296-14.721l73.155-73.155C365.049,203.456,365.05,196.029,360.468,191.448z M256.007,307.054    c-6.144,0-11.143-4.999-11.143-11.143c0-6.144,4.999-11.143,11.143-11.143c6.144,0,11.143,4.999,11.143,11.143    C267.15,302.055,262.151,307.054,256.007,307.054z" fill="#8F1622"/>
	</g>
</g>
<g>
	<g>
		<path d="M256.007,124.764c-6.478,0-11.73,5.251-11.73,11.73v23.411c0,6.478,5.251,11.73,11.73,11.73s11.73-5.251,11.73-11.73    v-23.411C267.736,130.015,262.485,124.764,256.007,124.764z" fill="#8F1622"/>
	</g>
</g>
<g>
	<g>
		<path d="M256.007,420.187c-6.478,0-11.73,5.251-11.73,11.73v23.411c0,6.478,5.251,11.73,11.73,11.73s11.73-5.251,11.73-11.73    v-23.411C267.736,425.439,262.485,420.187,256.007,420.187z" fill="#8F1622"/>
	</g>
</g>
<g>
	<g>
		<path d="M120,284.181H96.59c-6.478,0-11.73,5.251-11.73,11.73s5.251,11.73,11.73,11.73h23.411c6.478,0,11.73-5.251,11.73-11.73    C131.73,289.433,126.478,284.181,120,284.181z" fill="#8F1622"/>
	</g>
</g>
<g>
	<g>
		<path d="M415.423,284.181h-23.41c-6.478,0-11.73,5.251-11.73,11.73s5.251,11.73,11.73,11.73h23.41    c6.478,0,11.73-5.251,11.73-11.73C427.153,289.433,421.902,284.181,415.423,284.181z" fill="#8F1622"/>
	</g>
</g>
<g>
</g>
<g>
</g>
<g>
</g>
<g>
</g>
<g>
</g>
<g>
</g>
<g>
</g>
<g>
</g>
<g>
</g>
<g>
</g>
<g>
</g>
<g>
</g>
<g>
</g>
<g>
</g>
<g>
</g>
</svg>
