<?xml version="1.0" encoding="iso-8859-1"?>
<!-- Generator: Adobe Illustrator 19.0.0, SVG Export Plug-In . SVG Version: 6.00 Build 0)  -->
<svg xmlns="http://www.w3.org/2000/svg" xmlns:xlink="http://www.w3.org/1999/xlink" version="1.1" id="Layer_1" x="0px" y="0px" viewBox="0 0 512.853 512.853" style="enable-background:new 0 0 512.853 512.853;" xml:space="preserve" width="512px" height="512px">
<g transform="translate(1 1)">
	<g>
		<g>
			<path d="M509.293,496.92l-92.16-87.04c-0.163-0.163-0.333-0.311-0.503-0.458c21.836-31.638,34.637-69.989,34.637-111.328     c0-60.738-27.612-115.038-70.96-151.043l37.952-37.952c9.425,6.197,20.75,9.795,33.008,9.795     c33.28,0,59.733-26.453,59.733-59.733c0-33.28-26.453-59.733-59.733-59.733c-33.28,0-59.733,26.453-59.733,59.733     c0,14.783,5.228,28.212,13.948,38.581l-38.703,38.703c-0.49-0.495-1.05-0.948-1.698-1.337c-0.735-0.441-1.496-0.773-2.264-1.012     c-30.947-20.39-67.995-32.268-107.816-32.268c-42.24,0-81.368,13.355-113.394,36.069l-38.51-38.51     c9.576-10.573,15.37-24.651,15.37-40.226c0-33.28-26.453-59.733-59.733-59.733C25.453-0.573-1,25.88-1,59.16     c0,33.28,26.453,59.733,59.733,59.733c11.454,0,22.098-3.134,31.135-8.601l38.163,38.163     c-42.388,36.004-69.298,89.682-69.298,149.637c0,41.323,12.79,79.661,34.611,111.292L1.56,496.92     c-3.413,3.413-3.413,8.533,0,11.947c1.707,1.707,3.413,2.56,5.973,2.56c1.707,0,4.267-0.853,5.973-2.56l90.078-85.907     c36.002,43.604,90.47,71.401,151.416,71.401c59.731,0,113.233-26.708,149.234-68.821c1.135-0.408,2.119-1.03,2.916-1.841     l89.343,85.168c1.707,1.707,4.267,2.56,5.973,2.56c2.56,0,4.267-0.853,6.827-2.56     C512.707,505.453,512.707,500.333,509.293,496.92z M16.067,59.16c0-23.893,18.773-42.667,42.667-42.667S101.4,35.267,101.4,59.16     s-18.773,42.667-42.667,42.667S16.067,83.053,16.067,59.16z M78.36,327.107c-0.088-0.147-0.186-0.28-0.28-0.418     c-1.493-9.313-2.28-18.861-2.28-28.595c0-8.523,0.608-16.903,1.759-25.109c4.857,6.338,11.398,12.737,19.575,19.136     c43.52,32.427,122.88,57.173,211.627,57.173c40.07,0,81.704-4.72,121.904-15.626c-5.663,28.128-17.909,53.867-35.065,75.546     C218.078,415.339,120.605,389.63,78.36,327.107z M348.337,145.087c-30.694,46.859-69.37,92.875-122.529,93.263     c-20.883-4.939-39.181-11.756-54.313-19.832c50.546-11.149,85.627-54.225,113.262-97.153     C307.725,125.203,329.214,133.398,348.337,145.087z M138.987,218.26c0.771,0.989,1.779,1.76,2.975,2.279     c19.566,14.326,46.672,26.432,79.494,34.193c0.847,0.35,1.783,0.577,2.8,0.658c24.009,5.441,50.985,8.57,80.238,8.57     c37.942,0,78.389-5.012,122.152-17.479c4.906,16.345,7.555,33.667,7.555,51.612c0,5.908-0.294,11.747-0.852,17.508     c-0.576,0.058-1.149,0.189-1.708,0.412c-82.773,23.04-238.08,27.307-324.267-37.547c-14.507-11.093-23.04-23.04-23.04-31.573     c0-0.917-0.114-1.776-0.323-2.574c6.516-20.746,16.7-39.865,29.796-56.597C118.414,198.272,127.016,208.59,138.987,218.26z      M421.056,230.626c-55.104,15.156-106.419,18.857-150.394,14.894c37.706-16.978,67.006-53.436,91.907-90.767     C388.355,174.132,408.731,200.311,421.056,230.626z M451.267,16.493c23.893,0,42.667,18.773,42.667,42.667     s-18.773,42.667-42.667,42.667c-23.893,0-42.667-18.773-42.667-42.667S427.373,16.493,451.267,16.493z M265.488,119.207     c-38.627,57.617-74.269,83.536-116.074,84.948c-13.568-10.559-21.184-21.675-22.266-31.621     c32.513-33.103,77.776-53.64,127.853-53.64C258.522,118.893,262.016,119.006,265.488,119.207z M88.82,365.258     c47.639,42.264,129.637,61.688,255.78,61.688c11.496,0,22.995-0.001,35.167-0.227c-32.262,31.299-76.256,50.573-124.767,50.573     C179.768,477.293,115.391,430.953,88.82,365.258z" fill="#8F1622"/>
			<path d="M67.267,33.56c-18.773,0-34.133,15.36-34.133,34.133c0,5.12,3.413,8.533,8.533,8.533s8.533-3.413,8.533-8.533     c0-9.387,7.68-17.067,17.067-17.067c5.12,0,8.533-3.413,8.533-8.533S72.387,33.56,67.267,33.56z" fill="#8F1622"/>
			<path d="M434.2,76.227c5.12,0,8.533-3.413,8.533-8.533c0-9.387,7.68-17.067,17.067-17.067c5.12,0,8.533-3.413,8.533-8.533     s-3.413-8.533-8.533-8.533c-18.773,0-34.133,15.36-34.133,34.133C425.667,72.813,429.08,76.227,434.2,76.227z" fill="#8F1622"/>
		</g>
	</g>
</g>
<g>
</g>
<g>
</g>
<g>
</g>
<g>
</g>
<g>
</g>
<g>
</g>
<g>
</g>
<g>
</g>
<g>
</g>
<g>
</g>
<g>
</g>
<g>
</g>
<g>
</g>
<g>
</g>
<g>
</g>
</svg>
