<?xml version="1.0" encoding="iso-8859-1"?>
<!-- Generator: Adobe Illustrator 18.0.0, SVG Export Plug-In . SVG Version: 6.00 Build 0)  -->
<!DOCTYPE svg PUBLIC "-//W3C//DTD SVG 1.1//EN" "http://www.w3.org/Graphics/SVG/1.1/DTD/svg11.dtd">
<svg xmlns="http://www.w3.org/2000/svg" xmlns:xlink="http://www.w3.org/1999/xlink" version="1.1" id="Capa_1" x="0px" y="0px" viewBox="0 0 301.702 301.702" style="enable-background:new 0 0 301.702 301.702;" xml:space="preserve" width="512px" height="512px">
<path d="M39.822,223.384C39.823,223.384,39.821,223.384,39.822,223.384c10.797,0,23.231-2.781,38.728-6.304  c21.467-4.88,48.182-10.953,84.052-12.711c3.332-0.163,6.788-0.246,10.273-0.246c48.349,0,95.175,15.779,95.638,15.938  c3.609,1.233,7.607,0.307,10.308-2.391c16.648-16.648,24.469-37.885,22.616-61.414c-1.372-17.446-7.679-30.12-7.946-30.651  c-1.923-3.814-6.058-5.984-10.286-5.404c-0.8,0.109-80.557,11.06-128.344,19.593c-4.617,0.824-9.015,1.242-13.071,1.242  c-25.985,0-34.764-19.071-35.157-23.641c6.181-5.969,11.505-13.423,11.104-21.186c-0.242-4.676-2.553-11.202-12.19-15.741  c-9.209-4.338-18.082-2.031-23.738,6.166c-2.213,3.207-3.819,7.262-4.833,11.626c-3.58-4.58-7.972-8.35-13.198-9.662  c-4.504-1.132-11.369-0.98-18.509,6.16c-6.169,6.17-7.22,14.019-2.809,20.997c2.45,3.876,6.616,7.312,11.506,10.072  c-28.032,10.388-48.196,23.485-49.421,24.289c-2.721,1.786-4.402,4.784-4.508,8.037c-0.123,3.809-0.725,37.724,15.931,55.089  C22.245,219.792,30.747,223.341,39.822,223.384z M99.805,94.288c1.625,0.875,1.949,2.438,1.949,3.125c0,2.048-3.48,7-10.047,11.76  c0.105-5.182,1.15-11.021,3.66-13.971C96.836,93.475,98.882,93.791,99.805,94.288z M56.58,104.475  c0.738-0.738,2.319-0.719,3.294-0.359c2.386,0.88,5.763,5.098,8.648,10.705c-2.374-0.817-4.839-1.879-7.146-3.201  c-3.744-2.147-5.165-3.52-5.538-4.652C55.557,106.115,56.078,104.977,56.58,104.475z M20.471,169.818  c3.941,2.745,8.153,6.671,10.918,12.045c2.992,5.817,3.882,12.611,2.688,20.27c-1.313-0.646-2.525-1.536-3.662-2.718  C24.061,192.807,21.423,179.868,20.471,169.818z M268.68,199.139c-14.971-4.513-54.274-15.016-95.807-15.016  c-3.81,0-7.595,0.091-11.251,0.27c-37.618,1.844-66.452,8.398-87.506,13.185c-9.201,2.092-17.149,3.895-23.931,4.916  c1.26-10.296-0.288-19.723-4.666-28.136c-3.774-7.253-9.119-12.621-14.292-16.497c14.459-7.552,37.355-17.823,62.093-22.391  c6.664,11.649,21.638,25.565,48.467,25.565c5.232,0,10.813-0.522,16.587-1.554c38.646-6.901,98.559-15.421,119.778-18.389  C281.895,152.601,286.685,177.421,268.68,199.139z" fill="#8F1622"/>
<g>
</g>
<g>
</g>
<g>
</g>
<g>
</g>
<g>
</g>
<g>
</g>
<g>
</g>
<g>
</g>
<g>
</g>
<g>
</g>
<g>
</g>
<g>
</g>
<g>
</g>
<g>
</g>
<g>
</g>
</svg>
