<?xml version="1.0" encoding="iso-8859-1"?>
<!-- Generator: Adobe Illustrator 19.0.0, SVG Export Plug-In . SVG Version: 6.00 Build 0)  -->
<svg version="1.1" id="Layer_1" xmlns="http://www.w3.org/2000/svg" xmlns:xlink="http://www.w3.org/1999/xlink" x="0px" y="0px"
	 viewBox="0 0 510.976 510.976" style="enable-background:new 0 0 510.976 510.976;" xml:space="preserve">
<g>
	<ellipse style="fill:#FF8080;" cx="272.013" cy="174.982" rx="16" ry="16"/>
	<ellipse style="fill:#FF8080;" cx="304.019" cy="206.982" rx="16" ry="16"/>
	<ellipse style="fill:#FF8080;" cx="336.01" cy="238.982" rx="16" ry="16"/>
	<ellipse style="fill:#FF8080;" cx="240.016" cy="238.976" rx="16" ry="16"/>
	<ellipse style="fill:#FF8080;" cx="208.01" cy="206.976" rx="16" ry="16"/>
	<ellipse style="fill:#FF8080;" cx="272.038" cy="270.976" rx="16" ry="16"/>
	<ellipse style="fill:#FF8080;" cx="304.013" cy="302.976" rx="16" ry="16"/>
	<ellipse style="fill:#FF8080;" cx="240.01" cy="334.97" rx="16" ry="16"/>
	<ellipse style="fill:#FF8080;" cx="208.019" cy="302.97" rx="16" ry="16"/>
	<ellipse style="fill:#FF8080;" cx="176.013" cy="270.97" rx="16" ry="16"/>
	<path style="fill:#FF8080;" d="M53.456,276.528c-49.92,49.92-49.904,131.104,0,181.024c49.904,49.904,131.104,49.92,181.024,0
		l22.624-22.624L76.08,253.888L53.456,276.528z"/>
	<path style="fill:#FF8080;" d="M460.752,50.24c-49.904-49.904-131.104-49.92-181.024,0l-22.624,22.624l181.024,181.024
		l22.624-22.624C510.656,181.344,510.656,100.16,460.752,50.24z"/>
</g>
<path style="fill:#4D4D4D;" d="M468.864,42.128L457.552,53.44L468.864,42.128C440.832,14.08,403.888-0.016,367.072,0
	c-36.816-0.016-73.792,14.048-101.856,42.128C146.32,161.024,87.408,219.936,42.144,265.216C14.064,293.264,0,330.256,0.016,367.072
	C0,403.872,14.08,440.832,42.144,468.864c28.032,28.032,64.976,42.128,101.776,42.112c36.816,0.016,73.792-14.048,101.856-42.112
	c34.544-34.56,190.784-190.784,223.072-223.072c28.08-28.064,42.144-65.04,42.112-101.856
	C510.992,107.12,496.896,70.176,468.864,42.128z M446.224,223.152c-32.288,32.304-188.512,188.528-223.072,223.072
	c-21.872,21.856-50.48,32.72-79.232,32.752c-28.736-0.016-57.312-10.896-79.152-32.752c-21.856-21.856-32.736-50.432-32.752-79.152
	c0.016-28.768,10.896-57.36,32.752-79.232c45.28-45.28,104.192-104.192,223.072-223.072c21.872-21.856,50.464-32.736,79.232-32.752
	c28.72,0.016,57.312,10.896,79.152,32.752s32.736,50.432,32.752,79.168C478.96,172.688,468.08,201.28,446.224,223.152z"/>
<g>
</g>
<g>
</g>
<g>
</g>
<g>
</g>
<g>
</g>
<g>
</g>
<g>
</g>
<g>
</g>
<g>
</g>
<g>
</g>
<g>
</g>
<g>
</g>
<g>
</g>
<g>
</g>
<g>
</g>
</svg>
