<?xml version="1.0" encoding="iso-8859-1"?>
<!-- Generator: Adobe Illustrator 19.0.0, SVG Export Plug-In . SVG Version: 6.00 Build 0)  -->
<svg xmlns="http://www.w3.org/2000/svg" xmlns:xlink="http://www.w3.org/1999/xlink" version="1.1" id="Layer_1" x="0px" y="0px" viewBox="0 0 472 472" style="enable-background:new 0 0 472 472;" xml:space="preserve" width="512px" height="512px">
<g>
	<g>
		<path d="M268,168c-6.628,0-12,5.372-12,12v188c0,40.804-33.196,74-74,74s-74-33.196-74-74v-30c0-6.628-5.372-12-12-12    s-12,5.372-12,12v30c0,54.04,43.964,98,98,98s98-43.96,98-98V180C280,173.372,274.628,168,268,168z" fill="#8F1622"/>
	</g>
</g>
<g>
	<g>
		<path d="M354,10c-54.036,0-98,43.96-98,98v188c0,6.628,5.372,12,12,12c6.624,0,12-5.372,12-12V108c0-40.804,33.196-74,74-74    c41.496,0,74,31.624,74,72c0,6.628,5.372,12,12,12s12-5.372,12-12C452,52.168,408.952,10,354,10z" fill="#8F1622"/>
	</g>
</g>
<g>
	<g>
		<path d="M132,286c-6.628,0-12,5.372-12,12c0,13.236-10.764,24-24,24s-24-10.764-24-24c0-6.628-5.372-12-12-12s-12,5.372-12,12    c0,26.468,21.532,48,48,48c26.464,0,48-21.532,48-48C144,291.372,138.628,286,132,286z" fill="#8F1622"/>
	</g>
</g>
<g>
	<g>
		<path d="M134.136,6h-76.28C25.952,6,0,31.956,0,63.86v184.28C0,280.044,25.956,306,57.86,306h76.28    c31.904,0,57.86-25.956,57.856-57.86V63.86C191.996,31.956,166.04,6,134.136,6z M168,250c0,18.672-15.196,32-33.864,32h-76.28    c-18.672,0-33.86-15.188-33.86-33.86V63.86c0-18.672,15.192-33.86,33.86-33.86h76.28C152.808,30,168,47.328,168,66V250z" fill="#8F1622"/>
	</g>
</g>
<g>
	<g>
		<path d="M152,158H40c-4.42,0-8,3.584-8,8v68c0,22.428,16.7,40,38.02,40h51.96c21.32,0,38.02-17.572,38.02-40v-68    C160,161.584,156.416,158,152,158z M144,234c0,13.456-9.672,24-22.02,24H70.02C57.672,258,48,247.456,48,234v-60h96V234z" fill="#8F1622"/>
	</g>
</g>
<g>
	<g>
		<path d="M44,62H16c-4.42,0-8,3.584-8,8s3.58,8,8,8h28c4.416,0,8-3.584,8-8S48.416,62,44,62z" fill="#8F1622"/>
	</g>
</g>
<g>
	<g>
		<path d="M56,94H12c-4.42,0-8,3.584-8,8s3.58,8,8,8h44c4.416,0,8-3.584,8-8S60.416,94,56,94z" fill="#8F1622"/>
	</g>
</g>
<g>
	<g>
		<path d="M44,126H16c-4.42,0-8,3.584-8,8s3.58,8,8,8h28c4.416,0,8-3.584,8-8S48.416,126,44,126z" fill="#8F1622"/>
	</g>
</g>
<g>
	<g>
		<path d="M460,98h-40c-6.628,0-12,5.372-12,12v68c0,6.628,5.372,12,12,12h40c6.624,0,12-5.372,12-12v-68    C472,103.372,466.628,98,460,98z M448,166h-16v-44h16V166z" fill="#8F1622"/>
	</g>
</g>
<g>
	<g>
		<path d="M440,170c-6.628,0-12,5.372-12,12v44c0,6.628,5.372,12,12,12c6.624,0,12-5.372,12-12v-44C452,175.372,446.628,170,440,170    z" fill="#8F1622"/>
	</g>
</g>
<g>
	<g>
		<path d="M96,190c-4.4,0-8,5.4-8,12v24c0,6.6,3.6,12,8,12s8-5.4,8-12v-24C104,195.4,100.4,190,96,190z" fill="#8F1622"/>
	</g>
</g>
<g>
	<g>
		<path d="M108,206H84c-6.6,0-12,3.6-12,8c0,4.4,5.4,8,12,8h24c6.6,0,12-3.6,12-8C120,209.6,114.6,206,108,206z" fill="#8F1622"/>
	</g>
</g>
<g>
</g>
<g>
</g>
<g>
</g>
<g>
</g>
<g>
</g>
<g>
</g>
<g>
</g>
<g>
</g>
<g>
</g>
<g>
</g>
<g>
</g>
<g>
</g>
<g>
</g>
<g>
</g>
<g>
</g>
</svg>
