<?xml version="1.0" encoding="iso-8859-1"?>
<!-- Generator: Adobe Illustrator 19.0.0, SVG Export Plug-In . SVG Version: 6.00 Build 0)  -->
<svg version="1.1" id="Layer_1" xmlns="http://www.w3.org/2000/svg" xmlns:xlink="http://www.w3.org/1999/xlink" x="0px" y="0px"
	 viewBox="0 0 512 512" style="enable-background:new 0 0 512 512;" xml:space="preserve">
<path style="fill:#FF8080;" d="M96,192v176c0,35.344,28.656,64,64,64h192c35.344,0,64-28.656,64-64V192H96z"/>
<g>
	<polyline style="fill:#4D4D4D;" points="176,128 112,128 112,160 176,160 	"/>
	<polyline style="fill:#4D4D4D;" points="176,224 112,224 112,256 176,256 	"/>
	<polyline style="fill:#4D4D4D;" points="176,320 112,320 112,352 176,352 	"/>
	<path style="fill:#4D4D4D;" d="M352,32h-50.944C294.432,13.392,276.864,0.016,256,0c-20.864,0.016-38.432,13.392-45.056,32H160
		c-44.192,0.016-79.984,35.808-80,80v256c0.016,44.192,35.808,80,80,80h81.616c7.424,32,39.68,63.984,78.384,64
		c8.832,0,16-7.168,16-16s-7.168-16-16-16c-20.864-0.032-38.416-16-45.04-32H352c44.192,0,79.984-35.808,80-80V112
		C431.984,67.808,396.192,32.016,352,32z M256,32L256,32L256,32L256,32z M400,368c-0.048,26.496-21.504,47.952-48,48H160
		c-26.496-0.048-47.952-21.504-48-48V112c0.048-26.512,21.504-48,48-48h64l0,0l0,0h64l0,0l0,0h64c26.496,0,47.952,21.488,48,48V368z
		"/>
</g>
<g>
</g>
<g>
</g>
<g>
</g>
<g>
</g>
<g>
</g>
<g>
</g>
<g>
</g>
<g>
</g>
<g>
</g>
<g>
</g>
<g>
</g>
<g>
</g>
<g>
</g>
<g>
</g>
<g>
</g>
</svg>
