<?xml version="1.0" encoding="iso-8859-1"?>
<!-- Generator: Adobe Illustrator 18.0.0, SVG Export Plug-In . SVG Version: 6.00 Build 0)  -->
<!DOCTYPE svg PUBLIC "-//W3C//DTD SVG 1.1//EN" "http://www.w3.org/Graphics/SVG/1.1/DTD/svg11.dtd">
<svg xmlns="http://www.w3.org/2000/svg" xmlns:xlink="http://www.w3.org/1999/xlink" version="1.1" id="Capa_1" x="0px" y="0px" viewBox="0 0 292.033 292.033" style="enable-background:new 0 0 292.033 292.033;" xml:space="preserve" width="512px" height="512px">
<path d="M292.033,50.263c0-2.427-0.883-4.771-2.483-6.596c-1.162-1.324-29.599-32.558-128.463-43.056  c-2.985-0.318-5.965,0.727-8.1,2.846c-2.135,2.119-3.202,5.085-2.908,8.078c0.032,0.321,3.163,32.542,3.161,67.487  c-0.005,60.957-9.193,76.725-13.144,80.676c-18.521,18.523-73.886,38.681-100.492,48.368c-8.695,3.166-14.439,5.257-17.4,6.661  c-20.057,9.512-27.993,35.921-17.691,58.87c1.012,2.254,2.822,4.054,5.083,5.052c1.186,0.523,29.553,12.828,73.717,12.828  c33.853,0,67.641-7.165,100.426-21.297c2.498-1.076,4.962-2.063,7.398-2.98v10.997c0,5.522,4.478,10,10,10h80.896  c5.522,0,10-4.478,10-10V50.263z M272.033,54.715v38.869c-16.681-13.765-46.698-29.712-99.132-35.852  c-0.441-14.404-1.234-27.076-1.884-35.805C236.516,30.538,264.095,48.415,272.033,54.715z M173.24,77.922  c42.374,5.332,67.049,17.341,80.428,26.701c11.351,7.939,16.537,15.253,18.365,18.29v113.478c-3.353-0.026-6.726-0.053-10.126-0.053  c-24.278,0-52.955,1.196-86.085,15.476c-30.27,13.048-61.396,19.664-92.51,19.664c-30.968,0-53.449-6.72-61.929-9.714  c-3.936-12.777,1.322-25.139,9.39-28.965c2.114-1.003,8.398-3.29,15.673-5.939c30.103-10.96,86.137-31.361,107.793-53.019  C167.022,161.06,173.236,128.943,173.24,77.922z M211.137,268.198v-7.079c18.319-4.284,34.988-4.78,50.771-4.78  c3.395,0,6.762,0.026,10.107,0.053c0.006,0,0.013,0,0.019,0v11.807H211.137z" fill="#8F1622"/>
<g>
</g>
<g>
</g>
<g>
</g>
<g>
</g>
<g>
</g>
<g>
</g>
<g>
</g>
<g>
</g>
<g>
</g>
<g>
</g>
<g>
</g>
<g>
</g>
<g>
</g>
<g>
</g>
<g>
</g>
</svg>
