<?xml version="1.0" encoding="iso-8859-1"?>
<!-- Generator: Adobe Illustrator 18.0.0, SVG Export Plug-In . SVG Version: 6.00 Build 0)  -->
<!DOCTYPE svg PUBLIC "-//W3C//DTD SVG 1.1//EN" "http://www.w3.org/Graphics/SVG/1.1/DTD/svg11.dtd">
<svg xmlns="http://www.w3.org/2000/svg" xmlns:xlink="http://www.w3.org/1999/xlink" version="1.1" id="Capa_1" x="0px" y="0px" viewBox="0 0 296.005 296.005" style="enable-background:new 0 0 296.005 296.005;" xml:space="preserve" width="512px" height="512px">
<path d="M296.005,63.009c0-5.522-4.478-10-10-10H179.064c-5.396,0-9.819,4.282-9.995,9.676c-0.007,0.222-0.867,22.508-13.436,46.665  c-16.709,32.112-45.307,51.423-84.997,57.395c-45.838,6.898-68.228,18.067-70.461,35.151c-2.006,15.346,13.771,26.517,23.409,30.698  c15.911,6.902,34.708,10.402,55.868,10.402c26.886,0,56.291-5.669,87.398-16.849c7.913-2.844,15.719-5.207,23.326-7.172  l0.738,13.892c0.351,5.253,4.713,10.128,9.977,10.128h85.113c5.522,0,10-5.272,10-10.794V63.009z M222.004,176.846  c23.248-5.364,42.592-14.306,54.001-20.365v33.814c-3.873-0.206-8.648-0.363-14.183-0.363c-11.586,0-26.14,0.688-42.521,2.957  L222.004,176.846z M276.005,133.434c-1.849,1.173-22.414,13.954-50.361,21.819l13.861-82.245h36.5V133.434z M204.594,160.044  c-30.002,4.141-45.886-9.646-49.939-14.557c8.168-8.972,14.245-18.307,18.719-26.905c9.414-18.092,13.191-35.297,14.698-45.573  h31.15L204.594,160.044z M78.401,222.977c-17.412-0.202-34.118-3.204-46.856-8.73c-7.294-3.164-11.997-7.532-11.538-9.758  c0.46-2.228,7.382-11.07,57.421-18.601C80.36,198.128,82.264,216.537,78.401,222.977z M197.839,196.429  c-12.374,2.577-24.412,6.102-37.753,10.897c-21.356,7.676-41.727,12.549-60.814,14.58c3.144-13.714,0.039-30.808-2.361-40.62  c17.586-5.359,31.755-13.205,43.126-22.167c6.679,7.633,22.94,21.702,52.086,21.702c2.871,0,5.88-0.15,9.004-0.443L197.839,196.429z   M210.088,222.203v-7.566c20.264-3.692,38.109-4.705,51.734-4.705c5.682,0,10.467,0.182,14.183,0.398v11.873H210.088z" fill="#8F1622"/>
<g>
</g>
<g>
</g>
<g>
</g>
<g>
</g>
<g>
</g>
<g>
</g>
<g>
</g>
<g>
</g>
<g>
</g>
<g>
</g>
<g>
</g>
<g>
</g>
<g>
</g>
<g>
</g>
<g>
</g>
</svg>
