<?xml version="1.0" encoding="iso-8859-1"?>
<!-- Generator: Adobe Illustrator 19.0.0, SVG Export Plug-In . SVG Version: 6.00 Build 0)  -->
<svg xmlns="http://www.w3.org/2000/svg" xmlns:xlink="http://www.w3.org/1999/xlink" version="1.1" id="Layer_1" x="0px" y="0px" viewBox="0 0 511.998 511.998" style="enable-background:new 0 0 511.998 511.998;" xml:space="preserve" width="512px" height="512px">
<g>
	<g>
		<g>
			<path d="M406.552,104.585c33.877,41.25,54.246,93.995,54.246,151.415c0,85.837-45.517,161.22-113.673,203.358     c92.766-11.324,164.873-90.522,164.873-186.291C511.998,199.937,470.142,135.433,406.552,104.585z" fill="#8F1622"/>
			<path d="M290.133,220.296c9.907-3.533,17.067-12.919,17.067-24.03c0-14.114-11.486-25.6-25.6-25.6s-25.6,11.486-25.6,25.6     c0,11.11,7.159,20.497,17.067,24.03v-24.03c0-4.719,3.823-8.533,8.533-8.533s8.533,3.814,8.533,8.533V220.296z" fill="#8F1622"/>
			<path d="M170.667,220.296c9.907-3.533,17.067-12.919,17.067-24.03c0-14.114-11.486-25.6-25.6-25.6s-25.6,11.486-25.6,25.6     c0,11.11,7.159,20.497,17.067,24.03v-24.03c0-4.719,3.823-8.533,8.533-8.533c4.71,0,8.533,3.814,8.533,8.533V220.296z" fill="#8F1622"/>
			<path d="M170.667,315.733c0,4.719-3.823,8.533-8.533,8.533c-4.71,0-8.533-3.814-8.533-8.533v-24.03     c-9.907,3.533-17.067,12.919-17.067,24.03c0,14.114,11.486,25.6,25.6,25.6s25.6-11.486,25.6-25.6     c0-11.11-7.159-20.497-17.067-24.03V315.733z" fill="#8F1622"/>
			<path d="M290.133,315.733c0,4.719-3.823,8.533-8.533,8.533s-8.533-3.814-8.533-8.533v-24.03     c-9.907,3.533-17.067,12.919-17.067,24.03c0,14.114,11.486,25.6,25.6,25.6s25.6-11.486,25.6-25.6     c0-11.11-7.159-20.497-17.067-24.03V315.733z" fill="#8F1622"/>
			<path d="M443.733,255.999c0-122.342-99.533-221.867-221.867-221.867S0,133.657,0,255.999s99.533,221.867,221.867,221.867     S443.733,378.342,443.733,255.999z M221.867,418.133c-89.404,0-162.133-72.73-162.133-162.133s72.73-162.133,162.133-162.133     S384,166.595,384,255.999S311.27,418.133,221.867,418.133z" fill="#8F1622"/>
			<path d="M221.867,110.933c-79.992,0-145.067,65.075-145.067,145.067s65.075,145.067,145.067,145.067     s145.067-65.075,145.067-145.067S301.858,110.933,221.867,110.933z M204.8,315.733c0,23.526-19.14,42.667-42.667,42.667     c-23.526,0-42.667-19.14-42.667-42.667c0-20.599,14.686-37.837,34.133-41.805v-35.857c-19.448-3.968-34.133-21.205-34.133-41.805     c0-23.526,19.14-42.667,42.667-42.667c23.526,0,42.667,19.14,42.667,42.667c0,20.599-14.686,37.837-34.133,41.805v35.857     C190.114,277.896,204.8,295.133,204.8,315.733z M324.267,315.733c0,23.526-19.14,42.667-42.667,42.667     c-23.526,0-42.667-19.14-42.667-42.667c0-20.599,14.686-37.837,34.133-41.805v-35.857c-19.448-3.968-34.133-21.205-34.133-41.805     c0-23.526,19.14-42.667,42.667-42.667c23.526,0,42.667,19.14,42.667,42.667c0,20.599-14.686,37.837-34.133,41.805v35.857     C309.581,277.896,324.267,295.133,324.267,315.733z" fill="#8F1622"/>
		</g>
	</g>
</g>
<g>
</g>
<g>
</g>
<g>
</g>
<g>
</g>
<g>
</g>
<g>
</g>
<g>
</g>
<g>
</g>
<g>
</g>
<g>
</g>
<g>
</g>
<g>
</g>
<g>
</g>
<g>
</g>
<g>
</g>
</svg>
