<?xml version="1.0" encoding="iso-8859-1"?>
<!-- Generator: Adobe Illustrator 19.0.0, SVG Export Plug-In . SVG Version: 6.00 Build 0)  -->
<svg xmlns="http://www.w3.org/2000/svg" xmlns:xlink="http://www.w3.org/1999/xlink" version="1.1" id="Layer_1" x="0px" y="0px" viewBox="0 0 512 512" style="enable-background:new 0 0 512 512;" xml:space="preserve" width="512px" height="512px">
<g>
	<g>
		<g>
			<path d="M162.133,247.467h32.922c-3.814-14.686-17.067-25.6-32.922-25.6C143.309,221.867,128,237.175,128,256     c0,18.825,15.309,34.133,34.133,34.133c15.855,0,29.107-10.914,32.922-25.6h-32.922c-4.71,0-8.533-3.814-8.533-8.533     S157.423,247.467,162.133,247.467z" fill="#8F1622"/>
			<path d="M349.867,221.867c-15.855,0-29.107,10.914-32.922,25.6h32.922c4.71,0,8.533,3.814,8.533,8.533s-3.823,8.533-8.533,8.533     h-32.922c3.814,14.686,17.067,25.6,32.922,25.6C368.691,290.133,384,274.825,384,256     C384,237.175,368.691,221.867,349.867,221.867z" fill="#8F1622"/>
			<path d="M256,85.333c-94.106,0-170.667,76.561-170.667,170.667S161.894,426.667,256,426.667S426.667,350.106,426.667,256     S350.106,85.333,256,85.333z M349.867,307.2c-25.318,0-46.345-18.492-50.432-42.667h-86.869     c-4.087,24.175-25.114,42.667-50.432,42.667c-28.237,0-51.2-22.963-51.2-51.2s22.963-51.2,51.2-51.2     c25.318,0,46.345,18.492,50.432,42.667h86.869c4.087-24.175,25.114-42.667,50.432-42.667c28.237,0,51.2,22.963,51.2,51.2     S378.103,307.2,349.867,307.2z" fill="#8F1622"/>
			<path d="M256,0C114.842,0,0,114.842,0,256s114.842,256,256,256s256-114.842,256-256S397.158,0,256,0z M256,443.733     c-103.518,0-187.733-84.215-187.733-187.733S152.482,68.267,256,68.267S443.733,152.482,443.733,256S359.518,443.733,256,443.733     z" fill="#8F1622"/>
		</g>
	</g>
</g>
<g>
</g>
<g>
</g>
<g>
</g>
<g>
</g>
<g>
</g>
<g>
</g>
<g>
</g>
<g>
</g>
<g>
</g>
<g>
</g>
<g>
</g>
<g>
</g>
<g>
</g>
<g>
</g>
<g>
</g>
</svg>
