<?xml version="1.0" encoding="iso-8859-1"?>
<!-- Generator: Adobe Illustrator 19.0.0, SVG Export Plug-In . SVG Version: 6.00 Build 0)  -->
<svg xmlns="http://www.w3.org/2000/svg" xmlns:xlink="http://www.w3.org/1999/xlink" version="1.1" id="Layer_1" x="0px" y="0px" viewBox="0 0 512 512" style="enable-background:new 0 0 512 512;" xml:space="preserve" width="512px" height="512px">
<g transform="translate(1 1)">
	<g>
		<g>
			<path d="M255-1C114.2-1-1,114.2-1,255s115.2,256,256,256s256-115.2,256-256S395.8-1,255-1z M255,493.933     c-131.413,0-238.933-107.52-238.933-238.933S123.587,16.067,255,16.067S493.933,123.587,493.933,255S386.413,493.933,255,493.933     z" fill="#8F1622"/>
			<path d="M255,67.267c-103.253,0-187.733,84.48-187.733,187.733S151.747,442.733,255,442.733S442.733,358.253,442.733,255     S358.253,67.267,255,67.267z M255,425.667c-93.867,0-170.667-76.8-170.667-170.667S161.133,84.333,255,84.333     S425.667,161.133,425.667,255S348.867,425.667,255,425.667z" fill="#8F1622"/>
			<path d="M186.733,135.533c-28.16,0-51.2,23.04-51.2,51.2s23.04,51.2,51.2,51.2s51.2-23.04,51.2-51.2     S214.893,135.533,186.733,135.533z M186.733,220.867c-18.773,0-34.133-15.36-34.133-34.133c0-18.773,15.36-34.133,34.133-34.133     c18.773,0,34.133,15.36,34.133,34.133C220.867,205.507,205.507,220.867,186.733,220.867z" fill="#8F1622"/>
			<path d="M323.267,135.533c-28.16,0-51.2,23.04-51.2,51.2s23.04,51.2,51.2,51.2c28.16,0,51.2-23.04,51.2-51.2     S351.427,135.533,323.267,135.533z M323.267,220.867c-18.773,0-34.133-15.36-34.133-34.133c0-18.773,15.36-34.133,34.133-34.133     c18.773,0,34.133,15.36,34.133,34.133C357.4,205.507,342.04,220.867,323.267,220.867z" fill="#8F1622"/>
			<path d="M186.733,272.067c-28.16,0-51.2,23.04-51.2,51.2c0,28.16,23.04,51.2,51.2,51.2s51.2-23.04,51.2-51.2     C237.933,295.107,214.893,272.067,186.733,272.067z M186.733,357.4c-18.773,0-34.133-15.36-34.133-34.133     c0-18.773,15.36-34.133,34.133-34.133c18.773,0,34.133,15.36,34.133,34.133C220.867,342.04,205.507,357.4,186.733,357.4z" fill="#8F1622"/>
			<path d="M323.267,272.067c-28.16,0-51.2,23.04-51.2,51.2c0,28.16,23.04,51.2,51.2,51.2c28.16,0,51.2-23.04,51.2-51.2     C374.467,295.107,351.427,272.067,323.267,272.067z M323.267,357.4c-18.773,0-34.133-15.36-34.133-34.133     c0-18.773,15.36-34.133,34.133-34.133c18.773,0,34.133,15.36,34.133,34.133C357.4,342.04,342.04,357.4,323.267,357.4z" fill="#8F1622"/>
		</g>
	</g>
</g>
<g>
</g>
<g>
</g>
<g>
</g>
<g>
</g>
<g>
</g>
<g>
</g>
<g>
</g>
<g>
</g>
<g>
</g>
<g>
</g>
<g>
</g>
<g>
</g>
<g>
</g>
<g>
</g>
<g>
</g>
</svg>
