<?xml version="1.0" encoding="iso-8859-1"?>
<!-- Generator: Adobe Illustrator 19.0.0, SVG Export Plug-In . SVG Version: 6.00 Build 0)  -->
<svg xmlns="http://www.w3.org/2000/svg" xmlns:xlink="http://www.w3.org/1999/xlink" version="1.1" id="Layer_1" x="0px" y="0px" viewBox="0 0 512 512" style="enable-background:new 0 0 512 512;" xml:space="preserve" width="512px" height="512px">
<g transform="translate(1 1)">
	<g>
		<g>
			<path d="M203.8,195.267c0-23.893-18.773-42.667-42.667-42.667c-23.893,0-42.667,18.773-42.667,42.667     c0,20.963,14.452,37.981,34.133,41.841v35.784c-19.681,3.86-34.133,20.878-34.133,41.841c0,23.893,18.773,42.667,42.667,42.667     c23.893,0,42.667-18.773,42.667-42.667c0-20.963-14.452-37.981-34.133-41.841v-35.784     C189.348,233.248,203.8,216.23,203.8,195.267z M135.533,195.267c0-14.507,11.093-25.6,25.6-25.6c14.507,0,25.6,11.093,25.6,25.6     c0,11.491-6.963,20.833-17.067,24.224v-24.224c0-5.12-3.413-8.533-8.533-8.533s-8.533,3.413-8.533,8.533v24.224     C142.497,216.1,135.533,206.757,135.533,195.267z M186.733,314.733c0,14.507-11.093,25.6-25.6,25.6     c-14.507,0-25.6-11.093-25.6-25.6c0-11.491,6.963-20.833,17.067-24.224v24.224c0,5.12,3.413,8.533,8.533,8.533     s8.533-3.413,8.533-8.533v-24.224C179.77,293.9,186.733,303.243,186.733,314.733z" fill="#8F1622"/>
			<path d="M237.933,314.733c0,23.893,18.773,42.667,42.667,42.667c23.893,0,42.667-18.773,42.667-42.667     c0-20.963-14.452-37.981-34.133-41.841v-35.784c19.681-3.86,34.133-20.878,34.133-41.841c0-23.893-18.773-42.667-42.667-42.667     c-23.893,0-42.667,18.773-42.667,42.667c0,20.963,14.452,37.981,34.133,41.841v35.784     C252.386,276.752,237.933,293.77,237.933,314.733z M306.2,314.733c0,14.507-11.093,25.6-25.6,25.6     c-14.507,0-25.6-11.093-25.6-25.6c0-11.491,6.963-20.833,17.067-24.224v24.224c0,5.12,3.413,8.533,8.533,8.533     s8.533-3.413,8.533-8.533v-24.224C299.237,293.9,306.2,303.243,306.2,314.733z M255,195.267c0-14.507,11.093-25.6,25.6-25.6     c14.507,0,25.6,11.093,25.6,25.6c0,11.491-6.963,20.833-17.067,24.224v-24.224c0-5.12-3.413-8.533-8.533-8.533     s-8.533,3.413-8.533,8.533v24.224C261.963,216.1,255,206.757,255,195.267z" fill="#8F1622"/>
			<path d="M383,255c0-89.6-72.533-162.133-162.133-162.133S58.733,165.4,58.733,255s72.533,162.133,162.133,162.133     S383,344.6,383,255z M75.8,255c0-80.213,64.853-145.067,145.067-145.067S365.933,174.787,365.933,255     S301.08,400.067,220.867,400.067S75.8,335.213,75.8,255z" fill="#8F1622"/>
			<path d="M368.703,89.935c-39.318-35.271-91.181-56.801-147.836-56.801C98.84,33.133-1,132.973-1,255     s99.84,221.867,221.867,221.867c30.666,0,59.928-6.31,86.559-17.688c5.965,0.616,11.249,0.621,15.841,0.621     C426.52,459.8,511,375.32,511,272.067C511,185.681,452.997,111.073,368.703,89.935z M16.067,255     c0-112.64,92.16-204.8,204.8-204.8c93.236,0,172.438,63.143,196.96,148.778c0.042,0.148,0.083,0.297,0.125,0.446     c0.4,1.408,0.785,2.823,1.155,4.243c0.112,0.43,0.217,0.861,0.325,1.291c0.296,1.167,0.586,2.335,0.862,3.51     c0.161,0.69,0.312,1.384,0.466,2.076c0.21,0.94,0.422,1.88,0.619,2.824c0.193,0.927,0.371,1.857,0.551,2.788     c0.143,0.736,0.291,1.469,0.426,2.208c0.206,1.129,0.393,2.262,0.58,3.395c0.093,0.561,0.193,1.119,0.281,1.682     c0.201,1.287,0.382,2.579,0.558,3.871c0.058,0.427,0.125,0.852,0.181,1.28c0.182,1.397,0.341,2.798,0.495,4.2     c0.037,0.338,0.081,0.674,0.117,1.012c0.152,1.463,0.282,2.931,0.402,4.399c0.024,0.287,0.055,0.572,0.077,0.859     c0.115,1.471,0.206,2.945,0.289,4.42c0.016,0.293,0.041,0.584,0.056,0.878c0.076,1.467,0.128,2.937,0.173,4.408     c0.009,0.303,0.027,0.605,0.035,0.909c0.046,1.772,0.069,3.546,0.069,5.323c0,1.573-0.024,3.141-0.06,4.706     c-0.01,0.445-0.024,0.889-0.037,1.333c-0.036,1.236-0.083,2.47-0.142,3.701c-0.017,0.361-0.031,0.722-0.05,1.082     c-0.083,1.569-0.182,3.134-0.3,4.694c-0.018,0.232-0.039,0.463-0.058,0.695c-0.11,1.393-0.235,2.782-0.373,4.168     c-0.03,0.297-0.059,0.594-0.09,0.89c-6.149,58.894-37.53,110.564-83.055,143.948c-11.887,8.527-24.833,15.826-38.716,21.663     l-12.623,5.77c-21.668,7.854-45.004,12.15-69.297,12.15C108.227,459.8,16.067,367.64,16.067,255z M340.333,441.88     c59.956-38.08,98.368-103.087,102.096-175.296c0.005-0.103,0.012-0.205,0.017-0.308c0.086-1.706,0.15-3.417,0.197-5.131     c0.009-0.336,0.016-0.673,0.024-1.01c0.039-1.708,0.066-3.419,0.066-5.135c0-1.755-0.026-3.508-0.067-5.259     c-0.014-0.576-0.037-1.15-0.055-1.725c-0.037-1.18-0.08-2.359-0.135-3.536c-0.031-0.66-0.068-1.319-0.105-1.978     c-0.063-1.125-0.135-2.248-0.215-3.371c-0.045-0.627-0.089-1.253-0.139-1.878c-0.103-1.295-0.221-2.588-0.347-3.879     c-0.041-0.417-0.076-0.836-0.119-1.252c-4.343-42.08-20.567-82.093-46.604-115.363c59.733,27.307,98.987,87.893,98.987,155.307     C493.933,359.96,426.52,433.347,340.333,441.88z" fill="#8F1622"/>
		</g>
	</g>
</g>
<g>
</g>
<g>
</g>
<g>
</g>
<g>
</g>
<g>
</g>
<g>
</g>
<g>
</g>
<g>
</g>
<g>
</g>
<g>
</g>
<g>
</g>
<g>
</g>
<g>
</g>
<g>
</g>
<g>
</g>
</svg>
