<?xml version="1.0" encoding="iso-8859-1"?>
<!-- Generator: Adobe Illustrator 19.0.0, SVG Export Plug-In . SVG Version: 6.00 Build 0)  -->
<svg version="1.1" id="Layer_1" xmlns="http://www.w3.org/2000/svg" xmlns:xlink="http://www.w3.org/1999/xlink" x="0px" y="0px"
	 viewBox="0 0 512 512" style="enable-background:new 0 0 512 512;" xml:space="preserve">
<path style="fill:#4D4D4D;" d="M512,64c0-26.512-21.488-48-48-48H48C21.488,16,0,37.488,0,64v384c0,26.512,21.488,48,48,48h416
	c26.512,0,48-21.488,48-48V64z M480,448c-0.016,8.832-7.168,15.984-16,16H48c-8.832-0.016-15.984-7.168-16-16V64
	c0.016-8.832,7.168-16,16-16h416c8.832,0,15.984,7.168,16,16V448z"/>
<g>
	<circle style="fill:#FF8080;" cx="112" cy="416" r="16"/>
	<circle style="fill:#FF8080;" cx="176" cy="416" r="16"/>
	<circle style="fill:#FF8080;" cx="112" cy="416" r="16"/>
	<circle style="fill:#FF8080;" cx="176" cy="416" r="16"/>
	<path style="fill:#FF8080;" d="M416,80H96c-17.68,0-32,14.32-32,32v224c0,17.664,14.32,32,32,32h320c17.68,0,32-14.336,32-32V112
		C448,94.32,433.68,80,416,80z M368,240h-36.464l-28.352,85.056C300.992,331.6,294.896,336,288,336s-13.008-4.4-15.168-10.944
		L224,178.592l-16.832,50.464C204.992,235.6,198.896,240,192,240h-48c-8.848,0-16-7.152-16-16s7.152-16,16-16h36.464l28.352-85.056
		c4.336-13.056,26-13.056,30.336,0L288,269.408l16.832-50.464C306.992,212.4,313.104,208,320,208h48c8.848,0,16,7.152,16,16
		S376.848,240,368,240z"/>
</g>
<g>
</g>
<g>
</g>
<g>
</g>
<g>
</g>
<g>
</g>
<g>
</g>
<g>
</g>
<g>
</g>
<g>
</g>
<g>
</g>
<g>
</g>
<g>
</g>
<g>
</g>
<g>
</g>
<g>
</g>
</svg>
