<?xml version="1.0" encoding="iso-8859-1"?>
<!-- Generator: Adobe Illustrator 19.0.0, SVG Export Plug-In . SVG Version: 6.00 Build 0)  -->
<svg xmlns="http://www.w3.org/2000/svg" xmlns:xlink="http://www.w3.org/1999/xlink" version="1.1" id="Layer_1" x="0px" y="0px" viewBox="0 0 512 512" style="enable-background:new 0 0 512 512;" xml:space="preserve" width="512px" height="512px">
<g>
	<g>
		<path d="M483.316,16.821H28.684C12.868,16.821,0,29.689,0,45.505v307.916c0,15.816,12.868,28.684,28.684,28.684h254.038    l-34.088,59.043c-2.248,3.893-2.015,8.738,0.594,12.398c2.609,3.658,7.109,5.463,11.528,4.602l38.105-7.395l12.643,36.689    c1.464,4.25,5.276,7.252,9.749,7.683c0.368,0.036,0.737,0.053,1.101,0.053c4.07,0,7.871-2.165,9.934-5.737l34.957-60.543    l34.964,60.543c2.062,3.572,5.864,5.737,9.934,5.737c0.365,0,0.733-0.017,1.101-0.053c4.474-0.43,8.285-3.433,9.749-7.683    l12.643-36.689l38.105,7.395c4.413,0.861,8.918-0.942,11.528-4.602c2.609-3.66,2.842-8.505,0.594-12.398l-34.089-59.043h31.543    c15.816,0,28.684-12.868,28.684-28.684V45.505C512,29.689,499.132,16.821,483.316,16.821z M135.527,267.851h155.832    c-7.208,10.019-12.476,21.511-15.266,33.938H113.285v0.001c-4.16-16.104-16.865-28.809-32.969-32.969V130.105    c16.104-4.16,28.809-16.864,32.969-32.968h285.431c4.16,16.104,16.865,28.808,32.969,32.968v124.751    c-16.778-16.071-39.505-25.977-64.517-25.977c-19.341,0-37.325,5.913-52.244,16.025H135.527c-6.337,0-11.474,5.137-11.474,11.474    C124.054,262.713,129.19,267.851,135.527,267.851z M325,456.172l-7.691-22.318c-1.863-5.406-7.425-8.621-13.034-7.526    l-23.185,4.499l23-39.837c12.473,11.453,28.059,19.553,45.325,22.891L325,456.172z M367.168,392.647    c-38.824,0-70.41-31.586-70.41-70.41c0-38.824,31.586-70.41,70.41-70.41c38.824,0,70.41,31.586,70.41,70.41    C437.578,361.061,405.992,392.647,367.168,392.647z M453.406,430.827l-23.185-4.499c-5.611-1.093-11.171,2.119-13.034,7.526    l-7.691,22.318l-24.433-42.317c17.259-3.365,32.829-11.492,45.285-22.963L453.406,430.827z M489.053,353.421    c0,3.163-2.574,5.737-5.737,5.737h-30.418c4.899-11.331,7.628-23.811,7.628-36.921c0-11.517-2.11-22.548-5.941-32.742    c0.026-0.314,0.048-0.631,0.048-0.952V120.084c0-6.336-5.137-11.474-11.474-11.474c-12.653,0-22.947-10.294-22.947-22.947    c0-6.336-5.137-11.474-11.474-11.474H103.262c-6.337,0-11.474,5.138-11.474,11.474c0,12.653-10.294,22.947-22.947,22.947    c-6.337,0-11.474,5.138-11.474,11.474v158.759c0,6.336,5.137,11.474,11.474,11.474c12.653,0,22.947,10.294,22.947,22.947    c0,6.336,5.137,11.474,11.474,11.474h170.612c0.324,12.194,2.979,23.815,7.563,34.421H28.684c-3.163,0-5.737-2.574-5.737-5.737    V45.505c0-3.163,2.573-5.737,5.737-5.737h454.632c3.163,0,5.737,2.574,5.737,5.737V353.421z" fill="#8F1622"/>
	</g>
</g>
<g>
	<g>
		<path d="M303.224,131.135h-94.448c-6.337,0-11.474,5.138-11.474,11.474c0,6.337,5.137,11.474,11.474,11.474h94.448    c6.337,0,11.474-5.137,11.474-11.474C314.698,136.273,309.561,131.135,303.224,131.135z" fill="#8F1622"/>
	</g>
</g>
<g>
	<g>
		<path d="M376.473,188.02H135.527c-6.337,0-11.474,5.137-11.474,11.474c0,6.336,5.137,11.474,11.474,11.474h240.945    c6.337,0,11.474-5.138,11.474-11.474C387.946,193.157,382.81,188.02,376.473,188.02z" fill="#8F1622"/>
	</g>
</g>
<g>
	<g>
		<path d="M367.168,277.069c-24.906,0-45.168,20.262-45.168,45.168c0,24.906,20.262,45.168,45.168,45.168    c24.906,0,45.168-20.262,45.168-45.168C412.336,297.331,392.073,277.069,367.168,277.069z M367.168,344.458    c-12.253,0-22.221-9.968-22.221-22.221c0-12.253,9.968-22.221,22.221-22.221c12.253,0,22.221,9.968,22.221,22.221    C389.389,334.49,379.42,344.458,367.168,344.458z" fill="#8F1622"/>
	</g>
</g>
<g>
</g>
<g>
</g>
<g>
</g>
<g>
</g>
<g>
</g>
<g>
</g>
<g>
</g>
<g>
</g>
<g>
</g>
<g>
</g>
<g>
</g>
<g>
</g>
<g>
</g>
<g>
</g>
<g>
</g>
</svg>
