<?xml version="1.0" encoding="iso-8859-1"?>
<!-- Generator: Adobe Illustrator 18.0.0, SVG Export Plug-In . SVG Version: 6.00 Build 0)  -->
<!DOCTYPE svg PUBLIC "-//W3C//DTD SVG 1.1//EN" "http://www.w3.org/Graphics/SVG/1.1/DTD/svg11.dtd">
<svg xmlns="http://www.w3.org/2000/svg" xmlns:xlink="http://www.w3.org/1999/xlink" version="1.1" id="Capa_1" x="0px" y="0px" viewBox="0 0 297 297" style="enable-background:new 0 0 297 297;" xml:space="preserve" width="512px" height="512px">
<path d="M297,100.795c0-3.138-1.464-6.096-3.949-8.013c-2.485-1.915-5.728-2.567-8.761-1.77c-0.138,0.037-13.965,3.62-32.074,3.62  c-19.802,0-47.363-4.353-66.206-25.089c-2.452-2.698-6.171-3.857-9.727-3.051c-3.557,0.804-6.409,3.474-7.459,6.966  c-0.053,0.175-5.45,17.755-20.108,35.935c-19.238,23.861-44.745,37.605-75.812,40.849c-42.503,4.439-65.932,14.408-71.628,30.476  c-3.021,8.522-0.603,17.832,6.468,24.904c11.826,11.825,51.412,25.137,97.19,25.137c22.997,0,45.226-4.094,66.069-10.04  c8.598-2.453,16.976-4.475,25.032-6.15v6.071c0,5.588,4.531,10.119,10.12,10.119h80.726c5.589,0,10.12-4.531,10.12-10.119V100.795z   M203.729,105.915c6.732,2.806,13.951,4.961,21.609,6.454c-4.472,9.955-12.229,23.696-20.904,27.517  c-2.641,1.162-5.026,1.147-7.735-0.051c-2.464-1.089-3.225-2.296-3.61-3.774C191.298,129.192,197.482,115.781,203.729,105.915z   M165.451,201.257c-19.037,5.43-39.398,8.184-60.517,8.184c-43.112,0-76.372-11.624-82.879-18.13  c-0.231-0.231-2.245-2.305-1.704-3.83c0.171-0.484,4.77-11.898,54.655-17.108c46.011-4.806,74.348-29.281,90.018-48.967  c8.096-10.172,13.707-20.096,17.38-27.763c1.139,0.879,2.301,1.73,3.484,2.555c-6.875,10.952-16.35,29.693-12.391,44.941  c2.028,7.81,7.221,13.759,15.019,17.207c3.977,1.758,8.059,2.637,12.133,2.637c4.025,0,8.044-0.858,11.942-2.575  c18.164-7.999,29.611-33.173,33.704-43.658c1.954,0.074,3.924,0.122,5.921,0.122c9.593,0,18.092-0.869,24.545-1.825v73.683  c-2.345-0.064-5.032-0.107-8.03-0.107C245.016,186.622,207.848,189.161,165.451,201.257z M219.156,210.521  c21.225-3.026,38.694-3.659,49.575-3.659c3.051,0,5.732,0.048,8.03,0.117v3.543H219.156z" fill="#8F1622"/>
<g>
</g>
<g>
</g>
<g>
</g>
<g>
</g>
<g>
</g>
<g>
</g>
<g>
</g>
<g>
</g>
<g>
</g>
<g>
</g>
<g>
</g>
<g>
</g>
<g>
</g>
<g>
</g>
<g>
</g>
</svg>
