<?xml version="1.0" encoding="iso-8859-1"?>
<!-- Generator: Adobe Illustrator 19.0.0, SVG Export Plug-In . SVG Version: 6.00 Build 0)  -->
<svg version="1.1" id="Layer_1" xmlns="http://www.w3.org/2000/svg" xmlns:xlink="http://www.w3.org/1999/xlink" x="0px" y="0px"
	 viewBox="0 0 512 512" style="enable-background:new 0 0 512 512;" xml:space="preserve">
<path style="fill:#FF8080;" d="M438.624,377.376L322.192,493.808L320,492.896V400c0-17.68,14.32-32,32-32h82.736
	C436.608,372.512,436.752,372.848,438.624,377.376z"/>
<path style="fill:#4D4D4D;" d="M416,16V0H96C69.488,0.016,48.016,21.488,48,48v416c0.016,26.512,21.488,47.984,48,48h210.736
	c12.736,0,24.944-5.056,33.936-14.064l109.264-109.264c9.008-8.992,14.064-21.2,14.064-33.936V48c-0.016-26.512-21.488-47.984-48-48
	V16v16c8.832,0.016,15.984,7.168,16,16v306.736c0,4.24-1.68,8.32-4.688,11.312L318.048,475.312
	c-2.992,3.008-7.056,4.688-11.312,4.688H96c-8.832-0.016-15.984-7.168-16-16V48c0.016-8.832,7.168-15.984,16-16h320V16z"/>
<g>
	<polyline style="fill:#FF8080;" points="112,352 272,352 272,320 112,320 	"/>
	<polyline style="fill:#FF8080;" points="112,288 400,288 400,256 112,256 	"/>
	<polyline style="fill:#FF8080;" points="112,416 272,416 272,384 112,384 	"/>
	<polygon style="fill:#FF8080;" points="336,128 272,128 272,64 240,64 240,128 176,128 176,160 240,160 240,224 272,224 272,160 
		336,160 	"/>
</g>
<g>
</g>
<g>
</g>
<g>
</g>
<g>
</g>
<g>
</g>
<g>
</g>
<g>
</g>
<g>
</g>
<g>
</g>
<g>
</g>
<g>
</g>
<g>
</g>
<g>
</g>
<g>
</g>
<g>
</g>
</svg>
