<?xml version="1.0" encoding="iso-8859-1"?>
<!-- Generator: Adobe Illustrator 19.0.0, SVG Export Plug-In . SVG Version: 6.00 Build 0)  -->
<svg xmlns="http://www.w3.org/2000/svg" xmlns:xlink="http://www.w3.org/1999/xlink" version="1.1" id="Layer_1" x="0px" y="0px" viewBox="0 0 511.999 511.999" style="enable-background:new 0 0 511.999 511.999;" xml:space="preserve" width="512px" height="512px">
<g>
	<g>
		<path d="M255.966,125.7c-18.657,0-33.834,15.178-33.834,33.835c-0.001,18.656,15.177,33.834,33.834,33.834    s33.835-15.178,33.835-33.834C289.801,140.878,274.623,125.7,255.966,125.7z M255.966,171.971    c-6.857,0-12.436-5.579-12.436-12.436c-0.001-6.858,5.578-12.437,12.436-12.437c6.858,0,12.437,5.579,12.437,12.437    C268.403,166.392,262.824,171.971,255.966,171.971z" fill="#8F1622"/>
	</g>
</g>
<g>
	<g>
		<path d="M449.063,345.853h-37.318l-88.388-153.091c4.963-10.026,7.768-21.303,7.768-33.228c0-28.801-16.291-53.856-40.135-66.47    V11.888C290.99,5.322,285.668,0,279.102,0h-46.271c-6.566,0-11.888,5.322-11.888,11.888v81.178    c-23.843,12.614-40.135,37.669-40.135,66.47c0,11.948,2.816,23.247,7.798,33.288l-88.352,153.029H62.937    c-6.566,0-11.888,5.322-11.888,11.888c0,6.566,5.322,11.888,11.888,11.888h23.59l-6.223,10.78    c-17.639,30.552-10.019,68.855,16.317,90.616L83.26,494.166c-3.283,5.686-1.335,12.957,4.351,16.239    c1.872,1.082,3.916,1.594,5.933,1.594c4.108,0,8.104-2.131,10.306-5.945l18.799-32.562l59.966-103.863h146.766l59.97,103.87    c0.005,0.008,0.011,0.017,0.017,0.025l18.78,32.53c2.202,3.814,6.197,5.945,10.307,5.945c2.016,0,4.06-0.514,5.932-1.594    c5.686-3.282,7.634-10.553,4.351-16.239l-13.356-23.135c26.335-21.762,33.955-60.063,16.316-90.615l-6.228-10.787h23.591    c6.565,0,11.888-5.322,11.888-11.888C460.951,351.175,455.628,345.853,449.063,345.853z M244.718,23.776h22.495v61.445    c-3.671-0.553-7.426-0.844-11.248-0.844c-3.822,0-7.577,0.291-11.247,0.844V23.776z M255.966,108.152    c28.332,0,51.383,23.051,51.383,51.383c0,27.539-21.781,50.082-49.02,51.322c-0.227-0.001-0.454,0.005-0.681,0.018    c-0.56,0.018-1.117,0.043-1.681,0.043c-0.48,0-0.956-0.024-1.434-0.037c-0.347-0.024-0.693-0.033-1.038-0.026    c-27.189-1.295-48.91-23.816-48.91-51.319C204.584,131.203,227.634,108.152,255.966,108.152z M108.749,450.019    c-6.015-5.886-10.37-13.297-12.605-21.64c-3.288-12.269-1.601-25.083,4.75-36.083l103.09-178.557    c8.591,8.242,19.124,14.464,30.843,17.906L108.749,450.019z M196.344,345.853l59.657-103.327l59.656,103.327H196.344z     M403.246,450.013L277.162,231.629c11.715-3.45,22.243-9.681,30.829-17.93l103.118,178.605    C422.167,411.457,418.343,435.187,403.246,450.013z" fill="#8F1622"/>
	</g>
</g>
<g>
</g>
<g>
</g>
<g>
</g>
<g>
</g>
<g>
</g>
<g>
</g>
<g>
</g>
<g>
</g>
<g>
</g>
<g>
</g>
<g>
</g>
<g>
</g>
<g>
</g>
<g>
</g>
<g>
</g>
</svg>
