<?xml version="1.0" encoding="iso-8859-1"?>
<!-- Generator: Adobe Illustrator 18.0.0, SVG Export Plug-In . SVG Version: 6.00 Build 0)  -->
<!DOCTYPE svg PUBLIC "-//W3C//DTD SVG 1.1//EN" "http://www.w3.org/Graphics/SVG/1.1/DTD/svg11.dtd">
<svg xmlns="http://www.w3.org/2000/svg" xmlns:xlink="http://www.w3.org/1999/xlink" version="1.1" id="Capa_1" x="0px" y="0px" viewBox="0 0 296.726 296.726" style="enable-background:new 0 0 296.726 296.726;" xml:space="preserve" width="512px" height="512px">
<g>
	<path d="M275.602,254.468c0.823-17.23,2.559-51.911,6.579-68.686c1.349-5.627,1.06-10.238-0.952-15.468   c-1.141-2.967-2.068-7.868,3.026-16.146c5.001-8.126,4.831-14.851,1.853-22.47c-0.516-1.803-2.198-5.283-2.135-6.373   c0.109-1.863,2.578-4.682,4.526-8.054l1.024-1.774c9.418-16.323,7.469-25.451,5.852-30.503   c-10.722-33.485-31.557-54.862-68.559-60.423V11.231c0-5.523-4.478-10-10-10h-28.18c-5.523,0-10,4.477-10,10v13.358   c-13.875,1.811-25.63,5.151-35.081,10.011c-12.596,6.475-20.956,15.737-23.542,26.082c-2.074,8.295-0.488,13.937,0.669,18.058   c1.09,3.88,1.748,6.223-0.418,12.478c-4.771,13.785,3.681,19.104,4.633,26.127c0.703,5.186-3.571,19.881,0.175,28.465   c1.266,2.9,2.7,6.188,3.953,10.841c2.391,8.88,2.655,14.977,1.167,16.945c-12.602,16.663-68.358,33.535-92.581,42.353   c-8.188,2.982-13.596,4.95-16.404,6.282c-19.141,9.077-26.728,34.247-16.915,56.107c1.012,2.254,2.822,4.053,5.081,5.051   c1.119,0.495,27.88,12.107,69.511,12.105c31.894-0.001,63.721-5.334,94.599-18.642c2.06-0.888,4.094-1.708,6.108-2.479v10.873   c0,5.523,4.478,10,10,10h76.011c5.523,0,10-4.477,10-10V254.468z M198.637,23.081v-1.85h8.18v1.793L198.637,23.081z    M199.591,275.248v-6.984c16.976-3.912,32.445-4.368,47.101-4.368c2.992,0,5.958,0.023,8.91,0.047v11.305H199.591z M276.244,90.987   c0.534,2.585,0.244,7.084-4.045,14.517l-1.019,1.765c-7.285,12.612-9.996,16.314-6.065,24.725c0.991,2.121,3.303,5.704,3.303,8.767   c0,1.837-0.911,2.47-1.492,3.414c-7.213,11.721-8.484,22.607-4.364,33.321c0.167,0.433,0.274,0.793,0.28,1.144   c0.011,0.676-0.194,1.314-0.26,1.999l-6.063,63.311c-0.06-0.001-0.119-0.001-0.179-0.002c-3.194-0.024-6.408-0.05-9.648-0.05   c-22.873,0-49.891,1.127-81.125,14.59c-28.363,12.225-57.528,17.008-86.684,17.009c-28.678,0.001-49.574-6.148-57.698-8.99   c-3.443-11.603,1.306-22.747,8.592-26.202c1.961-0.931,7.854-3.076,14.678-5.561c28.328-10.313,82.199-25.421,102.421-49.809   c2.771-3.342,6.68-14.105,1.463-33.481c-1.64-6.09-3.545-10.454-4.936-13.642c-2.457-5.63-2.553-5.85-0.176-10.842   c5.822-12.227-0.161-19.643-3.036-23.206c-2.049-2.539-2.172-2.691-1.025-6.001c4.215-12.176,2.225-19.259,0.772-24.43   c-0.898-3.195-1.308-4.653-0.521-7.799c2.024-8.098,17.528-21.955,62.797-22.527C244.968,42.481,269.895,60.258,276.244,90.987z" fill="#8F1622"/>
	<path d="M240.602,108.325c-0.436,0.111-44.034,10.878-75.234-6.708c-4.81-2.71-10.91-1.011-13.622,3.802   c-2.711,4.812-1.01,10.91,3.802,13.622c17.652,9.949,37.717,12.68,54.423,12.68c19.526,0,34.464-3.73,35.593-4.021   c5.344-1.372,8.559-6.811,7.195-12.157C251.393,110.198,245.954,106.971,240.602,108.325z" fill="#8F1622"/>
	<path d="M238.99,146.755c-0.344,0.088-34.767,8.661-68.859-4.45c-5.152-1.981-10.94,0.588-12.923,5.743   c-1.983,5.155,0.589,10.94,5.743,12.923c17.421,6.701,34.721,8.622,48.839,8.622c18.287,0,31.232-3.226,32.167-3.465   c5.351-1.372,8.575-6.82,7.203-12.17C249.789,148.609,244.345,145.383,238.99,146.755z" fill="#8F1622"/>
</g>
<g>
</g>
<g>
</g>
<g>
</g>
<g>
</g>
<g>
</g>
<g>
</g>
<g>
</g>
<g>
</g>
<g>
</g>
<g>
</g>
<g>
</g>
<g>
</g>
<g>
</g>
<g>
</g>
<g>
</g>
</svg>
