<?xml version="1.0" encoding="iso-8859-1"?>
<!-- Generator: Adobe Illustrator 19.0.0, SVG Export Plug-In . SVG Version: 6.00 Build 0)  -->
<svg xmlns="http://www.w3.org/2000/svg" xmlns:xlink="http://www.w3.org/1999/xlink" version="1.1" id="Layer_1" x="0px" y="0px" viewBox="0 0 511.935 511.935" style="enable-background:new 0 0 511.935 511.935;" xml:space="preserve" width="512px" height="512px">
<g transform="translate(1 1)">
	<g>
		<g>
			<path d="M438.908,408.133c3.471-3.471,3.471-8.678,0-12.149l-57.275-57.275c-3.471-3.471-8.678-3.471-12.149,0     c-3.471,3.471-3.471,8.678,0,12.149l57.275,57.275c1.736,1.736,3.471,2.603,6.075,2.603S438.04,409.869,438.908,408.133z" fill="#8F1622"/>
			<path d="M341.714,347.388c-3.471-3.471-8.678-3.471-12.149,0s-3.471,8.678,0,12.149l20.827,20.827     c1.736,1.736,3.471,2.603,6.075,2.603c1.736,0,4.339-0.868,6.075-2.603c3.471-3.471,3.471-8.678,0-12.149L341.714,347.388z" fill="#8F1622"/>
			<path d="M386.84,392.513c-3.471-3.471-8.678-3.471-12.149,0s-3.471,8.678,0,12.149l41.654,41.654     c1.736,1.736,3.471,2.603,6.075,2.603s4.339-0.868,6.075-2.603c3.471-3.471,3.471-8.678,0-12.149L386.84,392.513z" fill="#8F1622"/>
			<path d="M448.453,454.127c-3.471-3.471-8.678-3.471-12.149,0c-3.471,3.471-3.471,8.678,0,12.149l10.414,10.414     c1.736,1.736,3.471,2.603,6.075,2.603c1.736,0,4.339-0.868,6.075-2.603c3.471-3.471,3.471-8.678,0-12.149L448.453,454.127z" fill="#8F1622"/>
			<path d="M510.067,442.845c-1.736-3.471-40.786-93.722-161.41-160.542c-0.868-0.868-2.603-0.868-4.339-0.868     c-1.458,0-13.943,0.617-28.703,11.619L200.678,178.118c10.779-0.505,20.545-7.323,23.883-18.174     c3.471-11.281-0.868-22.563-10.414-29.505c-1.736-1.736-3.471-4.339-3.471-6.942s0.868-5.207,3.471-6.942     c10.414-6.942,13.885-18.224,10.414-29.505s-13.017-18.224-25.166-18.224c-2.603,0-5.207-0.868-6.942-3.471     s-1.736-5.207-0.868-7.81c3.471-11.281,0-22.563-9.546-29.505c-9.546-6.942-21.695-6.942-31.241,0     c-2.603,1.736-5.207,2.603-7.81,1.736s-4.339-3.471-5.207-6.075c-3.471-11.281-13.017-18.224-25.166-18.224     c-12.149,0-21.695,6.942-25.166,19.092c-0.868,3.471-2.603,5.207-5.207,6.075s-5.207,0-7.81-1.736     c-9.546-7.81-21.695-7.81-31.241-0.868c-9.546,6.942-13.017,18.224-9.546,29.505c0.868,2.603,0.868,5.207-0.868,7.81     c-1.736,2.603-4.339,3.471-6.942,3.471c-11.281,0-21.695,6.942-25.166,18.224c-4.339,11.281,0,22.563,10.414,29.505     c1.736,1.736,3.471,4.339,3.471,6.942s-0.868,5.207-3.471,6.942C0.67,137.381-2.801,148.662,0.67,159.944     c3.471,11.281,13.017,19.091,25.166,18.224c2.603,0,5.207,0.868,6.942,3.471c1.736,2.603,1.736,5.207,0.868,7.81     c-3.471,11.281,0,22.563,9.546,29.505s21.695,6.942,31.241,0c2.603-1.736,5.207-2.603,7.81-1.736s4.339,3.471,5.207,6.075     c3.471,11.281,13.017,18.224,25.166,18.224c11.281,0,21.695-6.942,25.166-18.224c0.868-3.471,2.603-5.207,5.207-6.075     s5.207,0,7.81,1.736c9.546,6.942,21.695,6.942,31.241,0c7.974-5.799,12.292-14.628,10.977-23.953l109.66,109.66     c-5.988,6.55-15.633,19.815-15.633,34.049c0,1.736,0,2.603,0.868,3.471c1.736,4.339,40.786,93.722,160.542,161.41     c1.736,0.868,2.603,0.868,4.339,0.868c2.603,0,19.959-1.736,38.183-19.959c2.603-1.736,19.959-19.091,19.959-38.183     C510.935,444.581,510.935,443.713,510.067,442.845z M175.965,171.225c-5.207,6.942-6.075,16.488-3.471,24.298     c2.603,5.207-1.736,8.678-2.603,9.546c-1.736,0.868-6.075,3.471-10.414,0c-6.075-5.207-15.62-6.942-23.43-4.339     c-7.81,2.603-13.885,9.546-16.488,17.356c-0.868,5.207-6.075,6.075-7.81,6.075c-0.868,0-6.075,0-7.81-6.075     c-1.736-7.81-8.678-14.753-16.488-17.356c-2.603-0.868-5.207-0.868-7.81-0.868c-6.075,0-11.281,1.736-15.62,5.207     c-5.207,3.471-9.546,0.868-10.414,0c-1.736-0.868-5.207-4.339-3.471-9.546c2.603-8.678,1.736-17.356-3.471-24.298     s-13.017-10.414-21.695-10.414c-6.942,0-8.678-5.207-8.678-6.075s-1.736-6.075,3.471-9.546     c6.942-5.207,11.281-13.017,11.281-21.695s-4.339-16.488-11.281-21.695c-4.339-2.603-3.471-7.81-3.471-9.546     c0.868-1.736,2.603-6.075,8.678-6.075c8.678,0.868,16.488-3.471,21.695-10.414c5.207-6.942,6.075-16.488,3.471-24.298     c-1.736-5.207,1.736-8.678,3.471-9.546s6.075-3.471,10.414,0c6.075,5.207,15.62,6.942,24.298,4.339     c7.81-2.603,13.885-9.546,16.488-17.356c0.868-5.207,6.075-6.075,7.81-6.075s6.075,0.868,8.678,6.075     c1.736,7.81,8.678,14.753,16.488,17.356s16.488,0.868,21.695-4.339c5.207-3.471,9.546-0.868,10.414,0s4.339,4.339,2.603,9.546     c-2.603,8.678-1.736,17.356,3.471,24.298c5.207,6.942,13.017,10.414,21.695,10.414c6.075,0,8.678,5.207,8.678,6.075     s1.736,6.075-3.471,9.546c-6.942,5.207-11.281,13.017-11.281,21.695s4.339,16.488,11.281,21.695     c5.207,3.471,4.339,7.81,3.471,9.546s-2.603,6.075-8.678,6.075C188.982,159.944,181.172,164.283,175.965,171.225z      M479.694,472.35c-10.414,10.414-19.959,13.017-24.298,13.885c-103.268-59.01-144.054-137.112-150.129-149.261     c0.868-8.678,8.678-19.091,14.753-24.298c2.275-2.275,4.503-4.158,6.65-5.751c0.331,0.494,0.716,0.967,1.161,1.412l22.563,22.563     c1.736,1.736,3.471,2.603,6.075,2.603c1.736,0,4.339-0.868,6.075-2.603c3.471-3.471,3.471-8.678,0-12.149l-19.645-19.645     c0.516-0.123,1-0.23,1.421-0.314c83.643,47.796,126.292,108.112,142.71,135.768l-16.88-16.88c-3.471-3.471-8.678-3.471-12.149,0     c-3.471,3.471-3.471,8.678,0,12.149l19.959,19.959c1.736,1.736,3.471,2.603,6.075,2.603s4.339-0.868,6.075-2.603     c1.503-1.503,2.353-3.333,2.554-5.205c0.766,1.452,1.363,2.626,1.785,3.47C493.579,457.598,483.165,468.879,479.694,472.35z" fill="#8F1622"/>
			<path d="M111.748,92.255c-19.091,0-34.712,15.62-34.712,34.712c0,19.092,15.62,34.712,34.712,34.712     c19.092,0,34.712-15.62,34.712-34.712C146.46,107.876,130.84,92.255,111.748,92.255z M111.748,144.323     c-9.546,0-17.356-7.81-17.356-17.356s7.81-17.356,17.356-17.356c9.546,0,17.356,7.81,17.356,17.356     S121.294,144.323,111.748,144.323z" fill="#8F1622"/>
		</g>
	</g>
</g>
<g>
</g>
<g>
</g>
<g>
</g>
<g>
</g>
<g>
</g>
<g>
</g>
<g>
</g>
<g>
</g>
<g>
</g>
<g>
</g>
<g>
</g>
<g>
</g>
<g>
</g>
<g>
</g>
<g>
</g>
</svg>
