<?xml version="1.0" encoding="iso-8859-1"?>
<!-- Generator: Adobe Illustrator 19.0.0, SVG Export Plug-In . SVG Version: 6.00 Build 0)  -->
<svg version="1.1" id="Layer_1" xmlns="http://www.w3.org/2000/svg" xmlns:xlink="http://www.w3.org/1999/xlink" x="0px" y="0px"
	 viewBox="0 0 512 512" style="enable-background:new 0 0 512 512;" xml:space="preserve">
<path style="fill:#FF8080;" d="M464,112H48c-17.68,0-32,14.32-32,32v80h480v-80C496,126.32,481.68,112,464,112z"/>
<path style="fill:#4D4D4D;" d="M464,96h-48V48c-0.016-26.512-21.488-47.984-48-48H144c-26.512,0.016-47.984,21.488-48,48v48H48
	c-26.512,0.016-47.984,21.488-48,48v320c0.016,26.512,21.488,48,48,48h416c26.512,0,47.984-21.488,48-48V144
	C511.984,117.488,490.512,96.016,464,96z M128,48c0.016-8.832,7.168-16,16-16h224c8.832,0,15.984,7.168,16,16v48H128V48z M480,464
	c-0.016,8.832-7.168,15.984-16,16H48c-8.832-0.016-15.984-7.168-16-16V144c0.016-8.832,7.168-16,16-16h64h288h64
	c8.832,0,15.984,7.168,16,16V464z"/>
<polygon style="fill:#FF8080;" points="352,320 288,320 288,256 224,256 224,320 160,320 160,384 224,384 224,448 288,448 288,384 
	352,384 "/>
<g>
</g>
<g>
</g>
<g>
</g>
<g>
</g>
<g>
</g>
<g>
</g>
<g>
</g>
<g>
</g>
<g>
</g>
<g>
</g>
<g>
</g>
<g>
</g>
<g>
</g>
<g>
</g>
<g>
</g>
</svg>
