<?xml version="1.0" encoding="iso-8859-1"?>
<!-- Generator: Adobe Illustrator 18.0.0, SVG Export Plug-In . SVG Version: 6.00 Build 0)  -->
<!DOCTYPE svg PUBLIC "-//W3C//DTD SVG 1.1//EN" "http://www.w3.org/Graphics/SVG/1.1/DTD/svg11.dtd">
<svg xmlns="http://www.w3.org/2000/svg" xmlns:xlink="http://www.w3.org/1999/xlink" version="1.1" id="Capa_1" x="0px" y="0px" viewBox="0 0 299.915 299.915" style="enable-background:new 0 0 299.915 299.915;" xml:space="preserve" width="512px" height="512px">
<path d="M285.862,184.559c1.834-1.554,3.583-3.277,5.23-5.202c5.048-5.9,11.347-18.346,7.774-58.13  c-1.832-20.401-5.417-38.397-5.568-39.153c-0.643-3.205-2.811-5.893-5.808-7.2c-2.997-1.307-6.441-1.066-9.227,0.645  c-0.254,0.155-25.634,15.542-52.331,15.542c-14.572,0-26.702-4.741-36.052-14.091c-2.094-2.095-5.003-3.156-7.961-2.889  c-2.95,0.263-5.632,1.82-7.322,4.253c-0.258,0.371-26.646,37.172-102.555,45.1c-42.001,4.387-65.153,14.238-70.782,30.116  c-2.985,8.422-0.596,17.622,6.392,24.61c4.258,4.258,11.089,7.615,19.385,10.262l10.545,30.703c1.388,4.039,5.187,6.752,9.458,6.752  h18.066c3.813,0,7.294-2.168,8.975-5.59l6.411-13.048l4.742,12.248c1.491,3.852,5.195,6.39,9.325,6.39h18.066  c3.67,0,7.045-2.01,8.793-5.236l12.362-22.818c6.083-0.177,12.196-0.442,18.295-0.798c6.93-0.404,13.997-0.611,21.485-0.648  c0.013,0.022,0.022,0.047,0.034,0.069l13.695,24.336c1.771,3.147,5.103,5.096,8.715,5.096h18.767c4.082,0,7.755-2.481,9.278-6.268  l5.284-13.142l7.124,13.956c1.709,3.348,5.149,5.454,8.907,5.454h18.767c4.228,0,7.998-2.658,9.419-6.64L285.862,184.559z   M230.982,177.927l30.442-73.103c5.507-1.829,10.443-3.832,14.541-5.684c1.036,6.639,2.204,15.158,2.996,24.034  c3.11,34.85-2.425,42.43-3.066,43.18c-7.147,8.354-18.936,12.686-44.913,11.608V177.927z M228.443,111.008  c3.078-0.086,6.122-0.32,9.111-0.686l-27.952,66.898c-2.801-0.114-5.7-0.229-8.684-0.339L228.443,111.008z M20.111,160.232  c0.108-0.306,2.005-5.021,16.217-9.729c0.691,2.539,1.834,5.177,3.708,7.678c3.266,4.357,9.813,9.635,22.466,10.027  c2.528,0.071,5.592-0.194,9.476-0.539c10.866-0.965,29.052-2.581,37.261,4.735c1.648,1.47,2.863,3.354,3.679,5.664  c-56.361-0.306-85.783-8.713-91.122-14.052C21.566,163.788,19.576,161.739,20.111,160.232z M54.179,205.876l-4.207-12.251  c4.587,0.735,9.291,1.354,14.008,1.87l-5.102,10.381H54.179z M101.411,205.876l-3.126-8.073c4.59,0.145,8.848,0.222,12.62,0.256  l-4.234,7.817H101.411z M56.066,145.82c5.284-0.922,11.105-1.77,18.055-2.495c22.655-2.366,41.433-7.159,56.841-12.941  l11.618,11.064c1.936,1.844,4.417,2.759,6.895,2.759c2.642,0,5.278-1.04,7.243-3.104c3.809-3.999,3.654-10.329-0.345-14.138  l-5.631-5.362c1.744-0.91,3.41-1.826,5.028-2.744l10.259,7.928c1.82,1.406,3.972,2.087,6.107,2.087c2.99,0,5.949-1.336,7.92-3.886  c3.377-4.37,2.571-10.65-1.799-14.027l-4.906-3.791c4.305-3.36,7.764-6.492,10.428-9.146c7.118,5.218,15.085,8.868,23.836,10.956  l-28.16,67.379c-8.778,0-20.491,0.228-28.543,0.697c-5.824,0.34-11.66,0.596-17.468,0.768c-1.443-8.34-5.087-15.169-10.898-20.35  c-14.666-13.074-38.249-10.979-52.338-9.728c-2.963,0.263-5.761,0.509-7.085,0.471C59.595,148.109,56.957,146.962,56.066,145.82z   M201.853,205.876l-5.139-9.131c4.485,0.15,8.869,0.327,13.188,0.504c0.522,0.021,1.038,0.042,1.558,0.063l-3.443,8.563H201.853z   M257.083,205.876h-5.594l-4.214-8.256c4.526-0.29,9-0.801,13.343-1.654L257.083,205.876z" fill="#8F1622"/>
<g>
</g>
<g>
</g>
<g>
</g>
<g>
</g>
<g>
</g>
<g>
</g>
<g>
</g>
<g>
</g>
<g>
</g>
<g>
</g>
<g>
</g>
<g>
</g>
<g>
</g>
<g>
</g>
<g>
</g>
</svg>
