<?xml version="1.0" encoding="iso-8859-1"?>
<!-- Generator: Adobe Illustrator 19.0.0, SVG Export Plug-In . SVG Version: 6.00 Build 0)  -->
<svg xmlns="http://www.w3.org/2000/svg" xmlns:xlink="http://www.w3.org/1999/xlink" version="1.1" id="Layer_1" x="0px" y="0px" viewBox="0 0 512.001 512.001" style="enable-background:new 0 0 512.001 512.001;" xml:space="preserve" width="512px" height="512px">
<g>
	<g>
		<g>
			<rect x="295.812" y="183.902" width="15.707" height="48.014" fill="#8F1622"/>
			<rect x="183.63" y="152.047" width="40.012" height="15.707" fill="#8F1622"/>
			<rect x="287.665" y="152.047" width="40.012" height="15.707" fill="#8F1622"/>
			<rect x="167.776" y="255.925" width="15.707" height="16.005" fill="#8F1622"/>
			<rect x="167.776" y="279.936" width="15.707" height="16.005" fill="#8F1622"/>
			<rect x="167.776" y="303.937" width="15.707" height="16.005" fill="#8F1622"/>
			<rect x="167.776" y="327.949" width="15.707" height="16.005" fill="#8F1622"/>
			<rect x="167.776" y="399.972" width="15.707" height="16.005" fill="#8F1622"/>
			<rect x="167.776" y="423.973" width="15.707" height="16.005" fill="#8F1622"/>
			<rect x="167.776" y="447.984" width="15.707" height="16.005" fill="#8F1622"/>
			<rect x="167.776" y="471.985" width="15.707" height="16.005" fill="#8F1622"/>
			<rect x="167.933" y="495.996" width="15.707" height="16.005" fill="#8F1622"/>
			<path d="M183.481,239.594c6.708,5.127,15.08,8.181,24.156,8.181c21.981,0,39.863-17.882,39.863-39.863     c0-21.981-17.882-39.863-39.863-39.863c-21.981,0-39.863,17.882-39.863,39.863v40.012h15.707V239.594z M207.637,183.756     c13.32,0,24.156,10.836,24.156,24.156c0,13.32-10.836,24.156-24.156,24.156s-24.156-10.836-24.156-24.156     C183.481,194.592,194.317,183.756,207.637,183.756z" fill="#8F1622"/>
			<path d="M247.5,263.927h-15.707v8.002c0,2.877,0.512,5.636,1.449,8.191c-0.53-0.026-1.062-0.041-1.598-0.041     c-17.568,0-31.861,14.293-31.861,31.861v8.002c0,4.494-3.657,8.151-8.151,8.151v15.707h40.012c9.57,0,18.162-4.247,24.007-10.949     c5.845,6.702,14.437,10.949,24.007,10.949h40.012v-15.707c-4.494,0-8.151-3.657-8.151-8.151v-8.002     c0-17.568-14.293-31.861-31.861-31.861c-0.536,0-1.068,0.015-1.598,0.041c0.937-2.555,1.449-5.314,1.449-8.191v-8.002h-15.707     v8.002c0,4.494-3.657,8.151-8.151,8.151c-4.494,0-8.151-3.657-8.151-8.151V263.927z M279.657,295.788     c8.907,0,16.153,7.246,16.153,16.153v8.002c0,2.861,0.507,5.606,1.435,8.151h-17.587c-8.907,0-16.153-7.246-16.153-16.153     S270.751,295.788,279.657,295.788z M247.798,311.943c0,8.907-7.246,16.153-16.153,16.153h-17.587     c0.928-2.545,1.435-5.29,1.435-8.151v-8.002c0-8.907,7.246-16.153,16.153-16.153S247.798,303.036,247.798,311.943z" fill="#8F1622"/>
			<rect x="119.607" y="408.119" width="16.005" height="15.707" fill="#8F1622"/>
			<polygon points="63.595,479.842 71.746,479.842 71.746,512 87.454,512 87.454,464.134 63.595,464.134    " fill="#8F1622"/>
			<path d="M471.192,391.502c-24.024-31.757-57.553-55.965-95.029-68.77c4.77-13.388,7.377-27.794,7.377-42.799v-48.163h0.149     c17.568,0,31.861-14.293,31.861-31.861s-14.293-31.861-31.861-31.861h-0.149v-32.307h4.15c10.949,0,19.857-8.908,19.857-19.857     c0-10.949-8.908-19.857-19.857-19.857h-4.46l-0.081-24.007C379.191,31.651,345.058,0,303.664,0h-96.027     c-41.393,0-75.825,31.665-79.784,72.035l-0.091,23.993h-4.15c-10.949,0-19.857,8.908-19.857,19.857     c0,10.949,8.908,19.857,19.857,19.857h4.15v32.307h-0.149c-17.568,0-31.861,14.293-31.861,31.861     c0,17.568,14.293,31.861,31.861,31.861h0.149v48.163c0,15.085,2.636,29.564,7.456,43.013     c-37.226,12.858-70.52,36.977-94.412,68.559C14.388,426.428,0.425,468.095,0.425,512h15.707     c0-40.456,12.864-78.846,37.201-111.018c18.749-24.785,43.778-44.574,71.97-57.223l-47.3,81.084l45.882,53.53l-20.13,13.419V512     h15.707v-11.802l27.884-18.589l-50.145-58.504l46.982-80.54c7.113,12.608,16.303,23.895,27.102,33.395h-3.511v16.005h15.707     v-6.511c2.692,1.847,5.464,3.586,8.3,5.227v121.318h15.707V398.385c9.243,3.77,19.016,6.499,29.182,8.019     c-7.811,5.812-12.88,15.112-12.88,25.573c0,8.08,3.028,15.461,8.002,21.083V512h15.707v-49.224     c2.603,0.689,5.334,1.061,8.151,1.061c2.817,0,5.548-0.372,8.151-1.061V512h15.707v-58.94c4.974-5.622,8.002-13.004,8.002-21.083     c0-10.458-5.066-19.755-12.872-25.566c10.222-1.528,20.049-4.277,29.336-8.082V512h15.707V390.598     c19.771-11.483,36.188-28.119,47.428-48.045l46.989,80.553l-50.145,58.504l27.884,18.589v11.802h15.707v-20.208l-20.13-13.42     l45.882-53.53l-47.547-81.509c28.578,12.628,53.955,32.582,72.914,57.644c24.339,32.173,37.203,70.564,37.203,111.022h15.707     C511.576,468.093,497.612,426.425,471.192,391.502z M127.762,216.063h-0.149c-8.907,0-16.153-7.246-16.153-16.153     s7.246-16.153,16.153-16.153h0.149V216.063z M383.688,183.756c8.907,0,16.153,7.246,16.153,16.153s-7.246,16.153-16.153,16.153     h-0.149v-32.307H383.688z M207.637,15.707h96.027c32.722,0,59.782,24.626,63.669,56.314H143.968     C147.855,40.333,174.915,15.707,207.637,15.707z M143.469,87.729h224.654v8.3H143.469V87.729z M123.612,120.035     c-2.288,0-4.15-1.862-4.15-4.15s1.862-4.15,4.15-4.15h264.077c2.288,0,4.15,1.862,4.15,4.15s-1.862,4.15-4.15,4.15H123.612z      M255.651,448.131c-8.907,0-16.153-7.246-16.153-16.153s7.246-16.153,16.153-16.153c8.907,0,16.153,7.246,16.153,16.153     S264.558,448.131,255.651,448.131z M367.833,279.933h-0.001c0,59.217-46.121,107.857-104.327,111.902v-7.873h-15.707v7.851     c-24.396-1.697-46.673-11.208-64.315-26.07v-13.79h-13.767c-16.369-19.501-26.245-44.628-26.245-72.02V135.742h224.363V279.933z" fill="#8F1622"/>
			<rect x="375.689" y="408.119" width="16.005" height="15.707" fill="#8F1622"/>
			<polygon points="423.849,512 439.556,512 439.556,479.842 447.706,479.842 447.706,464.134 423.849,464.134    " fill="#8F1622"/>
		</g>
	</g>
</g>
<g>
</g>
<g>
</g>
<g>
</g>
<g>
</g>
<g>
</g>
<g>
</g>
<g>
</g>
<g>
</g>
<g>
</g>
<g>
</g>
<g>
</g>
<g>
</g>
<g>
</g>
<g>
</g>
<g>
</g>
</svg>
