<?xml version="1.0" encoding="iso-8859-1"?>
<!-- Generator: Adobe Illustrator 18.0.0, SVG Export Plug-In . SVG Version: 6.00 Build 0)  -->
<!DOCTYPE svg PUBLIC "-//W3C//DTD SVG 1.1//EN" "http://www.w3.org/Graphics/SVG/1.1/DTD/svg11.dtd">
<svg xmlns="http://www.w3.org/2000/svg" xmlns:xlink="http://www.w3.org/1999/xlink" version="1.1" id="Capa_1" x="0px" y="0px" viewBox="0 0 305.369 305.369" style="enable-background:new 0 0 305.369 305.369;" xml:space="preserve" width="512px" height="512px">
<g>
	<path d="M169.679,212.703c12.582-2.356,22.635-5.683,28.797-5.683c4.422,0,5.844,3.649,8.2,4.997   c2.763,1.58,6.546,3.744,12.641,3.744h51.469c2.652,0,5.195-1.054,7.071-2.929c27.44-27.44,29.523-55.101,26.439-71.094   c-3.347-17.352-13.179-27.885-14.289-29.029c-3.017-3.108-7.692-3.921-11.58-2.013c-5.73,2.811-11.985,5.444-18.585,7.902   c-1.974-0.954-4.086-1.665-6.299-2.091c-2.279-11.863-12.736-20.854-25.254-20.854c-9.553,0-17.892,5.244-22.325,12.997   l-20.133-17.258c-2.52-2.16-5.947-2.931-9.148-2.054l-25.733,7.043c-3.025,0.828-5.487,3.028-6.65,5.941   c-1.161,2.914-0.889,6.204,0.736,8.887l18.115,29.892c-12.582,1.589-23.31,2.398-30.682,2.398c-12.581,0-15.827-4.182-19.937-9.477   c-3.485-4.489-8.752-11.274-19.052-11.274c-11.641,0-77.979,8.174-91.588,44.322c-4.011,10.652-0.902,18.596,2.411,23.383   c6.891,9.958,21.97,16.671,46.098,20.522c16.594,2.649,37.554,5.41,62.3,5.41C142.881,216.385,168.654,212.894,169.679,212.703z    M214.615,128.086c1.474-1.475,2.214-3.528,2.019-5.603c-0.04-0.427-0.059-0.792-0.059-1.116c0-6.46,5.255-11.715,11.715-11.715   s11.715,5.255,11.715,11.715c0,0.324-0.02,0.689-0.059,1.116c-0.194,2.074,0.546,4.128,2.02,5.603   c1.475,1.474,3.532,2.219,5.602,2.02c0.427-0.04,0.792-0.06,1.116-0.06c6.46,0,11.715,5.255,11.715,11.715   c0,6.46-5.255,11.715-11.715,11.715c-0.324,0-0.689-0.02-1.116-0.06c-2.071-0.198-4.129,0.546-5.602,2.02   c-1.474,1.475-2.214,3.528-2.02,5.603c0.04,0.427,0.059,0.792,0.059,1.116c0,6.46-5.255,11.715-11.715,11.715   s-11.715-5.255-11.715-11.715c0-0.324,0.02-0.689,0.059-1.116c0.194-2.074-0.546-4.128-2.019-5.603   c-1.319-1.318-3.103-2.05-4.95-2.05c-0.217,0-0.435,0.01-0.652,0.03c-0.427,0.04-0.792,0.06-1.116,0.06   c-6.46,0-11.715-5.255-11.715-11.715c0-6.46,5.255-11.715,11.715-11.715c0.324,0,0.689,0.02,1.116,0.06   C211.088,130.304,213.141,129.56,214.615,128.086z M176.843,110.03l14.292,12.252c-3.907,3.366-6.786,7.885-8.12,13.022   c-0.024-0.041-0.043-0.084-0.067-0.125l-13.94-23.005L176.843,110.03z M266.546,195.761h-47.229c-0.689,0-0.778,0-2.71-1.104   c-3.342-1.912-8.393-7.636-18.131-7.636c-8.008,0-18.279,3.441-32.445,6.017c-4.866,0.885-27.339,3.349-53.328,3.349   c-77.048,0.001-90.115-14.659-91.952-17.313c-0.517-0.747-1.298-1.877-0.14-4.955c8.257-21.932,58.152-31.369,72.871-31.369   c0.089,0,0.151,0.004,0.191,0.008c0.65,0.424,2.096,2.286,3.062,3.53c4.997,6.438,13.361,17.213,35.735,17.213   c12.276,0,32.461-1.945,55.265-5.826c3.755,4.747,9.132,8.156,15.301,9.342c2.279,11.863,12.736,20.855,25.254,20.855   s22.975-8.991,25.254-20.855c11.863-2.279,20.854-12.736,20.854-25.254c0-2.42-0.344-4.76-0.972-6.982   c2.092-0.843,4.148-1.705,6.161-2.586c2.004,3.42,4.217,8.27,5.225,14.182C287.397,161.524,281.253,180.005,266.546,195.761z" fill="#8F1622"/>
	<path d="M228.289,154.919c7.206,0,13.069-5.902,13.069-13.158c0-7.255-5.863-13.157-13.069-13.157s-13.068,5.902-13.068,13.157   C215.221,149.017,221.083,154.919,228.289,154.919z" fill="#8F1622"/>
</g>
<g>
</g>
<g>
</g>
<g>
</g>
<g>
</g>
<g>
</g>
<g>
</g>
<g>
</g>
<g>
</g>
<g>
</g>
<g>
</g>
<g>
</g>
<g>
</g>
<g>
</g>
<g>
</g>
<g>
</g>
</svg>
