<?xml version="1.0" encoding="iso-8859-1"?>
<!-- Generator: Adobe Illustrator 19.0.0, SVG Export Plug-In . SVG Version: 6.00 Build 0)  -->
<svg xmlns="http://www.w3.org/2000/svg" xmlns:xlink="http://www.w3.org/1999/xlink" version="1.1" id="Layer_1" x="0px" y="0px" viewBox="0 0 512 512" style="enable-background:new 0 0 512 512;" xml:space="preserve" width="512px" height="512px">
<g>
	<g>
		<path d="M256,42.667c-5.12,0-8.533,3.413-8.533,8.533v17.067c0,5.12,3.413,8.533,8.533,8.533s8.533-3.413,8.533-8.533V51.2    C264.533,46.08,261.12,42.667,256,42.667z" fill="#8F1622"/>
	</g>
</g>
<g>
	<g>
		<path d="M267.947,273.067h133.12V225.28c0-20.48-17.067-37.547-37.547-37.547h-47.787v-17.067h8.533    c2.56,0,5.12-0.853,6.827-3.413c1.707-1.707,1.707-5.12,1.707-7.68L315.733,99.84c-0.853-3.413-4.267-5.973-8.533-5.973h-17.067    V34.133c0-2.56-0.853-4.267-2.56-5.973l-25.6-25.6c-3.413-3.413-8.533-3.413-11.947,0l-25.6,25.6    c-1.707,1.707-2.56,3.413-2.56,5.973v59.733H204.8c-3.413,0-6.827,2.56-8.533,5.973L179.2,159.573c0,2.56,0,5.973,1.707,7.68    c1.707,2.56,4.267,3.413,6.827,3.413h8.533v17.067H148.48c-20.48,0-37.547,17.067-37.547,37.547v47.787h76.8    c5.12,0,8.533,3.413,8.533,8.533v136.533c0,5.12-3.413,8.533-8.533,8.533h-76.8v47.787C110.933,494.933,128,512,148.48,512h215.04    c20.48,0,37.547-17.067,37.547-37.547v-47.787h-133.12c-11.093,0-20.48-9.387-20.48-20.48v-112.64    C247.467,282.453,256.853,273.067,267.947,273.067z M238.933,37.547L256,20.48l17.067,17.067v56.32h-34.133V37.547z     M210.773,110.933h89.6L312.32,153.6h-13.653v-17.067c0-5.12-3.413-8.533-8.533-8.533c-5.12,0-8.533,3.413-8.533,8.533V153.6    h-17.067v-17.067c0-5.12-3.413-8.533-8.533-8.533s-8.533,3.413-8.533,8.533V153.6H230.4v-17.067c0-5.12-3.413-8.533-8.533-8.533    s-8.533,3.413-8.533,8.533V153.6h-14.507L210.773,110.933z M213.333,187.733v-17.067h85.333v17.067H213.333z" fill="#8F1622"/>
	</g>
</g>
<g>
	<g>
		<path d="M332.8,315.733h68.267v-25.6h-133.12c-1.707,0-3.413,1.707-3.413,3.413v112.64c0,1.707,1.707,3.413,3.413,3.413h133.12    V384H307.2c-5.12,0-8.533-3.413-8.533-8.533s3.413-8.533,8.533-8.533h93.867V332.8H332.8c-5.12,0-8.533-3.413-8.533-8.533    S327.68,315.733,332.8,315.733z" fill="#8F1622"/>
	</g>
</g>
<g>
	<g>
		<rect x="110.933" y="290.133" width="68.267" height="119.467" fill="#8F1622"/>
	</g>
</g>
<g>
</g>
<g>
</g>
<g>
</g>
<g>
</g>
<g>
</g>
<g>
</g>
<g>
</g>
<g>
</g>
<g>
</g>
<g>
</g>
<g>
</g>
<g>
</g>
<g>
</g>
<g>
</g>
<g>
</g>
</svg>
