<?xml version="1.0" encoding="iso-8859-1"?>
<!-- Generator: Adobe Illustrator 19.0.0, SVG Export Plug-In . SVG Version: 6.00 Build 0)  -->
<svg xmlns="http://www.w3.org/2000/svg" xmlns:xlink="http://www.w3.org/1999/xlink" version="1.1" id="Layer_1" x="0px" y="0px" viewBox="0 0 512 512" style="enable-background:new 0 0 512 512;" xml:space="preserve" width="512px" height="512px">
<g transform="translate(1 1)">
	<g>
		<g>
			<path d="M362.52,186.733h-47.787v-17.067h8.533c2.56,0,5.12-0.853,6.827-3.413s2.56-5.12,1.707-7.68L314.733,98.84     c-1.707-3.413-5.12-5.973-8.533-5.973h-17.067V33.133c0-2.56-0.853-4.267-2.56-5.973l-25.6-25.6     c-3.413-3.413-8.533-3.413-11.947,0l-25.6,25.6c-1.707,1.707-2.56,3.413-2.56,5.973v59.733H203.8c-4.267,0-7.68,2.56-8.533,5.973     L178.2,158.573c0,2.56,0,5.12,1.707,7.68s4.267,3.413,6.827,3.413h8.533v17.067H147.48c-20.48,0-37.547,17.067-37.547,37.547     v56.32v136.533v56.32C109.933,493.933,127,511,147.48,511h215.04c20.48,0,37.547-17.067,37.547-37.547v-47.787v-153.6V224.28     C400.067,203.8,383,186.733,362.52,186.733z M237.933,36.547L255,19.48l17.067,17.067v56.32h-34.133V36.547z M210.627,109.933     h88.747L311.32,152.6h-13.653v-17.067c0-5.12-3.413-8.533-8.533-8.533c-5.12,0-8.533,3.413-8.533,8.533V152.6h-17.067v-17.067     c0-5.12-3.413-8.533-8.533-8.533c-5.12,0-8.533,3.413-8.533,8.533V152.6H229.4v-17.067c0-5.12-3.413-8.533-8.533-8.533     s-8.533,3.413-8.533,8.533V152.6h-14.507L210.627,109.933z M212.333,169.667h85.333v17.067h-85.333V169.667z M127,289.133h51.2     V408.6H127V289.133z M383,314.733h-51.2c-5.12,0-8.533,3.413-8.533,8.533s3.413,8.533,8.533,8.533H383v34.133h-76.8     c-5.12,0-8.533,3.413-8.533,8.533S301.08,383,306.2,383H383v25.6H266.947c-1.707,0-3.413-1.707-3.413-3.413v-112.64     c0-1.707,1.707-3.413,3.413-3.413H383V314.733z M266.947,272.067c-11.093,0-20.48,9.387-20.48,20.48v112.64     c0,11.093,9.387,20.48,20.48,20.48H383v47.787c0,11.093-9.387,20.48-20.48,20.48H147.48c-11.093,0-20.48-9.387-20.48-20.48     v-47.787h59.733c5.12,0,8.533-3.413,8.533-8.533V280.6c0-5.12-3.413-8.533-8.533-8.533H127V224.28     c0-11.093,9.387-20.48,20.48-20.48h47.787h119.467h47.787c11.093,0,20.48,9.387,20.48,20.48v47.787H266.947z" fill="#8F1622"/>
			<path d="M255,41.667c-5.12,0-8.533,3.413-8.533,8.533v17.067c0,5.12,3.413,8.533,8.533,8.533c5.12,0,8.533-3.413,8.533-8.533     V50.2C263.533,45.08,260.12,41.667,255,41.667z" fill="#8F1622"/>
		</g>
	</g>
</g>
<g>
</g>
<g>
</g>
<g>
</g>
<g>
</g>
<g>
</g>
<g>
</g>
<g>
</g>
<g>
</g>
<g>
</g>
<g>
</g>
<g>
</g>
<g>
</g>
<g>
</g>
<g>
</g>
<g>
</g>
</svg>
