<?xml version="1.0" encoding="iso-8859-1"?>
<!-- Generator: Adobe Illustrator 19.0.0, SVG Export Plug-In . SVG Version: 6.00 Build 0)  -->
<svg xmlns="http://www.w3.org/2000/svg" xmlns:xlink="http://www.w3.org/1999/xlink" version="1.1" id="Layer_1" x="0px" y="0px" viewBox="0 0 511.977 511.977" style="enable-background:new 0 0 511.977 511.977;" xml:space="preserve" width="512px" height="512px">
<g>
	<g>
		<path d="M511.187,396.865c-1.946-10.155-7.945-19.482-16.896-26.274L290.122,215.703V172.08c0-12.553-10.206-22.758-22.758-22.758    h-2.842v-17.775c24.183-4.079,42.667-25.165,42.667-50.492c0-28.237-22.963-51.2-51.2-51.2s-51.2,22.963-51.2,51.2    c0,4.71,3.814,8.533,8.533,8.533c4.719,0,8.533-3.823,8.533-8.533c0-18.825,15.309-34.133,34.133-34.133    s34.133,15.309,34.133,34.133s-15.309,34.133-34.133,34.133c-4.719,0-8.533,4.361-8.533,9.071v25.062h-2.842    c-12.552,0-22.758,10.206-22.758,22.758v43.622L17.687,370.591c-8.951,6.793-14.95,16.12-16.896,26.274    c-2.441,12.757,0.828,25.728,8.977,35.601c8.166,9.865,20.173,15.522,32.964,15.522h68.19c0,18.825,15.309,34.133,34.133,34.133    c18.825,0,34.133-15.309,34.133-34.133h153.6c0,18.825,15.309,34.133,34.133,34.133s34.133-15.309,34.133-34.133h68.19    c12.792,0,24.798-5.658,32.964-15.522C510.359,422.593,513.627,409.623,511.187,396.865z M162.122,447.989    c0,9.412-7.654,17.067-17.067,17.067c-9.412,0-17.067-7.654-17.067-17.067v-51.2c0-9.412,7.654-17.067,17.067-17.067    c9.412,0,17.067,7.654,17.067,17.067V447.989z M383.989,447.989c0,9.412-7.654,17.067-17.067,17.067s-17.067-7.654-17.067-17.067    v-51.2c0-9.412,7.654-17.067,17.067-17.067s17.067,7.654,17.067,17.067V447.989z M401.055,396.789    c0-18.825-15.309-34.133-34.133-34.133s-34.133,15.309-34.133,34.133h-153.6c0-18.825-15.309-34.133-34.133-34.133    c-18.825,0-34.133,15.309-34.133,34.133H68.076l187.93-142.703l188.1,142.703H401.055z" fill="#8F1622"/>
	</g>
</g>
<g>
</g>
<g>
</g>
<g>
</g>
<g>
</g>
<g>
</g>
<g>
</g>
<g>
</g>
<g>
</g>
<g>
</g>
<g>
</g>
<g>
</g>
<g>
</g>
<g>
</g>
<g>
</g>
<g>
</g>
</svg>
