<?xml version="1.0" encoding="iso-8859-1"?>
<!-- Generator: Adobe Illustrator 18.0.0, SVG Export Plug-In . SVG Version: 6.00 Build 0)  -->
<!DOCTYPE svg PUBLIC "-//W3C//DTD SVG 1.1//EN" "http://www.w3.org/Graphics/SVG/1.1/DTD/svg11.dtd">
<svg xmlns="http://www.w3.org/2000/svg" xmlns:xlink="http://www.w3.org/1999/xlink" version="1.1" id="Capa_1" x="0px" y="0px" viewBox="0 0 295.077 295.077" style="enable-background:new 0 0 295.077 295.077;" xml:space="preserve" width="512px" height="512px">
<path d="M294.632,102.779c4.053-34.519-20.887-62.424-22.141-63.709c-1.627-1.669-3.785-2.717-6.103-2.964  c-43.471-4.62-65.75,12.839-75.166,23.659c-0.934,1.073-1.628,2.334-2.036,3.698c-0.387,1.292-6.463,22.162-4.48,47.921  c-10.135,10.571-48.939,57.775-66.214,76.93c-7.405-17.834-16.743-30.85-17.511-31.905c-2.832-3.894-8.036-5.216-12.385-3.148  l-53.819,25.609c-2.396,1.141-4.237,3.192-5.125,5.692c-0.887,2.501-0.741,5.258,0.4,7.653c0.069,0.146,4.039,8.587,7.431,21.007  c-28.391,4.794-35.47,17.897-36.677,20.719c-1.355,3.168-0.985,6.811,0.981,9.641c7.866,11.321,25.277,16.151,58.217,16.151h55.651  c20.404,0,38.948-24.272,60.42-52.377c14.756-19.314,31.06-44.907,47.807-57.624l1.37,99.796c0.075,5.469,4.529,9.862,9.999,9.862  h14.239c4.966,0,9.18-3.645,9.896-8.558c0.135-0.927,13.672-93.006,28.619-124.973C291.294,118.826,293.862,109.339,294.632,102.779  z M89.357,175.047c9.274,15.136,22.388,43.146,16.967,64.686H62.069c-1.012-19.381-6.343-36.748-10.13-46.88L89.357,175.047z   M41.407,232.842c0.251,2.045,0.451,4.124,0.595,6.229c-6.562-0.549-11.355-1.386-14.844-2.314  C30.516,235.296,35.139,233.855,41.407,232.842z M160.182,195.214c-9.584,12.545-18.637,24.395-26.951,32.873  c-2.132,2.174-4.044,3.942-5.774,5.405c0.51-7.752-0.307-15.574-1.931-23.111c4.646-5.158,43.489-52.523,63.643-74.449  c1.365,4.561,3.066,9.133,5.175,13.648C182.152,162.206,170.796,181.323,160.182,195.214z M210.006,135.211  c-9.972-27.01-4.108-56.084-2.194-63.955c8.458-8.771,24.18-17.743,52.6-15.613c4.693,5.867,15.072,21.096,14.601,40.377  C225.042,121.535,210.006,135.211,210.006,135.211z M244.796,216.117l-1.073-78.173l23.355-13.915  C257.883,147.734,249.781,187.922,244.796,216.117z" fill="#8F1622"/>
<g>
</g>
<g>
</g>
<g>
</g>
<g>
</g>
<g>
</g>
<g>
</g>
<g>
</g>
<g>
</g>
<g>
</g>
<g>
</g>
<g>
</g>
<g>
</g>
<g>
</g>
<g>
</g>
<g>
</g>
</svg>
