<?xml version="1.0" encoding="iso-8859-1"?>
<!-- Generator: Adobe Illustrator 18.0.0, SVG Export Plug-In . SVG Version: 6.00 Build 0)  -->
<!DOCTYPE svg PUBLIC "-//W3C//DTD SVG 1.1//EN" "http://www.w3.org/Graphics/SVG/1.1/DTD/svg11.dtd">
<svg xmlns="http://www.w3.org/2000/svg" xmlns:xlink="http://www.w3.org/1999/xlink" version="1.1" id="Capa_1" x="0px" y="0px" viewBox="0 0 299.391 299.391" style="enable-background:new 0 0 299.391 299.391;" xml:space="preserve" width="512px" height="512px">
<path d="M222.135,121.528l3.645,110.569c0.178,5.392,4.6,9.671,9.994,9.671h17.101c5.282,0,9.652-4.107,9.981-9.379  c1.746-28.073,9.194-106.682,22.509-132.946c1.045-2.063,2.441-4.204,3.919-6.472c4.051-6.215,9.093-13.949,10.07-25.108  c0.338-3.854-1.577-7.556-4.917-9.507c-3.341-1.952-7.507-1.801-10.695,0.384c0,0-41.922,30.503-56.939,38.998  c-13.128,7.426-39.59,23.346-50.755,32.844l-47.551-50.619c-3.78-4.026-10.11-4.223-14.135-0.441  c-4.025,3.781-4.224,10.109-0.442,14.135l47.54,50.607c-10.381,10.672-18.375,22.307-27.869,31.221  c-3.005,2.821-7.539,5.785-11.895,7.102c-13.375-43.742-27.77-70.707-28.391-71.861c-2.619-4.862-8.683-6.679-13.546-4.063  c-4.862,2.618-6.682,8.683-4.063,13.546c0.141,0.26,13.545,25.373,26.153,65.895c-19.633,1.627-41.454-0.78-56.853-2.481  c-9.815-1.084-16.905-1.865-21.623-1.531c-18.304,1.307-23.976,18.52-23.323,29.77c0.114,1.961,0.803,3.845,1.979,5.416  c0.763,1.018,7.975,10.142,26.239,17.052c22.939,8.678,52.875,10.369,88.981,5.028c3.418-0.506,6.336-2.747,7.712-5.917  C125.311,232.632,161.102,149.449,222.135,121.528z M108.998,220.309c-57.399,7.424-81.687-7.27-88.755-13.023  c0.426-2.41,1.578-5.035,4.555-5.247c2.898-0.209,10.234,0.603,18.002,1.461c19.821,2.191,49.296,5.448,74.663,0.609  C113.648,210.9,110.817,216.522,108.998,220.309z M244.924,205.809l-3.103-94.118l23.273-15.939  C254.06,122.673,247.826,174.63,244.924,205.809z" fill="#8F1622"/>
<g>
</g>
<g>
</g>
<g>
</g>
<g>
</g>
<g>
</g>
<g>
</g>
<g>
</g>
<g>
</g>
<g>
</g>
<g>
</g>
<g>
</g>
<g>
</g>
<g>
</g>
<g>
</g>
<g>
</g>
</svg>
