<?xml version="1.0" encoding="iso-8859-1"?>
<!-- Generator: Adobe Illustrator 18.0.0, SVG Export Plug-In . SVG Version: 6.00 Build 0)  -->
<!DOCTYPE svg PUBLIC "-//W3C//DTD SVG 1.1//EN" "http://www.w3.org/Graphics/SVG/1.1/DTD/svg11.dtd">
<svg xmlns="http://www.w3.org/2000/svg" xmlns:xlink="http://www.w3.org/1999/xlink" version="1.1" id="Capa_1" x="0px" y="0px" viewBox="0 0 292.982 292.982" style="enable-background:new 0 0 292.982 292.982;" xml:space="preserve" width="512px" height="512px">
<path d="M125.861,188.99c-5.773-0.255-8.357-2.125-9.727-4.37c-1.669-2.736-3.118-5.838-5.297-6.978  c-2.762-1.444-5.585-1.112-8.121-0.437c-1.65,0.44-42.862,17.149-62.247,26.951C20.053,214.48-3.095,225.754,0.342,240.436  c2.42,10.342,14.75,13.741,25.222,15.547c12.868,2.219,31.811,3.298,57.91,3.298h54.311c17.909,0,34.716-20.952,55.994-47.479  c12.895-16.075,27.07-37.998,40.781-49.129l0.025,85.653c0.002,5.102,3.843,9.384,8.914,9.938c0.367,0.041,0.732,0.06,1.095,0.06  c4.635,0,8.733-3.22,9.755-7.84c0.173-0.782,17.466-78.544,30.122-105.612c11.027-23.585,8.97-49.608,6.762-63.021  c-2.719-16.517-9.601-36.819-20.758-44.272c-3.852-2.573-8.151-3.878-12.779-3.878c-17.165,0-33.384,18.13-47.239,35.123  c-1.471,1.804-2.74,3.361-3.688,4.449c-11,12.641-22.278,35.757-34.22,55.729c-9.067,15.166-18.443,30.849-27.087,42.431  C133.715,187.172,128.585,189.11,125.861,188.99z M49.494,221.116c13.93-6.41,40.001-17.181,52.241-22.04  c4.327,5.184,11.54,9.711,22.724,9.71c1.617,0,3.306-0.097,5.021-0.288c20.188-2.249,38.746-33.29,60.235-69.232  c10.967-18.343,22.308-41.562,32.142-52.863c1.157-1.33,2.521-3.003,4.101-4.94c4.429-5.432,10.494-12.87,16.982-18.861  c8.697-8.032,13.217-8.899,14.756-8.899c0.646,0,1.129,0.148,1.67,0.509c2.48,1.657,8.979,11.735,12.133,30.891  c1.386,8.416,1.78,16.78,1.236,24.68c0,0-24.943,18.842-33.414,25.254c-21.794,16.496-41.802,40.143-61.143,64.255  c-9.063,11.297-17.622,21.968-25.334,29.639c-9.658,9.606-13.969,10.354-15.059,10.354H83.473c-35.172,0-51.535-2.109-59.066-3.872  C30.432,231.468,43.931,223.676,49.494,221.116z M254.555,149.5l9.292-7.302c-3.05,7.535-8.022,35.16-11.094,45.333L254.555,149.5z" fill="#8F1622"/>
<g>
</g>
<g>
</g>
<g>
</g>
<g>
</g>
<g>
</g>
<g>
</g>
<g>
</g>
<g>
</g>
<g>
</g>
<g>
</g>
<g>
</g>
<g>
</g>
<g>
</g>
<g>
</g>
<g>
</g>
</svg>
