<?xml version="1.0" encoding="iso-8859-1"?>
<!-- Generator: Adobe Illustrator 18.0.0, SVG Export Plug-In . SVG Version: 6.00 Build 0)  -->
<!DOCTYPE svg PUBLIC "-//W3C//DTD SVG 1.1//EN" "http://www.w3.org/Graphics/SVG/1.1/DTD/svg11.dtd">
<svg xmlns="http://www.w3.org/2000/svg" xmlns:xlink="http://www.w3.org/1999/xlink" version="1.1" id="Capa_1" x="0px" y="0px" viewBox="0 0 292.651 292.651" style="enable-background:new 0 0 292.651 292.651;" xml:space="preserve" width="512px" height="512px">
<g>
	<path d="M213.038,145.127L277,103.49c3.19-2.185,7.356-2.336,10.695-0.384c3.34,1.951,5.255,5.653,4.917,9.507   c-0.96,10.95-5.898,18.526-9.866,24.614c-1.439,2.207-2.799,4.292-3.813,6.294c-12.977,25.599-20.239,102.275-21.942,129.661   c-0.328,5.272-4.698,9.379-9.981,9.379h-16.69c-5.395,0-9.816-4.279-9.994-9.671l-3.545-107.555c-0.033,0.015,0.032-0.015,0,0   c-59.631,27.279-94.05,108.229-94.389,109.014c-1.374,3.176-4.292,5.416-7.715,5.923c-35.278,5.219-64.536,3.563-86.965-4.922   c-17.89-6.768-24.969-15.724-25.717-16.723C0.7,256.898,0,254.796,0,252.633v-49.96c0-5.522,4.477-10,10-10   c16.32,0,23.851-20.941,23.923-21.152c1.448-4.286,5.578-7.045,10.107-6.78c0.319,0.021,32.334,2.006,56.247,0.015   c9.796-0.816,29.113-23.009,35.244-30.033C196.436,64.919,237.506,13.444,237.906,12.968c1.73-2.059,4.219-3.333,6.9-3.536   c2.676-0.201,5.334,0.684,7.355,2.459l22.771,20.006c1.993,1.752,3.209,4.225,3.379,6.873c0.17,2.649-0.721,5.257-2.475,7.248   C275.313,46.613,229.914,98.573,213.038,145.127z M150.589,147.874c-14.576,16.702-32.149,35.438-48.652,36.813   c-18.634,1.552-41.048,0.88-52.201,0.379C45.33,193.612,36.014,207.241,20,211.417v37.036c6.689,5.498,30.24,20.007,86.43,12.773   c8.092-16.826,36.15-72.543,82.163-102.997c8.882-45.1,49.685-98.203,65.773-117.778l-7.746-6.807   C232.779,49.979,197.363,94.278,150.589,147.874z M236.467,155.491l2.9,87.976c2.943-30.417,8.881-77.564,19.049-103.008   L236.467,155.491z" fill="#8F1622"/>
</g>
<g>
</g>
<g>
</g>
<g>
</g>
<g>
</g>
<g>
</g>
<g>
</g>
<g>
</g>
<g>
</g>
<g>
</g>
<g>
</g>
<g>
</g>
<g>
</g>
<g>
</g>
<g>
</g>
<g>
</g>
</svg>
