<?xml version="1.0" encoding="iso-8859-1"?>
<!-- Generator: Adobe Illustrator 18.0.0, SVG Export Plug-In . SVG Version: 6.00 Build 0)  -->
<!DOCTYPE svg PUBLIC "-//W3C//DTD SVG 1.1//EN" "http://www.w3.org/Graphics/SVG/1.1/DTD/svg11.dtd">
<svg xmlns="http://www.w3.org/2000/svg" xmlns:xlink="http://www.w3.org/1999/xlink" version="1.1" id="Capa_1" x="0px" y="0px" viewBox="0 0 294.07 294.07" style="enable-background:new 0 0 294.07 294.07;" xml:space="preserve" width="512px" height="512px">
<path d="M271.999,41.623c-1.627-1.669-3.785-2.717-6.102-2.964c-4.679-0.497-9.28-0.749-13.678-0.749  c-32.021,0-49.999,12.934-59.443,23.785c-12.216,14.037-24.224,37.675-35.837,56.423c-9.854,15.907-19.16,30.932-28.249,42.387  c-10.836,13.656-17.323,16.992-20.858,17.386c-0.894,0.1-1.769,0.15-2.601,0.15c-10.784,0-14.187-8.939-14.808-10.924  c-0.685-2.67-2.41-4.822-4.826-6.154c-2.432-1.34-5.277-1.491-7.913-0.624c-1.971,0.646-48.482,16.048-67.376,34.94  c-7.973,7.973-13.584,21.89-8.15,35.01c4.889,11.802,19.902,25.87,63.664,25.87h53.941c19.93,0,37.946-23.583,58.808-50.889  c14.148-18.52,29.769-43.217,45.795-55.557l1.319,96.12c0.075,5.469,4.529,9.862,9.999,9.862h13.803c4.966,0,9.18-3.645,9.895-8.558  c0.131-0.897,13.245-90.102,27.714-121.048C308.649,79.997,273.506,43.168,271.999,41.623z M162.678,193.129  c-14.646,19.171-32.874,43.03-42.915,43.03H65.822c-36.729,0-43.872-10.352-45.186-13.524c-1.891-4.566,0.652-10.05,3.815-13.213  c10.638-10.639,35.964-21.494,51.316-27.204c5.248,7.843,14.713,15.823,29.464,15.823c1.569,0,3.189-0.092,4.815-0.273  c22.644-2.522,41.76-33.384,63.895-69.117c11.194-18.071,22.769-41.01,33.922-53.825c6.716-7.717,19.863-16.915,44.357-16.915  c2.493,0,5.076,0.098,7.715,0.291c4.829,6.014,15.393,21.602,13.895,41.26c0,0-33.228,17.668-44.171,23.8  C203.902,137.694,182.195,167.582,162.678,193.129z M245.198,210.224l-0.989-72.085l21.008-11.318  C257.058,149.163,249.871,184.203,245.198,210.224z" fill="#8F1622"/>
<g>
</g>
<g>
</g>
<g>
</g>
<g>
</g>
<g>
</g>
<g>
</g>
<g>
</g>
<g>
</g>
<g>
</g>
<g>
</g>
<g>
</g>
<g>
</g>
<g>
</g>
<g>
</g>
<g>
</g>
</svg>
