<?xml version="1.0" encoding="iso-8859-1"?>
<!-- Generator: Adobe Illustrator 18.0.0, SVG Export Plug-In . SVG Version: 6.00 Build 0)  -->
<!DOCTYPE svg PUBLIC "-//W3C//DTD SVG 1.1//EN" "http://www.w3.org/Graphics/SVG/1.1/DTD/svg11.dtd">
<svg xmlns="http://www.w3.org/2000/svg" xmlns:xlink="http://www.w3.org/1999/xlink" version="1.1" id="Capa_1" x="0px" y="0px" viewBox="0 0 295.467 295.467" style="enable-background:new 0 0 295.467 295.467;" xml:space="preserve" width="512px" height="512px">
<path d="M223.397,147.83v108.962c0,5.522,4.477,10,10,10h52.07c5.522,0,10-4.478,10-10V61.324c0-3.975-2.354-7.571-5.996-9.162  c-3.642-1.593-7.88-0.876-10.798,1.824c-13.163,12.184-51.972,44.483-75.037,49.448l-67.728-72.346  c-2.407-2.574-5.994-3.691-9.437-2.935c-3.443,0.753-6.235,3.263-7.35,6.607c-10.777,32.331-32.532,89.181-45.025,100.286  c-16.27,14.463-42.535,18.83-42.783,18.87c-3.008,0.476-5.63,2.307-7.133,4.954c-1.503,2.648-1.713,5.849-0.578,8.674  c2.72,6.772,8.132,27.189,0.616,40.17c-0.006,0.01,0.007-0.01,0,0C6.071,209.01-0.604,226.152,0.042,237.3  c0.114,1.961,0.803,3.845,1.979,5.416c0.755,1.007,7.889,10.032,25.934,16.859c22.641,8.566,52.183,10.237,87.804,4.967  c3.935-0.582,7.16-3.479,8.199-7.317c0.045-0.167,5.215-17.71,21.064-39.679C158.466,198.914,183.723,170.871,223.397,147.83z   M106.778,245.588c-55.596,7.024-79.368-7.101-86.454-12.8c0.115-0.603,0.273-1.236,0.489-1.855c0.966-2.774,2.176-3.07,3.779-3.185  c2.854-0.199,10.074,0.596,17.723,1.44c18.954,2.093,46.855,5.176,71.349,1.016C110.396,236.546,108.194,241.803,106.778,245.588z   M129.775,204.361c-21.951,11.795-60.676,7.663-84.516,5.031c4.566-13.698,2.646-28.456,0.303-38.242  c11.185-3.079,28.589-9.393,41.822-21.155c15.859-14.098,35.638-66.457,45.233-93.159l73.071,78.054  C168.894,157.465,145.02,183.583,129.775,204.361z M232.745,119.938c-3.147,1.564-6.215,3.148-9.215,4.746l-4.77-5.096  c19.657-7.76,41.808-24.182,56.708-36.387v8.141C268.942,96.96,252.835,109.958,232.745,119.938z M275.467,246.792h-32.07V136.967  c12.644-6.443,23.687-13.823,32.07-20.047V246.792z" fill="#8F1622"/>
<g>
</g>
<g>
</g>
<g>
</g>
<g>
</g>
<g>
</g>
<g>
</g>
<g>
</g>
<g>
</g>
<g>
</g>
<g>
</g>
<g>
</g>
<g>
</g>
<g>
</g>
<g>
</g>
<g>
</g>
</svg>
