<?xml version="1.0" encoding="iso-8859-1"?>
<!-- Generator: Adobe Illustrator 18.0.0, SVG Export Plug-In . SVG Version: 6.00 Build 0)  -->
<!DOCTYPE svg PUBLIC "-//W3C//DTD SVG 1.1//EN" "http://www.w3.org/Graphics/SVG/1.1/DTD/svg11.dtd">
<svg xmlns="http://www.w3.org/2000/svg" xmlns:xlink="http://www.w3.org/1999/xlink" version="1.1" id="Capa_1" x="0px" y="0px" viewBox="0 0 293.996 293.996" style="enable-background:new 0 0 293.996 293.996;" xml:space="preserve" width="512px" height="512px">
<path d="M273.685,26.795c-2.649,0.094-67.624,8.431-127.43,93.318c-2.037,2.892-20.602,28.248-44.831,28.248H43.514  c-4.289,0-8.102,2.735-9.474,6.8c-0.072,0.212-7.638,21.25-24.04,21.25c-5.523,0-10,4.477-10,10v50.134  c0,2.162,0.701,4.267,1.997,5.997c1.893,2.524,20.084,24.666,75.508,24.666c11.622,0,24.249-0.997,37.532-2.962  c3.423-0.507,6.341-2.747,7.715-5.923c0.341-0.788,34.787-81.978,94.639-109.358c0.048-0.021,0.097-0.044,0.145-0.066l3.559,107.982  c0.177,5.392,4.6,9.671,9.994,9.671h16.749c5.282,0,9.652-4.107,9.981-9.379c1.71-27.482,8.999-104.433,22.023-130.127  c3.695-7.291,12.431-25.84,13.722-40.578c3.083-35.2-11.254-54.84-11.866-55.658C279.809,28.283,276.838,26.683,273.685,26.795z   M273.639,89.075c-4.972,10.722-47.858,32.495-64.566,41.701c-55.858,30.778-93.076,95.268-102.285,114.421  c-10.354,1.334-20.184,2.01-29.283,2.01c-35.701,0-52.103-10.372-57.505-14.835v-37.215c16.306-4.239,25.689-18.251,30.03-26.797  h51.394c33.601,0,56.859-30.596,61.181-36.729c28.238-40.081,56.79-63.089,75.77-72.954c13.471-7.003,24.155-9.943,29.904-11.138  C271.196,53.88,279.182,77.122,273.639,89.075z M240.149,227.895l-2.979-90.371l23.023-15.617  C249.394,147.003,243.167,196.539,240.149,227.895z" fill="#8F1622"/>
<g>
</g>
<g>
</g>
<g>
</g>
<g>
</g>
<g>
</g>
<g>
</g>
<g>
</g>
<g>
</g>
<g>
</g>
<g>
</g>
<g>
</g>
<g>
</g>
<g>
</g>
<g>
</g>
<g>
</g>
</svg>
