<?xml version="1.0" encoding="iso-8859-1"?>
<!-- Generator: Adobe Illustrator 19.0.0, SVG Export Plug-In . SVG Version: 6.00 Build 0)  -->
<svg xmlns="http://www.w3.org/2000/svg" xmlns:xlink="http://www.w3.org/1999/xlink" version="1.1" id="Layer_1" x="0px" y="0px" viewBox="0 0 512.475 512.475" style="enable-background:new 0 0 512.475 512.475;" xml:space="preserve" width="512px" height="512px">
<g transform="translate(1 1)">
	<g>
		<g>
			<path d="M309.805,94.695c-5.207,0.868-137.112,21.695-188.312,108.475c-1.736,2.603-1.736,6.075,0,8.678s4.339,4.339,7.81,4.339     h199.593c2.603,0,5.207-0.868,6.075-3.471c1.736-1.736,1.736-4.339,1.736-6.942l-17.356-104.136     C318.483,97.298,314.144,93.827,309.805,94.695z M145.792,198.831c43.39-57.275,131.037-79.837,158.807-85.044l13.885,85.044     H145.792z" fill="#8F1622"/>
			<path d="M398.321,94.695c-24.298,0-43.39,19.091-43.39,43.39c0,24.298,19.091,43.39,43.39,43.39     c24.298,0,43.39-19.092,43.39-43.39C441.711,113.786,422.619,94.695,398.321,94.695z M398.321,164.119     c-14.753,0-26.034-11.281-26.034-26.034c0-14.753,11.281-26.034,26.034-26.034c14.753,0,26.034,11.281,26.034,26.034     C424.355,152.837,413.073,164.119,398.321,164.119z" fill="#8F1622"/>
			<path d="M460.91,236.281c19.018-12.035,41.546-11.417,41.546-11.417c2.603,0,5.207-0.868,6.942-3.471s2.603-5.207,1.736-7.81     L459.066,22.668c-1.736-3.471-4.339-6.075-8.678-6.075c-2.237,0-139.989,3.972-269.017,77.401V76.471     c0-8.678-7.81-16.488-16.488-16.488h-36.447c-8.678,0-16.488,7.81-16.488,16.488v65.509     C67.612,179.082,28.015,227.135,0.263,289.374c-0.103,0.187-0.195,0.377-0.261,0.575c-0.868,2.603-1.736,6.075,0,8.678     l6.942,13.017c7.81,15.62,24.298,26.034,42.522,26.034h374.888c5.207,0,8.678-3.471,8.678-8.678v-34.712     c0-17.745,4.07-32.003,12.198-43.256c27.011,1.828,48.547,24.481,48.547,51.934V415.78c0,19.092-15.62,34.712-34.712,34.712     c-19.091,0-34.712-15.62-34.712-34.712c0-28.637-23.431-52.068-52.068-52.068c-25.681,0-47.161,18.847-51.325,43.39h-18.098     c-5.207,0-8.678,3.471-8.678,8.678v43.39c0,5.207,3.471,8.678,8.678,8.678v17.356c0,5.207,3.471,8.678,8.678,8.678     c5.207,0,8.678-3.471,8.678-8.678v-17.356h17.356v17.356c0,5.207,3.471,8.678,8.678,8.678s8.678-3.471,8.678-8.678v-17.356     c5.207,0,8.678-3.471,8.678-8.678v-43.39c0-5.207-3.471-8.678-8.678-8.678h-16.25c3.879-14.928,17.508-26.034,33.606-26.034     c19.092,0,34.712,15.62,34.712,34.712c0,28.637,23.431,52.068,52.068,52.068s52.068-23.431,52.068-52.068V302.966     C511.134,271.44,489.829,244.665,460.91,236.281z M129.304,77.339h34.712v26.034c-12.149,7.81-23.43,15.62-34.712,24.298V77.339z      M415.677,320.322H49.466c-12.149,0-22.563-6.075-27.77-17.356h393.98V320.322z M415.677,285.61H21.697     C128.436,63.454,397.453,37.42,443.446,33.949l47.729,174.427c-13.017,1.736-34.712,6.942-52.068,23.43     C425.222,244.824,417.412,263.048,415.677,285.61z M346.253,450.492h-34.712v-26.034h34.712V450.492z" fill="#8F1622"/>
			<path d="M320.219,242.22H146.66c-5.207,0-8.678,3.471-8.678,8.678c0,5.207,3.471,8.678,8.678,8.678h173.559     c5.207,0,8.678-3.471,8.678-8.678C328.897,245.692,325.426,242.22,320.219,242.22z" fill="#8F1622"/>
			<path d="M398.321,129.407c-5.207,0-8.678,3.471-8.678,8.678s3.471,8.678,8.678,8.678c5.207,0,8.678-3.471,8.678-8.678     S403.527,129.407,398.321,129.407z" fill="#8F1622"/>
		</g>
	</g>
</g>
<g>
</g>
<g>
</g>
<g>
</g>
<g>
</g>
<g>
</g>
<g>
</g>
<g>
</g>
<g>
</g>
<g>
</g>
<g>
</g>
<g>
</g>
<g>
</g>
<g>
</g>
<g>
</g>
<g>
</g>
</svg>
