<?xml version="1.0" encoding="iso-8859-1"?>
<!-- Generator: Adobe Illustrator 19.0.0, SVG Export Plug-In . SVG Version: 6.00 Build 0)  -->
<svg xmlns="http://www.w3.org/2000/svg" xmlns:xlink="http://www.w3.org/1999/xlink" version="1.1" id="Layer_1" x="0px" y="0px" viewBox="0 0 511.729 511.729" style="enable-background:new 0 0 511.729 511.729;" xml:space="preserve" width="512px" height="512px">
<g>
	<g>
		<g>
			<path d="M412.889,143.884c-1.894-3.866-4.156-7.535-6.75-10.982c-10.846,2.338-21.385,3.524-31.403,3.524     c-73.907,0-102.69-59.401-111.599-84.813c-4.813-0.486-9.728-0.486-14.541,0c-8.917,25.412-37.709,84.804-111.59,84.813     c-10.027,0-20.565-1.186-31.411-3.516c-2.594,3.439-4.847,7.108-6.75,10.974c49.442,68.548,49.442,172.211,0,240.759     c2.039,4.156,4.497,8.09,7.33,11.75c14.174-2.697,28.356-4.053,42.249-4.053c42.607,0,79.565,13.158,107.443,38.153     c27.878-24.994,64.836-38.153,107.443-38.153c13.892,0,28.075,1.357,42.24,4.053c2.842-3.669,5.299-7.595,7.347-11.75     C363.447,316.096,363.447,212.433,412.889,143.884z M255.867,153.331c4.71,0,8.533,3.823,8.533,8.533     c0,4.71-3.823,8.533-8.533,8.533s-8.533-3.823-8.533-8.533C247.334,157.154,251.157,153.331,255.867,153.331z M255.867,358.131     c-4.71,0-8.533-3.823-8.533-8.533s3.823-8.533,8.533-8.533s8.533,3.823,8.533,8.533S260.577,358.131,255.867,358.131z      M307.067,306.931h-102.4c-4.71,0-8.533-3.823-8.533-8.533s3.823-8.533,8.533-8.533h102.4c4.71,0,8.533,3.823,8.533,8.533     S311.777,306.931,307.067,306.931z M307.067,264.264h-102.4c-4.71,0-8.533-3.823-8.533-8.533s3.823-8.533,8.533-8.533h102.4     c4.71,0,8.533,3.823,8.533,8.533S311.777,264.264,307.067,264.264z M307.067,221.597h-102.4c-4.71,0-8.533-3.823-8.533-8.533     c0-4.71,3.823-8.533,8.533-8.533h102.4c4.71,0,8.533,3.823,8.533,8.533C315.6,217.775,311.777,221.597,307.067,221.597z" fill="#8F1622"/>
			<path d="M466.704,369.163c-52.949-52.941-52.949-156.86,0-209.801c2.014-2.014,2.722-5.734,2.159-8.533     c-5.803-29.047-22.05-54.827-45.747-72.593c-2.304-1.741-5.359-2.176-8.064-1.178c-29.943,11.034-54.494,10.871-72.943-0.452     c-29.79-18.287-35.046-60.365-35.098-60.792c-0.367-3.106-2.406-5.777-5.308-6.938c-29.559-11.836-62.114-11.836-91.674,0     c-2.901,1.161-4.941,3.831-5.308,6.938c-0.051,0.427-5.308,42.505-35.098,60.792c-18.458,11.324-42.991,11.477-72.943,0.452     c-2.714-1.007-5.751-0.555-8.073,1.178C64.92,96.011,48.673,121.79,42.699,151.648c-0.563,2.799,0.316,5.692,2.33,7.714     c52.941,52.941,52.941,156.86,0,209.801c-2.014,2.014-2.722,5.734-2.159,8.542c5.803,29.03,22.05,54.81,45.739,72.585     c2.27,1.698,5.24,2.159,7.936,1.229c4.557-1.587,111.957-37.666,151.475,55.023c1.34,3.149,4.429,5.188,7.851,5.188     c3.413,0,6.502-2.039,7.842-5.188c39.518-92.689,146.918-56.61,151.475-55.023c2.671,0.922,5.658,0.486,7.927-1.229     c23.697-17.766,39.945-43.546,45.918-73.412C469.588,374.078,468.717,371.185,466.704,369.163z M430.633,386.81     c-3.712,9.037-8.892,17.323-15.42,24.636c-2.048,2.287-5.129,3.302-8.141,2.662c-14.677-3.123-29.406-4.702-43.759-4.702     c-41.122,0-76.177,13.44-101.393,38.869c-1.596,1.613-3.78,2.526-6.05,2.526c-2.278,0-4.463-0.913-6.059-2.526     c-25.216-25.429-60.271-38.869-101.393-38.869c-14.353,0-29.082,1.579-43.759,4.702c-3.021,0.64-6.11-0.384-8.141-2.662     c-6.519-7.296-11.699-15.582-15.411-24.636c-1.152-2.816-0.725-6.025,1.126-8.431c49.058-63.991,49.058-164.241,0-228.233     c-1.852-2.406-2.278-5.623-1.126-8.431c3.593-8.755,8.568-16.802,14.797-23.936c2.099-2.415,5.367-3.43,8.474-2.662     c11.383,2.807,22.357,4.241,32.614,4.241c66.031-0.008,89.839-54.536,97.007-77.978c0.939-3.081,3.541-5.367,6.716-5.914     c9.907-1.707,20.378-1.707,30.302,0c3.174,0.546,5.777,2.833,6.724,5.922c7.159,23.441,30.95,77.969,96.99,77.969     c10.274,0,21.248-1.434,32.614-4.25c3.089-0.768,6.383,0.256,8.482,2.671c6.221,7.125,11.204,15.172,14.797,23.936     c1.161,2.807,0.725,6.025-1.118,8.431c-49.067,63.992-49.067,164.241,0,228.233C431.35,380.785,431.785,383.994,430.633,386.81z" fill="#8F1622"/>
		</g>
	</g>
</g>
<g>
</g>
<g>
</g>
<g>
</g>
<g>
</g>
<g>
</g>
<g>
</g>
<g>
</g>
<g>
</g>
<g>
</g>
<g>
</g>
<g>
</g>
<g>
</g>
<g>
</g>
<g>
</g>
<g>
</g>
</svg>
