<?xml version="1.0" encoding="iso-8859-1"?>
<!-- Generator: Adobe Illustrator 19.0.0, SVG Export Plug-In . SVG Version: 6.00 Build 0)  -->
<svg xmlns="http://www.w3.org/2000/svg" xmlns:xlink="http://www.w3.org/1999/xlink" version="1.1" id="Layer_1" x="0px" y="0px" viewBox="0 0 511.573 511.573" style="enable-background:new 0 0 511.573 511.573;" xml:space="preserve" width="512px" height="512px">
<g transform="translate(1 1)">
	<g>
		<g>
			<path d="M465.56,158.147c2.56-1.707,3.413-5.12,2.56-7.68v-0.853C462.147,120.6,445.933,95,422.04,77.08     c-2.56-1.707-5.12-2.56-8.533-0.853c-29.867,10.24-53.76,10.24-72.533-0.853c-29.867-17.92-34.987-60.587-34.987-60.587     c0-3.413-2.56-5.973-5.973-6.827c-29.013-11.947-61.44-11.947-91.307,0c-2.56,0.853-5.12,3.413-5.12,6.827     c0,0-5.12,41.813-34.987,60.587c-18.773,11.947-43.52,11.947-73.387,0.853c-2.56-1.707-5.12-0.853-7.68,0.853     C63.64,95,47.427,120.6,41.453,149.613v0.853c0,2.56,0.853,5.973,2.56,7.68c25.6,25.6,40.107,64,40.107,104.96     c0,40.96-14.507,79.36-40.107,104.96c-2.56,1.707-3.413,5.12-2.56,7.68v0.853c5.973,29.013,22.187,54.613,46.08,72.533     c2.56,1.707,5.12,2.56,7.68,1.707c5.12-1.707,112.64-38.4,151.893,54.613c0.853,3.413,4.267,5.12,7.68,5.12     s6.827-1.707,7.68-5.973c40.107-92.16,147.627-56.32,151.893-54.613c2.56,1.707,5.12,0.853,7.68-0.853     c23.893-17.92,40.107-43.52,46.08-72.533v-0.853c0-2.56-0.853-5.973-2.56-7.68C412.653,315.16,412.653,211.053,465.56,158.147z      M415.213,432.067c-22.187-5.973-115.2-27.307-160.427,50.347c-27.307-46.08-71.68-57.173-107.52-57.173     c-23.893,0-44.373,5.12-52.907,7.68c-17.067-14.507-29.867-34.133-34.987-56.32c26.453-28.16,41.813-69.12,41.813-113.493     c0-44.373-15.36-85.333-41.813-114.347c5.12-22.187,17.92-41.813,34.987-56.32c33.28,11.093,61.44,10.24,83.627-3.413     C207.853,70.253,217.24,34.413,219.8,20.76c23.04-7.68,46.933-7.68,69.973,0c2.56,13.653,11.947,49.493,41.813,68.267     c22.187,13.653,50.347,14.507,83.627,3.413c17.92,14.507,29.867,34.133,34.987,56.32c-55.467,59.733-55.467,167.253,0,226.987     C445.08,397.933,433.133,417.56,415.213,432.067z" fill="#8F1622"/>
			<path d="M428.867,149.613c1.707-2.56,1.707-5.973,0.853-8.533c-3.413-8.533-8.533-17.067-14.507-23.893     c-2.56-2.56-5.12-3.413-8.533-2.56c-11.093,2.56-22.187,4.267-32.427,4.267c-66.56,0-90.453-54.613-97.28-77.653     c-0.853-3.413-3.413-5.12-6.827-5.973c-10.24-1.707-20.48-1.707-30.72,0c-3.413,0.853-5.973,2.56-6.827,5.973     c-7.68,23.04-31.573,77.653-97.28,77.653c-10.24,0-21.333-1.707-32.427-4.267c-3.413-0.853-6.827,0-8.533,2.56     c-5.973,6.827-11.093,15.36-14.507,23.893c-1.707,2.56-0.853,5.973,0.853,8.533c48.64,64,48.64,163.84,0,227.84     c-1.707,2.56-1.707,5.973-0.853,8.533c3.413,9.387,8.533,17.067,15.36,24.747c2.56,2.56,5.12,3.413,8.533,2.56     c14.507-3.413,29.013-5.12,43.52-5.12c40.96,0,75.947,13.653,101.547,39.253c1.707,1.707,3.413,2.56,5.973,2.56     s4.267-0.853,5.973-2.56c25.6-25.6,60.587-39.253,101.547-39.253c14.507,0,29.013,1.707,43.52,5.12     c3.413,0.853,6.827,0,8.533-2.56c6.827-7.68,11.947-15.36,15.36-24.747c1.707-2.56,0.853-5.973-0.853-8.533     C380.227,313.453,380.227,213.613,428.867,149.613z M412.653,383.427c-2.56,4.267-5.12,8.533-7.68,11.947     c-14.507-2.56-29.013-4.267-42.667-4.267c-42.667,0-79.36,13.653-107.52,38.4c-28.16-25.6-64.853-38.4-107.52-38.4     c-13.653,0-28.16,1.707-41.813,4.267c-3.413-4.267-5.973-7.68-7.68-11.947c49.493-68.267,49.493-172.373,0-240.64     c1.707-4.267,4.267-7.68,6.827-11.093c11.093,2.56,21.333,3.413,31.573,3.413c74.24,0,103.253-58.88,111.787-84.48     c5.12-0.853,9.387-0.853,14.507,0c9.387,24.747,37.547,84.48,111.787,84.48c10.24,0,20.48-0.853,31.573-3.413     c2.56,3.413,5.12,6.827,6.827,11.093C363.16,211.053,363.16,315.16,412.653,383.427z" fill="#8F1622"/>
			<path d="M305.987,203.373h-102.4c-5.12,0-8.533,3.413-8.533,8.533c0,5.12,3.413,8.533,8.533,8.533h102.4     c5.12,0,8.533-3.413,8.533-8.533C314.52,206.787,311.107,203.373,305.987,203.373z" fill="#8F1622"/>
			<path d="M305.987,246.04h-102.4c-5.12,0-8.533,3.413-8.533,8.533s3.413,8.533,8.533,8.533h102.4c5.12,0,8.533-3.413,8.533-8.533     S311.107,246.04,305.987,246.04z" fill="#8F1622"/>
			<path d="M305.987,288.707h-102.4c-5.12,0-8.533,3.413-8.533,8.533s3.413,8.533,8.533,8.533h102.4c5.12,0,8.533-3.413,8.533-8.533     S311.107,288.707,305.987,288.707z" fill="#8F1622"/>
			<path d="M254.787,169.24c5.12,0,8.533-3.413,8.533-8.533s-3.413-8.533-8.533-8.533s-8.533,3.413-8.533,8.533     S249.667,169.24,254.787,169.24z" fill="#8F1622"/>
			<path d="M254.787,339.907c-5.12,0-8.533,3.413-8.533,8.533s3.413,8.533,8.533,8.533s8.533-3.413,8.533-8.533     S259.907,339.907,254.787,339.907z" fill="#8F1622"/>
		</g>
	</g>
</g>
<g>
</g>
<g>
</g>
<g>
</g>
<g>
</g>
<g>
</g>
<g>
</g>
<g>
</g>
<g>
</g>
<g>
</g>
<g>
</g>
<g>
</g>
<g>
</g>
<g>
</g>
<g>
</g>
<g>
</g>
</svg>
