<?xml version="1.0" encoding="iso-8859-1"?>
<!-- Generator: Adobe Illustrator 19.0.0, SVG Export Plug-In . SVG Version: 6.00 Build 0)  -->
<svg xmlns="http://www.w3.org/2000/svg" xmlns:xlink="http://www.w3.org/1999/xlink" version="1.1" id="Layer_1" x="0px" y="0px" viewBox="0 0 511.999 511.999" style="enable-background:new 0 0 511.999 511.999;" xml:space="preserve" width="512px" height="512px">
<g>
	<g>
		<path d="M255.999,44.71c-66.213,0-120.08,57.278-120.08,127.681c0,7.055,5.719,12.774,12.774,12.774    c7.055,0,12.774-5.719,12.774-12.774c0-56.316,42.407-102.132,94.531-102.132c7.054,0,12.774-5.719,12.774-12.774    C268.774,50.429,263.053,44.71,255.999,44.71z" fill="#8F1622"/>
	</g>
</g>
<g>
	<g>
		<path d="M323.569,200.975c-2.018-3.685-5.885-5.976-10.085-5.976h-41.909l8.305-62.214c0.714-5.344-2.381-10.465-7.445-12.318    c-5.059-1.851-10.73,0.06-13.637,4.603l-69.969,109.407c-2.264,3.539-2.417,8.031-0.4,11.715    c2.018,3.685,5.884,5.976,10.085,5.976h41.909l-8.305,62.214c-0.713,5.344,2.382,10.465,7.445,12.318    c1.295,0.474,2.63,0.701,3.949,0.701c3.834,0,7.527-1.924,9.688-5.304l69.969-109.407    C325.432,209.151,325.586,204.659,323.569,200.975z M261.772,266.015l3.18-23.822c0.438-3.286-0.562-6.601-2.745-9.094    c-2.183-2.494-5.336-3.924-8.65-3.924h-34.042l30.712-48.021l-3.18,23.822c-0.438,3.286,0.562,6.601,2.745,9.094    s5.336,3.924,8.651,3.924h34.042L261.772,266.015z" fill="#8F1622"/>
	</g>
</g>
<g>
	<g>
		<path d="M255.999,0c-90.865,0-164.79,77.334-164.79,172.391c0,44.214,15.84,91.809,43.457,130.578    c21.295,29.893,32.55,63.159,32.55,96.201v8.845v72.048c0,17.609,14.326,31.936,31.936,31.936h113.694    c17.609,0,31.936-14.326,31.936-31.936v-72.048v-8.845c0-33.043,11.257-66.309,32.549-96.201    c27.618-38.77,43.458-86.363,43.458-130.578C420.789,77.334,346.866,0,255.999,0z M319.234,440.847h-63.234    c-7.055,0-12.774,5.719-12.774,12.774s5.719,12.774,12.774,12.774h63.234v13.669c0,3.522-2.865,6.387-6.387,6.387H199.152    c-3.522,0-6.387-2.865-6.387-6.387V420.79h126.468V440.847z M356.523,288.147c-23.562,33.077-36.397,70.021-37.245,107.095H192.72    c-0.848-37.072-13.683-74.017-37.245-107.095c-24.244-34.033-38.718-77.306-38.718-115.756    c0-80.969,62.463-146.842,139.241-146.842s139.241,65.873,139.241,146.842C395.241,210.839,380.767,254.112,356.523,288.147z" fill="#8F1622"/>
	</g>
</g>
<g>
</g>
<g>
</g>
<g>
</g>
<g>
</g>
<g>
</g>
<g>
</g>
<g>
</g>
<g>
</g>
<g>
</g>
<g>
</g>
<g>
</g>
<g>
</g>
<g>
</g>
<g>
</g>
<g>
</g>
</svg>
