<?xml version="1.0" encoding="iso-8859-1"?>
<!-- Generator: Adobe Illustrator 18.0.0, SVG Export Plug-In . SVG Version: 6.00 Build 0)  -->
<!DOCTYPE svg PUBLIC "-//W3C//DTD SVG 1.1//EN" "http://www.w3.org/Graphics/SVG/1.1/DTD/svg11.dtd">
<svg xmlns="http://www.w3.org/2000/svg" xmlns:xlink="http://www.w3.org/1999/xlink" version="1.1" id="Capa_1" x="0px" y="0px" viewBox="0 0 297.401 297.401" style="enable-background:new 0 0 297.401 297.401;" xml:space="preserve" width="512px" height="512px">
<path d="M297.181,115.048c-1.722-11.837-12.698-18.404-13.944-19.114c-2.578-1.47-5.674-1.716-8.451-0.679  c-31.157,11.646-72.284,21.396-98.856,27.09c0.051-0.048,0.119-0.112,0.163-0.154c2.274-2.177,3.392-5.296,3.016-8.421  c-0.377-3.125-2.202-5.891-4.928-7.464l-27.401-15.825c-3.917-2.266-8.87-1.613-12.072,1.588  c-21.033,21.032-91.53,38.875-116.92,43.975c-0.012,0.002-0.02,0.008-0.031,0.01c-1.897,0.388-3.667,1.32-5.071,2.724  C0.741,150.72-2.927,165.73,2.357,181.041c3.693,10.703,10.477,17.915,11.239,18.702c1.541,1.593,3.568,2.629,5.763,2.945  c2.098,0.302,39.343,5.573,80.01,5.573c14.431-0.001,29.297-0.664,43.17-2.45c30.024-3.864,34.982-3.145,43.193-1.952  c6.237,0.906,14.001,2.034,32.056,2.034c45.354,0,68.015-11.495,68.957-11.984c3.313-1.72,5.392-5.143,5.392-8.875v-52.241  C297.325,125.846,297.82,119.443,297.181,115.048z M275.75,116.184c0,0,1.344,0.087,1.64,1.742c0.331,1.854-0.386,2.706-2.163,3.984  c-8.758,6.298-72.987,28.298-110.82,29.548c-2.795,0.093-4.594-1.438-4.594-3.345c0-1.468,1.097-2.248,1.097-2.248  C181.247,141.892,234.277,130.937,275.75,116.184z M142.944,111.361l9.206,5.316c-12.999,10.717-30.191,22.308-42.242,24.512  c-10.397,0.404-21.341,0.451-31.858,0C101.718,133.714,127.318,123.439,142.944,111.361z M217.788,185.894  c-16.609,0-23.58-1.013-29.181-1.826c-10.433-1.516-17.336-2.121-48.622,1.908c-43.345,5.578-99.078-0.695-113.98-2.581  c-1.548-2.118-3.634-5.438-4.906-9.367c-2.102-6.492-1.262-12.166,2.666-17.563c18.474,2.326,79.021,8.96,117.144,1.483v2.358  c0,5.149,3.91,9.457,9.036,9.953c2.878,0.279,6.015,0.42,9.324,0.42c26.231,0,60.288-8.735,78.254-13.942  c4.674-1.355,21.246-6.266,34.613-11.551v33.099C263.8,181.15,245.765,185.894,217.788,185.894z" fill="#8F1622"/>
<g>
</g>
<g>
</g>
<g>
</g>
<g>
</g>
<g>
</g>
<g>
</g>
<g>
</g>
<g>
</g>
<g>
</g>
<g>
</g>
<g>
</g>
<g>
</g>
<g>
</g>
<g>
</g>
<g>
</g>
</svg>
