<?xml version="1.0" encoding="iso-8859-1"?>
<!-- Generator: Adobe Illustrator 19.0.0, SVG Export Plug-In . SVG Version: 6.00 Build 0)  -->
<svg version="1.1" id="Layer_1" xmlns="http://www.w3.org/2000/svg" xmlns:xlink="http://www.w3.org/1999/xlink" x="0px" y="0px"
	 viewBox="0 0 512 512" style="enable-background:new 0 0 512 512;" xml:space="preserve">
<path style="fill:#FF8080;" d="M80,208.008h48c6.912,0,12.992-4.384,15.184-10.944L160,146.6l48.816,146.464
	c2.192,6.56,8.272,10.944,15.184,10.944s12.992-4.384,15.184-10.944l28.352-85.056H304c8.832,0,16-7.168,16-16s-7.168-16-16-16h-48
	c-6.912,0-12.992,4.384-15.184,10.944L224,237.416L175.184,90.952c-2.192-6.56-8.272-10.944-15.184-10.944
	s-12.992,4.384-15.184,10.944l-28.352,85.056H80c-8.832,0-16,7.168-16,16S71.168,208.008,80,208.008L80,208.008z"/>
<path style="fill:#4D4D4D;" d="M316.448,67.56l-11.312,11.312C336.416,110.152,351.984,151,352,192.008
	c-0.016,41.008-15.6,81.856-46.864,113.136c-31.28,31.264-72.144,46.848-113.136,46.864c-41.008-0.016-81.856-15.6-113.136-46.864
	C47.584,273.864,32.016,233.016,32,192.008C32.016,151,47.584,110.152,78.864,78.872S150.992,32.024,192,32.008
	c41.008,0.016,81.856,15.584,113.136,46.864L316.448,67.56l11.312-11.312C290.32,18.776,241.088-0.008,192,0.008
	c-49.088-0.016-98.32,18.768-135.76,56.24C18.768,93.688-0.016,142.92,0,192.008c-0.016,49.088,18.768,98.32,56.24,135.76
	c37.44,37.456,86.672,56.256,135.76,56.24c49.088,0.016,98.32-18.784,135.76-56.24c37.456-37.44,56.256-86.672,56.24-135.76
	c0.016-49.088-18.784-98.32-56.24-135.76L316.448,67.56z"/>
<path style="fill:#FF8080;" d="M486.624,418.744l-73.376-73.376c-12.496-12.496-32.752-12.496-45.248,0l-22.624,22.64
	c-12.496,12.496-12.496,32.752,0,45.248l73.376,73.376c12.496,12.496,32.752,12.496,45.248,0l22.624-22.624
	C499.12,451.512,499.12,431.256,486.624,418.744z"/>
<g>
	<path style="fill:#4D4D4D;" d="M486.624,418.744l11.312-11.312l-73.376-73.376c-9.328-9.344-21.712-14.08-33.936-14.064
		c-12.224-0.016-24.608,4.72-33.936,14.064l-22.624,22.624c-9.344,9.328-14.08,21.712-14.064,33.936
		c-0.016,12.224,4.72,24.608,14.064,33.936l73.376,73.376c9.328,9.344,21.712,14.08,33.936,14.064
		c12.224,0.016,24.608-4.72,33.936-14.048l22.624-22.624c9.344-9.328,14.08-21.712,14.064-33.936
		c0.016-12.224-4.72-24.608-14.064-33.936L486.624,418.744l-11.312,11.312c3.152,3.168,4.672,7.168,4.688,11.312
		c-0.016,4.144-1.536,8.144-4.688,11.312l-22.624,22.624c-3.168,3.152-7.168,4.672-11.312,4.688
		c-4.144-0.016-8.144-1.536-11.312-4.688l-73.376-73.376c-3.152-3.168-4.672-7.168-4.688-11.312
		c0.016-4.144,1.536-8.144,4.688-11.312l22.624-22.624c3.168-3.152,7.168-4.672,11.312-4.688c4.144,0.016,8.144,1.536,11.312,4.688
		l73.376,73.376L486.624,418.744z"/>
	<path style="fill:#4D4D4D;" d="M368,345.384l-36.688-36.688c-6.24-6.256-16.384-6.256-22.624,0c-6.256,6.24-6.256,16.384,0,22.624
		l36.688,36.688c6.256,6.256,16.384,6.256,22.624,0S374.24,351.624,368,345.384"/>
</g>
<g>
</g>
<g>
</g>
<g>
</g>
<g>
</g>
<g>
</g>
<g>
</g>
<g>
</g>
<g>
</g>
<g>
</g>
<g>
</g>
<g>
</g>
<g>
</g>
<g>
</g>
<g>
</g>
<g>
</g>
</svg>
