<?xml version="1.0" encoding="iso-8859-1"?>
<!-- Generator: Adobe Illustrator 18.0.0, SVG Export Plug-In . SVG Version: 6.00 Build 0)  -->
<!DOCTYPE svg PUBLIC "-//W3C//DTD SVG 1.1//EN" "http://www.w3.org/Graphics/SVG/1.1/DTD/svg11.dtd">
<svg xmlns="http://www.w3.org/2000/svg" xmlns:xlink="http://www.w3.org/1999/xlink" version="1.1" id="Capa_1" x="0px" y="0px" viewBox="0 0 297 297" style="enable-background:new 0 0 297 297;" xml:space="preserve" width="512px" height="512px">
<path d="M297,77.411c0-3.571-1.906-6.867-4.989-8.664c-3.086-1.798-6.899-1.817-10.007-0.057  c-0.246,0.139-24.936,13.938-53.845,13.938c-16.532,0-31.273-4.509-43.815-13.402c-2.596-1.842-5.918-2.326-8.941-1.332  c-3.024,0.994-5.402,3.378-6.4,6.4c-0.052,0.159-5.427,16.108-20.021,32.7c-19.276,21.916-44.885,34.682-76.115,37.944  c-42.49,4.439-65.909,14.393-71.595,30.434c-3.011,8.494-0.6,17.774,6.45,24.823c16.651,16.653,49.374,29.419,87.534,29.419  c24.487,0,50.002-6.706,75.835-14.365c8.592-2.547,16.976-4.648,25.065-6.379v10.71c0,5.541,4.493,10.034,10.033,10.034h80.777  c5.541,0,10.034-4.493,10.034-10.034V77.411z M259.781,137.355c6.115-4.535,12.129-7.963,17.152-10.447v54.487  c-2.858-0.099-6.222-0.167-10.037-0.167c-10.714,0-24.161,0.535-39.509,2.263C232.172,165.278,243.02,149.785,259.781,137.355z   M183.151,91.996c13.503,7.107,28.592,10.7,45.008,10.7c19.52,0,37.049-5.121,48.774-9.673v11.891  c-6.749,2.726-17.41,7.755-28.486,15.866c-6.777,4.962-12.818,10.426-18.09,16.332c-23.307,10.069-82.686,32.346-108.597,27.552  c-8.185-1.515-12.715-4.083-14.781-6.638c13.406-4.506,24.69-10.577,34.079-17.174l14.117,9.342  c1.704,1.128,3.626,1.667,5.528,1.667c3.253,0,6.446-1.581,8.376-4.497c3.059-4.621,1.791-10.846-2.83-13.904l-9.062-5.997  c1.768-1.724,3.425-3.436,4.974-5.122l12.438,6.878c1.539,0.851,3.204,1.255,4.846,1.255c3.532,0,6.959-1.869,8.789-5.18  c2.682-4.849,0.924-10.955-3.925-13.635l-9.568-5.29C178.336,101.019,181.098,96.088,183.151,91.996z M20.185,182.078  c0.565-2.662,3.8-9.477,39.336-15.167c-1.523,10.146-2.306,24.368,1.964,36.714c-19.647-3.903-32.868-10.912-39.573-17.618  C21.675,185.772,19.837,183.719,20.185,182.078z M88.02,208.884c-13.222-7.34-9.818-34.029-7.602-44.662  c2.274-0.317,4.51-0.671,6.694-1.073c0.635,1.711,1.493,3.491,2.676,5.295c5.304,8.089,14.833,13.456,28.32,15.952  c3.56,0.658,7.461,0.958,11.627,0.958c25.888,0,59.891-11.123,82.603-19.827c-2.797,6.686-4.855,13.696-6.157,20.978  c-12.822,2.21-26.538,5.279-40.793,9.505C141.407,203.12,113.387,211.727,88.02,208.884z M216.223,209.548v-4.346  c20.1-3.063,37.553-3.908,50.672-3.908c3.89,0,7.254,0.078,10.037,0.184v8.071H216.223z" fill="#8F1622"/>
<g>
</g>
<g>
</g>
<g>
</g>
<g>
</g>
<g>
</g>
<g>
</g>
<g>
</g>
<g>
</g>
<g>
</g>
<g>
</g>
<g>
</g>
<g>
</g>
<g>
</g>
<g>
</g>
<g>
</g>
</svg>
