<?xml version="1.0" encoding="iso-8859-1"?>
<!-- Generator: Adobe Illustrator 19.0.0, SVG Export Plug-In . SVG Version: 6.00 Build 0)  -->
<svg xmlns="http://www.w3.org/2000/svg" xmlns:xlink="http://www.w3.org/1999/xlink" version="1.1" id="Layer_1" x="0px" y="0px" viewBox="0 0 512.001 512.001" style="enable-background:new 0 0 512.001 512.001;" xml:space="preserve" width="512px" height="512px">
<g>
	<g>
		<g>
			<path d="M204.884,64.061l-9.116-12.693c-11.947,8.58-22.13,19.847-29.447,32.583l13.55,7.785     C186.086,80.919,194.735,71.349,204.884,64.061z" fill="#8F1622"/>
			<path d="M204.429,45.779l7.808,13.536c4.669-2.693,9.611-4.963,14.685-6.746l-5.179-14.744     C215.76,39.928,209.934,42.605,204.429,45.779z" fill="#8F1622"/>
			<path d="M255.651,295.73c13.134,0,23.819-10.686,23.819-23.82h-15.627c0,4.517-3.674,8.193-8.192,8.193     c-4.517,0-8.193-3.676-8.193-8.193h-15.627C231.831,285.044,242.516,295.73,255.651,295.73z" fill="#8F1622"/>
			<rect x="183.618" y="136.049" width="40.016" height="15.627" fill="#8F1622"/>
			<rect x="287.663" y="136.049" width="40.016" height="15.627" fill="#8F1622"/>
			<polygon points="384.397,455.79 392.141,455.79 392.141,512 407.768,512 407.768,440.163 384.397,440.163    " fill="#8F1622"/>
			<polygon points="104.93,512 120.557,512 120.557,455.79 128.302,455.79 128.302,440.163 104.93,440.163    " fill="#8F1622"/>
			<rect x="248.345" y="472.178" width="16.006" height="15.627" fill="#8F1622"/>
			<rect x="248.345" y="496.181" width="16.006" height="15.627" fill="#8F1622"/>
			<rect x="196.519" y="187.88" transform="matrix(-0.8 -0.6 0.6 -0.8 243.0642 496.7983)" width="15.627" height="40.016" fill="#8F1622"/>
			<rect x="300.555" y="187.885" transform="matrix(-0.8 -0.6 0.6 -0.8 430.3288 559.228)" width="15.627" height="40.016" fill="#8F1622"/>
			<path d="M208.331,343.748h0.001h16.195v24.01h39.635v-24.008h40.204v-15.627h-96.036V343.748z M240.154,343.748h8.381v8.382     h-8.381V343.748z" fill="#8F1622"/>
			<path d="M176.32,432.16c-17.547,0-31.822,14.276-31.822,31.822c0,17.546,14.276,31.822,31.822,31.822     s31.822-14.276,31.822-31.822C208.142,446.436,193.866,432.16,176.32,432.16z M176.32,480.178     c-8.93,0-16.195-7.266-16.195-16.195c0-8.929,7.266-16.195,16.195-16.195s16.195,7.266,16.195,16.195     C192.515,472.912,185.249,480.178,176.32,480.178z" fill="#8F1622"/>
			<path d="M471.176,391.516c-24.028-31.763-57.567-55.974-95.052-68.773c4.775-13.391,7.384-27.802,7.384-42.81l0.124-48.227h0.066     c17.547,0,31.822-14.276,31.822-31.822c0-17.515-14.223-31.767-31.724-31.82l0.102-39.878     c0.088-34.214-13.171-66.397-37.332-90.622C322.404,13.341,290.254,0,256.04,0c-70.319,0-127.675,57.21-127.857,127.53     l-0.104,40.533h-0.477c-17.547,0-31.822,14.276-31.822,31.823c0,17.547,14.276,31.822,31.822,31.822h0.314l-0.124,48.206     c0,15.096,2.637,29.585,7.462,43.042C98.018,335.81,64.716,359.93,40.82,391.52C14.407,426.44,0.444,468.1,0.444,512h15.627     c0-2.741,0.065-5.472,0.182-8.192h55.839V456.17H24.64c6.253-19.719,15.865-38.328,28.643-55.221     c22.271-29.44,53.395-51.839,88.163-63.589c12.71,25.165,33.504,45.562,58.938,57.809l55.965,64.814l57.507-66.256     c24.167-12.409,43.89-32.285,56.101-56.565c35.007,11.693,66.359,34.175,88.757,63.784     c24.346,32.182,37.215,70.584,37.215,111.056h15.627C511.555,468.098,497.592,426.435,471.176,391.516z M383.755,183.692     c8.903,0.031,16.138,7.282,16.138,16.193c0,8.93-7.266,16.195-16.195,16.195h-0.025L383.755,183.692z M127.956,216.08h-0.353     c-8.93,0-16.195-7.266-16.195-16.195c0-8.93,7.266-16.196,16.195-16.196h0.437L127.956,216.08z M56.464,471.796v16.384H18.266     l4.096-16.384H56.464z M256.35,435.97l-26.393-30.793c8.303,1.7,16.896,2.594,25.695,2.594c9.408,0,18.579-1.03,27.413-2.968     L256.35,435.97z M367.881,279.915c0,61.884-50.346,112.231-112.232,112.231c-61.883,0-112.231-50.346-112.231-112.211     l0.215-83.655l16.869,8.434v51.003h87.653v-40.015h16.385v40.015h87.654v-51.003l15.899-7.949L367.881,279.915z M176.13,240.09     v-64.402h56.399v64.402H176.13z M280.168,240.09v-64.402h56.399v64.402H280.168z M368.14,179.271l-15.944,7.972v-27.184h-87.653     v40.015h-16.386v-40.015h-87.653v27.184l-16.824-8.413l0.131-51.261c0.158-61.725,50.506-111.942,112.23-111.942     c30.032,0,58.253,11.71,79.461,32.973c21.209,21.263,32.846,49.513,32.769,79.546L368.14,179.271z" fill="#8F1622"/>
		</g>
	</g>
</g>
<g>
</g>
<g>
</g>
<g>
</g>
<g>
</g>
<g>
</g>
<g>
</g>
<g>
</g>
<g>
</g>
<g>
</g>
<g>
</g>
<g>
</g>
<g>
</g>
<g>
</g>
<g>
</g>
<g>
</g>
</svg>
