<?xml version="1.0" encoding="iso-8859-1"?>
<!-- Generator: Adobe Illustrator 18.0.0, SVG Export Plug-In . SVG Version: 6.00 Build 0)  -->
<!DOCTYPE svg PUBLIC "-//W3C//DTD SVG 1.1//EN" "http://www.w3.org/Graphics/SVG/1.1/DTD/svg11.dtd">
<svg xmlns="http://www.w3.org/2000/svg" xmlns:xlink="http://www.w3.org/1999/xlink" version="1.1" id="Capa_1" x="0px" y="0px" viewBox="0 0 294.38 294.38" style="enable-background:new 0 0 294.38 294.38;" xml:space="preserve" width="512px" height="512px">
<path d="M111.078,209.32c16.784-1.252,36.612-10.702,56.251-18.8c12.07-4.978,24.747-10.205,38.013-14.726l5.839,26.227  c1.111,4.453,5.112,7.298,9.702,7.298h37.086c3.788,0,7.251-1.861,8.944-5.248c7.504-15.01,15.876-40.842,18.507-45.886  c18.798-36.036,2.321-64.604,1.437-65.913c-2.839-4.2-8.372-5.612-12.876-3.284c-14.896,7.697-41.28,20.326-69.658,31.889  L191.398,90.89c-2.186-5.072-8.067-7.411-13.142-5.226c-5.072,2.186-7.411,8.07-5.226,13.142l12.661,29.375  c-33.281,12.504-66.343,20.898-84.923,18.767c-10.305-1.183-15.471-2.516-17.36-5.032c-2.485-3.311-0.822-6.435-5.2-9.561  c-5.372-3.837-12.095-3.183-32.428,1.053c-27.583,5.746-41.925,14.294-45.137,26.9c-2.478,9.727,2.205,19.704,13.917,29.655  c13.295,11.294,39.339,19.357,71.902,19.357C92.971,209.32,104.588,209.804,111.078,209.32z M251.689,189.6h-22.995l-4.191-19.63  c11.953-3.15,24.344-5.436,37.157-6.234C258.789,170.743,255.162,182.158,251.689,189.6z M271.003,143.427  c-42.32,0.163-80.425,15.872-111.299,28.602c-19.284,7.952-35.938,14.819-50.176,16.955c-38.095,5.712-69.217-3.39-82.018-14.264  c-6.69-5.684-7.614-8.968-7.484-9.477c0.016-0.064,2.393-6.541,29.834-12.257c7.606-1.585,12.31-2.409,15.216-2.819  c3.659,8.516,13.436,13.346,32.405,16.508c22.36,3.729,60.61-5.352,113.685-26.983c26.431-10.772,50.227-22.135,62.737-28.297  C276.346,118.801,277.994,130.615,271.003,143.427z" fill="#8F1622"/>
<g>
</g>
<g>
</g>
<g>
</g>
<g>
</g>
<g>
</g>
<g>
</g>
<g>
</g>
<g>
</g>
<g>
</g>
<g>
</g>
<g>
</g>
<g>
</g>
<g>
</g>
<g>
</g>
<g>
</g>
</svg>
