<?xml version="1.0" encoding="iso-8859-1"?>
<!-- Generator: Adobe Illustrator 19.0.0, SVG Export Plug-In . SVG Version: 6.00 Build 0)  -->
<svg xmlns="http://www.w3.org/2000/svg" xmlns:xlink="http://www.w3.org/1999/xlink" version="1.1" id="Layer_1" x="0px" y="0px" viewBox="0 0 512 512" style="enable-background:new 0 0 512 512;" xml:space="preserve" width="512px" height="512px">
<g transform="translate(1 1)">
	<g>
		<g>
			<path d="M470.043,287.976c-1.736-1.736-4.339-2.603-6.942-2.603c-15.62,0-27.769-4.339-37.315-14.753     c-26.034-26.902-23.431-79.837-23.431-80.705c0-96.325,24.298-143.186,25.166-143.186c0.868-2.603,0.868-5.207,0-7.81     s-3.471-4.339-6.075-5.207L256.565-1c-2.603,0-4.339,0-6.942,1.736s-3.471,4.339-3.471,6.942     c0,26.034-8.678,47.729-26.902,64.217c-53.803,49.464-170.956,39.919-171.824,39.919c-2.603,0-5.207,0.868-6.942,2.603     s-2.603,3.471-2.603,6.075v381.831c0,5.207,3.471,8.678,8.678,8.678h199.593c4.339,0,7.81-2.603,8.678-6.942l18.224-112.814     l25.166,112.814c0.868,4.339,4.339,6.942,8.678,6.942h130.169c4.339,0,7.81-3.471,8.678-7.81l26.034-208.271     C472.647,292.315,471.779,289.712,470.043,287.976z M429.257,493.644H313.84l-32.976-149.261     c-0.868-4.339-4.339-6.942-8.678-6.942c-4.339,0-7.81,2.603-8.678,6.942l-24.298,149.261H55.237V241.983h8.678     c5.207,0,8.678-3.471,8.678-8.678c0-5.207-3.471-8.678-8.678-8.678h-8.678v-94.59c30.373,0.868,124.963,0.868,175.295-45.993     c19.092-17.356,29.505-39.919,32.109-65.953l144.922,31.241c-7.81,19.091-22.563,65.085-22.563,140.583     c0,0.869-0.653,15.895,2.623,34.712h-11.301c-5.207,0-8.678,3.471-8.678,8.678c0,5.207,3.471,8.678,8.678,8.678h15.34     c4.201,14.136,10.996,28.635,21.975,39.919c10.414,11.281,24.298,18.224,39.919,19.959L429.257,493.644z" fill="#8F1622"/>
			<path d="M150.694,224.627h-34.712c-5.207,0-8.678,3.471-8.678,8.678c0,5.207,3.471,8.678,8.678,8.678h34.712     c5.207,0,8.678-3.471,8.678-8.678C159.372,228.098,155.901,224.627,150.694,224.627z" fill="#8F1622"/>
			<path d="M324.253,224.627h-34.712c-5.207,0-8.678,3.471-8.678,8.678c0,5.207,3.471,8.678,8.678,8.678h34.712     c5.207,0,8.678-3.471,8.678-8.678C332.931,228.098,329.46,224.627,324.253,224.627z" fill="#8F1622"/>
			<path d="M237.474,224.627h-34.712c-5.207,0-8.678,3.471-8.678,8.678c0,5.207,3.471,8.678,8.678,8.678h34.712     c5.207,0,8.678-3.471,8.678-8.678C246.152,228.098,242.681,224.627,237.474,224.627z" fill="#8F1622"/>
		</g>
	</g>
</g>
<g>
</g>
<g>
</g>
<g>
</g>
<g>
</g>
<g>
</g>
<g>
</g>
<g>
</g>
<g>
</g>
<g>
</g>
<g>
</g>
<g>
</g>
<g>
</g>
<g>
</g>
<g>
</g>
<g>
</g>
</svg>
