<?xml version="1.0" encoding="iso-8859-1"?>
<!-- Generator: Adobe Illustrator 19.0.0, SVG Export Plug-In . SVG Version: 6.00 Build 0)  -->
<svg xmlns="http://www.w3.org/2000/svg" xmlns:xlink="http://www.w3.org/1999/xlink" version="1.1" id="Layer_1" x="0px" y="0px" viewBox="0 0 511.998 511.998" style="enable-background:new 0 0 511.998 511.998;" xml:space="preserve" width="512px" height="512px">
<g>
	<g>
		<g>
			<path d="M182.237,160.633c-34.504,0-69.424,11.924-69.424,34.712c0,22.788,34.92,34.712,69.424,34.712     s69.424-11.924,69.424-34.712C251.661,172.556,216.741,160.633,182.237,160.633z M182.237,212.7     c-32.299,0-52.068-11.238-52.068-17.356c0-6.118,19.768-17.356,52.068-17.356s52.068,11.238,52.068,17.356     C234.305,201.462,214.537,212.7,182.237,212.7z" fill="#8F1622"/>
			<path d="M433.898,247.109v35.016c0,4.799-3.888,8.678-8.678,8.678s-8.678-3.879-8.678-8.678v-37.35     c-6.144-1.25-11.993-2.881-17.356-4.92v42.27c0,4.799-3.888,8.678-8.678,8.678s-8.678-3.879-8.678-8.678v-51.235     c-10.787-7.446-17.356-16.818-17.356-26.867v-8.678c0-43.798-80.046-78.102-182.237-78.102S0,151.547,0,195.344v121.492     c0,19.69,16.28,37.428,43.39,51.026v-33.671c0-4.799,3.888-8.678,8.678-8.678s8.678,3.879,8.678,8.678v41.212     c8.053,3.055,16.757,5.797,26.034,8.201V342.87c0-4.799,3.888-8.678,8.678-8.678s8.678,3.879,8.678,8.678v44.7     c8.357,1.657,17.009,3.089,26.034,4.2v-40.222c0-4.799,3.888-8.678,8.678-8.678c4.79,0,8.678,3.879,8.678,8.678v41.984     c8.461,0.677,17.174,1.05,26.034,1.224v-34.53c0-4.799,3.888-8.678,8.678-8.678c4.79,0,8.678,3.879,8.678,8.678v34.53     c8.86-0.174,17.573-0.547,26.034-1.224v-41.984c0-4.799,3.888-8.678,8.678-8.678c4.79,0,8.678,3.879,8.678,8.678v40.222     c9.025-1.111,17.677-2.543,26.034-4.2v-44.7c0-4.799,3.888-8.678,8.678-8.678c4.79,0,8.678,3.879,8.678,8.678v40.734     c9.277-2.404,17.981-5.146,26.034-8.201v-41.212c0-4.799,3.888-8.678,8.678-8.678s8.678,3.879,8.678,8.678v33.671     c15.1-7.567,26.676-16.462,34.113-26.225c8.834,12.835,24.376,23.222,43.989,29.462v-45.585c0-4.799,3.888-8.678,8.678-8.678     s8.678,3.879,8.678,8.678v49.803c8.261,1.441,16.957,2.265,26.034,2.265h8.678v-130.17h-8.678     C439.643,247.412,436.753,247.299,433.898,247.109z M60.746,282.124c0,4.799-3.888,8.678-8.678,8.678s-8.678-3.879-8.678-8.678     v-34.712c0-0.338,0.156-0.625,0.191-0.946c5.311,2.655,11.064,5.129,17.165,7.446V282.124z M104.136,282.124     c0,4.799-3.888,8.678-8.678,8.678s-8.678-3.879-8.678-8.678v-20.011c5.589,1.449,11.377,2.777,17.356,3.966V282.124z      M147.525,299.48c0,4.799-3.888,8.678-8.678,8.678c-4.79,0-8.678-3.879-8.678-8.678v-29.201     c5.675,0.703,11.455,1.293,17.356,1.762V299.48z M190.915,290.802c0,4.799-3.888,8.678-8.678,8.678     c-4.79,0-8.678-3.879-8.678-8.678v-17.538c2.898,0.052,5.745,0.182,8.678,0.182c2.933,0,5.78-0.13,8.678-0.182V290.802z      M234.305,299.48c0,4.799-3.888,8.678-8.678,8.678c-4.79,0-8.678-3.879-8.678-8.678v-27.44     c5.901-0.469,11.681-1.059,17.356-1.762V299.48z M277.695,282.124c0,4.799-3.888,8.678-8.678,8.678     c-4.79,0-8.678-3.879-8.678-8.678v-16.046c5.979-1.189,11.767-2.517,17.356-3.966V282.124z M321.085,282.124     c0,4.799-3.888,8.678-8.678,8.678s-8.678-3.879-8.678-8.678v-28.212c6.101-2.317,11.854-4.79,17.165-7.446     c0.035,0.321,0.191,0.607,0.191,0.946V282.124z M182.237,256.09c-97.167,0-164.881-32.013-164.881-60.746     c0-28.733,67.714-60.746,164.881-60.746s164.881,32.013,164.881,60.746C347.119,224.077,279.404,256.09,182.237,256.09z" fill="#8F1622"/>
			<path d="M499.25,247.412h-30.642v130.17h30.642c7.029,0,12.748-5.719,12.748-12.757V260.169     C511.998,253.131,506.279,247.412,499.25,247.412z" fill="#8F1622"/>
		</g>
	</g>
</g>
<g>
</g>
<g>
</g>
<g>
</g>
<g>
</g>
<g>
</g>
<g>
</g>
<g>
</g>
<g>
</g>
<g>
</g>
<g>
</g>
<g>
</g>
<g>
</g>
<g>
</g>
<g>
</g>
<g>
</g>
</svg>
