<?xml version="1.0" encoding="iso-8859-1"?>
<!-- Generator: Adobe Illustrator 19.0.0, SVG Export Plug-In . SVG Version: 6.00 Build 0)  -->
<svg version="1.1" id="Layer_1" xmlns="http://www.w3.org/2000/svg" xmlns:xlink="http://www.w3.org/1999/xlink" x="0px" y="0px"
	 viewBox="0 0 512 512" style="enable-background:new 0 0 512 512;" xml:space="preserve">
<g>
	<path style="fill:#FF8080;" d="M379.088,96C381.936,91.216,384,85.952,384,80V48c0-17.68-14.336-32-32-32H160
		c-17.68,0-32,14.32-32,32v32c0,5.952,2.064,11.216,4.912,16H379.088z"/>
	<path style="fill:#FF8080;" d="M96,416h320V192H96V416z M176,288h64v-64h32v64h64v32h-64v64h-32v-64h-64V288z"/>
</g>
<path style="fill:#4D4D4D;" d="M381.456,117.632C392.656,108.848,400,95.344,400,80V48c-0.016-26.512-21.488-47.984-48-48H160
	c-26.512,0.016-47.984,21.488-48,48v32c0,15.344,7.344,28.848,18.544,37.632C99.568,149.2,80,192.144,80,240v224
	c0.016,26.512,21.488,48,48,48h256c26.512,0,47.984-21.488,48-48V240C432,192.144,412.432,149.2,381.456,117.632z M400,464
	c-0.016,8.832-7.168,15.984-16,16H128c-8.832-0.016-15.984-7.168-16-16V240c0-47.28,23.056-88.768,58.432-115.168
	c5.536-4.128,7.808-11.312,5.632-17.872C173.888,100.4,167.792,96,160.88,96H160c-8.832-0.016-15.984-7.168-16-16V48
	c0.016-8.832,7.168-16,16-16h192c8.832,0,15.984,7.168,16,16v32c-0.016,8.832-7.168,15.984-16,16h-0.88
	c-6.912,0-13.008,4.4-15.184,10.96s0.08,13.744,5.632,17.872C376.944,151.232,400,192.72,400,240V464z"/>
<g>
</g>
<g>
</g>
<g>
</g>
<g>
</g>
<g>
</g>
<g>
</g>
<g>
</g>
<g>
</g>
<g>
</g>
<g>
</g>
<g>
</g>
<g>
</g>
<g>
</g>
<g>
</g>
<g>
</g>
</svg>
