<?xml version="1.0" encoding="iso-8859-1"?>
<!-- Generator: Adobe Illustrator 18.0.0, SVG Export Plug-In . SVG Version: 6.00 Build 0)  -->
<!DOCTYPE svg PUBLIC "-//W3C//DTD SVG 1.1//EN" "http://www.w3.org/Graphics/SVG/1.1/DTD/svg11.dtd">
<svg xmlns="http://www.w3.org/2000/svg" xmlns:xlink="http://www.w3.org/1999/xlink" version="1.1" id="Capa_1" x="0px" y="0px" viewBox="0 0 297 297" style="enable-background:new 0 0 297 297;" xml:space="preserve" width="512px" height="512px">
<path d="M297,73.841c0-3.24-1.554-6.283-4.179-8.184c-2.624-1.9-6-2.428-9.079-1.415c-0.168,0.055-17.072,5.527-38.337,5.527  c-25.529,0-45.456-7.683-59.225-22.836c-2.72-2.993-6.965-4.068-10.785-2.746c-3.822,1.324-6.487,4.805-6.772,8.84  c-0.02,0.278-2.12,28.096-15.364,56.443c-17.057,36.508-43.974,56.91-80.003,60.641c-43.493,4.504-66.378,14.005-72.02,29.9  c-3.025,8.524-0.427,18.018,6.952,25.396c17.791,17.788,47.712,27.585,84.252,27.585c24.271,0,50.803-4.22,78.857-12.542  c8.459-2.509,16.796-4.6,24.892-6.346v9.161c0,5.58,4.524,10.104,10.104,10.104h80.602c5.58,0,10.104-4.524,10.104-10.104V73.841z   M276.792,205.394c-11.122,0-29.409,0.56-49.602,3.035c8.484-35.075,36.068-49.346,49.602-54.344V205.394z M245.406,89.978  c12.332,0,23.368-1.593,31.386-3.208v46.091c-5.677,1.631-17.799,5.811-30.491,14.568c-5,3.45-10.401,7.842-15.61,13.34  c-22.912,10.786-83.002,35.26-108.072,29.145c-8.803-2.148-13.244-5.1-15.224-7.529c10.195-4.106,19.611-9.659,28.166-16.625  l13.816,9.073c1.71,1.123,3.634,1.66,5.536,1.66c3.29,0,6.515-1.604,8.455-4.559c3.064-4.664,1.765-10.929-2.899-13.992  l-10.107-6.637c2.316-2.688,4.552-5.499,6.694-8.449l12.318,7.813c1.679,1.065,3.551,1.573,5.402,1.573  c3.345,0,6.618-1.66,8.542-4.693c2.989-4.713,1.593-10.955-3.12-13.944l-12.466-7.907c1.424-2.676,2.796-5.425,4.105-8.256  c0.626-1.354,1.222-2.703,1.804-4.049l9.469,5.731c1.636,0.99,3.44,1.461,5.222,1.461c3.419,0,6.755-1.737,8.654-4.874  c2.889-4.774,1.361-10.986-3.413-13.876l-12.817-7.757c2.367-7.655,4.057-14.724,5.252-20.708  C202.038,84.288,222.222,89.978,245.406,89.978z M20.281,206.77c0.451-2.463,3.633-8.98,39.492-14.567  c-1.79,10.138-2.808,24.825,2.297,37.773c-16.927-3.398-30.542-9.81-39.592-18.858C21.139,209.78,20.029,208.148,20.281,206.77z   M89.549,232.785c-15.63-9.303-10.825-34.378-8.514-43.306c2.243-0.335,4.462-0.719,6.648-1.168  c3.373,8.072,11.885,16.78,30.147,21.236c4.113,1.003,8.711,1.452,13.659,1.452c24.206,0,56.643-10.759,80.034-19.999  c-2.421,6.205-4.344,13.055-5.572,20.606c-12.823,2.27-26.451,5.335-40.398,9.472C139.364,228.846,111.873,232.785,89.549,232.785z   M276.792,225.602v7.56h-60.394v-2.823C241.363,226.395,263.88,225.602,276.792,225.602z" fill="#8F1622"/>
<g>
</g>
<g>
</g>
<g>
</g>
<g>
</g>
<g>
</g>
<g>
</g>
<g>
</g>
<g>
</g>
<g>
</g>
<g>
</g>
<g>
</g>
<g>
</g>
<g>
</g>
<g>
</g>
<g>
</g>
</svg>
