<?xml version="1.0" encoding="iso-8859-1"?>
<!-- Generator: Adobe Illustrator 18.0.0, SVG Export Plug-In . SVG Version: 6.00 Build 0)  -->
<!DOCTYPE svg PUBLIC "-//W3C//DTD SVG 1.1//EN" "http://www.w3.org/Graphics/SVG/1.1/DTD/svg11.dtd">
<svg xmlns="http://www.w3.org/2000/svg" xmlns:xlink="http://www.w3.org/1999/xlink" version="1.1" id="Capa_1" x="0px" y="0px" viewBox="0 0 297.017 297.017" style="enable-background:new 0 0 297.017 297.017;" xml:space="preserve" width="512px" height="512px">
<path d="M208.595,190.355v10.801c0,5.56,4.508,10.068,10.068,10.068h68.287c5.56,0,10.068-4.508,10.068-10.068v-94.47  c0-3.432-1.753-6.628-4.644-8.478c-2.893-1.851-6.531-2.099-9.647-0.662c-0.407,0.188-38.747,17.645-85.214,21.079  c1.334-12.774-6.793-24.487-12.753-30.096c-3.922-3.691-10.058-3.642-13.921,0.116c-30.087,29.274-72.37,48.396-119.06,53.843  c-22.906,2.672-38.527,9.994-46.431,21.764c-7.668,11.419-4.952,22.446-4.571,23.652c0.783,2.48,2.658,4.855,5.35,6.377  c23.686,13.395,51.716,16.265,79.8,16.265C126.465,210.545,169.509,200.974,208.595,190.355z M185.885,138.846  c37.079-1.159,73.062-10.703,90.996-17.261v42.178c-9.484-0.139-24.235,0.003-39.952,1.495  c-13.818-18.057-35.502-20.797-52.692-20.797c-1.762,0-3.477,0.029-5.131,0.073C181.436,142.714,183.742,140.822,185.885,138.846z   M202.699,171.085c-60.404,16.413-128.892,29.928-182.157,7.599c0.317-1.082,0.86-2.302,1.77-3.564  c2.618-3.638,10.232-10.116,31.799-12.632c46.836-5.465,89.771-23.657,122.217-51.588c1.115,2.48,1.673,5.196,0.634,7.573  c-1.661,3.794-9.917,9.991-15.38,14.09c-9.66,7.25-16.64,12.488-15.583,20.931c0.555,4.438,3.472,8.066,7.999,9.953  c4.896,2.04,11.04,1.789,19.54,1.437c11.399-0.469,25.812-1.063,36.973,4.309C207.859,169.764,205.248,170.393,202.699,171.085z   M228.731,191.088v-4.622c18.362-2.485,37.2-2.701,48.15-2.548v7.169H228.731z" fill="#8F1622"/>
<g>
</g>
<g>
</g>
<g>
</g>
<g>
</g>
<g>
</g>
<g>
</g>
<g>
</g>
<g>
</g>
<g>
</g>
<g>
</g>
<g>
</g>
<g>
</g>
<g>
</g>
<g>
</g>
<g>
</g>
</svg>
