<?xml version="1.0" encoding="iso-8859-1"?>
<!-- Generator: Adobe Illustrator 18.0.0, SVG Export Plug-In . SVG Version: 6.00 Build 0)  -->
<!DOCTYPE svg PUBLIC "-//W3C//DTD SVG 1.1//EN" "http://www.w3.org/Graphics/SVG/1.1/DTD/svg11.dtd">
<svg xmlns="http://www.w3.org/2000/svg" xmlns:xlink="http://www.w3.org/1999/xlink" version="1.1" id="Capa_1" x="0px" y="0px" viewBox="0 0 294.777 294.777" style="enable-background:new 0 0 294.777 294.777;" xml:space="preserve" width="512px" height="512px">
<path d="M287.888,101.543c-1.378-4.436-5.624-7.357-10.264-7.01c-0.917,0.065-22.95,1.787-65.364,17.628  c-15.657,5.848-28.315,10.193-38.112,13.078c0.44-2.146,0.571-4.369,0.383-6.646c-1.326-16.028-18.18-28.83-21.545-31.234  c-4.109-2.936-9.794-2.313-13.21,1.409c-0.093,0.101-9.523,10.257-35.377,27.86c-24.646,16.779-61.118,24.718-76.693,28.107  c-1.926,0.419-3.587,0.781-4.936,1.092c-19.578,4.519-22.472,33.382-22.737,36.658c-0.314,3.891,1.663,7.609,5.066,9.523  c22.785,12.816,49.753,17.26,76.671,17.26c42.567-0.001,85.003-11.114,110.532-17.8c1.91-0.5,3.726-0.975,5.448-1.421v8.904  c0,5.522,4.478,10,10,10h66.295c4.483,0,8.419-2.984,9.629-7.301c0,0,4.563-18.89,6.975-24.884  C300.658,151.891,289.53,106.834,287.888,101.543z M147.488,108.964c3.626,3.685,6.851,8.036,7.112,11.289  c0.048,0.601,0.129,1.605-1.482,3.216c-1.235,1.236-2.786,2.596-4.592,4.028c-0.588-0.854-1.2-1.732-1.851-2.643  c-2.482-3.475-4.968-6.716-7.026-9.319C142.797,113.006,145.405,110.8,147.488,108.964z M120.251,123.59  c7.295,8.57,13.509,17.202,16.879,23.306c-2.74,1.214-6.158,2.583-10.024,3.827c-2.46-5.188-6.737-13.886-11.733-24.235  L120.251,123.59z M100.717,141.891c1.27,2.64,2.438,5.075,3.503,7.299c-10.386,2.938-21.85,4.898-33.964,5.072  C80.235,151.017,90.765,146.947,100.717,141.891z M187.234,172.121c-37.631,9.855-114.367,29.955-166.238,5.592  c1.025-4.422,2.6-8.423,4.188-10.633c9.868,7.217,24.864,6.878,29.761,6.541c21,2.05,40.823-0.772,58.085-6.004  c1.805,3.088,5.093,4.965,8.608,4.965c0.729,0,1.47-0.08,2.206-0.247c16.83-3.801,29.825-11.311,30.37-11.63  c2.733-1.595,4.551-4.389,4.899-7.534c0.128-1.154,0.158-2.453-0.048-4.005c9.128-1.123,25.196-5.199,60.192-18.269  c25.107-9.378,42.478-13.469,51.788-15.203c3.493,14.188,6.845,35.118,3.691,47.157c-14.538-0.013-48.864,0.425-71.588,5.294  C199.084,169.017,193.855,170.387,187.234,172.121z M217.749,188.951v-3.038c16.83-2.324,37.366-2.915,50.414-3.03l-1.701,6.068  H217.749z" fill="#8F1622"/>
<g>
</g>
<g>
</g>
<g>
</g>
<g>
</g>
<g>
</g>
<g>
</g>
<g>
</g>
<g>
</g>
<g>
</g>
<g>
</g>
<g>
</g>
<g>
</g>
<g>
</g>
<g>
</g>
<g>
</g>
</svg>
