<?xml version="1.0" encoding="iso-8859-1"?>
<!-- Generator: Adobe Illustrator 19.0.0, SVG Export Plug-In . SVG Version: 6.00 Build 0)  -->
<svg version="1.1" id="Layer_1" xmlns="http://www.w3.org/2000/svg" xmlns:xlink="http://www.w3.org/1999/xlink" x="0px" y="0px"
	 viewBox="0 0 511.988 511.988" style="enable-background:new 0 0 511.988 511.988;" xml:space="preserve">
<rect x="168.468" y="76.245" transform="matrix(-0.7071 0.7071 -0.7071 -0.7071 557.5068 49.051)" style="fill:#FF9797;" width="200.253" height="127.489"/>
<g>
	<path style="fill:#4D4D4D;" d="M422.496,480.116h-254.98c-8.797,0-15.936,7.139-15.936,15.936s7.139,15.936,15.936,15.936h254.98
		c8.797,0,15.936-7.139,15.936-15.936C438.432,487.239,431.309,480.116,422.496,480.116z"/>
	<path style="fill:#4D4D4D;" d="M287.867,480.1c96.813-0.016,175.283-78.47,175.299-175.299
		c-0.016-66.789-37.371-124.781-92.319-154.375l24.892-24.892c2.964-2.964,4.669-7.076,4.669-11.267s-1.705-8.303-4.669-11.267
		l-11.267-11.267l19.458-19.458c2.964-2.964,4.669-7.076,4.669-11.267s-1.705-8.303-4.669-11.267L358.863,4.673
		c-6.231-6.231-16.319-6.231-22.534,0l-19.458,19.458l-11.267-11.267c-6.231-6.231-16.319-6.231-22.534,0L141.444,154.442
		c-6.231,6.231-6.231,16.319,0,22.534l11.267,11.267l-36.988,36.988c-6.231,6.231-6.231,16.319,0,22.534l45.068,45.068
		c2.964,2.964,7.076,4.669,11.267,4.669c4.191,0,8.303-1.705,11.267-4.669l36.988-36.988l11.267,11.267
		c2.964,2.964,7.076,4.669,11.267,4.669c4.191,0,8.303-1.705,11.267-4.669l92.956-92.956c49.641,22.55,84.223,72.542,84.191,130.629
		c-0.016,39.649-16.032,75.41-42.008,101.418c-26.008,25.976-61.769,41.992-101.418,42.008
		c-62.422,0.032-115.442-39.968-135.139-95.618h39.554c8.797,0,15.936-7.139,15.936-15.936s-7.139-15.936-15.936-15.936H64.759
		c-8.797,0-15.936,7.139-15.936,15.936s7.139,15.936,15.936,15.936h54.486C140.074,426.219,207.627,480.084,287.867,480.1z
		 M242.863,233.327l-11.267-11.267c-6.231-6.231-16.319-6.231-22.534,0l-36.988,36.988l-22.534-22.534l36.988-36.988
		c2.964-2.964,4.669-7.076,4.669-11.267c0-4.191-1.705-8.303-4.669-11.267l-11.267-11.267l119.06-119.06l11.267,11.267
		c2.964,2.964,7.076,4.669,11.267,4.669c4.191,0,8.303-1.705,11.267-4.669l19.458-19.458l22.534,22.534l-19.458,19.458
		c-6.215,6.231-6.215,16.319,0,22.534l11.267,11.267L242.863,233.327z"/>
</g>
<g>
</g>
<g>
</g>
<g>
</g>
<g>
</g>
<g>
</g>
<g>
</g>
<g>
</g>
<g>
</g>
<g>
</g>
<g>
</g>
<g>
</g>
<g>
</g>
<g>
</g>
<g>
</g>
<g>
</g>
</svg>
