<?xml version="1.0" encoding="iso-8859-1"?>
<!-- Generator: Adobe Illustrator 19.0.0, SVG Export Plug-In . SVG Version: 6.00 Build 0)  -->
<svg version="1.1" id="Layer_1" xmlns="http://www.w3.org/2000/svg" xmlns:xlink="http://www.w3.org/1999/xlink" x="0px" y="0px"
	 viewBox="0 0 512.019 512.019" style="enable-background:new 0 0 512.019 512.019;" xml:space="preserve">
<path style="fill:#4D4D4D;" d="M437.249,42.339c-18.624-25.808-48.784-42.576-85.808-42.336c-17.248,0-33.664,3.936-48.304,10.96
	c-7.968,3.824-11.328,13.376-7.504,21.344s13.376,11.328,21.344,7.504c10.448-5.008,22.096-7.808,34.464-7.808
	c27.856,0.24,46.272,10.96,60,29.264c13.552,18.368,21.184,45.504,21.136,76.224c0.08,46.992-17.728,101.472-52.736,143.152
	c-32.352,38.432-78.544,66.208-140.4,70.48v-31.936c89.6-8.128,159.968-83.488,160-175.184c0-4.208-1.712-8.336-4.688-11.312
	c-2.976-2.976-7.104-4.688-11.312-4.688h-320c-4.208,0-8.336,1.712-11.312,4.688c-2.976,2.976-4.688,7.104-4.688,11.312
	c0.032,91.68,70.4,167.056,160,175.184v34.448c-36.496,7.44-63.968,39.696-64,78.384c0.016,18.096,6.256,34.592,16.4,48h-32.4
	c-8.832,0-16,7.168-16,16s7.168,16,16,16h192c8.832,0,16-7.168,16-16s-7.168-16-16-16h-80v-96.848
	c71.68-4.272,127.664-37.2,164.944-81.968c40.16-48.128,60.112-108.912,60.192-163.696
	C464.529,101.699,456.033,68.099,437.249,42.339z M80.385,160.003h286.112c-3.696,32-18.736,63.2-41.296,85.776
	c-26.128,26.112-62.032,42.224-101.76,42.224s-75.632-16.112-101.776-42.224C99.121,223.203,84.081,192.003,80.385,160.003z
	 M207.441,386.979v90.032c-18.544-6.656-31.968-24.24-32-45.024C175.473,411.235,188.897,393.651,207.441,386.979z"/>
<path style="fill:#FF8080;" d="M325.201,245.779c22.56-22.576,37.6-53.776,41.296-85.776H80.385c3.696,32,18.736,63.2,41.296,85.776
	c26.128,26.112,62.032,42.224,101.76,42.224S299.073,271.891,325.201,245.779z M207.441,240.003c0-8.848,7.152-16,16-16
	c22.672,0,44.384-9.712,59.6-26.688c5.904-6.592,16.016-7.12,22.592-1.216c6.576,5.904,7.12,16,1.216,22.592
	c-21.248,23.728-51.664,37.312-83.408,37.312C214.593,256.003,207.441,248.851,207.441,240.003z"/>
<circle style="fill:#4D4D4D;" cx="287.441" cy="48.003" r="48"/>
<circle style="fill:#FF8080;" cx="287.441" cy="48.003" r="16"/>
<g>
</g>
<g>
</g>
<g>
</g>
<g>
</g>
<g>
</g>
<g>
</g>
<g>
</g>
<g>
</g>
<g>
</g>
<g>
</g>
<g>
</g>
<g>
</g>
<g>
</g>
<g>
</g>
<g>
</g>
</svg>
