<?xml version="1.0" encoding="iso-8859-1"?>
<!-- Generator: Adobe Illustrator 19.0.0, SVG Export Plug-In . SVG Version: 6.00 Build 0)  -->
<svg xmlns="http://www.w3.org/2000/svg" xmlns:xlink="http://www.w3.org/1999/xlink" version="1.1" id="Layer_1" x="0px" y="0px" viewBox="0 0 347.878 347.878" style="enable-background:new 0 0 347.878 347.878;" xml:space="preserve" width="512px" height="512px">
<g>
	<g>
		<path d="M256.272,225.3l-43.444-9.656v-13.728c14.656-10.578,24.844-26.928,27.2-45.711c11.1-11.661,17.244-26.85,17.244-43.011    V73.689c10.072-7.25,16.667-19.039,16.667-32.367c0-15.206-8.45-28.878-22.05-35.678L240.606,0v16.4    c0,5.1-4.156,9.256-9.261,9.256c-2.9,0-5.667-1.383-7.417-3.717l-0.55-0.728c-8.344-11.133-21.633-17.778-35.55-17.778h-36.111    c-33.694,0-61.111,27.417-61.111,61.111v48.65c0,16.156,6.144,31.344,17.244,43.006c2.356,18.789,12.544,35.133,27.2,45.711    v13.728l-43.444,9.656c-33.3,7.405-56.556,36.394-56.556,70.505v52.078h105.556h66.667h105.556V295.8    C312.827,261.689,289.572,232.7,256.272,225.3z M246.161,113.194c0,8.206-1.944,16.094-5.556,23.2V80.622    c1.894-0.317,3.761-0.733,5.556-1.306V113.194z M107.272,92.322v5.556v38.517c-3.611-7.106-5.556-15-5.556-23.2V64.544h0.001    c0-27.567,22.428-50,50-50h36.111c10.439,0,20.406,4.983,26.678,13.344l0.544,0.722c3.822,5.106,9.917,8.156,16.294,8.156    c10.522,0,19.206-8.017,20.261-18.261c7.028,5.378,11.222,13.717,11.222,22.817c0,15.867-12.911,28.778-28.783,28.778h-104.55    C117.238,70.1,107.272,80.067,107.272,92.322z M118.382,147.878v-50v-5.556c0-6.128,4.983-11.111,11.111-11.111h100v66.667    c0,30.633-24.922,55.556-55.556,55.556C143.304,203.434,118.382,178.511,118.382,147.878z M206.494,225.622    c-2.472,9.572-11.106,16.7-21.444,16.7h-22.222c-10.339,0-18.972-7.128-21.444-16.706l4.778-1.061V208.4    c8.465,3.906,17.854,6.144,27.776,6.144s19.311-2.239,27.778-6.139v16.156L206.494,225.622z M129.494,292.322v44.444h-27.778    v-22.221H90.606v22.222H46.16V295.8c0-28.861,19.678-53.394,47.85-59.656l15.878-3.528l23.378,51.428    C130.973,286.083,129.494,289.016,129.494,292.322z M120.976,230.155l9.517-2.117c3.572,14.556,16.694,25.394,32.333,25.394    h22.222c15.639,0,28.761-10.839,32.339-25.394l9.517,2.117l-23.211,51.056h-46.422V270.1h-11.111v11.111h-1.978L120.976,230.155z     M185.049,314.545c0,6.128-4.983,11.111-11.111,11.111c-6.128,0-11.111-4.983-11.111-11.111s4.983-11.111,11.111-11.111    S185.049,308.417,185.049,314.545z M173.939,336.767h-33.333v-44.444H173.9c-12.237,0.021-22.184,9.979-22.184,22.221    C151.716,326.8,161.684,336.766,173.939,336.767c12.255,0,22.222-9.967,22.222-22.223c0-12.243-9.946-22.2-22.184-22.221h33.295    l0.006,44.444H173.939z M301.717,336.767L301.717,336.767h-44.445v-22.222h-11.111v22.222h-27.778v-44.444    c0-3.306-1.478-6.239-3.772-8.278l23.378-51.428l15.878,3.528c28.172,6.261,47.85,30.794,47.85,59.656V336.767z" fill="#8F1622"/>
	</g>
</g>
<g>
</g>
<g>
</g>
<g>
</g>
<g>
</g>
<g>
</g>
<g>
</g>
<g>
</g>
<g>
</g>
<g>
</g>
<g>
</g>
<g>
</g>
<g>
</g>
<g>
</g>
<g>
</g>
<g>
</g>
</svg>
