<?xml version="1.0" encoding="iso-8859-1"?>
<!-- Generator: Adobe Illustrator 19.0.0, SVG Export Plug-In . SVG Version: 6.00 Build 0)  -->
<svg version="1.1" id="Layer_1" xmlns="http://www.w3.org/2000/svg" xmlns:xlink="http://www.w3.org/1999/xlink" x="0px" y="0px"
	 viewBox="0 0 500.896 500.896" style="enable-background:new 0 0 500.896 500.896;" xml:space="preserve">
<path style="fill:#FF8080;" d="M442.784,58.112c-56.144-56.144-147.504-56.144-203.648,0l-90.512,90.512l203.648,203.648
	l90.512-90.512C498.928,205.616,498.928,114.272,442.784,58.112z"/>
<path style="fill:#4D4D4D;" d="M454.096,46.8C422.928,15.616,381.856-0.016,340.96,0c-40.912-0.016-81.968,15.616-113.136,46.8
	L46.8,227.824C15.616,258.992-0.016,300.048,0,340.96c-0.016,40.896,15.616,81.968,46.8,113.136l0,0
	c31.168,31.184,72.224,46.816,113.136,46.8c40.896,0.016,81.968-15.616,113.136-46.8l181.024-181.024
	c31.184-31.168,46.816-72.224,46.8-113.136C500.912,119.024,485.28,77.968,454.096,46.8z M431.472,250.448L250.448,431.472
	c-24.976,24.976-57.664,37.408-90.512,37.424c-32.848-0.016-65.536-12.448-90.512-37.424l-11.312,11.312l11.312-11.312
	C44.448,406.496,32.016,373.808,32,340.96c0.016-32.848,12.464-65.536,37.424-90.512L250.448,69.424
	C275.424,44.448,308.112,32.016,340.96,32c32.848,0.016,65.536,12.464,90.512,37.424c24.976,24.976,37.408,57.664,37.424,90.512
	C468.88,192.784,456.432,225.472,431.472,250.448z"/>
<path style="fill:#FF8080;" d="M114.688,386.208c-12.496-12.496-18.688-28.8-18.704-45.248c0.016-16.464,6.208-32.768,18.704-45.264
	c6.256-6.256,6.256-16.384,0-22.624c-6.256-6.256-16.384-6.256-22.624,0c-18.72,18.704-28.096,43.376-28.08,67.888
	c-0.032,24.528,9.376,49.2,28.064,67.872c6.256,6.256,16.384,6.256,22.624,0C120.928,402.592,120.928,392.464,114.688,386.208
	L114.688,386.208z"/>
<g>
</g>
<g>
</g>
<g>
</g>
<g>
</g>
<g>
</g>
<g>
</g>
<g>
</g>
<g>
</g>
<g>
</g>
<g>
</g>
<g>
</g>
<g>
</g>
<g>
</g>
<g>
</g>
<g>
</g>
</svg>
