<?xml version="1.0" encoding="iso-8859-1"?>
<!-- Generator: Adobe Illustrator 19.0.0, SVG Export Plug-In . SVG Version: 6.00 Build 0)  -->
<svg xmlns="http://www.w3.org/2000/svg" xmlns:xlink="http://www.w3.org/1999/xlink" version="1.1" id="Layer_1" x="0px" y="0px" viewBox="0 0 512 512" style="enable-background:new 0 0 512 512;" xml:space="preserve" width="512px" height="512px">
<g transform="translate(1 1)">
	<g>
		<path d="M472.299,408.635c-16.397-46.702-46.599-85.488-85.222-112.404l78.968-136.878c3.405,1.148,7.042,1.779,10.822,1.779    C495.64,161.133,511,145.773,511,127s-15.36-34.133-34.133-34.133c-18.773,0-34.133,15.36-34.133,34.133    c0,8.661,3.275,16.591,8.641,22.627l-79.102,137.11c-14.196-8.35-29.338-15.188-45.193-20.353l46.534-179.49    c1.707-4.267-1.707-9.387-5.973-10.24c-4.267-1.707-9.387,1.707-10.24,5.973l-46.447,179.151    c-15.309-3.779-31.178-6.032-47.42-6.617V83.246c14.679-3.814,25.6-17.216,25.6-33.046c0-18.773-15.36-34.133-34.133-34.133    c-18.773,0-34.133,15.36-34.133,34.133c0,15.829,10.921,29.232,25.6,33.046v171.915c-16.526,0.596-32.665,2.92-48.221,6.82    L151.747,82.627c-0.853-4.267-5.973-6.827-10.24-5.973c-4.267,0.853-6.827,5.973-5.973,10.24l46.601,179.748    c-15.57,5.134-30.446,11.883-44.407,20.094l-79.102-137.11c5.366-6.035,8.641-13.965,8.641-22.627    c0-18.773-15.36-34.133-34.133-34.133C14.36,92.867-1,108.227-1,127s15.36,34.133,34.133,34.133c3.779,0,7.416-0.632,10.822-1.779    l78.968,136.878C84.3,323.147,54.097,361.933,37.701,408.635C16.169,409.375-1,426.992-1,448.707v45.227h512v-45.227    C511,426.992,493.831,409.375,472.299,408.635z M476.867,109.933c9.387,0,17.067,7.68,17.067,17.067s-7.68,17.067-17.067,17.067    S459.8,136.387,459.8,127S467.48,109.933,476.867,109.933z M16.067,127c0-9.387,7.68-17.067,17.067-17.067    c9.387,0,17.067,7.68,17.067,17.067s-7.68,17.067-17.067,17.067C23.747,144.067,16.067,136.387,16.067,127z M237.933,50.2    c0-9.387,7.68-17.067,17.067-17.067s17.067,7.68,17.067,17.067c0,9.387-7.68,17.067-17.067,17.067S237.933,59.587,237.933,50.2z     M131.654,311.366l38.866,67.368c1.707,2.56,5.12,4.267,7.68,4.267c1.707,0,2.56,0,4.267-0.853    c4.267-2.56,5.973-7.68,3.413-11.947l-39.474-68.422c12.617-7.479,26.033-13.672,40.06-18.431l8.801,33.947    c0.853,3.413,5.12,5.973,8.533,5.973c0.853,0,1.707,0,1.707,0c4.267-0.853,6.827-5.973,5.973-10.24l-8.93-34.442    c14.184-3.592,28.884-5.752,43.916-6.347v76.629c0,5.12,3.413,8.533,8.533,8.533s8.533-3.413,8.533-8.533v-76.629    c14.748,0.584,29.174,2.679,43.114,6.15l-8.981,34.639c-1.707,4.267,1.707,9.387,5.973,10.24c0.853,0,1.707,0,2.56,0    c3.413,0,7.68-2.56,7.68-5.973l8.872-34.22c14.307,4.787,27.991,11.065,40.861,18.672L324.12,370.2    c-1.707,4.267-0.853,9.387,3.413,11.947C329.24,383,330.093,383,331.8,383c2.56,0,5.973-1.707,7.68-4.267l38.899-67.425    c33.639,23.801,60.466,57.287,76.301,97.292H56.173C71.579,368.628,98.163,335.163,131.654,311.366z M493.933,476.867H16.067    v-28.16c0-12.8,10.24-23.04,23.04-23.04h431.787c12.8,0,23.04,10.24,23.04,23.04V476.867z" fill="#8F1622"/>
	</g>
</g>
<g>
</g>
<g>
</g>
<g>
</g>
<g>
</g>
<g>
</g>
<g>
</g>
<g>
</g>
<g>
</g>
<g>
</g>
<g>
</g>
<g>
</g>
<g>
</g>
<g>
</g>
<g>
</g>
<g>
</g>
</svg>
