<?xml version="1.0" encoding="iso-8859-1"?>
<!-- Generator: Adobe Illustrator 19.0.0, SVG Export Plug-In . SVG Version: 6.00 Build 0)  -->
<svg xmlns="http://www.w3.org/2000/svg" xmlns:xlink="http://www.w3.org/1999/xlink" version="1.1" id="Layer_1" x="0px" y="0px" viewBox="0 0 502 502" style="enable-background:new 0 0 502 502;" xml:space="preserve" width="512px" height="512px">
<g>
	<g>
		<g>
			<path d="M365.264,291.968c24.91-48.61,37.536-86.693,37.536-113.318C402.8,80.142,322.658,0,224.15,0S45.5,80.142,45.5,178.65     c0,95.435,163.74,310.329,170.711,319.431c1.892,2.471,4.827,3.919,7.939,3.919s6.047-1.449,7.939-3.919     c0.146-0.19,12.993-16.99,31.323-42.833C282.373,483.425,314.557,502,351,502c58.173,0,105.5-47.327,105.5-105.5     C456.5,343.165,416.715,298.953,365.264,291.968z M252.935,435.403c-12.037,17.158-22.217,31.082-28.783,39.932     c-14.17-19.109-45.221-61.926-75.952-110.547C94.097,279.187,65.5,214.821,65.5,178.65C65.5,91.17,136.67,20,224.15,20     S382.8,91.17,382.8,178.65c0,24.924-13.365,62.809-39.73,112.647c-54.483,4.068-97.57,49.697-97.57,105.203     C245.5,410.233,248.14,423.359,252.935,435.403z M351,482c-47.145,0-85.5-38.355-85.5-85.5c0-47.145,38.355-85.5,85.5-85.5     c47.145,0,85.5,38.355,85.5,85.5C436.5,443.645,398.145,482,351,482z" fill="#8F1622"/>
			<path d="M388.429,360.429L331,417.857l-21.929-21.929c-3.905-3.904-10.237-3.904-14.143,0c-3.905,3.905-3.905,10.237,0,14.143     l29,29c1.709,1.708,3.882,2.669,6.113,2.883C330.36,441.985,330.68,442,331,442s0.64-0.015,0.958-0.046     c2.231-0.214,4.404-1.174,6.113-2.883l64.5-64.5c3.905-3.905,3.905-10.237,0-14.143     C398.666,356.523,392.334,356.523,388.429,360.429z" fill="#8F1622"/>
			<path d="M328.954,178.65c0-57.789-47.015-104.803-104.804-104.803S119.347,120.862,119.347,178.65     c0,57.789,47.015,104.804,104.803,104.804C281.939,283.454,328.954,236.439,328.954,178.65z M224.15,263.454     c-46.761,0-84.803-38.043-84.803-84.804c0-46.761,38.042-84.803,84.803-84.803c46.761,0,84.804,38.042,84.804,84.803     C308.954,225.411,270.911,263.454,224.15,263.454z" fill="#8F1622"/>
			<path d="M135.153,90.081c2.39,0,4.788-0.852,6.701-2.58c22.593-20.412,51.819-31.654,82.296-31.654     c17.038,0,33.525,3.42,49.006,10.165c5.063,2.207,10.956-0.11,13.162-5.173s-0.11-10.956-5.173-13.162     c-18.016-7.85-37.192-11.83-56.995-11.83c-35.44,0-69.428,13.074-95.704,36.814c-4.098,3.702-4.418,10.026-0.716,14.124     C129.704,88.97,132.423,90.081,135.153,90.081z" fill="#8F1622"/>
			<path d="M111.143,108.146c-4.889-2.566-10.935-0.685-13.502,4.205c-10.659,20.3-16.293,43.226-16.293,66.299     c0,5.523,4.477,10,10,10s10-4.477,10-10c0-19.847,4.841-39.558,14-57.001C117.915,116.759,116.032,110.713,111.143,108.146z" fill="#8F1622"/>
		</g>
	</g>
</g>
<g>
</g>
<g>
</g>
<g>
</g>
<g>
</g>
<g>
</g>
<g>
</g>
<g>
</g>
<g>
</g>
<g>
</g>
<g>
</g>
<g>
</g>
<g>
</g>
<g>
</g>
<g>
</g>
<g>
</g>
</svg>
