<?xml version="1.0" encoding="iso-8859-1"?>
<!-- Generator: Adobe Illustrator 19.0.0, SVG Export Plug-In . SVG Version: 6.00 Build 0)  -->
<svg xmlns="http://www.w3.org/2000/svg" xmlns:xlink="http://www.w3.org/1999/xlink" version="1.1" id="Layer_1" x="0px" y="0px" viewBox="0 0 512 512" style="enable-background:new 0 0 512 512;" xml:space="preserve" width="512px" height="512px">
<g transform="translate(1 1)">
	<g>
		<g>
			<path d="M255.011,41.667c-80.213,0-145.067,64.853-145.067,145.067S174.798,331.8,255.011,331.8s145.067-64.853,145.067-145.067     S335.225,41.667,255.011,41.667z M255.011,314.733c-70.827,0-128-57.173-128-128s57.173-128,128-128s128,57.173,128,128     S325.838,314.733,255.011,314.733z" fill="#8F1622"/>
			<path d="M354.851,180.76l-93.867-93.867c-1.707-1.707-3.413-2.56-5.973-2.56s-4.267,0.853-5.973,2.56l-93.867,93.867     c-3.413,3.413-3.413,8.533,0,11.947l25.6,25.6c1.707,1.707,3.413,2.56,5.973,2.56s4.267-0.853,5.973-2.56l2.56-2.56V255     c0,5.12,3.413,8.533,8.533,8.533h102.4c5.12,0,8.533-3.413,8.533-8.533v-39.253l2.56,2.56c1.707,1.707,3.413,2.56,5.973,2.56     s4.267-0.853,5.973-2.56l25.6-25.6c1.707-1.707,2.56-3.413,2.56-5.973S356.558,182.467,354.851,180.76z M297.678,246.467h-85.333     V198.68l42.667-42.667l42.667,42.667V246.467z M323.278,200.387l-11.093-11.093l-51.2-51.2c-0.853-1.707-2.56-2.56-4.267-2.56     c0,0-0.853,0-1.707,0c-2.56,0-4.267,0.853-5.973,2.56l-51.2,51.2l-11.093,11.093l-13.653-13.653l81.92-81.92l81.92,81.92     L323.278,200.387z" fill="#8F1622"/>
			<path d="M388.131,53.613C352.291,18.627,305.358-1,255.011-1s-97.28,19.627-133.12,54.613c-64,64.853-73.387,166.4-20.48,240.64     l73.387,103.253l73.387,110.08c1.707,1.707,4.267,3.413,6.827,3.413s5.12-1.707,7.68-4.267l75.947-112.64l68.267-96.427     C461.518,223.427,452.985,118.467,388.131,53.613z M392.398,288.28l-68.267,96.427l-69.12,102.4l-66.56-98.987l-73.387-103.253     C67.278,216.6,75.811,124.44,134.691,66.413c31.573-32.427,75.093-50.347,120.32-50.347s88.747,17.92,120.32,50.347     C435.065,125.293,441.891,220.867,392.398,288.28z" fill="#8F1622"/>
		</g>
	</g>
</g>
<g>
</g>
<g>
</g>
<g>
</g>
<g>
</g>
<g>
</g>
<g>
</g>
<g>
</g>
<g>
</g>
<g>
</g>
<g>
</g>
<g>
</g>
<g>
</g>
<g>
</g>
<g>
</g>
<g>
</g>
</svg>
