<?xml version="1.0" encoding="iso-8859-1"?>
<!-- Generator: Adobe Illustrator 19.0.0, SVG Export Plug-In . SVG Version: 6.00 Build 0)  -->
<svg xmlns="http://www.w3.org/2000/svg" xmlns:xlink="http://www.w3.org/1999/xlink" version="1.1" id="Layer_1" x="0px" y="0px" viewBox="0 0 512 512" style="enable-background:new 0 0 512 512;" xml:space="preserve" width="512px" height="512px">
<g transform="translate(1 1)">
	<g>
		<g>
			<path d="M470.893-1H39.107C16.92-1-1,16.92-1,39.107v156.16c0,3.413,1.707,5.973,4.267,7.68l4.267,2.348v265.598     C7.533,493.08,25.453,511,47.64,511h414.72c22.187,0,40.107-17.92,40.107-40.107V205.295l4.267-2.348     c2.56-1.707,4.267-4.267,4.267-7.68V39.107C511,16.92,493.08-1,470.893-1z M16.067,39.107c0-12.8,10.24-23.04,23.04-23.04     h431.787c12.8,0,23.04,10.24,23.04,23.04v150.187L278.04,308.76c-14.507,7.68-31.573,7.68-46.08,0L27.16,196.12     c-0.389-0.195-0.731-0.34-1.051-0.456l-10.042-5.517V39.107z M485.4,470.893c0,12.8-10.24,23.04-23.04,23.04H47.64     c-12.8,0-23.04-10.24-23.04-23.04V214.688L223.427,324.12c10.24,5.973,20.48,8.533,31.573,8.533c4.56,0,8.974-0.585,13.305-1.619     c6.314-1.342,12.478-3.641,18.268-6.914L485.4,214.688V470.893z" fill="#8F1622"/>
			<path d="M459.8,304.493c5.12,0,8.533-3.413,8.533-8.533v-38.4c0-5.12-3.413-8.533-8.533-8.533c-5.12,0-8.533,3.413-8.533,8.533     v38.4C451.267,301.08,454.68,304.493,459.8,304.493z" fill="#8F1622"/>
			<path d="M459.8,400.067c5.12,0,8.533-3.413,8.533-8.533V334.36c0-5.12-3.413-8.533-8.533-8.533c-5.12,0-8.533,3.413-8.533,8.533     v57.173C451.267,396.653,454.68,400.067,459.8,400.067z" fill="#8F1622"/>
			<path d="M421.4,476.867h38.4c5.12,0,8.533-3.413,8.533-8.533v-38.4c0-5.12-3.413-8.533-8.533-8.533     c-5.12,0-8.533,3.413-8.533,8.533V459.8H421.4c-5.12,0-8.533,3.413-8.533,8.533S416.28,476.867,421.4,476.867z" fill="#8F1622"/>
			<path d="M273.773,468.333c0,5.12,3.413,8.533,8.533,8.533h83.627c5.12,0,8.533-3.413,8.533-8.533s-3.413-8.533-8.533-8.533     h-83.627C277.187,459.8,273.773,463.213,273.773,468.333z" fill="#8F1622"/>
			<path d="M227.693,459.8h-83.627c-5.12,0-8.533,3.413-8.533,8.533s3.413,8.533,8.533,8.533h83.627     c4.267,0,8.533-3.413,8.533-8.533S232.813,459.8,227.693,459.8z" fill="#8F1622"/>
			<path d="M88.6,459.8H58.733v-29.867c0-5.12-3.413-8.533-8.533-8.533s-8.533,3.413-8.533,8.533v38.4     c0,5.12,3.413,8.533,8.533,8.533h38.4c5.12,0,8.533-3.413,8.533-8.533S93.72,459.8,88.6,459.8z" fill="#8F1622"/>
			<path d="M50.2,400.067c5.12,0,8.533-3.413,8.533-8.533V334.36c0-5.12-3.413-8.533-8.533-8.533s-8.533,3.413-8.533,8.533v57.173     C41.667,396.653,45.08,400.067,50.2,400.067z" fill="#8F1622"/>
			<path d="M50.2,304.493c5.12,0,8.533-3.413,8.533-8.533v-38.4c0-5.12-3.413-8.533-8.533-8.533s-8.533,3.413-8.533,8.533v38.4     C41.667,301.08,45.08,304.493,50.2,304.493z" fill="#8F1622"/>
			<path d="M255,195.267c28.16,0,51.2-23.04,51.2-51.2c0-28.16-23.04-51.2-51.2-51.2c-28.16,0-51.2,23.04-51.2,51.2     C203.8,172.227,226.84,195.267,255,195.267z M255,109.933c18.773,0,34.133,15.36,34.133,34.133     c0,18.773-15.36,34.133-34.133,34.133c-18.773,0-34.133-15.36-34.133-34.133C220.867,125.293,236.227,109.933,255,109.933z" fill="#8F1622"/>
		</g>
	</g>
</g>
<g>
</g>
<g>
</g>
<g>
</g>
<g>
</g>
<g>
</g>
<g>
</g>
<g>
</g>
<g>
</g>
<g>
</g>
<g>
</g>
<g>
</g>
<g>
</g>
<g>
</g>
<g>
</g>
<g>
</g>
</svg>
