<?xml version="1.0" encoding="iso-8859-1"?>
<!-- Generator: Adobe Illustrator 19.0.0, SVG Export Plug-In . SVG Version: 6.00 Build 0)  -->
<svg xmlns="http://www.w3.org/2000/svg" xmlns:xlink="http://www.w3.org/1999/xlink" version="1.1" id="Layer_1" x="0px" y="0px" viewBox="0 0 511.551 511.551" style="enable-background:new 0 0 511.551 511.551;" xml:space="preserve" width="512px" height="512px">
<g>
	<g>
		<path d="M480.561,30.989c-40.421-41.319-107.789-41.319-149.109,0l-52.997,52.997c-3.593,3.593-3.593,8.982,0,12.575    l52.997,53.895c3.593,3.593,8.982,3.593,12.575,0l37.726-37.726c1.797-1.797,2.695-4.491,2.695-7.186    c0-8.084,0.898-11.677,5.389-16.168c8.982-8.982,24.253-8.982,33.235,0c4.491,4.491,7.186,9.881,7.186,16.168    s-2.695,11.677-7.186,16.168c-4.491,4.491-8.084,5.389-16.168,5.389c-2.695,0-5.389,0.898-7.186,2.695l-37.726,37.726    c-3.593,3.593-3.593,8.982,0,12.575l52.997,52.997c1.797,1.796,3.593,2.695,6.288,2.695c2.695,0,4.491-0.898,6.288-2.695    l52.997-52.997C521.881,139.677,521.881,72.309,480.561,30.989z M467.986,167.523l-46.709,46.709l-40.421-40.421l28.744-29.642    c7.186,0,17.067-1.797,25.151-9.881c7.186-7.186,11.677-17.965,11.677-28.744s-3.593-20.66-11.677-28.744    c-16.168-16.168-42.218-16.168-58.386,0c-8.084,8.084-9.881,17.067-9.881,25.151l-28.744,28.744l-40.421-40.421l46.709-46.709    c34.133-34.133,89.825-34.133,123.958,0C502.119,77.698,502.119,133.389,467.986,167.523z" fill="#8F1622"/>
	</g>
</g>
<g>
	<g>
		<path d="M162.582,349.867c-37.726-36.828-97.909-36.828-134.737,0C9.881,367.832,0,391.186,0,416.337    c0,25.151,9.881,49.404,27.846,67.368c17.965,17.965,42.218,27.846,67.368,27.846s48.505-9.881,67.368-26.947    c17.965-17.965,27.846-42.218,27.846-67.368S180.547,367.832,162.582,349.867z M150.007,471.13    c-15.27,14.372-34.133,22.456-54.793,22.456S54.793,486.4,40.421,471.13c-14.372-15.27-22.456-34.133-22.456-54.793    c0-20.66,8.084-39.523,22.456-53.895c15.27-15.27,35.032-22.456,54.793-22.456s38.625,7.186,54.793,21.558    c14.372,15.27,22.456,34.133,22.456,54.793C172.463,436.996,164.379,456.758,150.007,471.13z" fill="#8F1622"/>
	</g>
</g>
<g>
	<g>
		<path d="M420.379,211.537l-37.726-37.726c-3.593-3.593-8.982-3.593-12.575,0L164.379,367.832    c-2.695,2.695-3.593,7.186-1.797,10.779c9.881,18.863,11.677,41.319,5.389,61.081c-1.797,4.491,0,8.982,3.593,10.779    c0.898,0.898,2.695,1.797,4.491,1.797c2.695,0,4.491-0.898,7.186-1.797l237.137-224.561c1.796-1.797,2.695-6.288,2.695-8.084    S422.175,213.333,420.379,211.537z M189.53,419.032c0.898-14.372-1.797-28.744-8.084-41.319L375.467,194.47l25.151,25.151    L189.53,419.032z" fill="#8F1622"/>
	</g>
</g>
<g>
	<g>
		<path d="M253.305,129.796c-8.084-8.084-17.965-11.677-28.744-10.779s-19.761,6.288-26.049,15.27L60.182,329.207    c-2.695,3.593-2.695,8.084,0,10.779c1.797,3.593,6.288,4.491,9.881,3.593c20.66-7.186,42.218-4.491,61.081,5.389    c1.797,0.898,2.695,0.898,4.491,0.898c3.593,0,6.288-0.898,8.084-3.593l114.077-171.565    C266.779,161.235,264.982,141.474,253.305,129.796z M242.526,165.726L132.94,330.105c-11.677-5.39-24.253-8.084-37.726-8.084    c-2.695,0-4.491,0-7.186,0l125.754-176.954c2.695-3.593,7.186-7.186,12.575-7.186c5.389,0,10.779,1.797,14.372,5.389    C246.119,149.558,247.018,158.54,242.526,165.726z" fill="#8F1622"/>
	</g>
</g>
<g>
	<g>
		<path d="M123.958,387.593c-7.186-7.186-17.965-11.677-28.744-11.677s-20.66,3.593-28.744,11.677    c-16.168,16.168-16.168,42.218,0,58.386c7.186,8.084,17.965,11.677,28.744,11.677c9.881,0,20.66-3.593,28.744-11.677    C140.126,429.811,140.126,403.761,123.958,387.593z M112.281,433.403c-8.982,8.982-24.253,8.982-33.235,0    c-8.982-8.982-8.982-24.253,0-33.235c4.491-4.491,9.881-7.186,16.168-7.186s11.677,2.695,17.067,7.186    C121.263,409.151,121.263,424.421,112.281,433.403z" fill="#8F1622"/>
	</g>
</g>
<g>
</g>
<g>
</g>
<g>
</g>
<g>
</g>
<g>
</g>
<g>
</g>
<g>
</g>
<g>
</g>
<g>
</g>
<g>
</g>
<g>
</g>
<g>
</g>
<g>
</g>
<g>
</g>
<g>
</g>
</svg>
