<?xml version="1.0" encoding="iso-8859-1"?>
<!-- Generator: Adobe Illustrator 19.0.0, SVG Export Plug-In . SVG Version: 6.00 Build 0)  -->
<svg xmlns="http://www.w3.org/2000/svg" xmlns:xlink="http://www.w3.org/1999/xlink" version="1.1" id="Layer_1" x="0px" y="0px" viewBox="0 0 512 512" style="enable-background:new 0 0 512 512;" xml:space="preserve" width="512px" height="512px">
<g transform="translate(1 1)">
	<g>
		<g>
			<path d="M255-1c-46.933,0-85.333,38.4-85.333,85.333v59.733c0,5.12,3.413,8.533,8.533,8.533h0.252l7.321,248.111     c-4.856,10.102-7.573,21.455-7.573,33.489c0,42.667,34.133,76.8,76.8,76.8s76.8-34.133,76.8-76.8     c0-12.052-2.727-23.422-7.597-33.535l7.344-248.065h0.253c5.12,0,8.533-3.413,8.533-8.533V84.333C340.333,37.4,301.933-1,255-1z      M186.733,84.333c0-37.547,30.72-68.267,68.267-68.267c37.547,0,68.267,30.72,68.267,68.267v51.2H280.6v-30.72     c4.267-4.267,8.533-11.093,8.533-20.48c0-18.773-15.36-34.133-34.133-34.133s-34.133,15.36-34.133,34.133     c0,9.387,4.267,16.213,8.533,20.48v30.72h-42.667V84.333z M255,357.4c-3.866,0-7.659,0.289-11.366,0.83l-5.473-205.64     c4.992-0.101,8.306-3.481,8.306-8.524V101.4c0-2.56-0.853-5.12-2.56-5.973c-4.267-4.267-5.973-6.827-5.973-11.093     c0-9.387,7.68-17.067,17.067-17.067c9.387,0,17.067,7.68,17.067,17.067c0,4.267-1.707,6.827-5.973,11.093     c-1.707,0.853-2.56,3.413-2.56,5.973v42.667c0,5.032,3.301,8.407,8.274,8.522l-6.252,205.539     C262.105,357.661,258.586,357.4,255,357.4z M220.867,152.6l5.973,209.92c-5.95,2.164-11.555,5.358-16.602,9.144     c-2.875,2.053-5.598,4.299-8.155,6.723L195.267,152.6H220.867z M255,493.933c-33.28,0-59.733-26.453-59.733-59.733     c0-12.195,3.563-23.466,9.702-32.862c0.324-0.489,0.648-0.979,0.985-1.457c0.121-0.174,0.245-0.347,0.368-0.52     c7.93-10.994,19.212-18.89,31.611-22.334c0.48-0.12,0.942-0.296,1.383-0.513c4.99-1.328,10.243-2.047,15.683-2.047     c4.885,0,9.617,0.585,14.146,1.663c0.639,0.405,1.332,0.714,2.067,0.898c16.213,5.12,29.013,16.213,36.693,30.72     c0.483,0.725,1.042,1.371,1.662,1.939c3.313,7.461,5.164,15.746,5.164,24.514C314.733,467.48,288.28,493.933,255,493.933z      M307.917,378.387c-2.557-2.423-5.28-4.669-8.155-6.723c-5.047-3.786-10.652-6.981-16.602-9.144l5.973-209.92h25.6     L307.917,378.387z" fill="#8F1622"/>
			<path d="M255,400.067c-18.773,0-34.133,15.36-34.133,34.133c0,18.773,15.36,34.133,34.133,34.133s34.133-15.36,34.133-34.133     C289.133,415.427,273.773,400.067,255,400.067z M255,451.267c-9.387,0-17.067-7.68-17.067-17.067s7.68-17.067,17.067-17.067     c9.387,0,17.067,7.68,17.067,17.067S264.387,451.267,255,451.267z" fill="#8F1622"/>
		</g>
	</g>
</g>
<g>
</g>
<g>
</g>
<g>
</g>
<g>
</g>
<g>
</g>
<g>
</g>
<g>
</g>
<g>
</g>
<g>
</g>
<g>
</g>
<g>
</g>
<g>
</g>
<g>
</g>
<g>
</g>
<g>
</g>
</svg>
