<?xml version="1.0" encoding="iso-8859-1"?>
<!-- Generator: Adobe Illustrator 18.0.0, SVG Export Plug-In . SVG Version: 6.00 Build 0)  -->
<!DOCTYPE svg PUBLIC "-//W3C//DTD SVG 1.1//EN" "http://www.w3.org/Graphics/SVG/1.1/DTD/svg11.dtd">
<svg xmlns="http://www.w3.org/2000/svg" xmlns:xlink="http://www.w3.org/1999/xlink" version="1.1" id="Capa_1" x="0px" y="0px" viewBox="0 0 298 298" style="enable-background:new 0 0 298 298;" xml:space="preserve" width="512px" height="512px">
<path d="M295.029,154.712c-1.901-1.878-4.449-2.951-7.148-2.886c-4.431,0.053-73.391,0.895-130.926,2.835l-17.49-60.909  c-1.458-5.077-6.617-8.14-11.77-7.005l-69.38,15.337c-4.964,1.098-8.314,5.744-7.788,10.8l5.185,49.81  c-9.977,1.459-19.985,3.391-28.543,6.49C4.714,177.316,0,191.24,0,201.489c0,5.523,4.478,10,10,10h278c5.522,0,10-4.477,10-10  v-39.664C298,159.152,296.93,156.591,295.029,154.712z M79.04,191.489l-7.696-71.802l51.492-11.383l24.794,83.185H79.04z   M33.98,187.988c6.765-2.45,15.178-4.094,23.806-5.38l0.925,8.881H26.504C28.394,190.311,30.833,189.128,33.98,187.988z   M278,191.489H167.53l-4.882-17.001c44.237-1.414,94.327-2.226,115.352-2.527V191.489z" fill="#8F1622"/>
<g>
</g>
<g>
</g>
<g>
</g>
<g>
</g>
<g>
</g>
<g>
</g>
<g>
</g>
<g>
</g>
<g>
</g>
<g>
</g>
<g>
</g>
<g>
</g>
<g>
</g>
<g>
</g>
<g>
</g>
</svg>
