<?xml version="1.0" encoding="iso-8859-1"?>
<!-- Generator: Adobe Illustrator 18.0.0, SVG Export Plug-In . SVG Version: 6.00 Build 0)  -->
<!DOCTYPE svg PUBLIC "-//W3C//DTD SVG 1.1//EN" "http://www.w3.org/Graphics/SVG/1.1/DTD/svg11.dtd">
<svg xmlns="http://www.w3.org/2000/svg" xmlns:xlink="http://www.w3.org/1999/xlink" version="1.1" id="Capa_1" x="0px" y="0px" viewBox="0 0 300.424 300.424" style="enable-background:new 0 0 300.424 300.424;" xml:space="preserve" width="512px" height="512px">
<path d="M13.822,210.721l271.781,0.001c5.522,0,10-4.477,10-10v-38.757c0-2.764-1.144-5.404-3.16-7.295  c-2.016-1.891-4.726-2.857-7.482-2.685c-1.602,0.104-11.709,0.756-26.653,1.756v-33.135c23.03-2.592,36.882-12.029,37.859-12.716  c4.52-3.172,5.614-9.409,2.441-13.93c-3.172-4.521-9.409-5.614-13.93-2.441c-0.322,0.226-32.786,22.33-82.691-0.882  c-5.01-2.33-10.957-0.157-13.285,4.85c-2.329,5.008-0.157,10.956,4.85,13.285c16.531,7.688,31.577,11.177,44.756,12.174v34.147  c-20.61,1.409-45.542,3.16-69.512,4.964l-23.743-38.518c3.053-1.809,5.836-3.899,8.278-6.342c3.905-3.905,3.905-10.237,0-14.143  c-3.906-3.904-10.236-3.904-14.143,0c-9.62,9.621-33.524,16.58-56.266,17.854c-27.37,1.533-58.158-0.23-72.791,18.282  c-18.417,23.301-6.214,65.077-5.627,66.775c0.016,0.045,0.037,0.081,0.053,0.123C5.986,207.883,9.535,210.66,13.822,210.721z   M238.308,175.147v15.574h-50.609l-7.077-11.481C200.707,177.758,220.97,176.337,238.308,175.147z M100.591,190.722l-1.134-4.727  c1.884-0.198,3.892-0.401,6.02-0.609l1.447,5.336H100.591z M50.447,143.895l14.985-1.157l13.276,47.983H54.269L50.447,143.895z   M129.392,190.722l-15.98-53.605l15.124-4.257l39.158,57.862H129.392z M93.268,141.576l7.036,24.23  c-2.425,0.246-4.683,0.484-6.756,0.716l-6.792-23.783L93.268,141.576z M25.811,149.606c1.268-1.602,2.852-3.015,4.688-4.274  l3.256,44.271c-3.442,0.54-7.448,0.906-12.195,1.058C18.99,179.208,17.204,160.479,25.811,149.606z M275.603,172.64v18.082h-17.296  v-16.931C265.144,173.332,271.03,172.941,275.603,172.64z" fill="#8F1622"/>
<g>
</g>
<g>
</g>
<g>
</g>
<g>
</g>
<g>
</g>
<g>
</g>
<g>
</g>
<g>
</g>
<g>
</g>
<g>
</g>
<g>
</g>
<g>
</g>
<g>
</g>
<g>
</g>
<g>
</g>
</svg>
