<?xml version="1.0" encoding="iso-8859-1"?>
<!-- Generator: Adobe Illustrator 18.0.0, SVG Export Plug-In . SVG Version: 6.00 Build 0)  -->
<!DOCTYPE svg PUBLIC "-//W3C//DTD SVG 1.1//EN" "http://www.w3.org/Graphics/SVG/1.1/DTD/svg11.dtd">
<svg xmlns="http://www.w3.org/2000/svg" xmlns:xlink="http://www.w3.org/1999/xlink" version="1.1" id="Capa_1" x="0px" y="0px" viewBox="0 0 299.5 299.5" style="enable-background:new 0 0 299.5 299.5;" xml:space="preserve" width="512px" height="512px">
<path d="M290.872,89.417c-0.398-0.056-4.082-0.54-10.502-0.54c-13.948,0-45.182,2.46-85.367,20.421l-40.882-40.707  c-2.991-2.98-7.534-3.761-11.349-1.945l-98.784,46.955c-3.9,1.854-6.17,6.002-5.628,10.286l4.415,34.903  c-6.569,0.056-13.592,0.07-21.142,0.07c-7.327,0-16.725,4.206-19.88,24.242C0.134,193.387,0,206.893,0,220.99  c0,5.179,3.953,9.501,9.111,9.961c1.074,0.096,26.667,2.346,57.918,2.346c34.322,0,61.368-2.695,80.388-8.01  c12.116-3.386,24.06-7.544,32.908-10.827l-0.194,9.053c-0.084,2.704,0.931,5.328,2.814,7.271c1.884,1.943,4.475,3.04,7.181,3.04  H289.5c5.522,0,10-4.478,10-10V99.323C299.5,94.329,295.817,90.102,290.872,89.417z M59.11,128.557l85.889-40.825l31.036,30.903  c-8.652,4.657-17.612,10.016-26.827,16.218c-26.062,17.542-47.06,22.299-86.32,23.563L59.11,128.557z M279.5,213.824h-79.057  l0.344-13.857c0.107-3.396-1.52-6.613-4.315-8.542c-2.798-1.929-6.382-2.308-9.519-1.003c-0.225,0.093-22.631,9.374-44.919,15.603  c-17.024,4.757-42.96,7.271-75.005,7.271c-19.41,0-36.875-0.92-46.996-1.588c0.067-7.314,0.263-14.203,0.82-20.13  c0.73-7.771,1.865-11.262,2.535-12.718c68.467-0.02,98.146-1.273,136.987-27.416c56.137-37.784,101.411-42.421,119.124-42.563  V213.824z" fill="#8F1622"/>
<g>
</g>
<g>
</g>
<g>
</g>
<g>
</g>
<g>
</g>
<g>
</g>
<g>
</g>
<g>
</g>
<g>
</g>
<g>
</g>
<g>
</g>
<g>
</g>
<g>
</g>
<g>
</g>
<g>
</g>
</svg>
