<?xml version="1.0" encoding="iso-8859-1"?>
<!-- Generator: Adobe Illustrator 19.0.0, SVG Export Plug-In . SVG Version: 6.00 Build 0)  -->
<svg xmlns="http://www.w3.org/2000/svg" xmlns:xlink="http://www.w3.org/1999/xlink" version="1.1" id="Layer_1" x="0px" y="0px" viewBox="0 0 512.025 512.025" style="enable-background:new 0 0 512.025 512.025;" xml:space="preserve" width="512px" height="512px">
<g transform="translate(0 -1)">
	<g>
		<g>
			<path d="M372.185,359.476l-65.886-93.508l88.55-100.454c19.584-22.596,29.517-52.796,27.23-82.833     c-4.284-56.482-15.488-75.674-16.751-77.679c-1.519-2.406-4.139-3.9-6.989-3.977c-2.79-0.102-5.547,1.271-7.194,3.601     l-134.81,190.421L122.184,4.643c-1.638-2.33-4.267-3.857-7.185-3.618c-2.85,0.077-5.478,1.57-7.006,3.977     C106.73,7.006,95.517,26.198,91.234,82.68c-2.278,30.037,7.654,60.228,27.281,82.876l87.765,100.181l-66.364,93.73     c-41.924,0.486-75.904,34.714-75.904,76.757c0,42.342,34.458,76.8,76.8,76.8s76.8-34.458,76.8-76.8     c0-18.739-6.767-35.917-17.954-49.263l56.576-64.196l56.192,64.137c-11.221,13.355-18.014,30.549-18.014,49.323     c0,42.342,34.458,76.8,76.8,76.8s76.8-34.458,76.8-76.8C448.012,394.206,414.075,360.005,372.185,359.476z M140.812,478.891     c-23.526,0-42.667-19.14-42.667-42.667c0-23.526,19.14-42.667,42.667-42.667s42.667,19.14,42.667,42.667     C183.479,459.751,164.339,478.891,140.812,478.891z M187.31,375.16c-0.401-0.299-0.836-0.546-1.237-0.845     c-1.442-1.05-2.901-2.056-4.412-3.012c-0.589-0.367-1.178-0.725-1.783-1.075c-1.715-1.024-3.473-1.971-5.274-2.859     c-0.418-0.205-0.836-0.41-1.254-0.614c-2.039-0.956-4.122-1.818-6.246-2.594c-0.222-0.085-0.444-0.171-0.666-0.247     c-2.313-0.819-4.676-1.527-7.083-2.133c-0.051-0.009-0.094-0.026-0.137-0.043l58.624-82.799l27.059,30.882L187.31,375.16z      M324.791,375.109l-99.046-113.05l-2.193-2.509l-92.169-105.207c-16.64-19.191-25.062-44.843-23.125-70.374     c2.108-27.776,5.973-45.756,9.131-56.499L352.891,361.72c-0.051,0.017-0.102,0.034-0.154,0.043     c-2.406,0.597-4.753,1.306-7.066,2.125c-0.23,0.077-0.461,0.162-0.691,0.247c-2.125,0.777-4.207,1.638-6.238,2.594     c-0.427,0.196-0.845,0.401-1.263,0.606c-1.801,0.887-3.567,1.835-5.291,2.859c-0.589,0.35-1.178,0.708-1.766,1.075     c-1.51,0.956-2.978,1.954-4.412,3.004C325.61,374.563,325.184,374.81,324.791,375.109z M371.212,478.891     c-23.526,0-42.667-19.14-42.667-42.667c0-23.526,19.14-42.667,42.667-42.667c23.526,0,42.667,19.14,42.667,42.667     C413.879,459.751,394.739,478.891,371.212,478.891z" fill="#8F1622"/>
			<path d="M371.212,410.625c-14.114,0-25.6,11.486-25.6,25.6s11.486,25.6,25.6,25.6s25.6-11.486,25.6-25.6     S385.326,410.625,371.212,410.625z" fill="#8F1622"/>
			<path d="M140.812,410.625c-14.114,0-25.6,11.486-25.6,25.6s11.486,25.6,25.6,25.6s25.6-11.486,25.6-25.6     S154.926,410.625,140.812,410.625z" fill="#8F1622"/>
		</g>
	</g>
</g>
<g>
</g>
<g>
</g>
<g>
</g>
<g>
</g>
<g>
</g>
<g>
</g>
<g>
</g>
<g>
</g>
<g>
</g>
<g>
</g>
<g>
</g>
<g>
</g>
<g>
</g>
<g>
</g>
<g>
</g>
</svg>
