<?xml version="1.0" encoding="iso-8859-1"?>
<!-- Generator: Adobe Illustrator 19.0.0, SVG Export Plug-In . SVG Version: 6.00 Build 0)  -->
<svg xmlns="http://www.w3.org/2000/svg" xmlns:xlink="http://www.w3.org/1999/xlink" version="1.1" id="Layer_1" x="0px" y="0px" viewBox="0 0 512.002 512.002" style="enable-background:new 0 0 512.002 512.002;" xml:space="preserve" width="512px" height="512px">
<g>
	<g>
		<path d="M451.973,357.406c-24.2-34.564-67.234-49.556-107.126-38.238l-28.944-41.34c0.203-0.243,0.397-0.491,0.579-0.751    l112.953-161.311c11.945-17.059,16.533-37.749,12.918-58.262c-3.616-20.512-15.002-38.386-32.061-50.326    c-0.097-0.069-0.194-0.134-0.293-0.198l-7.042-4.939c-2.445-1.715-5.472-2.39-8.414-1.871c-2.942,0.518-5.557,2.184-7.27,4.63    L255.999,192.278L124.729,4.802c-1.712-2.447-4.328-4.112-7.269-4.63c-2.941-0.519-5.967,0.155-8.413,1.869l-7.031,4.929    c-0.106,0.069-0.211,0.14-0.313,0.212C84.645,19.124,73.259,36.997,69.645,57.511C66.03,78.02,70.617,98.71,82.561,115.77    l112.957,161.313c0.181,0.259,0.376,0.507,0.577,0.747l-28.943,41.335c-39.896-11.315-82.927,3.677-107.125,38.234    c-15.05,21.494-20.828,47.561-16.271,73.401c4.558,25.841,18.907,48.361,40.402,63.408c16.702,11.695,36.165,17.793,56.139,17.793    c5.729,0,11.502-0.501,17.26-1.517c25.842-4.555,48.362-18.903,63.409-40.398c24.192-34.548,23.562-80.112-0.705-113.736    l18.509-26.433l17.23-11.511l17.226,11.51l18.511,26.437c-24.264,33.623-24.896,79.185-0.711,113.728    c19.085,27.264,49.609,41.862,80.609,41.86c19.453-0.001,39.098-5.751,56.209-17.729c21.495-15.052,35.843-37.571,40.401-63.41    C472.803,404.96,467.024,378.894,451.973,357.406z M101.001,102.855c-8.495-12.133-11.757-26.851-9.186-41.439    c2.438-13.836,9.847-25.984,20.954-34.447l129.489,184.932l-32.45,46.341L101.001,102.855z M249.874,295.423    c-0.051,0.033-0.1,0.068-0.151,0.101l-25.216,16.846c-1.161,0.777-2.167,1.76-2.967,2.904l-24.525,35.026    c-2.963,4.231-2.666,9.935,0.72,13.835c22.792,26.255,24.762,64.514,4.788,93.037c-11.6,16.57-28.957,27.629-48.876,31.139    c-19.917,3.51-40.011-0.946-56.579-12.547c-16.57-11.6-27.631-28.958-31.144-48.876c-3.514-19.918,0.94-40.012,12.541-56.578    c14.527-20.748,37.856-32.346,61.989-32.346c9.055,0,18.223,1.633,27.08,5.029c4.824,1.848,10.287,0.177,13.25-4.055    L399.229,26.973c11.105,8.461,18.513,20.607,20.951,34.441c2.572,14.589-0.691,29.307-9.189,41.44L299.251,262.436    L249.874,295.423z M446.075,426.891c-3.513,19.917-14.574,37.278-31.143,48.879c-34.211,23.944-81.523,15.602-105.465-18.599    c-19.966-28.521-17.994-66.777,4.795-93.033c3.386-3.9,3.683-9.604,0.72-13.834l-24.528-35.029    c-0.8-1.144-1.807-2.129-2.967-2.903l-11.227-7.501l21.182-14.151l33.767,48.228c2.963,4.232,8.429,5.904,13.252,4.055    c32.463-12.451,69.089-1.218,89.069,27.32C445.134,386.884,449.588,406.973,446.075,426.891z" fill="#8F1622"/>
	</g>
</g>
<g>
	<g>
		<path d="M413.412,384.399c-16.182-23.102-48.147-28.739-71.256-12.562c-0.001,0-0.001,0.001-0.001,0.001    c-23.099,16.176-28.734,48.136-12.561,71.248c9.944,14.194,25.842,21.794,41.98,21.794c10.13,0,20.354-2.993,29.26-9.231    c11.199-7.831,18.674-19.557,21.05-33.016C424.26,409.177,421.251,395.598,413.412,384.399z M399.714,418.721    c-1.329,7.534-5.514,14.097-11.789,18.486c-12.932,9.058-30.83,5.903-39.89-7.032c-9.056-12.94-5.902-30.837,7.031-39.893    c12.941-9.06,30.843-5.905,39.904,7.031C399.359,403.583,401.044,411.186,399.714,418.721z" fill="#8F1622"/>
	</g>
</g>
<g>
	<g>
		<path d="M169.841,371.837c-23.109-16.176-55.075-10.54-71.257,12.564c-7.838,11.197-10.845,24.775-8.47,38.232    c2.375,13.459,9.85,25.184,21.043,33.011c8.91,6.24,19.136,9.236,29.268,9.236c16.138,0,32.037-7.601,41.978-21.794    c0.001-0.001,0.002-0.003,0.002-0.005C198.577,419.975,192.942,388.015,169.841,371.837z M163.961,430.175    c-9.064,12.935-26.957,16.089-39.896,7.027c-6.269-4.384-10.453-10.948-11.782-18.481c-1.329-7.535,0.355-15.139,4.742-21.408    c5.567-7.948,14.47-12.204,23.511-12.204c5.674,0,11.403,1.676,16.393,5.17C169.863,399.336,173.017,417.233,163.961,430.175z" fill="#8F1622"/>
	</g>
</g>
<g>
	<g>
		<circle cx="251.15" cy="272.719" r="10.187" fill="#8F1622"/>
	</g>
</g>
<g>
	<g>
		<path d="M373.589,110.194c-5.094-3.567-12.112-2.328-15.677,2.765l-64.747,92.467c-3.566,5.093-2.328,12.112,2.765,15.678    c1.965,1.377,4.217,2.036,6.446,2.036c3.548,0,7.041-1.674,9.23-4.802l64.747-92.467    C379.919,120.78,378.681,113.761,373.589,110.194z" fill="#8F1622"/>
	</g>
</g>
<g>
	<g>
		<path d="M188.914,162.7l-32.051-45.773c-3.565-5.093-10.584-6.331-15.677-2.765c-5.092,3.566-6.331,10.584-2.765,15.677    l32.051,45.773c2.189,3.128,5.682,4.802,9.23,4.802c2.229,0,4.482-0.661,6.446-2.036    C191.242,174.81,192.479,167.792,188.914,162.7z" fill="#8F1622"/>
	</g>
</g>
<g>
</g>
<g>
</g>
<g>
</g>
<g>
</g>
<g>
</g>
<g>
</g>
<g>
</g>
<g>
</g>
<g>
</g>
<g>
</g>
<g>
</g>
<g>
</g>
<g>
</g>
<g>
</g>
<g>
</g>
</svg>
