<?xml version="1.0" encoding="iso-8859-1"?>
<!-- Generator: Adobe Illustrator 19.0.0, SVG Export Plug-In . SVG Version: 6.00 Build 0)  -->
<svg xmlns="http://www.w3.org/2000/svg" xmlns:xlink="http://www.w3.org/1999/xlink" version="1.1" id="Layer_1" x="0px" y="0px" viewBox="0 0 512.005 512.005" style="enable-background:new 0 0 512.005 512.005;" xml:space="preserve" width="512px" height="512px">
<g>
	<g>
		<path d="M509.637,133.134c-3.306-3.48-8.773-3.645-12.271-0.356c-29.705,28.047-54.68,30.98-80.072,9.129l8.565-7.099    c22.927-22.918,22.927-60.216,0-83.144c-11.056-11.056-25.826-17.156-41.568-17.156c-15.742,0-30.512,6.101-42.123,17.764    l-6.751,8.166l-8.773-8.773c-22.919-22.927-60.234-22.91-83.144,0c-22.918,22.927-22.918,60.225,0,83.144l16.618,16.61    L137.752,299.283l-29.358-29.366c-22.927-22.927-60.234-22.91-83.144,0c-22.919,22.927-22.919,60.225,0,83.144l37.202,37.202    L1.994,463.314c-2.855,3.454-2.621,8.504,0.555,11.672c1.684,1.692,3.905,2.543,6.135,2.543c1.953,0,3.922-0.659,5.528-1.987    l73.051-60.468l51.382,51.382c1.701,1.692,3.922,2.543,6.135,2.543c2.222,0,4.443-0.85,6.135-2.543    c3.393-3.393,3.393-8.886,0-12.271l-50.219-50.228l109.065-90.277l26.659,26.659c11.307,11.307,25.617,16.158,39.849,16.158    c16.002,0,31.909-6.153,43.286-16.158c11.064-11.064,17.165-25.834,17.165-41.576s-6.101-30.503-17.165-41.567l-18.814-18.823    l103.06-85.296c15.16,13.729,30.833,20.671,46.974,20.671c18.944,0,38.495-9.45,58.507-28.351    C512.77,142.107,512.926,136.623,509.637,133.134z M73.57,376.838l-36.048-36.048c-16.141-16.15-16.141-42.444,0-58.602    c16.141-16.15,42.444-16.158,58.602,0l30.512,30.52L73.57,376.838z M307.285,269.465c7.784,7.793,12.08,18.189,12.08,29.297    s-4.296,21.513-11.672,28.924c-15.273,13.399-42.609,16.766-59.001,0.382l-25.496-25.505l64.121-53.074L307.285,269.465z     M271.228,137.994l-15.455-15.455c-16.15-16.15-16.15-42.444,0-58.594c16.15-16.15,42.444-16.167,58.602,0l9.928,9.919    L271.228,137.994z M390.428,99.377l-28.351,28.351c-1.692,1.692-3.914,2.543-6.135,2.543c-2.213,0-4.434-0.85-6.135-2.543    c-3.384-3.393-3.384-8.886,0-12.271l28.351-28.351c3.393-3.393,8.878-3.393,12.271,0    C393.821,90.499,393.821,95.984,390.428,99.377z" fill="#8F1622"/>
	</g>
</g>
<g>
</g>
<g>
</g>
<g>
</g>
<g>
</g>
<g>
</g>
<g>
</g>
<g>
</g>
<g>
</g>
<g>
</g>
<g>
</g>
<g>
</g>
<g>
</g>
<g>
</g>
<g>
</g>
<g>
</g>
</svg>
