<?xml version="1.0" encoding="iso-8859-1"?>
<!-- Generator: Adobe Illustrator 19.0.0, SVG Export Plug-In . SVG Version: 6.00 Build 0)  -->
<svg xmlns="http://www.w3.org/2000/svg" xmlns:xlink="http://www.w3.org/1999/xlink" version="1.1" id="Layer_1" x="0px" y="0px" viewBox="0 0 512 512" style="enable-background:new 0 0 512 512;" xml:space="preserve" width="512px" height="512px">
<g>
	<g>
		<g>
			<path d="M477.867,422.4h-25.6V268.8c0-3.029-0.094-6.042-0.265-9.028c-2.569-44.467-25.293-84.932-62.344-111.01     c-22.281-15.701-47.718-24.951-73.924-27.46V89.6h8.533h17.067c4.71,0,8.533-3.814,8.533-8.533s-3.823-8.533-8.533-8.533H332.8     V38.4h8.533c4.71,0,8.533-3.814,8.533-8.533s-3.823-8.533-8.533-8.533h-17.067h-34.133h-17.067c-4.71,0-8.533,3.814-8.533,8.533     s3.823,8.533,8.533,8.533h8.533v34.133h-8.533c-4.71,0-8.533,3.814-8.533,8.533s3.823,8.533,8.533,8.533h17.067h8.533v31.036     c-13.688,0.23-27.452,2.27-40.951,6.246l-89.719,26.394c-10.377,3.038-21.111,4.591-31.906,4.591h-6.238     c-16.41,0-32.529-4.463-46.609-12.911c-7.381-4.429-13.815-11.418-19.661-21.367c-6.118-10.436-17.408-16.922-29.448-16.922     C15.309,106.667,0,121.975,0,140.8v196.267c0,15.864,10.923,29.107,25.6,32.922V396.8c0,4.719,3.823,8.533,8.533,8.533     c4.71,0,8.533-3.814,8.533-8.533v-26.812c14.677-3.814,25.6-17.058,25.6-32.922V320c0-23.526,19.14-42.667,42.667-42.667H230.4     c9.114,0,18.057,2.415,25.847,6.98c18.569,10.871,27.639,34.039,22.059,56.354L257.869,422.4H34.133     C15.309,422.4,0,437.709,0,456.533c0,18.825,15.309,34.133,34.133,34.133h443.733c18.825,0,34.133-15.309,34.133-34.133     C512,437.709,496.691,422.4,477.867,422.4z M119.467,192h51.2c4.71,0,8.533,3.814,8.533,8.533s-3.823,8.533-8.533,8.533h-51.2     c-4.71,0-8.533-3.814-8.533-8.533S114.756,192,119.467,192z M204.8,243.2h-85.333c-4.71,0-8.533-3.814-8.533-8.533     s3.823-8.533,8.533-8.533H204.8c4.71,0,8.533,3.814,8.533,8.533S209.51,243.2,204.8,243.2z M298.667,38.4h17.067v34.133h-17.067     V38.4z M341.333,388.267c-4.71,0-8.533-3.823-8.533-8.533s3.823-8.533,8.533-8.533c4.71,0,8.533,3.823,8.533,8.533     S346.044,388.267,341.333,388.267z M375.467,388.267c-4.71,0-8.533-3.823-8.533-8.533s3.823-8.533,8.533-8.533     c4.71,0,8.533,3.823,8.533,8.533S380.177,388.267,375.467,388.267z M341.333,277.333c-23.526,0-42.667-19.14-42.667-42.667     c0-23.526,19.14-42.667,42.667-42.667C364.86,192,384,211.14,384,234.667C384,258.193,364.86,277.333,341.333,277.333z" fill="#8F1622"/>
			<path d="M341.333,209.067c-14.114,0-25.6,11.486-25.6,25.6s11.486,25.6,25.6,25.6c14.114,0,25.6-11.486,25.6-25.6     S355.447,209.067,341.333,209.067z M341.333,243.2c-4.71,0-8.533-3.823-8.533-8.533s3.823-8.533,8.533-8.533     c4.71,0,8.533,3.823,8.533,8.533S346.044,243.2,341.333,243.2z" fill="#8F1622"/>
			<rect x="460.799" y="294.4" width="51.2" height="17.067" fill="#8F1622"/>
			<path d="M486.4,243.2c-14.114,0-25.6,11.486-25.6,25.6v8.533H512V268.8C512,254.686,500.514,243.2,486.4,243.2z" fill="#8F1622"/>
			<path d="M460.8,371.2c0,14.114,11.486,25.6,25.6,25.6s25.6-11.486,25.6-25.6v-8.533h-51.2V371.2z" fill="#8F1622"/>
			<rect x="460.799" y="328.533" width="51.2" height="17.067" fill="#8F1622"/>
		</g>
	</g>
</g>
<g>
</g>
<g>
</g>
<g>
</g>
<g>
</g>
<g>
</g>
<g>
</g>
<g>
</g>
<g>
</g>
<g>
</g>
<g>
</g>
<g>
</g>
<g>
</g>
<g>
</g>
<g>
</g>
<g>
</g>
</svg>
