<?xml version="1.0" encoding="iso-8859-1"?>
<!-- Generator: Adobe Illustrator 19.0.0, SVG Export Plug-In . SVG Version: 6.00 Build 0)  -->
<svg xmlns="http://www.w3.org/2000/svg" xmlns:xlink="http://www.w3.org/1999/xlink" version="1.1" id="Layer_1" x="0px" y="0px" viewBox="0 0 512 512" style="enable-background:new 0 0 512 512;" xml:space="preserve" width="512px" height="512px">
<g>
	<g>
		<g>
			<rect x="221.867" width="25.6" height="51.2" fill="#8F1622"/>
			<rect x="264.533" width="25.6" height="51.2" fill="#8F1622"/>
			<path d="M102.4,162.133c-4.702,0-8.533,3.831-8.533,8.533V204.8c0,4.702,3.831,8.533,8.533,8.533     c4.702,0,8.533-3.831,8.533-8.533v-34.133C110.933,165.965,107.102,162.133,102.4,162.133z" fill="#8F1622"/>
			<path d="M384.001,264.533c-23.526,0-42.667,19.14-42.667,42.667c0,23.526,19.14,42.667,42.667,42.667     c23.526,0,42.667-19.14,42.667-42.667C426.668,283.674,407.527,264.533,384.001,264.533z M407.101,318.234     c3.337,3.337,3.337,8.73,0,12.066c-1.664,1.664-3.849,2.5-6.033,2.5c-2.185,0-4.369-0.836-6.033-2.5l-11.034-11.034     L372.967,330.3c-1.664,1.664-3.849,2.5-6.033,2.5c-2.185,0-4.369-0.836-6.033-2.5c-3.337-3.336-3.337-8.73,0-12.066     l11.034-11.034l-11.034-11.034c-3.337-3.337-3.337-8.73,0-12.066s8.73-3.337,12.066,0l11.034,11.034l11.034-11.034     c3.337-3.337,8.73-3.337,12.066,0c3.337,3.337,3.337,8.73,0,12.066L396.067,307.2L407.101,318.234z" fill="#8F1622"/>
			<path d="M505.754,368.333c-0.026-0.128-0.043-0.256-0.068-0.375l-19.695-98.116c-12.732-63.386-9.609-101.666-2.483-169.37     c0.853-8.209-1.818-16.427-7.339-22.562c-5.521-6.127-13.423-9.643-21.675-9.643H384V25.6c0-4.71-3.823-8.533-8.533-8.533h-25.6     V8.533c0-4.71-3.823-8.533-8.533-8.533H307.2v51.2h34.133c4.71,0,8.533-3.823,8.533-8.533v-8.533h17.067v34.133H145.067V34.133     h17.067v8.533c0,4.71,3.823,8.533,8.533,8.533H204.8V0h-34.133c-4.71,0-8.533,3.823-8.533,8.533v8.533h-25.6     c-4.71,0-8.533,3.823-8.533,8.533v42.667H8.533C3.823,68.267,0,72.09,0,76.8v50.398c0,58.846,7.253,90.59,21.146,146.176     c3.729,14.891,17.05,25.293,32.401,25.293h40.32v17.067h-8.533c-4.71,0-8.533,3.823-8.533,8.533s3.823,8.533,8.533,8.533h8.533     v17.067c0,4.71,3.823,8.533,8.533,8.533c4.71,0,8.533-3.823,8.533-8.533V332.8h8.533c4.71,0,8.533-3.823,8.533-8.533     s-3.823-8.533-8.533-8.533h-8.533v-17.067h43.401c18.415,0,33.399-14.985,33.399-33.399v-69.001h85.333v196.267H8.533     c-4.71,0-8.533,3.823-8.533,8.533v25.6h179.2c4.71,0,8.533,3.823,8.533,8.533s-3.823,8.533-8.533,8.533H0V460.8h93.867     c4.71,0,8.533,3.823,8.533,8.533s-3.823,8.533-8.533,8.533H0v25.6C0,508.177,3.823,512,8.533,512h474.3     C498.918,512,512,498.918,512,482.833v-32.794C512,422.758,509.892,395.273,505.754,368.333z M128,204.8     c0,11.11-7.159,20.497-17.067,24.03v18.637c0,4.71-3.823,8.533-8.533,8.533c-4.71,0-8.533-3.823-8.533-8.533V228.83     C83.959,225.297,76.8,215.91,76.8,204.8v-34.133c0-11.11,7.159-20.497,17.067-24.03v-27.17c0-4.71,3.823-8.533,8.533-8.533     c4.71,0,8.533,3.823,8.533,8.533v27.17c9.907,3.533,17.067,12.919,17.067,24.03V204.8z M418.133,204.8     c4.71,0,8.533,3.823,8.533,8.533c0,4.71-3.823,8.533-8.533,8.533s-8.533-3.823-8.533-8.533     C409.6,208.623,413.423,204.8,418.133,204.8z M384,204.8c4.71,0,8.533,3.823,8.533,8.533c0,4.71-3.823,8.533-8.533,8.533     s-8.533-3.823-8.533-8.533C375.467,208.623,379.29,204.8,384,204.8z M349.867,204.8c4.71,0,8.533,3.823,8.533,8.533     c0,4.71-3.823,8.533-8.533,8.533s-8.533-3.823-8.533-8.533C341.333,208.623,345.156,204.8,349.867,204.8z M273.067,136.533     h-85.333c-4.71,0-8.533-3.823-8.533-8.533s3.823-8.533,8.533-8.533h85.333c4.71,0,8.533,3.823,8.533,8.533     S277.777,136.533,273.067,136.533z M366.933,409.6c-4.71,0-8.533-3.823-8.533-8.533s3.823-8.533,8.533-8.533     s8.533,3.823,8.533,8.533S371.644,409.6,366.933,409.6z M401.067,409.6c-4.71,0-8.533-3.823-8.533-8.533s3.823-8.533,8.533-8.533     s8.533,3.823,8.533,8.533S405.777,409.6,401.067,409.6z M384,366.933c-32.939,0-59.733-26.795-59.733-59.733     s26.795-59.733,59.733-59.733c32.939,0,59.733,26.795,59.733,59.733S416.939,366.933,384,366.933z" fill="#8F1622"/>
		</g>
	</g>
</g>
<g>
</g>
<g>
</g>
<g>
</g>
<g>
</g>
<g>
</g>
<g>
</g>
<g>
</g>
<g>
</g>
<g>
</g>
<g>
</g>
<g>
</g>
<g>
</g>
<g>
</g>
<g>
</g>
<g>
</g>
</svg>
