<?xml version="1.0" encoding="iso-8859-1"?>
<!-- Generator: Adobe Illustrator 18.0.0, SVG Export Plug-In . SVG Version: 6.00 Build 0)  -->
<!DOCTYPE svg PUBLIC "-//W3C//DTD SVG 1.1//EN" "http://www.w3.org/Graphics/SVG/1.1/DTD/svg11.dtd">
<svg xmlns="http://www.w3.org/2000/svg" xmlns:xlink="http://www.w3.org/1999/xlink" version="1.1" id="Capa_1" x="0px" y="0px" viewBox="0 0 297.542 297.542" style="enable-background:new 0 0 297.542 297.542;" xml:space="preserve" width="512px" height="512px">
<path d="M1.141,176.591c2.161,9.034,11.491,18.912,22.147,24.223c9.968,4.968,27.321,10.89,53.386,10.89h192.531  c4.036,0,7.678-2.427,9.23-6.152l11.649-27.948c0.204-0.489,0.353-0.985,0.476-1.484c16.397-26.811-0.936-72.132-3.145-77.638  c-1.684-4.196-5.982-6.736-10.466-6.205c-60.605,7.237-98.659,13.934-125.238,19.419l-5.993-18.883  c-1.46-4.599-5.996-7.491-10.782-6.896c-3.993,0.504-98.13,12.782-126.692,52.291C0.768,148.547-1.688,164.765,1.141,176.591z   M271.392,113.094c4.648,14.582,10.102,40.009,2.007,52.775H168.862l-0.807-2.673l1.298-0.424c5.22-1.704,8.09-7.297,6.43-12.53  l-3.346-10.547c-1.616-5.094-6.954-8.016-12.112-6.638l-1.691,0.452l-0.839-2.645C182.68,125.788,217.605,119.691,271.392,113.094z   M19.983,165.87c-1.31-6.686,0.149-9.968,4.463-15.938c17.628-24.397,75.523-38.231,104.777-42.975l20.054,58.913H19.983z   M76.674,191.704c-16.396,0-29.089-2.707-38.259-6.135l226.56,0.29l-2.436,5.845H76.674z" fill="#8F1622"/>
<g>
</g>
<g>
</g>
<g>
</g>
<g>
</g>
<g>
</g>
<g>
</g>
<g>
</g>
<g>
</g>
<g>
</g>
<g>
</g>
<g>
</g>
<g>
</g>
<g>
</g>
<g>
</g>
<g>
</g>
</svg>
