<?xml version="1.0" encoding="iso-8859-1"?>
<!-- Generator: Adobe Illustrator 18.0.0, SVG Export Plug-In . SVG Version: 6.00 Build 0)  -->
<!DOCTYPE svg PUBLIC "-//W3C//DTD SVG 1.1//EN" "http://www.w3.org/Graphics/SVG/1.1/DTD/svg11.dtd">
<svg xmlns="http://www.w3.org/2000/svg" xmlns:xlink="http://www.w3.org/1999/xlink" version="1.1" id="Capa_1" x="0px" y="0px" viewBox="0 0 307.924 307.924" style="enable-background:new 0 0 307.924 307.924;" xml:space="preserve" width="512px" height="512px">
<path d="M307.923,99.524c-0.065-19.664-5.242-36.229-14.971-47.902c-1.28-1.536-2.993-2.654-4.916-3.207  c-0.436-0.126-10.849-3.078-24.5-3.078c-22.947,0-41.584,8.101-53.895,23.425c-2.92,3.635-6.456,8.237-10.551,13.565  c-21.111,27.476-65.04,84.646-91.699,88.817c-2.457,0.385-4.85,0.58-7.109,0.58c-13.375,0.001-19.148-6.833-19.858-7.745  c-2.373-3.849-6.814-5.261-11.157-3.955c-1.555,0.468-38.279,11.675-57.718,31.111C0.786,201.9-2.783,216.114,2.236,228.231  c9.443,22.797,44.514,34.355,104.238,34.355h164.555c2.698,0,5.281-1.092,7.164-3.024c1.883-1.933,2.904-4.546,2.832-7.243  c-0.017-0.629-1.496-63.277,13.353-94.862C303.302,138.477,307.986,118.443,307.923,99.524z M111.309,241.587  c-56.081,6.948-86.188-10.369-90.596-21.009c-2.805-6.772,3.101-13.423,4.979-15.3c11.852-11.852,33.369-20.515,43.616-24.175  c6.244,5.291,16.619,10.622,30.977,10.621c3.292,0,6.724-0.276,10.199-0.82c31.886-4.99,70.643-52.371,104.466-96.391  c4.024-5.237,7.499-9.76,10.284-13.227c8.503-10.584,21.39-15.95,38.303-15.95c6.809,0,12.616,0.926,15.95,1.602  c8.752,12.77,10.652,33.62,5.821,55.569c-10.402,0.154-32.909,3.245-60.774,23.456c-13.758,9.979-27.302,24.538-41.64,39.952  C159.797,210.744,136.511,238.465,111.309,241.587z M276.279,148.947c-13.086,27.835-15.09,73.329-15.295,93.64H151.151  c16.254-11.491,31.444-26.985,46.387-43.049c13.657-14.682,26.556-28.549,38.738-37.385c18.362-13.318,33.432-17.702,42.583-19.077  C278.052,145.044,277.193,147.002,276.279,148.947z" fill="#8F1622"/>
<g>
</g>
<g>
</g>
<g>
</g>
<g>
</g>
<g>
</g>
<g>
</g>
<g>
</g>
<g>
</g>
<g>
</g>
<g>
</g>
<g>
</g>
<g>
</g>
<g>
</g>
<g>
</g>
<g>
</g>
</svg>
