<?xml version="1.0" encoding="iso-8859-1"?>
<!-- Generator: Adobe Illustrator 18.0.0, SVG Export Plug-In . SVG Version: 6.00 Build 0)  -->
<!DOCTYPE svg PUBLIC "-//W3C//DTD SVG 1.1//EN" "http://www.w3.org/Graphics/SVG/1.1/DTD/svg11.dtd">
<svg xmlns="http://www.w3.org/2000/svg" xmlns:xlink="http://www.w3.org/1999/xlink" version="1.1" id="Capa_1" x="0px" y="0px" viewBox="0 0 296.019 296.019" style="enable-background:new 0 0 296.019 296.019;" xml:space="preserve" width="512px" height="512px">
<g>
	<path d="M0.855,198.687c0.55,5.495,4.366,12.645,9.889,12.645h275.274c5.523,0,10-4.477,10-10v-42.559   c0-2.754-1.136-5.385-3.139-7.274c-2.002-1.89-4.678-2.86-7.445-2.709c-23.534,1.376-43.789,2.552-61.313,3.567   c-19.97,1.158-36.396,2.111-50.105,2.923l-21.373-63.77c-1.432-4.274-5.551-7.058-10.047-6.807   c-3.77,0.214-92.731,5.769-128.666,52.456C0.518,154.588-1.523,174.933,0.855,198.687z M29.762,149.383   c24.904-32.394,85.208-41.704,106.432-44.024l30.024,85.973H20.496c0-0.003,0,0.003-0.001,0   C16.847,173.536,19.878,162.238,29.762,149.383z M276.019,191.331h-89.918l-5.498-16.405c12.545-0.738,27.246-1.592,44.678-2.603   c14.843-0.861,31.645-1.836,50.738-2.949V191.331z" fill="#8F1622"/>
	<path d="M117.346,134.491c2.63,0,5.21-1.07,7.069-2.93c1.86-1.86,2.931-4.44,2.931-7.07c0-2.63-1.07-5.21-2.931-7.07   c-1.859-1.859-4.439-2.93-7.069-2.93c-2.63,0-5.21,1.07-7.07,2.93c-1.86,1.86-2.93,4.44-2.93,7.07c0,2.63,1.069,5.21,2.93,7.07   C112.136,133.421,114.716,134.491,117.346,134.491z" fill="#8F1622"/>
	<path d="M77.915,153.001c2.63,0,5.21-1.069,7.08-2.93c1.86-1.86,2.92-4.44,2.92-7.07c0-2.63-1.06-5.21-2.92-7.069   c-1.87-1.86-4.439-2.931-7.08-2.931c-2.63,0-5.21,1.07-7.069,2.931c-1.86,1.859-2.931,4.439-2.931,7.069   c0,2.63,1.07,5.21,2.931,7.07C72.705,151.932,75.285,153.001,77.915,153.001z" fill="#8F1622"/>
	<path d="M113.165,168.772c2.641,0,5.21-1.07,7.08-2.931c1.86-1.859,2.92-4.439,2.92-7.069s-1.06-5.21-2.92-7.07   c-1.87-1.86-4.439-2.93-7.08-2.93c-2.63,0-5.21,1.069-7.069,2.93c-1.86,1.86-2.931,4.44-2.931,7.07s1.07,5.21,2.931,7.069   C107.955,167.701,110.535,168.772,113.165,168.772z" fill="#8F1622"/>
	<path d="M71.458,177.534c0,2.63,1.07,5.2,2.931,7.06c1.859,1.87,4.439,2.94,7.069,2.94c2.63,0,5.21-1.07,7.07-2.94   c1.86-1.859,2.93-4.43,2.93-7.06c0-2.64-1.069-5.22-2.93-7.08c-1.86-1.86-4.44-2.92-7.07-2.92c-2.64,0-5.21,1.06-7.069,2.92   C72.528,172.314,71.458,174.895,71.458,177.534z" fill="#8F1622"/>
	<path d="M39.886,175.272c2.63,0,5.21-1.07,7.069-2.931c1.87-1.87,2.931-4.439,2.931-7.069c0-2.641-1.061-5.21-2.931-7.07   c-1.859-1.87-4.43-2.93-7.069-2.93c-2.631,0-5.21,1.059-7.07,2.93c-1.86,1.85-2.93,4.43-2.93,7.07c0,2.63,1.069,5.21,2.93,7.069   C34.676,174.201,37.255,175.272,39.886,175.272z" fill="#8F1622"/>
	<path d="M141.636,185.272c2.63,0,5.21-1.07,7.069-2.93c1.86-1.86,2.931-4.44,2.931-7.07s-1.07-5.21-2.931-7.07   c-1.859-1.87-4.439-2.93-7.069-2.93c-2.631,0-5.21,1.059-7.07,2.93c-1.86,1.86-2.93,4.43-2.93,7.07c0,2.63,1.069,5.21,2.93,7.07   C136.426,184.201,139.005,185.272,141.636,185.272z" fill="#8F1622"/>
</g>
<g>
</g>
<g>
</g>
<g>
</g>
<g>
</g>
<g>
</g>
<g>
</g>
<g>
</g>
<g>
</g>
<g>
</g>
<g>
</g>
<g>
</g>
<g>
</g>
<g>
</g>
<g>
</g>
<g>
</g>
</svg>
