<?xml version="1.0" encoding="iso-8859-1"?>
<!-- Generator: Adobe Illustrator 18.0.0, SVG Export Plug-In . SVG Version: 6.00 Build 0)  -->
<!DOCTYPE svg PUBLIC "-//W3C//DTD SVG 1.1//EN" "http://www.w3.org/Graphics/SVG/1.1/DTD/svg11.dtd">
<svg xmlns="http://www.w3.org/2000/svg" xmlns:xlink="http://www.w3.org/1999/xlink" version="1.1" id="Capa_1" x="0px" y="0px" viewBox="0 0 294.33 294.33" style="enable-background:new 0 0 294.33 294.33;" xml:space="preserve" width="512px" height="512px">
<path d="M0.296,179.121c1.405,11.456,4.301,22.909,13.131,31.347c21.03,20.096,71.001,30.269,148.621,30.269  c2.727,0,5.502-0.013,8.297-0.038c59.863-0.539,114.588-6.792,115.134-6.856c5.045-0.583,8.852-4.855,8.852-9.934V72.908  c0-3.351-1.679-6.479-4.471-8.332c-2.791-1.853-6.326-2.183-9.414-0.883c-0.231,0.098-23.44,9.756-49.386,9.756  c-19.917,0-35.71-5.694-46.939-16.924c-2.481-2.482-6.084-3.483-9.485-2.633c-3.404,0.847-6.116,3.416-7.146,6.77  c-0.201,0.655-20.945,65.537-95.005,73.271c-42.072,4.395-65.264,14.261-70.9,30.161C-0.066,168.751-0.296,174.293,0.296,179.121z   M22.126,174.588c-0.23-0.23-2.23-2.29-1.691-3.813c0.056-0.157,0.584-1.481,3.018-3.373c16.101,8.718,37.603,12.344,49.495,12.343  c1.543,0,2.925-0.061,4.111-0.18c4.549-0.455,8.372-2.773,10.764-6.528c4.02-6.31,2.919-15.251,1.356-21.487  c1.506-0.313,2.993-0.643,4.455-0.997c-0.044,4.598,0.343,10.41,1.836,16.708c1.602,6.754,4.283,14.291,9.625,21.308  C54.044,187.528,27.208,179.67,22.126,174.588z M71.226,154.193c0.757,2.641,1.275,5.57,1.358,7.583c-0.028,0-0.057,0-0.085,0  c-5.841,0-15.098-1.278-24.297-3.868C54.402,156.534,61.98,155.253,71.226,154.193z M114.218,143.789  c1.245-0.526,2.473-1.064,3.677-1.618l4.258,10.947c1.539,3.956,5.318,6.378,9.322,6.378c1.206,0,2.432-0.22,3.623-0.683  c5.147-2.002,7.697-7.798,5.695-12.945l-5.271-13.554c2.398-1.604,4.677-3.252,6.854-4.926l6.015,8.69  c1.942,2.805,5.061,4.309,8.231,4.309c1.963,0,3.947-0.577,5.683-1.778c4.541-3.143,5.674-9.373,2.531-13.914l-7.475-10.797  c1.689-1.774,3.273-3.534,4.749-5.262c10.076,8.751,33.383,33.419,35.072,75.438c-14.684,1.411-30.206,2.682-45.683,3.584  c-5.012,0.293-10.028,0.51-15.031,0.679c-11.271-5.078-18.464-13.497-21.386-25.07c-2.509-9.938-0.981-19.239-0.939-19.478H114.218z   M274.33,155.465v19.341c-11.048,1.594-31.993,4.47-57.218,7.222c-2.409-50.261-30.95-79.36-43.12-89.55  c1.118-1.773,2.151-3.5,3.103-5.165C203.158,99.821,262.552,133.591,274.33,155.465z M274.33,86.878v37.852  c-11.862-11.104-27.941-21.99-43.466-31.284c0.065,0,0.129,0.003,0.195,0.003C247.981,93.449,263.679,89.98,274.33,86.878z   M170.003,220.7c-67.195,0.607-114.965-6.444-136.517-19.938c26.716,6.95,64.242,7.926,83.103,7.926  c11.854,0,23.992-0.357,36.075-1.063c49.606-2.895,99.69-9.492,121.666-12.615v19.892  C256.641,216.652,214.771,220.304,170.003,220.7z" fill="#8F1622"/>
<g>
</g>
<g>
</g>
<g>
</g>
<g>
</g>
<g>
</g>
<g>
</g>
<g>
</g>
<g>
</g>
<g>
</g>
<g>
</g>
<g>
</g>
<g>
</g>
<g>
</g>
<g>
</g>
<g>
</g>
</svg>
