<?xml version="1.0" encoding="iso-8859-1"?>
<!-- Generator: Adobe Illustrator 18.0.0, SVG Export Plug-In . SVG Version: 6.00 Build 0)  -->
<!DOCTYPE svg PUBLIC "-//W3C//DTD SVG 1.1//EN" "http://www.w3.org/Graphics/SVG/1.1/DTD/svg11.dtd">
<svg xmlns="http://www.w3.org/2000/svg" xmlns:xlink="http://www.w3.org/1999/xlink" version="1.1" id="Capa_1" x="0px" y="0px" viewBox="0 0 297 297" style="enable-background:new 0 0 297 297;" xml:space="preserve" width="512px" height="512px">
<path d="M0.007,169.387c0.106,5.529,4.574,19.099,13.858,28.784c11.072,11.551,30.35,26.833,67.338,26.833h205.868  c5.484,0,9.929-4.446,9.929-9.929V81.925c0-3.582-1.944-6.877-5.063-8.638c-3.119-1.759-6.959-1.696-10.026,0.154  c-0.11,0.066-11.134,6.637-27.959,9.799c-22.096,4.151-43.431,0.772-63.411-10.048c-2.45-1.326-5.347-1.563-7.978-0.651  c-2.633,0.912-4.761,2.889-5.866,5.447c-0.038,0.087-4.396,9.144-18.42,18.51c-14.452,9.653-41.709,21.159-89.486,21.159  c-25.002,0-43.785,6.41-55.828,19.053C-0.173,150.498-0.041,166.92,0.007,169.387z M189.333,94.741  c36.636,16.475,69.513,9.454,87.808,2.666v24.626c-14.837,4.354-37.784,18.458-41.236,47.373l-59.214-61.896  C182.402,102.864,186.493,98.4,189.333,94.741z M197.423,176.822l-48.206-53.176c3.831-1.61,7.363-3.298,10.614-5.033l55.686,58.208  H197.423z M129.338,131.177l41.279,45.644h-34.016c-0.787-10.444-4.637-18.822-11.479-24.92  c-14.709-13.112-38.391-11.008-52.54-9.751c-2.983,0.265-5.795,0.515-7.141,0.473c-3.587-0.112-6.276-0.881-7.194-2.06  c-0.475-0.609-0.656-1.563-0.697-2.464c3.538-0.38,7.28-0.583,11.24-0.583C93.009,137.516,113.267,135.419,129.338,131.177z   M27.597,150.141c2.803-2.867,6.366-5.254,10.592-7.163c0.598,3.063,1.824,6.369,4.14,9.46c3.267,4.361,9.822,9.64,22.495,10.034  c2.52,0.085,5.611-0.195,9.514-0.542c10.949-0.972,29.274-2.6,37.569,4.795c2.609,2.325,4.156,5.659,4.727,10.096H72.762  c-0.081,0-0.16,0.001-0.241,0.003c-10.28,0.259-38.175-1.625-52.348-12.44C20.834,160.802,22.645,155.209,27.597,150.141z   M277.141,205.146H81.202c-21.037,0-34.965-5.492-44.151-12.312c16.823,4.028,32.635,3.913,35.827,3.846h204.262V205.146z   M255.311,176.822c0.058-19.982,13.141-29.435,21.83-33.51v33.51H255.311z" fill="#8F1622"/>
<g>
</g>
<g>
</g>
<g>
</g>
<g>
</g>
<g>
</g>
<g>
</g>
<g>
</g>
<g>
</g>
<g>
</g>
<g>
</g>
<g>
</g>
<g>
</g>
<g>
</g>
<g>
</g>
<g>
</g>
</svg>
