<?xml version="1.0" encoding="iso-8859-1"?>
<!-- Generator: Adobe Illustrator 19.0.0, SVG Export Plug-In . SVG Version: 6.00 Build 0)  -->
<svg xmlns="http://www.w3.org/2000/svg" xmlns:xlink="http://www.w3.org/1999/xlink" version="1.1" id="Layer_1" x="0px" y="0px" viewBox="0 0 512 512" style="enable-background:new 0 0 512 512;" xml:space="preserve" width="512px" height="512px">
<g transform="translate(1 1)">
	<g>
		<g>
			<path d="M510.553,413.72V95.427c0-15.36-12.8-28.16-28.16-28.16H443.14V27.16C443.14,11.8,430.34-1,414.127-1h-79.36     c-15.36,0-28.16,12.8-28.16,28.16v40.107H266.5c-15.36,0-28.16,12.8-28.16,28.16v319.147c0,15.36,12.8,28.16,28.16,28.16h40.96     v40.107c0,15.36,12.8,28.16,28.16,28.16h79.36c15.36,0,28.16-12.8,29.013-28.16v-40.107h39.253     C498.607,442.733,511.406,429.933,510.553,413.72z M255.407,413.72v-35.915l43.046,14.347l-42.837,23.617     C255.483,415.102,255.407,414.417,255.407,413.72z M490.955,87.673c1.901,2.024,2.956,4.782,2.532,7.754v27.21l-180.961,106.95     l-43.733-11.66L490.955,87.673z M480.195,291.951l-44.036,24.279l-180.752-50.202V232.02L480.195,291.951z M335.641,235.749     l157.845-93.288v31.417l-119.929,71.98L335.641,235.749z M414.795,328.008l-38.164,21.041l-121.225-32.333V283.74     L414.795,328.008z M318.788,380.94l-63.382-21.125V334.38l99.633,26.574L318.788,380.94z M320.482,399.494l0.909,0.303     l0.328-0.985l171.768-94.701v40.426l-136.581,80.276h-82.347L320.482,399.494z M493.487,277.833l-36.449-9.718l36.449-22.803     V277.833z M493.487,225.18l-59.013,36.92l-37.953-10.119l96.966-58.198V225.18z M462.907,84.333l-207.5,121.657v-39.833     l147.178-81.824h40.555H462.907z M323.673,27.16c0-5.973,5.12-11.093,11.947-11.093h79.36c5.973,0,11.093,5.12,11.093,11.093     v40.107h-102.4V27.16z M266.5,84.333h40.107h60.855L255.407,146.63V95.427C255.407,89.453,260.526,84.333,266.5,84.333z      M425.22,482.84c0,5.973-5.12,11.093-11.093,11.093h-79.36c-5.973,0-11.093-5.12-11.093-11.093v-40.107H425.22V482.84z      M482.393,424.813h-91.807l102.901-60.48v49.387C493.487,419.693,488.367,424.813,482.393,424.813z" fill="#8F1622"/>
			<path d="M221.273,7.533c0-5.12-3.413-8.533-8.533-8.533c-5.12,0-8.533,3.413-8.533,8.533c0,25.515-18.914,46.826-43.414,50.604     l0.747-7.938c0-28.16-23.04-51.2-51.2-51.2c-28.16,0-51.2,23.04-51.2,52.053l0.725,7.68h-9.258c-28.16,0-51.2,23.04-51.2,51.2     c0,28.16,23.04,51.2,51.2,51.2h18.918l14.491,153.6H50.607c-28.16,0-51.2,23.04-51.2,51.2s23.04,51.2,51.2,51.2h43.069     l8.131,86.187c0.853,4.267,4.267,7.68,8.533,7.68s7.68-3.413,8.533-7.68l8.115-86.187h60.151c5.12,0,8.533-3.413,8.533-8.533     s-3.413-8.533-8.533-8.533h-58.544l10.446-110.933h31.032c28.16,0,51.2-23.04,51.2-51.2s-23.04-51.2-51.2-51.2h-21.39     l10.473-111.226C193.849,72.37,221.273,43.006,221.273,7.533z M50.607,144.067c-18.773,0-34.133-15.36-34.133-34.133     S31.833,75.8,50.607,75.8h10.868l6.44,68.267H50.607z M50.607,400.067c-18.773,0-34.133-15.36-34.133-34.133     S31.833,331.8,50.607,331.8h35.019l6.44,68.267H50.607z M109.213,400.067L78.622,75.8h23.185v8.533     c0,5.12,3.413,8.533,8.533,8.533s8.533-3.413,8.533-8.533V50.2c0-5.12-3.413-8.533-8.533-8.533s-8.533,3.413-8.533,8.533v8.533     H77.012L76.206,50.2c0-18.773,15.36-34.133,34.133-34.133s34.133,15.36,34.133,33.28l-33.009,350.72H109.213z M170.073,203.8     c18.773,0,34.133,15.36,34.133,34.133s-15.36,34.133-34.133,34.133h-29.425l6.428-68.267H170.073z" fill="#8F1622"/>
		</g>
	</g>
</g>
<g>
</g>
<g>
</g>
<g>
</g>
<g>
</g>
<g>
</g>
<g>
</g>
<g>
</g>
<g>
</g>
<g>
</g>
<g>
</g>
<g>
</g>
<g>
</g>
<g>
</g>
<g>
</g>
<g>
</g>
</svg>
