<?xml version="1.0" encoding="iso-8859-1"?>
<!-- Generator: Adobe Illustrator 19.0.0, SVG Export Plug-In . SVG Version: 6.00 Build 0)  -->
<svg xmlns="http://www.w3.org/2000/svg" xmlns:xlink="http://www.w3.org/1999/xlink" version="1.1" id="Layer_1" x="0px" y="0px" viewBox="0 0 512.001 512.001" style="enable-background:new 0 0 512.001 512.001;" xml:space="preserve" width="512px" height="512px">
<g>
	<g>
		<g>
			<polygon points="337.085,236.225 374.785,246.44 512.001,163.385 512.001,132.87    " fill="#8F1622"/>
			<path d="M314.083,229.995l197.914-116.949V96.713c0-6.656-2.389-12.706-6.238-17.562l-235.29,139.034L314.083,229.995z" fill="#8F1622"/>
			<polygon points="479.297,292.43 238.93,227.329 238.93,262.179 436.067,316.605    " fill="#8F1622"/>
			<path d="M489.523,68.924c-1.929-0.418-3.917-0.657-5.965-0.657h-39.825V28.442C443.733,12.766,430.968,0,415.292,0h-79.65     C319.966,0,307.2,12.766,307.2,28.442v39.825h-39.825c-15.684,0-28.442,12.766-28.442,28.442v61.79l130.654-73.165h34.927     l-165.581,92.723v31.59l8.533,2.313L489.523,68.924z M400.06,68.267h-75.793V28.442c0-6.272,5.103-11.375,11.375-11.375h79.65     c6.272,0,11.375,5.103,11.375,11.375v39.825H400.06z" fill="#8F1622"/>
			<path d="M321.569,400.632l-0.478-0.162l-69.12,38.664c4.446,2.884,9.719,4.599,15.403,4.599h39.825v39.825     c0,15.676,12.766,28.442,28.45,28.442h79.642c15.676,0,28.442-12.766,28.442-28.442v-39.825h39.825     c15.684,0,28.442-12.766,28.442-28.442v-60.544l-122.266,71.919h-33.655l155.921-91.716v-41.259L321.74,400.111L321.569,400.632z      M324.266,443.734h2.799h33.655h65.946v39.825c0,6.272-5.103,11.375-11.375,11.375h-79.642c-6.281,0-11.383-5.103-11.383-11.375     V443.734z" fill="#8F1622"/>
			<polygon points="238.933,355.096 319.343,381.899 355.465,361.692 238.933,329.564    " fill="#8F1622"/>
			<polygon points="414.874,328.463 238.934,279.883 238.934,311.866 376.662,349.839    " fill="#8F1622"/>
			<polygon points="511.997,183.333 397.548,252.607 435.522,262.889 511.997,216.46    " fill="#8F1622"/>
			<polygon points="500.599,280.515 512,274.141 512,236.423 458.257,269.046    " fill="#8F1622"/>
			<path d="M238.933,373.085v42.206c0,3.686,0.759,7.194,2.048,10.436l58.206-32.555L238.933,373.085z" fill="#8F1622"/>
			<path d="M221.867,8.534c0-4.71-3.823-8.533-8.533-8.533c-4.71,0-8.533,3.823-8.533,8.533c0,25.574-18.867,46.771-43.409,50.543     l0.742-7.876c0-28.237-22.963-51.2-51.2-51.2s-51.2,22.963-51.166,52.002l0.734,7.731H51.2c-28.237,0-51.2,22.963-51.2,51.2     s22.963,51.2,51.2,51.2h18.961l14.49,153.6H51.2c-28.237,0-51.2,22.963-51.2,51.2c0,28.237,22.963,51.2,51.2,51.2h43.11     l8.124,86.135c0.418,4.378,4.096,7.731,8.499,7.731s8.081-3.354,8.499-7.731l8.115-86.135h60.186c4.71,0,8.533-3.823,8.533-8.533     s-3.823-8.533-8.533-8.533h-58.581l10.462-110.933h31.053c28.237,0,51.2-22.963,51.2-51.2s-22.963-51.2-51.2-51.2h-21.402     l10.487-111.241C194.517,73.362,221.867,44.101,221.867,8.534z M51.2,145.067c-18.825,0-34.133-15.309-34.133-34.133     S32.375,76.8,51.2,76.8h10.914l6.434,68.267H51.2z M51.2,401.067c-18.825,0-34.133-15.309-34.133-34.133S32.375,332.8,51.2,332.8     h35.063l6.434,68.267H51.2z M119.467,85.334c0,4.71-3.823,8.533-8.533,8.533s-8.533-3.823-8.533-8.533V51.2     c0-4.71,3.823-8.533,8.533-8.533s8.533,3.823,8.533,8.533V85.334z M170.667,204.8c18.825,0,34.133,15.309,34.133,34.133     s-15.309,34.133-34.133,34.133h-29.449l6.434-68.267H170.667z" fill="#8F1622"/>
		</g>
	</g>
</g>
<g>
</g>
<g>
</g>
<g>
</g>
<g>
</g>
<g>
</g>
<g>
</g>
<g>
</g>
<g>
</g>
<g>
</g>
<g>
</g>
<g>
</g>
<g>
</g>
<g>
</g>
<g>
</g>
<g>
</g>
</svg>
