<?xml version="1.0" encoding="iso-8859-1"?>
<!-- Generator: Adobe Illustrator 18.0.0, SVG Export Plug-In . SVG Version: 6.00 Build 0)  -->
<!DOCTYPE svg PUBLIC "-//W3C//DTD SVG 1.1//EN" "http://www.w3.org/Graphics/SVG/1.1/DTD/svg11.dtd">
<svg xmlns="http://www.w3.org/2000/svg" xmlns:xlink="http://www.w3.org/1999/xlink" version="1.1" id="Capa_1" x="0px" y="0px" viewBox="0 0 297 297" style="enable-background:new 0 0 297 297;" xml:space="preserve" width="512px" height="512px">
<g>
	<path d="M73.328,127.898c-45.174,0-63.577,17.281-69.389,32.165c-2.252,5.766-4.152,16.407-3.921,22.884   c0.227,6.355,2.422,25.915,14.939,39.325c12.845,13.759,32.656,20.735,58.883,20.735h212.891c5.671,0,10.268-4.598,10.268-10.268   V64.269c0-3.334-1.627-6.459-4.351-8.383c-2.722-1.923-6.218-2.405-9.363-1.29c-0.219,0.077-22.239,7.753-52.441,7.753   c-17.831,0-34.947-2.638-50.875-7.841c-3.271-1.067-6.856-0.461-9.554,1.67c-2.698,2.13-4.153,5.437-3.874,8.863   c0.058,0.851,1.247,21.038-14.758,38.181C136.491,119.602,108.973,127.897,73.328,127.898   C73.323,127.898,73.333,127.898,73.328,127.898z M276.464,191.375H74.79v-42.932c0.072,0,0.145,0.001,0.217,0.001   c0.005,0,0.01,0,0.015,0c2.136,0,4.236-0.035,6.315-0.09l3.951,11.326c1.478,4.236,5.449,6.889,9.695,6.889   c1.121,0,2.263-0.186,3.382-0.576c5.355-1.868,8.18-7.723,6.313-13.078l-2.167-6.212c2.187-0.294,4.335-0.626,6.444-0.995   l7.201,11.058c1.968,3.022,5.257,4.666,8.614,4.666c1.92,0,3.864-0.538,5.593-1.665c4.752-3.094,6.096-9.455,3.001-14.208   l-3.392-5.209c1.975-0.686,3.902-1.417,5.783-2.19l8.087,8.939c2.028,2.24,4.817,3.379,7.618,3.379   c2.457,0,4.921-0.876,6.886-2.654c4.206-3.804,4.53-10.297,0.725-14.503l-4.751-5.252c1.538-1.085,3.029-2.213,4.471-3.384   l12.078,8.514c1.798,1.269,3.863,1.877,5.907,1.877c3.226,0,6.402-1.516,8.401-4.353c3.268-4.635,2.159-11.041-2.476-14.308   l-9.671-6.817c8.185-11.465,11.671-23.212,13.108-31.993c14.299,3.506,29.284,5.277,44.706,5.277   c19.024,0,35.034-2.692,45.619-5.126V191.375z M24.731,162.597c5.345-6.928,15.423-11.415,29.523-13.245v40.305   c-12.967-1.792-26.622-5.032-34.108-10.045C19.784,175.878,19.93,168.822,24.731,162.597z M73.841,222.471   c-20.142,0-34.832-4.707-43.661-13.99c-1.119-1.177-2.096-2.385-2.96-3.602c20.291,6.212,43.563,6.952,47.177,7.03   c0.073,0.001,0.147,0.002,0.222,0.002h201.846v10.56H73.841z" fill="#8F1622"/>
	<path d="M232.996,156.983c16.703,0,30.291-13.588,30.291-30.291c0-16.703-13.588-30.291-30.291-30.291   c-16.703,0-30.291,13.588-30.291,30.291C202.705,143.395,216.293,156.983,232.996,156.983z M232.996,116.938   c5.379,0,9.755,4.376,9.755,9.755s-4.376,9.755-9.755,9.755c-5.379,0-9.755-4.376-9.755-9.755S227.617,116.938,232.996,116.938z" fill="#8F1622"/>
</g>
<g>
</g>
<g>
</g>
<g>
</g>
<g>
</g>
<g>
</g>
<g>
</g>
<g>
</g>
<g>
</g>
<g>
</g>
<g>
</g>
<g>
</g>
<g>
</g>
<g>
</g>
<g>
</g>
<g>
</g>
</svg>
