<?xml version="1.0" encoding="iso-8859-1"?>
<!-- Generator: Adobe Illustrator 19.0.0, SVG Export Plug-In . SVG Version: 6.00 Build 0)  -->
<svg version="1.1" id="Layer_1" xmlns="http://www.w3.org/2000/svg" xmlns:xlink="http://www.w3.org/1999/xlink" x="0px" y="0px"
	 viewBox="0 0 512 512" style="enable-background:new 0 0 512 512;" xml:space="preserve">
<circle style="fill:#4D4D4D;" cx="406.588" cy="225.882" r="75.294"/>
<circle style="fill:#FF8080;" cx="406.588" cy="225.882" r="45.176"/>
<g>
	<path style="fill:#4D4D4D;" d="M406.588,271.059c-8.312,0-15.059,6.746-15.059,15.059v90.353
		c-0.105,58.217-47.194,105.306-105.412,105.412c-58.217-0.105-105.306-47.194-105.412-105.412v-76.183
		c67.765-7.499,120.456-64.888,120.471-134.641V75.294c-0.015-20.42-13.643-37.466-32.226-43.068
		C263.349,13.628,246.302,0.015,225.882,0c-24.952,0.015-45.161,20.224-45.176,45.176c0.015,24.952,20.224,45.161,45.176,45.176
		c17.98,0,33.37-10.571,40.644-25.781c2.786,2.741,4.518,6.52,4.533,10.722v90.353c-0.105,58.202-47.194,105.306-105.412,105.412
		c-58.217-0.105-105.306-47.194-105.412-105.412V75.294c0-4.201,1.747-7.981,4.533-10.722c7.273,15.194,22.664,25.781,40.644,25.781
		c24.952-0.015,45.161-20.224,45.176-45.176C150.573,20.224,130.364,0.015,105.412,0c-20.42,0.015-37.466,13.628-43.068,32.226
		c-18.598,5.602-32.226,22.648-32.226,43.068v90.353c0.015,69.752,52.706,127.142,120.471,134.641v76.183
		C150.603,451.328,211.26,511.985,286.118,512c74.857-0.015,135.514-60.672,135.529-135.529v-90.353
		C421.647,277.805,414.901,271.059,406.588,271.059z M225.882,60.235c-8.312-0.015-15.044-6.746-15.059-15.059
		c0.015-8.312,6.746-15.044,15.059-15.059c8.312,0.015,15.044,6.746,15.059,15.059C240.926,53.489,234.195,60.22,225.882,60.235z
		 M105.412,30.118c8.312,0.015,15.044,6.746,15.059,15.059c-0.015,8.312-6.746,15.044-15.059,15.059
		c-8.312-0.015-15.044-6.746-15.059-15.059C90.368,36.864,97.099,30.133,105.412,30.118z"/>
	<circle style="fill:#4D4D4D;" cx="406.588" cy="225.882" r="15.059"/>
</g>
<g>
</g>
<g>
</g>
<g>
</g>
<g>
</g>
<g>
</g>
<g>
</g>
<g>
</g>
<g>
</g>
<g>
</g>
<g>
</g>
<g>
</g>
<g>
</g>
<g>
</g>
<g>
</g>
<g>
</g>
</svg>
