<?xml version="1.0" encoding="iso-8859-1"?>
<!-- Generator: Adobe Illustrator 19.0.0, SVG Export Plug-In . SVG Version: 6.00 Build 0)  -->
<svg xmlns="http://www.w3.org/2000/svg" xmlns:xlink="http://www.w3.org/1999/xlink" version="1.1" id="Layer_1" x="0px" y="0px" viewBox="0 0 488.402 488.402" style="enable-background:new 0 0 488.402 488.402;" xml:space="preserve" width="512px" height="512px">
<g>
	<g>
		<path d="M20.818,258.278c-5.452-5.448-4.912-8.828-4.736-9.94c1-6.292,10.02-12.176,13.08-13.732    c3.952-1.976,5.556-6.784,3.58-10.736c-1.98-3.956-6.792-5.548-10.736-3.576c-1.96,0.98-19.208,10.016-21.712,25.456    c-0.932,5.74-0.092,14.536,9.212,23.84l80.78,80.78l11.316-11.312L20.818,258.278z" fill="#8F1622"/>
	</g>
</g>
<g>
	<g>
		<path d="M122.441,156.647c-9.3-9.3-18.092-10.152-23.84-9.216c-15.44,2.504-24.476,19.76-25.456,21.716    c-1.972,3.956-0.372,8.76,3.58,10.736c3.952,1.972,8.76,0.376,10.736-3.58c1.248-2.496,7.228-12.028,13.708-13.08    c1.12-0.18,4.504-0.72,9.964,4.736l80.784,80.784l11.304-11.316L122.441,156.647z" fill="#8F1622"/>
	</g>
</g>
<g>
	<g>
		<path d="M409.337,135.751l-43.304-43.304c-32.584-32.588-85.596-32.584-118.176,0c-15.812,15.812-24.76,36.576-25.192,58.48    c-0.444,22.252,7.996,43.188,23.752,58.948l85.996,85.992c11.472,11.472,18.048,26.54,18.504,42.436    c0.456,15.892-5.364,30.716-16.396,41.748c-22.616,22.612-60.372,21.656-84.16-2.128l-39.088-39.084    c-4.688-4.688-12.284-4.688-16.972,0s-4.688,12.284,0,16.968l39.088,39.088c16.964,16.968,39.124,25.5,61.008,25.5    c20.864,0,41.484-7.764,57.084-23.368c15.752-15.748,24.068-36.844,23.416-59.408c-0.632-22.044-9.7-42.896-25.524-58.716    l-85.988-85.996c-11.096-11.096-17.04-25.84-16.728-41.508c0.312-15.668,6.76-30.576,18.168-41.984    c23.22-23.22,61.012-23.22,84.24,0l43.304,43.304c4.688,4.688,12.28,4.688,16.968,0    C414.025,148.035,414.025,140.434,409.337,135.751z" fill="#8F1622"/>
	</g>
</g>
<g>
	<g>
		<path d="M208.661,237.21c-4.684-4.688-12.284-4.688-16.968,0c-4.688,4.684-4.688,12.284,0,16.968    c11.232,11.236,17.852,26.916,18.164,43.02c0.312,16.344-5.628,31.46-16.732,42.56c-11.16,11.156-26.48,17.184-42.9,16.988    c-16.272-0.196-32.016-6.724-43.196-17.904c-4.684-4.688-12.284-4.688-16.968,0c-4.688,4.684-4.688,12.284,0,16.968    c15.8,15.8,37.064,24.656,59.872,24.932c0.368,0.004,0.732,0.008,1.1,0.008c22.612,0,43.548-8.508,59.064-24.024    c15.76-15.756,24.196-37.064,23.756-59.988C233.418,274.158,224.473,253.018,208.661,237.21z" fill="#8F1622"/>
	</g>
</g>
<g>
	<g>
		<path d="M435.754,126.483c-29.032,0-52.648,23.62-52.648,52.652c0,29.028,23.616,52.644,52.648,52.644    c29.016,0,52.636-23.612,52.648-52.644C488.402,150.103,464.786,126.483,435.754,126.483z M435.754,207.778    c-15.796,0-28.648-12.852-28.648-28.644c0-15.8,12.852-28.652,28.648-28.652c15.796,0,28.648,12.852,28.648,28.648    C464.398,194.926,451.546,207.778,435.754,207.778z" fill="#8F1622"/>
	</g>
</g>
<g>
	<g>
		<circle cx="435.762" cy="179.126" r="11.984" fill="#8F1622"/>
	</g>
</g>
<g>
	<g>
		<ellipse transform="matrix(0.7071 -0.7071 0.7071 0.7071 -149.414 86.317)" cx="29.487" cy="223.518" rx="12.896" ry="11.056" fill="#8F1622"/>
	</g>
</g>
<g>
	<g>
		<ellipse transform="matrix(0.7071 -0.7071 0.7071 0.7071 -105.1387 104.6798)" cx="73.79" cy="179.254" rx="12.9" ry="11.056" fill="#8F1622"/>
	</g>
</g>
<g>
</g>
<g>
</g>
<g>
</g>
<g>
</g>
<g>
</g>
<g>
</g>
<g>
</g>
<g>
</g>
<g>
</g>
<g>
</g>
<g>
</g>
<g>
</g>
<g>
</g>
<g>
</g>
<g>
</g>
</svg>
