<?xml version="1.0" encoding="utf-8"?>
<!-- Generator: Adobe Illustrator 18.0.0, SVG Export Plug-In . SVG Version: 6.00 Build 0)  -->
<!DOCTYPE svg PUBLIC "-//W3C//DTD SVG 1.1//EN" "http://www.w3.org/Graphics/SVG/1.1/DTD/svg11.dtd">
<svg version="1.1" id="Layer_1" xmlns="http://www.w3.org/2000/svg" xmlns:xlink="http://www.w3.org/1999/xlink" x="0px" y="0px"
	 viewBox="0 0 40 40" enable-background="new 0 0 40 40" xml:space="preserve">
<polygon fill="#B2151B" points="14.1,15.3 8.8,20.6 8.8,31.2 19.4,31.2 24.7,25.9 "/>
<path d="M39.6,10.9l-3.5-3.5l0,0l-3.5-3.5l0,0l-3.5-3.5c-0.5-0.5-1.3-0.5-1.8,0c-0.5,0.5-0.5,1.3,0,1.8L30,4.8l-3.5,3.5l-2.6-2.6
	c-0.5-0.5-1.3-0.5-1.8,0L7.9,19.7c-0.2,0.2-0.4,0.6-0.4,0.9v10l-7.1,7.2c-0.5,0.5-0.5,1.3,0,1.8c0.5,0.5,1.3,0.5,1.8,0l7.2-7.1h10
	c0.3,0,0.6-0.2,0.9-0.4L34.4,18c0.2-0.2,0.4-0.6,0.4-0.9s-0.1-0.7-0.4-0.9l-2.6-2.6l3.5-3.5l2.6,2.6c0.5,0.5,1.3,0.5,1.8,0
	C40.1,12.2,40.1,11.4,39.6,10.9z M27.9,20.9l-2.6-2.6L23.5,20l2.6,2.6l-3.5,3.5L20,23.5l-1.8,1.8l2.6,2.7l-2,2.1h-8.2
	c-0.1,0-0.2-0.3-0.3-0.4c-0.1-0.1-0.4-0.2-0.4-0.3v-8.2L22.9,8.3l2.7,2.6l3.5,3.5l2.6,2.6L27.9,20.9z M30,11.8l-1.8-1.8l3.5-3.5
	l1.8,1.8L30,11.8z"/>
</svg>
