<?xml version="1.0" encoding="iso-8859-1"?>
<!-- Generator: Adobe Illustrator 19.0.0, SVG Export Plug-In . SVG Version: 6.00 Build 0)  -->
<svg version="1.1" id="Layer_1" xmlns="http://www.w3.org/2000/svg" xmlns:xlink="http://www.w3.org/1999/xlink" x="0px" y="0px"
	 viewBox="0 0 483.731 483.731" style="enable-background:new 0 0 483.731 483.731;" xml:space="preserve">
<polygon style="fill:#FF8080;" points="170.698,185.405 106.837,249.266 106.837,376.972 234.544,376.972 298.404,313.112 "/>
<path style="fill:#4D4D4D;" d="M479.331,132.185l-42.564-42.564l0,0l-42.579-42.564l0,0L351.609,4.479
	c-5.87-5.87-15.412-5.87-21.282,0c-5.87,5.885-5.87,15.412,0,21.282l31.923,31.923l-42.564,42.579L287.763,68.34
	c-5.885-5.885-15.412-5.885-21.282,0L95.654,238.61c-2.799,2.799-4.937,6.683-4.937,10.641v121.475L4.281,457.69
	c-5.885,5.885-5.614,15.412,0.271,21.282c5.87,5.87,15.532,6.412,21.417,0.542l87.099-86.422h121.475
	c3.958,0,7.841-2.137,10.641-4.937L415.47,217.599c2.799-2.799,4.41-6.818,4.41-10.776s-1.61-7.902-4.41-10.716l-31.923-31.953
	l42.564-42.594l31.923,31.923c5.885,5.885,15.412,5.87,21.282,0C485.201,147.597,485.201,138.07,479.331,132.185z M337.958,252.276
	l-31.923-31.923l-21.282,21.282l31.923,31.923l-42.564,42.564l-31.923-31.923l-21.282,21.282l31.923,32.465l-24.518,25.045h-99.095
	c-0.722,0-2.167-3.642-3.462-4.937c-1.294-1.309-4.937-2.739-4.937-3.462v-99.095l155.761-155.235l32.194,31.923l42.699,42.564
	l31.998,31.923L337.958,252.276z M362.25,142.826l-21.282-21.282l42.564-42.564l21.282,21.282L362.25,142.826z"/>
<g>
</g>
<g>
</g>
<g>
</g>
<g>
</g>
<g>
</g>
<g>
</g>
<g>
</g>
<g>
</g>
<g>
</g>
<g>
</g>
<g>
</g>
<g>
</g>
<g>
</g>
<g>
</g>
<g>
</g>
</svg>
