<?xml version="1.0" encoding="iso-8859-1"?>
<!-- Generator: Adobe Illustrator 19.0.0, SVG Export Plug-In . SVG Version: 6.00 Build 0)  -->
<svg xmlns="http://www.w3.org/2000/svg" xmlns:xlink="http://www.w3.org/1999/xlink" version="1.1" id="Layer_1" x="0px" y="0px" viewBox="0 0 512 512" style="enable-background:new 0 0 512 512;" xml:space="preserve" width="512px" height="512px">
<g transform="translate(1 1)">
	<g>
		<g>
			<path d="M459.8,397.863V111.722c26.01-11.121,42.667-26.018,42.667-44.456C502.467,22.893,406.04-1,314.733-1     S127,22.893,127,67.267c0,18.437,16.657,33.335,42.667,44.456v207.626c-5.029-2.927-10.859-4.615-17.067-4.615     c-14.507,0-25.6-11.093-25.6-25.6c0-33.28-26.453-59.733-59.733-59.733c-33.28,0-59.733,26.453-59.733,59.733     s26.453,59.733,59.733,59.733c5.12,0,8.533-3.413,8.533-8.533c0-5.12-3.413-8.533-8.533-8.533     c-23.893,0-42.667-18.773-42.667-42.667c0-23.893,18.773-42.667,42.667-42.667s42.667,18.773,42.667,42.667     c0,23.893,18.773,42.667,42.667,42.667c9.387,0,17.067,7.68,17.067,17.067v49.145C134.8,413.625,127,430.513,127,442.733     C127,487.107,223.427,511,314.733,511s187.733-23.893,187.733-68.267C502.467,430.5,495.43,412.814,459.8,397.863z      M224.785,440.354L442.733,312.49v40.061l-162.2,97.35C258.429,448.087,239.626,444.606,224.785,440.354z M314.733,135.533     c5.949,0,11.92-0.104,17.885-0.306l-145.885,79.607v-31.575l88.93-48.527l-0.325-0.596     C288.188,135.067,301.394,135.533,314.733,135.533z M442.733,286.751l-38.186-9.545l38.186-23.89V286.751z M442.733,233.183     l-61.179,38.275l-38.769-9.691l99.948-59.987V233.183z M442.733,181.875l-123.36,74.039l-44.219-11.054l167.579-94.734V181.875z      M428.824,300.865l-45.168,26.499l-196.922-61.385v-25.63L428.824,300.865z M363.757,339.037l-31.132,18.264l-145.892-40.52     v-32.926L363.757,339.037z M274.037,391.673l-87.304-31.743v-25.436l125.401,34.829L274.037,391.673z M186.733,391.533V378.09     l68.194,24.794l-50.948,29.889c-11.202-5.271-17.246-10.871-17.246-15.64V391.533z M442.733,372.456v19.078v25.6     c0,13.653-49.493,34.133-128,34.133c-1.103,0-2.197-0.005-3.288-0.013L442.733,372.456z M442.733,130.522L251.108,238.849     l-49.897-12.473L373.8,132.198c25.093-2.883,48.836-7.616,68.934-14.124V130.522z M144.067,67.267     c0-23.893,73.387-51.2,170.667-51.2S485.4,43.373,485.4,67.267c0,19.784-50.317,41.909-122.852,48.934     c-0.011,0.001-0.022,0.002-0.032,0.003c-0.977,0.095-1.962,0.183-2.947,0.272c-0.594,0.053-1.187,0.108-1.782,0.159     c-0.64,0.055-1.284,0.108-1.927,0.161c-0.939,0.077-1.88,0.153-2.824,0.225c-0.425,0.032-0.851,0.064-1.278,0.095     c-1.15,0.085-2.303,0.166-3.46,0.243c-0.297,0.02-0.595,0.039-0.893,0.059c-1.278,0.083-2.558,0.16-3.843,0.233     c-0.217,0.012-0.434,0.025-0.651,0.037c-1.346,0.075-2.697,0.144-4.05,0.208c-0.186,0.009-0.372,0.018-0.559,0.027     c-1.363,0.063-2.729,0.12-4.099,0.172c-0.194,0.007-0.387,0.016-0.581,0.023c-1.344,0.05-2.691,0.093-4.04,0.132     c-0.226,0.007-0.451,0.015-0.677,0.021c-1.299,0.036-2.602,0.065-3.907,0.091c-0.278,0.006-0.553,0.013-0.831,0.018     c-1.257,0.023-2.518,0.039-3.779,0.053c-0.32,0.003-0.637,0.01-0.957,0.013c-1.564,0.014-3.131,0.022-4.7,0.022     s-3.136-0.008-4.7-0.022c-0.32-0.003-0.637-0.009-0.957-0.013c-1.261-0.014-2.522-0.03-3.779-0.053     c-0.278-0.005-0.553-0.013-0.831-0.018c-1.304-0.026-2.607-0.055-3.907-0.091c-0.227-0.006-0.451-0.014-0.677-0.021     c-1.349-0.039-2.696-0.082-4.04-0.132c-0.194-0.007-0.388-0.016-0.582-0.023c-1.369-0.052-2.735-0.109-4.098-0.172     c-0.187-0.009-0.373-0.018-0.56-0.027c-1.353-0.064-2.703-0.133-4.049-0.208c-0.217-0.012-0.434-0.025-0.651-0.037     c-1.284-0.073-2.565-0.151-3.842-0.233c-0.298-0.019-0.596-0.039-0.894-0.059c-1.156-0.077-2.308-0.158-3.458-0.243     c-0.427-0.031-0.853-0.063-1.279-0.095c-0.944-0.072-1.884-0.148-2.823-0.225c-0.643-0.053-1.287-0.105-1.927-0.161     c-0.596-0.051-1.188-0.106-1.782-0.159c-0.985-0.089-1.97-0.177-2.947-0.272c-0.011-0.001-0.021-0.002-0.032-0.003     C194.384,109.176,144.067,87.051,144.067,67.267z M215.64,125.724c9.79,2.181,20.142,4,30.909,5.453l-59.816,32.64v-45.744     C195.709,120.98,205.414,123.532,215.64,125.724z M314.733,493.933c-97.28,0-170.667-27.307-170.667-51.2     c0-8.533,9.387-17.92,25.6-25.6c0,28.614,54.25,45.872,115.022,50.15l0.013,0.021l0.031-0.018     c9.897,0.696,19.966,1.047,30.001,1.047c71.68,0,145.067-17.92,145.067-51.2c16.213,8.533,25.6,17.067,25.6,25.6     C485.4,466.627,412.013,493.933,314.733,493.933z" fill="#8F1622"/>
			<path d="M314.733,101.4c38.4,0,76.8-11.947,76.8-34.133c0-22.187-38.4-34.133-76.8-34.133s-76.8,11.947-76.8,34.133     C237.933,89.453,276.333,101.4,314.733,101.4z M314.733,50.2c38.4,0,59.733,11.947,59.733,17.067s-21.333,17.067-59.733,17.067     S255,72.387,255,67.267S276.333,50.2,314.733,50.2z" fill="#8F1622"/>
		</g>
	</g>
</g>
<g>
</g>
<g>
</g>
<g>
</g>
<g>
</g>
<g>
</g>
<g>
</g>
<g>
</g>
<g>
</g>
<g>
</g>
<g>
</g>
<g>
</g>
<g>
</g>
<g>
</g>
<g>
</g>
<g>
</g>
</svg>
