<?xml version="1.0" encoding="iso-8859-1"?>
<!-- Generator: Adobe Illustrator 19.0.0, SVG Export Plug-In . SVG Version: 6.00 Build 0)  -->
<svg xmlns="http://www.w3.org/2000/svg" xmlns:xlink="http://www.w3.org/1999/xlink" version="1.1" id="Layer_1" x="0px" y="0px" viewBox="0 0 511.978 511.978" style="enable-background:new 0 0 511.978 511.978;" xml:space="preserve" width="512px" height="512px">
<g>
	<g>
		<g>
			<path d="M460.42,35.467c-27.235-27.235-65.904-46.448-83.86-28.456l-16.42,16.42c-30.352-14.848-55.323-15.845-68.958-2.192     c-0.018,0.018-0.027,0.027-0.045,0.036l-80.312,80.312l109.325,30.145c6.279,7.761,13.186,15.522,20.839,23.166     c0.602,0.611,1.222,1.123,1.832,1.725l-146.594-40.43l-52.026,52.026l82.693,162.367l59.374,16.591l-26.058-47.508l-0.207-0.045     l0.054-0.234l-34.879-63.605l-0.97-0.242l0.26-1.051l-34.367-62.662l-1.249-0.278l0.314-1.428l-13.366-24.369l15.755-8.641     l10.393,18.953l198.773,44.167c17.408,9.189,33.72,14.219,47.293,14.219c0.036,0,0.072-0.009,0.108-0.009l-3.117,14.031     l-231.568-51.461l23.705,43.224l177.817,44.158l59.644-59.643c0.018-0.018,0.027-0.027,0.045-0.045     c13.653-13.644,12.656-38.607-2.183-68.958l16.42-16.42C506.877,101.336,487.645,62.693,460.42,35.467z M347.169,61.813     l24.109-24.118c0.081,0.314,0.216,0.647,0.305,0.961c0.386,1.356,0.835,2.731,1.311,4.105c0.243,0.692,0.458,1.374,0.719,2.075     c0.71,1.85,1.5,3.728,2.362,5.605c0.108,0.243,0.198,0.476,0.305,0.71c0.997,2.129,2.111,4.276,3.297,6.422     c0.35,0.629,0.737,1.258,1.096,1.877c0.88,1.527,1.779,3.045,2.74,4.563c0.503,0.781,1.024,1.563,1.545,2.344     c0.898,1.356,1.814,2.704,2.767,4.051c0.584,0.817,1.177,1.626,1.779,2.443c0.979,1.32,1.985,2.623,3.018,3.925     c0.62,0.781,1.231,1.554,1.868,2.326c1.132,1.374,2.291,2.722,3.476,4.069c0.575,0.647,1.123,1.311,1.707,1.949     c1.779,1.958,3.593,3.88,5.452,5.74c2.264,2.273,4.635,4.464,7.042,6.602c0.773,0.692,1.563,1.338,2.353,2.012     c1.689,1.446,3.386,2.847,5.111,4.213c0.916,0.719,1.823,1.41,2.74,2.102c1.725,1.302,3.467,2.542,5.219,3.746     c0.862,0.593,1.725,1.204,2.596,1.779c2.335,1.527,4.671,2.964,7.015,4.294c0.269,0.153,0.539,0.332,0.808,0.485     c2.587,1.446,5.165,2.722,7.725,3.898c0.826,0.377,1.635,0.683,2.452,1.033c1.779,0.746,3.539,1.437,5.291,2.039     c0.907,0.314,1.805,0.602,2.704,0.871c0.701,0.207,1.419,0.485,2.111,0.674l-24.118,24.109     c-5.812,0.665-27.199-10.249-51.928-34.978C357.409,89.003,346.648,67.634,347.169,61.813z M461.947,192.005     c-0.844,0.844-1.823,1.554-2.928,2.156c-0.521,0.287-1.15,0.467-1.734,0.701c-0.629,0.26-1.222,0.557-1.913,0.746     c-0.71,0.198-1.518,0.287-2.291,0.413c-0.701,0.126-1.356,0.278-2.111,0.341c-0.638,0.063-1.356,0.027-2.039,0.045     c-1.033,0.027-2.057,0.072-3.171,0c-0.35-0.018-0.737-0.09-1.096-0.117c-21.872-1.895-57.497-20.606-90.974-54.092     c-33.478-33.478-52.197-69.102-54.092-90.974c-0.027-0.359-0.09-0.755-0.117-1.105c-0.063-1.069-0.018-2.048,0-3.036     c0.018-0.737-0.018-1.5,0.045-2.192c0.054-0.647,0.198-1.204,0.296-1.805c0.135-0.88,0.242-1.797,0.467-2.596     c0.144-0.521,0.377-0.952,0.557-1.437c0.278-0.755,0.53-1.536,0.889-2.201c0.602-1.096,1.311-2.075,2.147-2.91     c2.991-2.991,7.734-4.455,13.725-4.455c7.869,0,17.929,2.515,29.103,7.375l-12.836,12.845     c-20.013,20.004,29.822,70.988,35.57,76.737c0.323,0.323,0.817,0.808,1.41,1.392c0.216,0.207,0.476,0.458,0.728,0.701     c0.449,0.431,0.907,0.88,1.464,1.401c0.377,0.368,0.781,0.737,1.213,1.15c0.557,0.521,1.141,1.06,1.77,1.644     c0.503,0.458,0.997,0.907,1.536,1.401c0.71,0.638,1.455,1.302,2.219,1.985c0.557,0.485,1.069,0.952,1.653,1.464     c1.123,0.979,2.308,1.985,3.539,3.018c0.395,0.332,0.772,0.656,1.177,0.997c1.392,1.159,2.847,2.326,4.339,3.512     c0.611,0.485,1.231,0.952,1.85,1.437c1.096,0.844,2.192,1.68,3.323,2.515c0.71,0.53,1.419,1.042,2.138,1.563     c1.096,0.79,2.201,1.563,3.324,2.326c0.746,0.512,1.491,1.015,2.246,1.509c1.186,0.781,2.38,1.536,3.593,2.273     c0.683,0.422,1.356,0.853,2.048,1.258c1.653,0.97,3.315,1.877,4.967,2.731c0.234,0.117,0.467,0.26,0.701,0.377     c1.868,0.934,3.719,1.761,5.551,2.488c0.584,0.234,1.15,0.413,1.725,0.62c1.267,0.467,2.515,0.88,3.755,1.222     c0.665,0.189,1.311,0.323,1.958,0.467c1.141,0.251,2.255,0.44,3.35,0.566c0.638,0.081,1.276,0.144,1.895,0.171     c0.377,0.018,0.773,0.099,1.132,0.099c1.114,0,2.192-0.09,3.234-0.26c0.036,0,0.081,0,0.117-0.009     c1.473-0.234,2.856-0.719,4.177-1.32c0.323-0.144,0.638-0.305,0.943-0.467c1.302-0.71,2.551-1.536,3.674-2.659l12.836-12.827     C467.596,168.875,468.863,185.088,461.947,192.005z M476.184,106.626c-5.982,5.955-32.337-2.344-58.458-28.465     c-3.189-3.189-6.09-6.378-8.749-9.53c-5.309-6.306-9.863-12.8-13.411-19.079c-0.674-1.195-1.141-2.281-1.725-3.431     c-0.952-1.85-1.904-3.71-2.65-5.497c-0.53-1.249-0.889-2.389-1.302-3.557c-0.494-1.446-1.024-2.919-1.338-4.186     c-0.216-0.826-0.314-1.545-0.458-2.318c-0.252-1.374-0.494-2.74-0.539-3.871c-0.018-0.512,0.036-0.943,0.054-1.419     c0.045-1.051,0.108-2.066,0.305-2.847c0.305-1.087,0.71-2.075,1.347-2.713c1.222-1.222,3.279-1.841,6.018-1.841     c10.689,0,31.636,9.503,52.44,30.298c12.279,12.288,22.115,26.301,26.983,38.463C479.229,97.949,478.331,104.48,476.184,106.626z     " fill="#8F1622"/>
			<polygon points="322.155,357.206 357.968,321.384 283.549,304.857 310.469,353.937    " fill="#8F1622"/>
			<polygon points="400.13,279.229 248.902,241.673 272.058,283.9 373.03,306.329    " fill="#8F1622"/>
			<polygon points="87.871,224.546 35.351,277.067 126.622,302.568    " fill="#8F1622"/>
			<polygon points="203.396,324.023 130.845,181.571 101.275,211.15 149.915,309.077    " fill="#8F1622"/>
			<path d="M399.265,386.223c-4.967,0-8.982,4.024-8.982,8.982c0,4.967,4.015,8.982,8.982,8.982     c24.756,0,44.912,20.157,44.912,44.912c0,24.765-20.157,44.912-44.912,44.912c-24.765,0-44.912-20.148-44.912-44.912     c0-24.756-20.157-44.912-44.912-44.912c-9.387,0-17.031-7.258-17.812-16.447l15.953-15.953L26.547,293.264     c-2.785,11.785-0.737,26.795,6.369,44.068c1.249,3.027,2.632,6.09,4.15,9.171l-16.267,16.276     c-20.013,20.013,29.822,70.997,35.571,76.746c4.797,4.797,41.095,40.277,64.602,40.277c4.671,0,8.83-1.392,12.144-4.707     l16.303-16.312c15.567,7.59,30.154,11.821,42.451,11.821c10.896,0,20.031-3.144,26.624-9.737l37.87-37.861L72.295,369.148     c-5.461-7.339-10.267-14.722-14.408-22.061l0.243-0.808l212.714,62.239l6.485-6.485c5.875,11.866,17.992,20.121,32.112,20.121     c14.857,0,26.947,12.09,26.947,26.947c0,34.672,28.205,62.877,62.877,62.877c34.663,0,62.877-28.205,62.877-62.877     C462.142,414.437,433.928,386.223,399.265,386.223z M62.737,386.268c0.701,0.88,1.428,1.761,2.138,2.641     c2.326,2.856,4.734,5.686,7.222,8.506c0.88,0.997,1.743,2.003,2.641,2.991c3.261,3.593,6.602,7.159,10.096,10.653     c4.168,4.168,8.426,8.138,12.746,11.974c2.434,2.174,4.878,4.168,7.321,6.216c1.644,1.356,3.27,2.74,4.913,4.042     c3.368,2.686,6.71,5.174,10.051,7.581c0.539,0.386,1.069,0.773,1.608,1.15c3.898,2.758,7.761,5.327,11.596,7.707l-12.072,12.072     c-5.65,0.503-27.19-10.249-51.928-34.987c-24.738-24.729-35.499-46.098-34.987-51.928l12.081-12.081     C50.997,370.63,56.557,378.481,62.737,386.268z" fill="#8F1622"/>
		</g>
	</g>
</g>
<g>
</g>
<g>
</g>
<g>
</g>
<g>
</g>
<g>
</g>
<g>
</g>
<g>
</g>
<g>
</g>
<g>
</g>
<g>
</g>
<g>
</g>
<g>
</g>
<g>
</g>
<g>
</g>
<g>
</g>
</svg>
