<?xml version="1.0" encoding="iso-8859-1"?>
<!-- Generator: Adobe Illustrator 19.0.0, SVG Export Plug-In . SVG Version: 6.00 Build 0)  -->
<svg xmlns="http://www.w3.org/2000/svg" xmlns:xlink="http://www.w3.org/1999/xlink" version="1.1" id="Layer_1" x="0px" y="0px" viewBox="0 0 510.293 510.293" style="enable-background:new 0 0 510.293 510.293;" xml:space="preserve" width="512px" height="512px">
<g transform="translate(1 1)">
	<g>
		<path d="M499.907,194.413l-181.76-181.76c-6.827-6.827-18.773-6.827-25.6,0l-5.973,5.973c-3.413,3.413-5.12,8.533-5.12,13.653    l4.689,69.551l-57.792,57.792L156.485,72.75c11.264-9.98,16.695-20.624,17.449-31.937c0.853-12.8-5.973-25.6-19.627-39.253    c-3.413-3.413-8.533-3.413-11.947,0s-3.413,8.533,0,11.947c10.24,10.24,14.507,18.773,14.507,26.453    c-0.705,6.348-4.336,12.698-11.354,19.528l-4.86-5.875c-9.387-10.24-22.187-15.36-35.84-15.36c-13.653,0-25.6,5.973-35.84,15.36    C58.733,63,53.613,75.8,53.613,89.453s5.12,26.453,15.36,36.693l5.605,4.635l-6.459,6.459c-10.24,9.387-15.36,22.187-15.36,35.84    s5.973,26.453,15.36,35.84c9.387,10.24,22.187,15.36,35.84,15.36c13.653,0,26.453-5.12,35.84-14.507l13.372-14.009l21.369,17.668    l-76.976,76.976l-69.551-4.689c-5.12,0-10.24,1.707-13.653,5.12l-5.973,5.973c-3.413,3.413-5.12,7.68-5.12,12.8    s1.707,9.387,5.12,12.8l181.76,181.76c3.413,3.413,7.68,5.12,12.8,5.12s9.387-1.707,12.8-5.12l5.973-5.973    c3.413-3.413,5.12-8.533,5.12-13.653l-4.635-68.752l89.199-89.199l107.436,88.831c0.853,0.853,3.413,1.707,5.12,1.707    c1.707,0,4.267-0.853,5.973-1.707c3.413-2.56,3.413-7.68,0.853-11.093l-89.628-108.345l69.571-69.571l69.551,4.689h0.853    c5.12,0,9.387-2.56,12.8-5.12l5.973-5.973c3.413-3.413,5.12-7.68,5.12-12.8C505.027,202.093,503.32,197.827,499.907,194.413z     M336.419,158.072l-69.912-12.712l28.6-28.6L336.419,158.072z M251.828,160.038l105.792,19.236l38.179,38.179l-8.526,8.526    l0.306-1.346l-128.154-29.095l-0.097,0.425l-19.689-23.737L251.828,160.038z M374.164,239.089l-43.218,43.218l-54.19-65.332    L374.164,239.089z M127.853,196.973c-5.973,6.827-15.36,10.24-23.893,10.24c-8.533,0-17.067-3.413-23.893-10.24    c-6.827-5.973-10.24-15.36-10.24-23.893s3.413-17.067,10.24-23.893l7.591-7.591l52.316,43.257L127.853,196.973z M296.634,314.73    l-144.566-54.931l35.519-35.519L296.634,314.73z M138.838,273.029l145.935,55.452l-22.797,22.797l-148.32-50.741l-1.163-1.163    L138.838,273.029z M141.075,327.955l107.461,36.763l-35.349,35.349L141.075,327.955z M202.947,491.373h-0.853l-181.76-181.76    v-0.853l6.827-5.973c-0.853,0.853-0.853,0,0,0l69.12,5.12l5.494,5.451l-0.353,1.031l2.125,0.727l47.116,46.745l54.042,54.412    l4.215,69.126L202.947,491.373z M359.96,343.747L100.159,129.094l15.747-15.747l5.973,5.973c1.707,1.707,3.413,2.56,5.973,2.56    c2.56,0,4.267-0.853,5.973-2.56c3.413-3.413,3.413-8.533,0-11.947L109.933,83.48c-3.413-3.413-8.533-3.413-11.947,0    s-3.413,8.533,0,11.947l5.973,5.973l-16.884,16.884l-7.009-5.791c-6.827-5.973-10.24-15.36-10.24-23.893    c0-8.533,3.413-17.92,10.24-23.893c5.973-6.827,14.507-10.24,23.893-10.24c9.387,0,17.92,3.413,23.893,9.387l88.974,107.292    l-0.228,0.228l112.64,136.533l0.546-0.546L359.96,343.747z M487.96,208.067l-6.827,5.973l-69.12-5.12L303.64,100.547    l-4.267-69.973l5.973-5.973h0.853l181.76,182.613V208.067z" fill="#8F1622"/>
	</g>
</g>
<g>
</g>
<g>
</g>
<g>
</g>
<g>
</g>
<g>
</g>
<g>
</g>
<g>
</g>
<g>
</g>
<g>
</g>
<g>
</g>
<g>
</g>
<g>
</g>
<g>
</g>
<g>
</g>
<g>
</g>
</svg>
