<?xml version="1.0" encoding="iso-8859-1"?>
<!-- Generator: Adobe Illustrator 19.0.0, SVG Export Plug-In . SVG Version: 6.00 Build 0)  -->
<svg xmlns="http://www.w3.org/2000/svg" xmlns:xlink="http://www.w3.org/1999/xlink" version="1.1" id="Layer_1" x="0px" y="0px" viewBox="0 0 512 512" style="enable-background:new 0 0 512 512;" xml:space="preserve" width="512px" height="512px">
<g transform="translate(1 1)">
	<g>
		<g>
			<path d="M466.862,58.407V38.724c0-22.952-35.31-35.31-70.621-35.31c-35.31,0-70.621,12.359-70.621,35.31v19.683     c-27.987,9.817-44.138,24.81-44.138,42.11V418.31c0,17.579,16.963,32.732,44.138,42.273v19.52     c0,25.6,63.559,26.483,70.621,26.483s70.621-0.883,70.621-26.483v-19.52C494.037,451.042,511,435.889,511,418.31V100.517     C511,83.216,494.849,68.224,466.862,58.407z M306.694,134.312c14.904,8.505,35.587,14.696,59.79,17.498l-67.346,39.286v-61.449     C301.461,131.265,303.99,132.82,306.694,134.312z M401.391,153.431c0.456-0.008,0.911-0.017,1.365-0.027     c19.093-0.433,36.728-2.766,52.009-6.73l-144.206,91.795l-11.421-3.331v-23.6l99.542-58.068c0.325-0.003,0.649-0.005,0.973-0.009     C400.234,153.453,400.812,153.442,401.391,153.431z M299.138,359.885l50.097,16.492l-50.097,27.166V359.885z M370.565,364.81     l-71.427-23.513v-34.043l111.905,35.607L370.565,364.81z M432.574,331.185l-133.436-42.458v-35.198l13.663,3.985l0.207,0.325     l0.285-0.182l61.307,17.881l0.048,0.079l0.073-0.044l104.305,30.422L432.574,331.185z M493.345,291.782l-37.191-10.847     l37.191-23.267V291.782z M493.345,236.841l-59.895,37.471l-38.108-11.115l98.003-58.82V236.841z M493.345,183.787l-121.09,72.677     l-39.149-11.418l160.239-102.001V183.787z M343.276,62.794c13.568,7.389,33.263,11.24,52.966,11.24s39.397-3.852,52.966-11.24     v28.013c-3.531,3.531-22.069,9.71-52.966,9.71s-49.435-6.179-52.966-9.71V62.794z M396.241,21.069     c32.662,0,52.966,11.476,52.966,17.655s-20.303,17.655-52.966,17.655c-32.662,0-52.966-11.476-52.966-17.655     S363.579,21.069,396.241,21.069z M325.621,77.565V91.69c0,25.6,63.559,26.483,70.621,26.483s70.621-0.883,70.621-26.483V77.565     c16.772,6.179,26.483,15.007,26.483,22.952c0,16.772-41.49,35.31-97.103,35.31c-55.614,0-97.103-18.538-97.103-35.31     C299.138,92.572,308.848,84.628,325.621,77.565z M300.205,423.048l193.14-104.732v41.813l-154.402,85.75l0.218,0.392     c-0.689-0.197-1.382-0.39-2.064-0.594l-5.658-1.741C314.826,438.226,303.585,430.651,300.205,423.048z M449.207,465.979v13.241     c-3.531,3.531-22.069,9.71-52.966,9.71s-49.435-6.179-52.966-9.71v-13.241c12.611,2.727,26.41,4.389,40.476,5.01     c1.64,0.076,3.294,0.134,4.958,0.18c0.346,0.009,0.692,0.021,1.039,0.029c2.146,0.051,4.31,0.078,6.493,0.078     s4.347-0.028,6.493-0.078c0.347-0.008,0.692-0.019,1.038-0.029c1.664-0.046,3.318-0.104,4.958-0.18     C422.797,470.368,436.596,468.706,449.207,465.979z M461.045,443.935l-5.659,1.741c-8.703,2.611-18.053,4.575-27.832,5.899     c-0.335,0.045-0.672,0.089-1.009,0.133c-0.743,0.097-1.489,0.188-2.236,0.278c-0.728,0.087-1.459,0.17-2.195,0.25     c-0.469,0.051-0.938,0.102-1.409,0.15c-0.621,0.064-1.242,0.127-1.869,0.186c-0.335,0.032-0.671,0.06-1.006,0.09     c-1.091,0.098-2.19,0.19-3.297,0.273c-0.434,0.033-0.869,0.064-1.304,0.095c-0.764,0.053-1.531,0.104-2.302,0.15     c-0.736,0.044-1.472,0.086-2.211,0.124c-0.497,0.025-0.997,0.048-1.497,0.07c-0.776,0.034-1.553,0.065-2.332,0.092     c-0.332,0.012-0.663,0.025-0.996,0.036c-1.066,0.033-2.135,0.057-3.206,0.076c-0.325,0.006-0.652,0.011-0.978,0.015     c-1.145,0.016-2.292,0.027-3.442,0.027c-0.008,0-0.015,0-0.023,0s-0.015,0-0.023,0c-1.15,0-2.297-0.011-3.442-0.027     c-0.326-0.005-0.653-0.01-0.978-0.015c-1.071-0.019-2.141-0.043-3.206-0.076c-0.333-0.01-0.664-0.024-0.996-0.036     c-0.779-0.027-1.556-0.058-2.332-0.092c-0.499-0.022-0.999-0.045-1.495-0.07c-0.751-0.038-1.499-0.081-2.246-0.126     c-0.757-0.046-1.51-0.095-2.259-0.148c-0.439-0.031-0.878-0.062-1.316-0.095c-1.106-0.084-2.204-0.175-3.294-0.273     c-0.335-0.03-0.672-0.058-1.006-0.09c-0.626-0.059-1.247-0.122-1.868-0.186c-0.472-0.049-0.942-0.099-1.412-0.151     c-0.734-0.08-1.465-0.163-2.192-0.25c-0.748-0.09-1.494-0.181-2.237-0.278c-0.305-0.039-0.609-0.08-0.912-0.12l128.32-71.264     v37.987C493.345,427.414,481.117,437.037,461.045,443.935z" fill="#8F1622"/>
			<path d="M210.862,56.379c-19.421,0-35.31,15.89-35.31,35.31c0,12.24,6.315,23.073,15.845,29.414L122.586,286.25L53.775,121.104     c9.53-6.341,15.845-17.174,15.845-29.414c0-19.421-15.89-35.31-35.31-35.31C14.89,56.379-1,72.269-1,91.69     C-1,111.11,14.89,127,34.31,127c1.022,0,2.031-0.054,3.031-0.14l75.828,181.988L61.676,432.435c-2.648,4.414,0,9.71,4.414,11.476     c0.883,0.883,2.648,0.883,3.531,0.883c3.531,0,7.062-1.766,7.945-5.297l45.021-108.05l45.021,108.05     c0.883,3.531,4.414,5.297,7.945,5.297c0.883,0,1.766,0,3.531-0.883c4.414-1.766,6.179-7.062,4.414-11.476l-51.494-123.586     l75.828-181.988c1,0.086,2.01,0.14,3.031,0.14c19.421,0,35.31-15.89,35.31-35.31C246.172,72.269,230.283,56.379,210.862,56.379z      M16.655,91.69c0-9.71,7.945-17.655,17.655-17.655c9.71,0,17.655,7.945,17.655,17.655c0,9.71-7.945,17.655-17.655,17.655     C24.6,109.345,16.655,101.4,16.655,91.69z M210.862,109.345c-9.71,0-17.655-7.945-17.655-17.655     c0-9.71,7.945-17.655,17.655-17.655s17.655,7.945,17.655,17.655C228.517,101.4,220.572,109.345,210.862,109.345z" fill="#8F1622"/>
		</g>
	</g>
</g>
<g>
</g>
<g>
</g>
<g>
</g>
<g>
</g>
<g>
</g>
<g>
</g>
<g>
</g>
<g>
</g>
<g>
</g>
<g>
</g>
<g>
</g>
<g>
</g>
<g>
</g>
<g>
</g>
<g>
</g>
</svg>
