<?xml version="1.0" encoding="iso-8859-1"?>
<!-- Generator: Adobe Illustrator 19.0.0, SVG Export Plug-In . SVG Version: 6.00 Build 0)  -->
<svg xmlns="http://www.w3.org/2000/svg" xmlns:xlink="http://www.w3.org/1999/xlink" version="1.1" id="Layer_1" x="0px" y="0px" viewBox="0 0 512 512" style="enable-background:new 0 0 512 512;" xml:space="preserve" width="512px" height="512px">
<g>
	<g>
		<g>
			<path d="M454.033,0H151.834c-10.795,0-19.567,8.772-19.567,19.567v9.557c0,5.632,2.432,10.999,6.682,14.737l61.585,53.879v68.454     l92.151-63.795h29.986l-122.138,84.557v30.225L380.902,102.4H396.8l4.582,7.202L229.999,218.667l38.69,10.411l136.644-81.135     V97.741l61.585-53.879l0.017-0.017c4.233-3.721,6.665-9.088,6.665-14.72v-9.557C473.6,8.772,464.828,0,454.033,0z      M456.533,29.124c0,0.725-0.316,1.417-0.87,1.903l-62.071,54.306H212.275l-62.071-54.306c-0.555-0.486-0.87-1.178-0.87-1.903     v-9.557c0-1.374,1.126-2.5,2.5-2.5h302.199c1.374,0,2.5,1.126,2.5,2.5V29.124z" fill="#8F1622"/>
			<path d="M466.918,468.139l-61.585-53.879v-75.563L276.412,409.6h-35.396l164.318-90.377v-35.678l-6.647-1.792l-124.322,67.49     l-0.034,0.077l-0.068-0.026l-73.728,40.03v24.934l-61.585,53.879l-0.017,0.017c-4.233,3.721-6.665,9.088-6.665,14.72v9.557     c0,10.795,8.781,19.567,19.575,19.567h302.191c10.795,0,19.567-8.781,19.567-19.575v-9.549     C473.6,477.244,471.168,471.876,466.918,468.139z M456.533,492.425c0,1.382-1.126,2.509-2.5,2.509H151.842     c-1.382,0-2.509-1.126-2.509-2.5v-9.557c0-0.725,0.316-1.417,0.87-1.903l62.071-54.306h181.316l62.071,54.306     c0.555,0.486,0.87,1.178,0.87,1.903V492.425z" fill="#8F1622"/>
			<path d="M98.133,204.799c23.526,0,42.667,19.14,42.667,42.667c0,23.526,19.14,42.667,42.667,42.667     c9.412,0,17.067,7.654,17.067,17.067v62.703l52.565-28.544l-47.036-17.63l3.004-7.996c3.857,0,6.98-2.594,8.047-6.101     l55.851,20.949l37.419-20.318l-109.85-39.885v7.433c-5.043-2.935-10.82-4.745-17.067-4.745c-14.114,0-25.6-11.486-25.6-25.6     c0-32.93-26.803-59.733-59.733-59.733c-32.93,0-59.733,26.803-59.733,59.733c0,32.93,26.803,59.733,59.733,59.733     c4.719,0,8.533-3.814,8.533-8.533s-3.814-8.533-8.533-8.533c-23.526,0-42.667-19.14-42.667-42.667     C55.467,223.939,74.607,204.799,98.133,204.799z" fill="#8F1622"/>
			<polygon points="200.533,237.413 200.533,252.227 330.419,299.39 374.767,275.318 210.475,231.081    " fill="#8F1622"/>
			<polygon points="405.333,167.787 291.678,235.268 329.481,245.449 405.333,199.394    " fill="#8F1622"/>
			<polygon points="405.333,219.349 352.247,251.579 405.333,265.872    " fill="#8F1622"/>
		</g>
	</g>
</g>
<g>
</g>
<g>
</g>
<g>
</g>
<g>
</g>
<g>
</g>
<g>
</g>
<g>
</g>
<g>
</g>
<g>
</g>
<g>
</g>
<g>
</g>
<g>
</g>
<g>
</g>
<g>
</g>
<g>
</g>
</svg>
