<?xml version="1.0" encoding="iso-8859-1"?>
<!-- Generator: Adobe Illustrator 19.0.0, SVG Export Plug-In . SVG Version: 6.00 Build 0)  -->
<svg xmlns="http://www.w3.org/2000/svg" xmlns:xlink="http://www.w3.org/1999/xlink" version="1.1" id="Layer_1" x="0px" y="0px" viewBox="0 0 512 512" style="enable-background:new 0 0 512 512;" xml:space="preserve" width="512px" height="512px">
<g transform="translate(1 1)">
	<g>
		<path d="M465.773,42.52c4.267-3.413,6.827-8.533,6.827-14.507v-9.387C472.6,7.533,464.067-1,452.973-1h-302.08    c-11.093,0-19.627,8.533-19.627,19.627v9.387c0,5.973,2.56,11.093,6.827,14.507l61.44,54.351v179.811    c-5.029-2.927-10.859-4.615-17.067-4.615c-14.507,0-25.6-11.093-25.6-25.6c0-33.28-26.453-59.733-59.733-59.733    c-33.28,0-59.733,26.453-59.733,59.733c0,33.28,26.453,59.733,59.733,59.733c5.12,0,8.533-3.413,8.533-8.533    s-3.413-8.533-8.533-8.533c-23.893,0-42.667-18.773-42.667-42.667S73.24,203.8,97.133,203.8c23.893,0,42.667,18.773,42.667,42.667    s18.773,42.667,42.667,42.667c9.387,0,17.067,7.68,17.067,17.067v106.929l-61.44,54.351c-4.267,3.413-6.827,8.533-6.827,14.507    v9.387c0,11.093,8.533,19.627,19.627,19.627h302.08c11.093,0,19.627-8.533,19.627-19.627v-9.387c0-5.12-2.56-11.093-6.827-14.507    l-61.44-54.351V96.871L465.773,42.52z M148.333,28.013v-9.387c0-1.707,0.853-2.56,2.56-2.56h302.08c1.707,0,2.56,0.853,2.56,2.56    v9.387c0,0.853,0,1.707-0.853,1.707l-62.293,54.613H211.48L149.187,29.72C148.333,29.72,148.333,28.867,148.333,28.013z     M387.267,326.721L239.99,408.6H216.6v-29.082l170.667-93.13V326.721z M387.267,346.248V408.6H275.113L387.267,346.248z     M373.062,274.697l-44.017,24.02L216.6,257.999V232.03L373.062,274.697z M387.267,260.881l-36.926-10.07l36.926-23.086V260.881z     M379.899,101.4L216.6,205.349V174.11l105.01-72.71H379.899z M216.6,153.351V101.4h75.029L216.6,153.351z M216.6,276.151    l92.449,33.478L272.266,329.7L216.6,308.826V276.151z M216.6,327.052l35.869,13.451L216.6,360.076V327.052z M387.267,207.598    l-59.342,37.1l-37.672-10.273l97.014-58.226V207.598z M387.267,156.295L267.45,228.207l-38.488-10.496l158.304-100.77V156.295z     M455.533,481.987v9.387c0,1.707-0.853,2.56-2.56,2.56h-302.08c-1.707,0-2.56-0.853-2.56-2.56v-9.387c0-0.853,0-1.707,0.853-1.707    l62.293-54.613h180.907l62.293,54.613C455.533,480.28,455.533,481.133,455.533,481.987z" fill="#8F1622"/>
	</g>
</g>
<g>
</g>
<g>
</g>
<g>
</g>
<g>
</g>
<g>
</g>
<g>
</g>
<g>
</g>
<g>
</g>
<g>
</g>
<g>
</g>
<g>
</g>
<g>
</g>
<g>
</g>
<g>
</g>
<g>
</g>
</svg>
