<?xml version="1.0" encoding="iso-8859-1"?>
<!-- Generator: Adobe Illustrator 18.0.0, SVG Export Plug-In . SVG Version: 6.00 Build 0)  -->
<!DOCTYPE svg PUBLIC "-//W3C//DTD SVG 1.1//EN" "http://www.w3.org/Graphics/SVG/1.1/DTD/svg11.dtd">
<svg xmlns="http://www.w3.org/2000/svg" xmlns:xlink="http://www.w3.org/1999/xlink" version="1.1" id="Capa_1" x="0px" y="0px" viewBox="0 0 298.902 298.902" style="enable-background:new 0 0 298.902 298.902;" xml:space="preserve" width="512px" height="512px">
<path d="M2.707,256.339c1.941,19.997,30.941,42.534,78.099,42.534c48.641,0,194.391,0.029,194.391,0.029  c4.863,0,9.021-3.498,9.852-8.29c0,0,2.874-24.973,5.693-32.803c12.371-34.357,1.603-66.513-2.458-77.325l8.233-170.001  c0.133-2.732-0.861-5.4-2.748-7.381C291.882,1.121,289.266,0,286.53,0h-158c-2.777,0-5.431,1.155-7.322,3.19  s-2.853,4.763-2.651,7.533l11.331,156.356c-25.393,4.242-94.49,18.573-118.53,51.885C3.528,229.814,1.467,243.564,2.707,256.339z   M208.53,201.28c27.642-1.096,47.457-13.11,59.888-24.024l-0.212,4.377c-0.069,1.437,0.172,2.872,0.708,4.208  c4.662,11.618,14.686,46.148,4.563,61.88l-64.946-0.086V201.28z M269.909,146.464c-3.902,5.398-25.396,32.644-61.379,34.747V20  h67.504L269.909,146.464z M150.503,176.297L139.281,20h49.249v181.434C172.209,197.377,158.091,184.449,150.503,176.297z   M27.57,230.676c17.901-24.82,75.786-38.944,105.445-43.869c8.796,10.063,29.556,30.617,55.515,35.036v25.765H22.485  C22.037,241.736,23.714,236.021,27.57,230.676z M81.895,278.902c-21.904,0-36.443-6.914-45.695-11.342h232.525l-1.942,11.342  C266.783,278.902,128.03,278.902,81.895,278.902z" fill="#8F1622"/>
<g>
</g>
<g>
</g>
<g>
</g>
<g>
</g>
<g>
</g>
<g>
</g>
<g>
</g>
<g>
</g>
<g>
</g>
<g>
</g>
<g>
</g>
<g>
</g>
<g>
</g>
<g>
</g>
<g>
</g>
</svg>
