<?xml version="1.0" encoding="iso-8859-1"?>
<!-- Generator: Adobe Illustrator 18.0.0, SVG Export Plug-In . SVG Version: 6.00 Build 0)  -->
<!DOCTYPE svg PUBLIC "-//W3C//DTD SVG 1.1//EN" "http://www.w3.org/Graphics/SVG/1.1/DTD/svg11.dtd">
<svg xmlns="http://www.w3.org/2000/svg" xmlns:xlink="http://www.w3.org/1999/xlink" version="1.1" id="Capa_1" x="0px" y="0px" viewBox="0 0 297 297" style="enable-background:new 0 0 297 297;" xml:space="preserve" width="512px" height="512px">
<path d="M181.801,157.133c-15.661,4.702-31.015,9.15-44.934,12.684l-27.139-50.401c-1.305-2.423-3.551-4.201-6.209-4.916  c-2.658-0.715-5.492-0.302-7.837,1.141l-41.233,25.374c-3.917,2.411-5.685,7.184-4.283,11.564  c0.62,1.938,4.578,13.958,10.915,25.645c-27.345-0.85-49.083-4.662-49.323-4.705c-2.965-0.531-6.012,0.307-8.293,2.275  c-2.28,1.969-3.552,4.861-3.46,7.872l1.058,34.89c0.072,2.4,1.007,4.695,2.632,6.464c19.167,20.857,53.873,31.433,103.153,31.432  c27.093-0.001,52.022-3.117,66.918-4.98l0.291-0.036c33.051-4.132,102.131-7.303,102.825-7.335c4.922-0.224,8.948-3.999,9.486-8.896  l10.572-96.21c0.345-3.143-0.815-6.264-3.131-8.416c-2.316-2.152-5.514-3.077-8.621-2.512c-8.139,1.499-17.765,3.854-28.362,6.737  c12.29-18.32,30.299-34.731,30.533-34.943c2.556-2.309,3.743-5.77,3.145-9.16l-7.4-41.89c-0.844-4.778-4.996-8.261-9.848-8.261  H167.53c-5.522,0-10,4.478-10,10v32.375c0,5.522,4.478,10,10,10h54.617C209.397,110.403,189.687,139.208,181.801,157.133z   M251.067,78.511c-1.683-3.42-5.162-5.587-8.974-5.587H177.53V60.549h87.337l5.004,28.321c-9.139,8.878-30.967,31.557-39.932,53.667  c-6.975,2.084-14.156,4.267-21.454,6.492c15.279-25.856,41.212-59.591,41.528-60.001C252.341,86.01,252.749,81.931,251.067,78.511z   M174.722,184.881c0,2.626-2.136,4.762-4.762,4.762c-2.625,0-4.761-2.136-4.761-4.762c0-0.794,0.214-1.532,0.56-2.191  c2.184-0.624,4.381-1.258,6.592-1.901C173.762,181.616,174.722,183.131,174.722,184.881z M116.65,174.607  c-9.354,1.83-20.55,2.994-31.945,3.496c-5.177-6.456-9.878-16.746-12.85-24.316l25.286-15.561L116.65,174.607z M36.37,199.259  c0,2.626-2.136,4.762-4.762,4.762c-2.625,0-4.761-2.136-4.761-4.762c0-1.292,0.521-2.462,1.359-3.32  c2.312,0.253,4.781,0.505,7.395,0.744C36.083,197.427,36.37,198.309,36.37,199.259z M63.599,224.782  c0-2.625,2.136-4.761,4.761-4.761c2.626,0,4.762,2.136,4.762,4.761s-2.136,4.761-4.762,4.761  C65.735,229.542,63.599,227.407,63.599,224.782z M123.832,216.615c0-2.625,2.136-4.761,4.761-4.761c2.625,0,4.761,2.136,4.761,4.761  s-2.136,4.761-4.761,4.761C125.968,221.375,123.832,219.24,123.832,216.615z M205.503,220.698c0-2.625,2.136-4.761,4.761-4.761  s4.761,2.136,4.761,4.761c0,2.626-2.136,4.762-4.761,4.762S205.503,223.324,205.503,220.698z M272.218,180.874  c-2.287-8.977-10.418-15.647-20.098-15.647c-11.448,0-20.762,9.313-20.762,20.761c0,11.448,9.313,20.762,20.762,20.762  c8.079,0,15.078-4.649,18.507-11.403l-3.207,29.188c-8.438,0.424-22.184,1.152-37.274,2.113c0.565-1.887,0.879-3.881,0.879-5.949  c0-11.447-9.314-20.761-20.761-20.761c-11.447,0-20.761,9.314-20.761,20.761c0,3.157,0.729,6.141,1.995,8.822  c-7.304,0.65-14.114,1.344-19.922,2.069l-0.292,0.036c-8.386,1.049-20.059,2.506-33.435,3.545  c6.809-3.41,11.504-10.438,11.504-18.556c0-11.447-9.314-20.761-20.761-20.761c-11.447,0-20.761,9.313-20.761,20.761  c0,8.994,5.76,16.648,13.775,19.526c-4.818,0.195-9.757,0.31-14.76,0.31c-7.355,0-14.312-0.245-20.877-0.726  c1.984-3.182,3.151-6.925,3.151-10.943c0-11.447-9.313-20.761-20.762-20.761c-11.447,0-20.761,9.314-20.761,20.761  c0,1.43,0.146,2.826,0.422,4.175c-7.662-2.474-14.281-5.556-19.842-9.243c1.118,0.188,2.259,0.308,3.429,0.308  c11.448,0,20.762-9.313,20.762-20.762c0-0.465-0.04-0.92-0.069-1.378c6.1,0.314,12.581,0.511,19.291,0.511c0.002,0,0.001,0,0.004,0  c17.858,0,34.065-1.399,48.164-4.158c8.995-1.76,18.998-4.181,29.583-7.001c1.173,10.344,9.967,18.41,20.618,18.41  c11.448,0,20.762-9.313,20.762-20.762c0-3.2-0.749-6.221-2.048-8.931c7.314-2.199,14.673-4.442,21.979-6.672  c23.982-7.318,46.915-14.315,64.89-18.667L272.218,180.874z M256.881,185.988c0,2.626-2.136,4.762-4.761,4.762  c-2.626,0-4.762-2.136-4.762-4.762c0-2.625,2.136-4.761,4.762-4.761C254.745,181.227,256.881,183.363,256.881,185.988z" fill="#8F1622"/>
<g>
</g>
<g>
</g>
<g>
</g>
<g>
</g>
<g>
</g>
<g>
</g>
<g>
</g>
<g>
</g>
<g>
</g>
<g>
</g>
<g>
</g>
<g>
</g>
<g>
</g>
<g>
</g>
<g>
</g>
</svg>
