<?xml version="1.0" encoding="iso-8859-1"?>
<!-- Generator: Adobe Illustrator 18.0.0, SVG Export Plug-In . SVG Version: 6.00 Build 0)  -->
<!DOCTYPE svg PUBLIC "-//W3C//DTD SVG 1.1//EN" "http://www.w3.org/Graphics/SVG/1.1/DTD/svg11.dtd">
<svg xmlns="http://www.w3.org/2000/svg" xmlns:xlink="http://www.w3.org/1999/xlink" version="1.1" id="Capa_1" x="0px" y="0px" viewBox="0 0 298.832 298.832" style="enable-background:new 0 0 298.832 298.832;" xml:space="preserve" width="512px" height="512px">
<path d="M210.336,87.241l-37.092-18.072c-3.651-1.781-8.016-1.173-11.043,1.532l-21.038,18.8c-2.229,1.992-3.45,4.878-3.328,7.865  c0.122,2.987,1.574,5.764,3.958,7.567l31.057,23.492c-22.518,16.557-48.12,26.903-63.378,26.903  c-12.849,0-17.853-4.304-18.276-8.076c0.271-3.293-1.138-6.132-3.73-8.213c-2.639-2.117-6.188-2.353-9.399-1.298  c-1.981,0.649-48.732,16.131-67.718,35.116c-8.003,8.003-13.637,21.973-8.183,35.14c4.908,11.851,19.989,25.977,63.957,25.977  h51.021c19.903,0,37.079-14.524,56.967-31.342c13.099-11.077,27.702-23.41,44.288-32.147l4.321,54.283  c0.414,5.198,4.754,9.206,9.969,9.206h29.752c4.81,0,8.939-3.424,9.827-8.151l12.801-68.032  c30.819-42.166,0.445-86.397-0.859-88.102c-1.607-2.099-3.98-3.476-6.601-3.83c-4.915-0.664-9.757-1.001-14.391-1.001  C227.007,64.858,210.97,86.375,210.336,87.241z M163.553,96.315l6.968-6.226l28.543,13.907c-3.221,3.911-6.742,7.668-10.484,11.25  L163.553,96.315z M161.195,187.361c-16.887,14.28-31.471,26.613-44.052,26.613H66.123c-36.961,0-44.155-10.433-45.479-13.63  c-1.911-4.614,0.655-10.151,3.848-13.344c10.46-10.46,35.025-21.126,50.548-26.965c0.993,1.607,2.239,3.243,3.805,4.836  c6.817,6.938,17.123,10.457,30.629,10.457c16.644,0,39.973-8.269,62.403-22.118c24.853-15.346,42.241-36.514,55.632-55.675  c1.804-2.58,12.596-12.678,35.71-12.678c2.363,0,4.806,0.11,7.301,0.329c4.841,8.071,15.164,29.678,4.005,52.724  c-2.646-0.398-5.858-0.684-9.636-0.684c-13.736,0-29.198,3.646-45.958,10.838C196.059,157.878,177.538,173.542,161.195,187.361z   M254.146,213.974h-12.223l-4.117-51.722c12.074-4.024,21.115-5.018,27.018-5.024L254.146,213.974z" fill="#8F1622"/>
<g>
</g>
<g>
</g>
<g>
</g>
<g>
</g>
<g>
</g>
<g>
</g>
<g>
</g>
<g>
</g>
<g>
</g>
<g>
</g>
<g>
</g>
<g>
</g>
<g>
</g>
<g>
</g>
<g>
</g>
</svg>
