<?xml version="1.0" encoding="iso-8859-1"?>
<!-- Generator: Adobe Illustrator 19.0.0, SVG Export Plug-In . SVG Version: 6.00 Build 0)  -->
<svg xmlns="http://www.w3.org/2000/svg" xmlns:xlink="http://www.w3.org/1999/xlink" version="1.1" id="Layer_1" x="0px" y="0px" viewBox="0 0 464 464" style="enable-background:new 0 0 464 464;" xml:space="preserve" width="512px" height="512px">
<g>
	<g>
		<path d="M284,380c-6.628,0-12,5.372-12,12s5.372,12,12,12c9.924,0,18,8.076,18,18s-8.076,18-18,18h-92c-9.924,0-18-8.076-18-18    s8.076-18,18-18c6.628,0,12-5.372,12-12s-5.372-12-12-12c-23.16,0-42,18.84-42,42c0,23.16,18.84,42,42,42h92    c23.16,0,42-18.84,42-42C326,398.84,307.16,380,284,380z" fill="#8F1622"/>
	</g>
</g>
<g>
	<g>
		<path d="M370,0H94C65.328,0,42,23.328,42,52v248c0,6.628,5.372,12,12,12s12-5.372,12-12V52c0-15.436,12.564-28,28-28h276    c15.436,0,28,12.564,28,28v248c0,6.628,5.372,12,12,12s12-5.372,12-12V52C422,23.328,398.672,0,370,0z" fill="#8F1622"/>
	</g>
</g>
<g>
	<g>
		<path d="M281.664,412.844l-11.792-78.624c-0.884-5.876-5.928-10.22-11.868-10.22h-40c-5.944,0-10.984,4.344-11.868,10.22l-12,80    c-0.52,3.456,0.496,6.964,2.772,9.612c2.28,2.644,5.6,4.168,9.092,4.168h64c0.024,0,0.056,0,0.076,0c6.628,0,12-5.372,12.004-12    C282.08,414.912,281.936,413.852,281.664,412.844z M219.932,404l8.4-56h19.328l8.404,56H219.932z" fill="#8F1622"/>
	</g>
</g>
<g>
	<g>
		<path d="M370,40H94c-26.468,0-48,21.532-48,48v208c0,26.468,21.532,48,48,48h276c26.468,0,48-21.532,48-48V88    C418,61.532,396.468,40,370,40z M402,296c0,17.644-14.356,32-32,32H94c-17.644,0-32-14.356-32-32V88c0-17.644,14.356-32,32-32h276    c17.644,0,32,14.356,32,32V296z" fill="#8F1622"/>
	</g>
</g>
<g>
	<g>
		<path d="M366,80H98c-4.42,0-8,3.584-8,8v184c0,4.416,3.58,8,8,8h268c4.416,0,8-3.584,8-8V88C374,83.584,370.416,80,366,80z     M358,264H106V96h252V264z" fill="#8F1622"/>
	</g>
</g>
<g>
	<g>
		<path d="M410,36c-6.628,0-12,5.372-12,12v248c0,15.436-12.564,28-28,28H94c-15.436,0-28-12.564-28-28V48c0-6.628-5.372-12-12-12    s-12,5.372-12,12v248c0,28.672,23.328,52,52,52h276c28.672,0,52-23.328,52-52V48C422,41.372,416.628,36,410,36z" fill="#8F1622"/>
	</g>
</g>
<g>
	<g>
		<path d="M234,84c-4.42,0-8,3.584-8,8v168c0,4.416,3.58,8,8,8c4.416,0,8-3.584,8-8V92C242,87.584,238.416,84,234,84z" fill="#8F1622"/>
	</g>
</g>
<g>
	<g>
		<path d="M309.648,127.868l-18.192-25.472c-1.848-2.584-5.024-3.848-8.156-3.18c-3.108,0.652-5.536,3.08-6.184,6.188    C277.084,105.548,273.58,120,266,120h-32c-4.42,0-8,3.584-8,8s3.58,8,8,8h32c9.644,0,16.396-5.78,20.78-12.62l6.488,9.084    C289.32,137.06,281.456,144,270,144h-36c-4.42,0-8,3.584-8,8s3.58,8,8,8h36c26.144,0,39.5-22.512,40.06-23.468    C311.632,133.812,311.472,130.424,309.648,127.868z" fill="#8F1622"/>
	</g>
</g>
<g>
	<g>
		<path d="M321.828,176.656c-3.744-2.28-8.652-1.084-10.972,2.644c-0.32,0.52-8.08,12.7-24.856,12.7h-40c-4.42,0-8,3.584-8,8    s3.58,8,8,8h40c26.076,0,38.064-19.612,38.564-20.448C326.812,183.78,325.58,178.936,321.828,176.656z" fill="#8F1622"/>
	</g>
</g>
<g>
	<g>
		<path d="M321.976,149.58c-0.56-3.924-3.916-6.828-7.88-6.848c-0.016,0-0.028,0-0.044,0c-3.952,0-7.316,2.9-7.912,6.808    c-0.12,0.76-3.024,18.644-17.56,18.644H234c-4.42,0-8,3.584-8,8c0,4.416,3.58,8,8,8h54.58c8.884,0,15.672-3.224,20.752-7.816    c1.92,15.928,4,35.772,4,47.12c0,17.472-7.408,17.472-10.196,17.472c-17.348,0-24.752-5.228-24.752-17.472    c0-8.224-2.996-15.28-8.66-20.408c-12.608-11.408-34.104-9.62-36.524-9.388c-4.396,0.44-7.6,4.356-7.164,8.756    c0.44,4.396,4.384,7.612,8.756,7.164c4.272-0.424,17.9-0.368,24.192,5.328c2.32,2.1,3.4,4.812,3.4,8.544    c0,12.5,5.296,33.472,40.752,33.472c6.144,0,26.196-2.412,26.2-33.464C329.336,201.344,322.276,151.684,321.976,149.58z" fill="#8F1622"/>
	</g>
</g>
<g>
	<g>
		<path d="M321.204,198.104c-3.996-1.956-8.768-0.292-10.7,3.676C308.704,205.468,301.8,216,294,216h-24c-4.42,0-8,3.584-8,8    s3.58,8,8,8h24c19.328,0,30.416-22.248,30.88-23.196C326.82,204.832,325.172,200.04,321.204,198.104z" fill="#8F1622"/>
	</g>
</g>
<g>
	<g>
		<path d="M320.912,146.592L309.996,128.4c-2.272-3.792-7.188-5.016-10.976-2.744c-3.792,2.272-5.016,7.188-2.744,10.976    l10.916,18.192c1.5,2.5,4.148,3.884,6.868,3.884c1.404,0,2.82-0.368,4.112-1.14C321.96,155.296,323.184,150.38,320.912,146.592z" fill="#8F1622"/>
	</g>
</g>
<g>
	<g>
		<path d="M234,144h-36c-11.46,0-19.32-6.94-23.268-11.532l6.488-9.088C185.6,130.22,192.356,136,202,136h32c4.416,0,8-3.584,8-8    s-3.584-8-8-8h-32c-7.6,0-11.088-14.48-11.116-14.596c-0.648-3.108-3.08-5.536-6.184-6.188c-3.136-0.664-6.308,0.596-8.156,3.18    l-18.192,25.472c-1.828,2.556-1.988,5.944-0.412,8.664C158.5,137.488,171.856,160,198,160h36c4.416,0,8-3.584,8-8    S238.416,144,234,144z" fill="#8F1622"/>
	</g>
</g>
<g>
	<g>
		<path d="M221.996,192.004h-40c-16.688,0-24.448-12.052-24.852-12.692c-2.272-3.756-7.172-4.976-10.932-2.724    c-3.796,2.26-5.036,7.172-2.776,10.964C143.932,188.388,155.92,208,182,208h40c4.416,0,7.996-3.58,7.996-7.996    C229.996,195.588,226.412,192.004,221.996,192.004z" fill="#8F1622"/>
	</g>
</g>
<g>
	<g>
		<path d="M234.8,193.684c-2.416-0.232-23.916-2.028-36.524,9.388c-5.664,5.132-8.66,12.184-8.66,20.408    c0,12.244-7.404,17.472-24.752,17.472c-2.788,0-10.196,0-10.196-17.472c0-11.348,2.076-31.192,4-47.12    c5.076,4.592,11.864,7.816,20.748,7.816H234c4.416,0,8-3.584,8-8c0-4.416-3.584-8-8-8h-54.588    c-14.536,0-17.444-17.88-17.556-18.604c-0.56-3.944-3.936-6.868-7.916-6.868s-7.352,2.928-7.916,6.868    c-0.3,2.108-7.36,51.768-7.36,73.912c0,31.056,20.052,33.472,26.196,33.472c35.46,0,40.752-20.972,40.752-33.48    c0-3.724,1.076-6.432,3.38-8.524c6.252-5.684,19.604-5.78,24.232-5.348c4.46,0.452,8.3-2.776,8.74-7.164    C242.4,198.044,239.196,194.124,234.8,193.684z" fill="#8F1622"/>
	</g>
</g>
<g>
	<g>
		<path d="M197.996,216.004h-28c-8.052,0-11.908-12.604-11.988-12.86c-1.18-4.24-5.568-6.736-9.82-5.564    c-4.26,1.172-6.764,5.576-5.596,9.832C145.1,216.544,153.696,232,170,232h28c4.416,0,7.996-3.58,7.996-7.996    C205.996,219.588,202.412,216.004,197.996,216.004z" fill="#8F1622"/>
	</g>
</g>
<g>
	<g>
		<path d="M168.98,125.656c-3.788-2.276-8.704-1.044-10.976,2.744l-10.92,18.192c-2.272,3.788-1.044,8.704,2.744,10.976    c1.288,0.772,2.704,1.14,4.108,1.14c2.72,0,5.368-1.384,6.872-3.884l10.916-18.192    C173.996,132.844,172.768,127.928,168.98,125.656z" fill="#8F1622"/>
	</g>
</g>
<g>
</g>
<g>
</g>
<g>
</g>
<g>
</g>
<g>
</g>
<g>
</g>
<g>
</g>
<g>
</g>
<g>
</g>
<g>
</g>
<g>
</g>
<g>
</g>
<g>
</g>
<g>
</g>
<g>
</g>
</svg>
