<?xml version="1.0" encoding="iso-8859-1"?>
<!-- Generator: Adobe Illustrator 19.0.0, SVG Export Plug-In . SVG Version: 6.00 Build 0)  -->
<svg xmlns="http://www.w3.org/2000/svg" xmlns:xlink="http://www.w3.org/1999/xlink" version="1.1" id="Layer_1" x="0px" y="0px" viewBox="0 0 512.535 512.535" style="enable-background:new 0 0 512.535 512.535;" xml:space="preserve" width="512px" height="512px">
<g transform="translate(1 1)">
	<g>
		<g>
			<path d="M443.001,16.601c-15.351,0-30.13,2.57-43.932,7.297l-6.415-19.244c-1.707-4.267-6.827-6.827-11.093-5.12     s-6.827,6.827-5.12,11.093l6.64,19.921c-7.181,3.536-14.009,7.686-20.42,12.38l-15.234-15.234c-3.413-3.413-8.533-3.413-11.947,0     s-3.413,8.533,0,11.947l14.131,14.131c-6.466,6.083-12.345,12.783-17.537,20.007l-20.488-13.659     c-4.267-2.56-9.387-1.707-11.947,2.56s-1.707,9.387,2.56,11.947l20.688,13.792c-3.542,6.529-6.565,13.375-9.017,20.482     l-20.204-6.967c-4.267-1.707-9.387,0.853-11.093,5.12s0.853,9.387,5.12,11.093l21.586,7.443     c-1.454,7.028-2.356,14.251-2.675,21.619c-19.907-7.608-38.909-10.462-47.071-11.142c-1.707,0-2.56,0-4.267,0     c-2.882,0-5.626,0.444-8.179,1.26c-9.433,1.137-25.936,4.157-43.126,10.723c-0.277-7.467-1.155-14.787-2.598-21.909l23.183-7.994     c4.267-1.707,6.827-6.827,5.12-11.093c-1.707-4.267-6.827-6.827-11.093-5.12l-21.725,7.491     c-2.355-6.915-5.259-13.581-8.647-19.955l20.985-13.99c4.267-2.56,5.12-7.68,2.56-11.947s-7.68-5.12-11.947-2.56l-20.655,13.77     c-5.242-7.428-11.202-14.317-17.781-20.56l14.543-14.543c3.413-3.413,3.413-8.533,0-11.947s-8.533-3.413-11.947,0l-15.594,15.594     c-6.045-4.467-12.465-8.451-19.206-11.889l6.64-19.919c1.707-5.12-0.853-9.387-5.12-11.093c-5.12-1.707-9.387,0.853-11.093,5.12     l-6.34,19.021c-14.309-5.125-29.699-7.928-45.713-7.928c-5.12,0-8.533,3.413-8.533,8.533s3.413,8.533,8.533,8.533     c65.707,0,119.467,53.76,119.467,119.467c0,0.874,0.107,1.694,0.297,2.46c-16.307,8.664-27.748,23.666-32.724,41.913     c-5.12,18.773-2.56,39.253,7.68,56.32l34.133,57.173l0.156,0.195c0.478,15.832,1.251,69.65-10.396,93.671     c-5.12,11.093-6.827,21.333-5.973,31.573c5.973,47.787,34.133,75.093,75.947,75.093s69.973-27.307,75.947-75.947     c0.853-10.24-0.853-20.48-5.973-31.573c-11.593-25.504-10.586-84.604-10.293-96.16l32.48-54.88     c10.24-17.067,12.8-37.547,7.68-56.32c-4.96-18.187-16.342-33.151-32.565-41.828c0.088-0.541,0.138-1.104,0.138-1.692     c0-65.707,53.76-119.467,119.467-119.467c5.12,0,8.533-3.413,8.533-8.533S448.121,16.601,443.001,16.601z M246.734,272.601     v-32.427v-18.773v-58.88c0-4.267,3.413-7.68,6.827-8.533c1.707,0,2.56,0,2.56,0l-0.041-0.819     c1.797,0.133,3.352,0.709,4.589,1.641c1.617,1.278,2.667,3.12,3.009,5.274c0.007,0.048,0.012,0.097,0.019,0.146     c0.028,0.198,0.053,0.398,0.069,0.6c0.021,0.274,0.035,0.552,0.035,0.837v58.88v18.773v33.28c0,5.12-3.413,8.533-8.533,8.533     S246.734,277.721,246.734,272.601z M176.761,244.441c-7.68-12.8-9.387-28.16-6.827-42.667c3.413-14.507,12.8-25.6,25.6-32.427     c11.093-5.973,23.04-9.387,33.28-11.947c0,1.707,0,2.56,0,4.267v66.56c-8.533,5.12-15.36,11.947-20.48,21.333     c-4.267,8.533-8.533,18.773-10.24,30.72L176.761,244.441z M314.147,433.028c-3.413,28.16-16.213,60.587-58.88,60.587     s-55.467-33.28-58.88-60.587c-0.853-5.973,0.853-13.653,4.267-21.333c14.749-31.137,12.189-97.671,11.962-105.179     c0.16-18.349,4.382-35.013,11.078-47.567c1.495-2.692,3.205-5.063,5.12-7.162v20.816c0,14.507,11.093,25.6,25.6,25.6     c0.143,0,0.284-0.008,0.427-0.01c0.143,0.002,0.283,0.01,0.427,0.01c14.507,0,25.6-11.093,25.6-25.6v-23.858     c2.266,2.435,4.457,5.464,5.973,8.498c7.68,12.8,11.093,29.867,11.093,48.64c0,2.56-3.413,74.24,11.947,105.813     C313.294,419.375,315.001,426.201,314.147,433.028z M339.747,202.628c4.267,13.653,1.707,29.867-5.973,42.667l-20.252,33.754     c-2.087-11.302-5.571-21.526-10.468-30.34c-5.09-9.453-12.667-17.037-22.187-21.716v-64.471c0-1.707,0-2.56,0-4.267     c10.24,2.56,22.187,5.973,33.28,11.947C326.947,177.028,335.481,188.975,339.747,202.628z" fill="#8F1622"/>
			<path d="M268.067,401.455h-24.747c-11.947,0-21.333,9.387-21.333,21.333v24.747c0,11.947,9.387,21.333,21.333,21.333h24.747     c11.947,0,21.333-9.387,21.333-21.333v-24.747C289.401,410.841,280.014,401.455,268.067,401.455z M271.481,446.681     c0,2.56-1.707,4.267-4.267,4.267h-24.747c-2.56,0-4.267-1.707-4.267-4.267v-24.747c0-2.56,1.707-4.267,4.267-4.267h24.747     c2.56,0,4.267,1.707,4.267,4.267V446.681z" fill="#8F1622"/>
		</g>
	</g>
</g>
<g>
</g>
<g>
</g>
<g>
</g>
<g>
</g>
<g>
</g>
<g>
</g>
<g>
</g>
<g>
</g>
<g>
</g>
<g>
</g>
<g>
</g>
<g>
</g>
<g>
</g>
<g>
</g>
<g>
</g>
</svg>
