<?xml version="1.0" encoding="iso-8859-1"?>
<!-- Generator: Adobe Illustrator 19.0.0, SVG Export Plug-In . SVG Version: 6.00 Build 0)  -->
<svg xmlns="http://www.w3.org/2000/svg" xmlns:xlink="http://www.w3.org/1999/xlink" version="1.1" id="Layer_1" x="0px" y="0px" viewBox="0 0 512 512" style="enable-background:new 0 0 512 512;" xml:space="preserve" width="512px" height="512px">
<g transform="translate(1 1)">
	<g>
		<g>
			<path d="M109.08,242.2c0-11.947-9.387-21.333-21.333-21.333H63c-11.947,0-21.333,9.387-21.333,22.187V267.8     c0,11.947,9.387,21.333,21.333,21.333h25.6c11.947,0,21.333-9.387,20.48-22.187V242.2z M92.013,267.8     c0,2.56-1.707,4.267-4.267,4.267H63c-2.56,0-4.267-1.707-4.267-5.12V242.2c0-2.56,1.707-4.267,4.267-4.267v0.853h24.747     c2.56,0,4.267,1.707,4.267,4.267V267.8z" fill="#8F1622"/>
			<path d="M502.467,289.133H485.4v-17.067c0-5.12-3.413-8.533-8.533-8.533s-8.533,3.413-8.533,8.533v17.067h-17.067v-17.067     c0-5.12-3.413-8.533-8.533-8.533s-8.533,3.413-8.533,8.533v17.067h-17.067v-17.067c0-5.12-3.413-8.533-8.533-8.533     s-8.533,3.413-8.533,8.533v17.067H383v-17.067c0-5.12-3.413-8.533-8.533-8.533s-8.533,3.413-8.533,8.533v17.067h-39.466     c3.366-12.644,4.865-23.398,5.333-29.013c0-1.707,0-2.56,0-4.267c0-0.08-0.012-0.16-0.015-0.24     c0.004-0.205,0.015-0.408,0.015-0.614c0-2.882-0.444-5.626-1.26-8.179c-0.748-6.202-2.306-15.453-5.153-25.955h23.479v17.067     c0,5.12,3.413,8.533,8.533,8.533s8.533-3.413,8.533-8.533v-17.067H383v17.067c0,5.12,3.413,8.533,8.533,8.533     c5.12,0,8.533-3.413,8.533-8.533v-17.067h17.067v17.067c0,5.12,3.413,8.533,8.533,8.533s8.533-3.413,8.533-8.533v-17.067h17.067     v17.067c0,5.12,3.413,8.533,8.533,8.533c5.12,0,8.533-3.413,8.533-8.533v-17.067H485.4v17.067c0,5.12,3.413,8.533,8.533,8.533     s8.533-3.413,8.533-8.533v-17.067c5.12,0,8.533-3.413,8.533-8.533s-3.413-8.533-8.533-8.533h-182.61     c-1.95-5.115-4.208-10.291-6.83-15.36c-8.533-17.067-23.893-29.013-42.667-34.133c-18.773-5.12-39.253-2.56-56.32,7.68     l-57.173,34.133c-0.089,0.06-0.169,0.128-0.256,0.19c-8.834,0.165-29.381-0.629-50.944-10.43     c-11.093-5.12-21.333-6.827-31.573-5.973C25.453,185.88-1,212.333-1,255c0,60.587,52.053,73.387,75.093,76.8     c1.707,0,4.267,0,5.973,0c7.68,0,16.213-1.707,25.6-5.973c25.556-11.616,50.406-10.582,54.784-10.292l53.589,32.478     c11.947,6.827,24.747,10.24,37.547,10.24c5.973,0,12.8-0.853,19.627-1.707c18.773-5.12,34.133-17.067,42.667-34.133     c2.768-5.351,5.135-10.821,7.156-16.213h181.43c5.12,0,8.533-3.413,8.533-8.533C511,292.547,507.587,289.133,502.467,289.133z      M233.667,246.467h12.8H306.2c3.712,0,6.776,2.583,8.072,5.503c0.296,0.923,0.461,1.935,0.461,3.031     c0,5.12-3.413,8.533-8.533,8.533h-58.88h-52.053c-5.12,0-8.533-3.413-8.533-8.533s3.413-8.533,8.533-8.533H233.667z      M223.427,176.493c12.8-7.68,28.16-10.24,42.667-5.973c14.507,3.413,25.6,12.8,32.427,25.6     c5.973,11.093,9.387,23.04,11.947,33.28c-1.707,0-2.56,0-4.267,0h-65.812c-3.711-6.396-8.468-11.799-14.474-16.211     c-2.332-1.897-4.857-3.622-7.608-5.122c-8.533-4.267-18.773-8.533-30.72-10.24L223.427,176.493z M97.987,310.467     c-8.533,3.413-15.36,5.12-22.187,4.267C53.613,311.32,16.067,300.227,16.067,255c0-33.28,20.48-52.907,60.587-58.88     c0.853,0,2.56,0,3.413,0c5.12,0,11.093,1.707,17.92,4.267c29.866,14.103,58.111,12.077,63.58,11.953     c0.247,0.001,0.491,0.008,0.737,0.01c10.512,0.473,20.036,1.69,28.582,3.771c6.96,1.859,13.327,4.34,18.888,7.305     c3.085,1.714,5.751,3.708,8.065,5.973h-22.572c-14.507,0-25.6,11.093-25.6,25.6s11.093,25.6,25.6,25.6h24.747     c-2.56,2.56-5.973,5.12-9.387,6.827c-12.8,7.68-29.013,11.093-48.64,11.093C157.72,298.52,127.853,295.96,97.987,310.467z      M297.667,313.88c-6.827,12.8-18.773,21.333-32.427,25.6c-14.507,4.267-29.867,1.707-42.667-5.973l-33.754-20.252     c11.302-2.087,21.526-5.571,30.34-10.468c9.453-5.09,17.037-12.667,21.716-22.187h64.471h0.853c1.187,0,2.018,0,3.413,0     C307.053,290.84,303.64,302.787,297.667,313.88z" fill="#8F1622"/>
		</g>
	</g>
</g>
<g>
</g>
<g>
</g>
<g>
</g>
<g>
</g>
<g>
</g>
<g>
</g>
<g>
</g>
<g>
</g>
<g>
</g>
<g>
</g>
<g>
</g>
<g>
</g>
<g>
</g>
<g>
</g>
<g>
</g>
</svg>
