<?xml version="1.0" encoding="iso-8859-1"?>
<!-- Generator: Adobe Illustrator 19.0.0, SVG Export Plug-In . SVG Version: 6.00 Build 0)  -->
<svg xmlns="http://www.w3.org/2000/svg" xmlns:xlink="http://www.w3.org/1999/xlink" version="1.1" id="Layer_1" x="0px" y="0px" viewBox="0 0 512 512" style="enable-background:new 0 0 512 512;" xml:space="preserve" width="512px" height="512px">
<g>
	<g>
		<g>
			<path d="M89.331,238.934H64.26c-2.492,0-4.531,2.031-4.531,4.531v25.071c0,2.5,2.039,4.531,4.531,4.531h25.071     c2.5,0,4.531-2.031,4.531-4.531v-25.071C93.862,240.965,91.831,238.934,89.331,238.934z" fill="#8F1622"/>
			<path d="M503.467,290.13H486.4v-17.067c0-4.71-3.823-8.533-8.533-8.533c-4.719,0-8.533,3.823-8.533,8.533v17.067h-17.067v-17.067     c0-4.71-3.823-8.533-8.533-8.533c-4.719,0-8.533,3.823-8.533,8.533v17.067h-17.067v-17.067c0-4.71-3.823-8.533-8.533-8.533     c-4.719,0-8.533,3.823-8.533,8.533v17.067H384v-17.067c0-4.71-3.823-8.533-8.533-8.533c-4.719,0-8.533,3.823-8.533,8.533v17.067     h-40.218c3.516-13.03,5.111-24.218,5.717-29.79c0.239-1.417,0.367-2.859,0.367-4.343c0-1.468-0.128-2.918-0.367-4.335     c-0.606-5.564-2.202-16.759-5.717-29.798h23.151v17.067c0,4.719,3.814,8.533,8.533,8.533c4.71,0,8.533-3.814,8.533-8.533v-17.067     H384v17.067c0,4.719,3.814,8.533,8.533,8.533c4.71,0,8.533-3.814,8.533-8.533v-17.067h17.067v17.067     c0,4.719,3.814,8.533,8.533,8.533c4.71,0,8.533-3.814,8.533-8.533v-17.067h17.067v17.067c0,4.719,3.814,8.533,8.533,8.533     c4.71,0,8.533-3.814,8.533-8.533v-17.067H486.4v17.067c0,4.719,3.814,8.533,8.533,8.533c4.71,0,8.533-3.814,8.533-8.533v-17.067     c4.71,0,8.533-3.814,8.533-8.533c0-4.71-3.823-8.533-8.533-8.533H321.169c-1.954-5.094-4.139-10.223-6.784-15.249     c-8.892-16.853-24.047-29.005-42.658-34.202c-18.978-5.308-39.561-2.526-56.448,7.612l-56.934,34.167     c-7.689,0.316-29.73,0.102-52.309-10.539c-10.735-5.069-21.231-7.014-31.155-5.777C26.59,186.834,0,213.535,0,255.997     c0,60.561,52.361,73.634,74.889,76.442c1.929,0.247,3.874,0.358,5.845,0.358c8.158,0,16.64-2.048,25.301-6.127     c25.549-12.049,50.756-10.701,54.613-10.402l54.639,32.777c11.273,6.758,24.166,10.249,37.146,10.249     c6.477,0,12.971-0.879,19.294-2.645c18.62-5.197,33.766-17.348,42.658-34.193v-0.008c2.645-5.026,4.83-10.155,6.784-15.249     h182.298c4.71,0,8.533-3.814,8.533-8.533C512,293.953,508.177,290.13,503.467,290.13z M110.933,268.532     c0,11.913-9.694,21.598-21.606,21.598H64.265c-11.913,0-21.598-9.685-21.598-21.598V243.47c0-11.913,9.685-21.606,21.598-21.606     h25.062c11.913,0,21.606,9.694,21.606,21.606V268.532z M224.068,177.592c12.885-7.74,28.578-9.865,43.059-5.811     c14.054,3.925,25.48,13.073,32.154,25.728c5.82,11.042,9.643,22.989,12.117,33.237c-1.365-0.23-2.765-0.35-4.198-0.35h-66.901     c-0.29-0.512-0.666-0.973-0.964-1.476c-0.546-0.905-1.126-1.775-1.724-2.645c-0.99-1.442-2.039-2.816-3.166-4.147     c-0.666-0.794-1.323-1.57-2.031-2.321c-1.28-1.34-2.654-2.586-4.079-3.797c-0.683-0.58-1.331-1.203-2.048-1.758     c-2.193-1.681-4.506-3.234-6.989-4.591c-3.516-1.92-7.287-3.558-11.179-5.052c-0.64-0.247-1.271-0.512-1.929-0.742     c-3.797-1.365-7.765-2.517-11.895-3.473c-0.777-0.179-1.57-0.341-2.355-0.512c-1.237-0.265-2.432-0.572-3.695-0.794     L224.068,177.592z M299.281,314.484c-6.673,12.663-18.091,21.811-32.145,25.737c-14.498,4.045-30.191,1.92-43.059-5.811     l-34.261-20.548c0.751-0.145,1.459-0.35,2.193-0.503c0.896-0.188,1.775-0.393,2.654-0.606c4.045-0.956,7.962-2.074,11.691-3.413     c0.572-0.205,1.118-0.444,1.681-0.657c3.934-1.502,7.723-3.157,11.264-5.086c2.603-1.425,5.018-3.072,7.305-4.847     c0.742-0.572,1.399-1.229,2.116-1.843c1.476-1.28,2.901-2.594,4.215-4.019c0.734-0.785,1.408-1.621,2.082-2.449     c1.152-1.417,2.236-2.884,3.234-4.42c0.597-0.905,1.169-1.818,1.707-2.765c0.324-0.563,0.725-1.075,1.024-1.656H307.2     c1.434,0,2.842-0.111,4.215-0.35C308.941,291.478,305.126,303.416,299.281,314.484z M315.682,256.261     c-0.034,0.853-0.23,1.655-0.495,2.423c-0.137,0.401-0.282,0.777-0.469,1.143c-0.29,0.563-0.649,1.075-1.05,1.553     c-0.247,0.307-0.486,0.614-0.785,0.887c-0.495,0.452-1.084,0.802-1.681,1.135c-0.299,0.162-0.572,0.375-0.887,0.503     c-0.973,0.375-2.014,0.623-3.115,0.623h-59.281h-12.442h-39.211c-4.71,0-8.533-3.823-8.533-8.533     c0-4.702,3.823-8.533,8.533-8.533h38.707h12.843H307.2c1.101,0,2.142,0.247,3.106,0.631c0.324,0.128,0.589,0.341,0.887,0.503     c0.606,0.324,1.186,0.683,1.69,1.135c0.29,0.265,0.529,0.58,0.785,0.879c0.393,0.478,0.751,0.99,1.041,1.553     c0.188,0.367,0.341,0.751,0.478,1.152c0.256,0.768,0.461,1.562,0.486,2.415c0.008,0.111,0.017,0.188,0.026,0.273     C315.691,256.09,315.691,256.159,315.682,256.261z" fill="#8F1622"/>
		</g>
	</g>
</g>
<g>
</g>
<g>
</g>
<g>
</g>
<g>
</g>
<g>
</g>
<g>
</g>
<g>
</g>
<g>
</g>
<g>
</g>
<g>
</g>
<g>
</g>
<g>
</g>
<g>
</g>
<g>
</g>
<g>
</g>
</svg>
