<?xml version="1.0" encoding="utf-8"?>
<!-- Generator: Adobe Illustrator 18.0.0, SVG Export Plug-In . SVG Version: 6.00 Build 0)  -->
<!DOCTYPE svg PUBLIC "-//W3C//DTD SVG 1.1//EN" "http://www.w3.org/Graphics/SVG/1.1/DTD/svg11.dtd">
<svg version="1.1" xmlns="http://www.w3.org/2000/svg" xmlns:xlink="http://www.w3.org/1999/xlink" x="0px" y="0px"
	 viewBox="0 0 426 420" enable-background="new 0 0 426 420" xml:space="preserve">
<g id="Layer_3">
</g>
<g id="copyright">
</g>
<g id="main">
	<g>
		<path fill-rule="evenodd" clip-rule="evenodd" d="M405.9,221.5l-74.9,3v60.9l-235.4,0.1l-0.1-61l-75.4-3l87.4-4.1
			c7.5,0,11.7-5.9,12.8-13.1l5.2-35.7l5.8,34.9c2.3,14.2,6.9,14.5,13.7,14.5h8.8c4.9,0,5.9,1.1,7.1,5.9c1.5,6,6.6,19.4,11.5,19.3
			c6.3,0.1,8.9-27.9,8.7-38.1c-0.8-28.8-1.1-40.8,0.9-56.1c4.3-31.9,7.6-24.1,28.1,45c9.7,32.6,29.1,61.1,62.3,61.1h19.9
			c32,0-5.6-22.3-23.7-32.2c-9.1-4.9,1.8-5.1,6.9-6c7.8-1.3,13.7-12,17.8-12c4.1,0,8.5,11.8,14.6,12.1L405.9,221.5z M95.6,50h235.3
			l0.1,163.2l-18.9-1.6c-5.8-0.5-11.4-13.7-18.8-13.7c-10,0-9,12.7-27.8,13.5c-11.4,0.5-17.1,10.7-3.6,17.8c6,3.2,18.1,10.3,19.5,13
			c-30.6,0-54.1-19.5-62-58.2c-20.4-100-41.3-116.2-57.7-74.8c-13.2,33.2,9.4,25,12,95.1c0.4,11.7-0.9,22.7-2.3,27.7
			c-1.4-2.8-3-5.9-3.9-10c-2.2-9.5-4.2-10.2-13-10.7l-9.2-0.6c-2.5-0.2-3.7,0.6-5.9-7.5l-8.4-40.4c-3.4-12.7-7.3-12.8-10.8,0.6
			l-7.3,41c-0.6,3.2-1.5,6.9-5,6.9L95.5,213L95.6,50z"/>
		<path d="M196.6,405.4H95.4V297.3h28.1v86.5h8.3v-86.5H160v86.5h8.3v-86.5h28.2V405.4z M263.4,297.3l-7.6,71.6
			c-2.6,24.7-1.8,36.5-31.4,36.5H208v-13.9c10.6,0,10.3-1.6,8.3-12.8l-14.8-81.3h24.4l8.9,67.4l4.2-67.4H263.4z M318.9,344.3
			c11.4,4.2,12.1,17.2,12.1,28.8c0,23.4-7.6,34.5-31.5,34.5c-27.9,0-32-12.9-32-36.5v-8.5h26.9v17.6c0,3.8-0.5,10.8,4.6,10.8
			c5.6,0,5.1-10.4,5.1-15v-7.5c0-4.6-0.3-11.2-5.5-12.8c-1.8-0.6-5.4-1-10.6-1.1v-15.7c6.4,0,10.3-0.2,11.9-0.7
			c4.2-1.4,4.2-7.3,4.2-10.9v-6c0-3.6,0.2-9.3-4.8-9.3c-5.4,0-4.9,6.1-4.9,10v8.9h-26.9v-9.2c0-21,9.8-26.3,29.6-26.3
			c20.5,0,33,6.3,33,28.5C330,334.2,327.8,339.4,318.9,344.3L318.9,344.3z"/>
		<path d="M122.6,34.5h2.7v10.8h-5.4v-5.4H101v5.4h-5.4V34.5h2.7v-14c0-5.4,2.7-8.1,8.1-8.1h8.1c5.4,0,8.1,2.7,8.1,8.1V34.5z
			 M117.2,34.5v-14c0-1.8-0.9-2.7-2.7-2.7h-8.1c-1.8,0-2.7,0.9-2.7,2.7v14H117.2z M166.7,32.3c0,5.4-2.7,8.1-8.1,8.1h-10.8
			c-5.4,0-8.1-2.7-8.1-8.1V20.6c0-5.4,2.7-8.1,8.1-8.1h10.8c5.4,0,8.1,2.7,8.1,8.1V32.3z M161.3,32.3V20.6c0-1.8-0.9-2.7-2.7-2.7
			h-10.8c-1.8,0-2.7,0.9-2.7,2.7v11.7c0,1.8,0.9,2.7,2.7,2.7h10.8C160.4,35,161.3,34.1,161.3,32.3L161.3,32.3z M208.1,39.9h-6.9
			l-8.7-10.8h-6v10.8h-5.4v-27h5.4v10.8h6l8.7-10.8h6.9l-10.8,13.5L208.1,39.9z M248.2,18.3h-10.8v21.5H232V18.3h-10.8v-5.4h27V18.3
			z M289.5,32.3c0,5.4-2.7,8.1-8.1,8.1h-10.8c-5.4,0-8.1-2.7-8.1-8.1V20.6c0-5.4,2.7-8.1,8.1-8.1h10.8c5.4,0,8.1,2.7,8.1,8.1V32.3z
			 M284.2,32.3V20.6c0-1.8-0.9-2.7-2.7-2.7h-10.8c-1.8,0-2.7,0.9-2.7,2.7v11.7c0,1.8,0.9,2.7,2.7,2.7h10.8
			C283.3,35,284.2,34.1,284.2,32.3L284.2,32.3z M331,21v2.7c0,5.4-2.7,8.1-8.1,8.1h-13.5v8.1H304v-27h18.9
			C328.3,12.9,331,15.6,331,21L331,21z M325.5,21c0-1.8-0.9-2.7-2.7-2.7h-13.5v8.1h13.5c1.8,0,2.7-0.9,2.7-2.7V21z"/>
	</g>
</g>
</svg>
